{
    "asset": {
        "version": "2.0",
        "generator": "gltfpack 0.23"
    },
    "extensionsUsed": [
        "EXT_meshopt_compression"
    ],
    "buffers": [
        {
            "uri": "shoulder_lift.bin",
            "byteLength": 5992
        },
        {
            "uri": "shoulder_lift.fallback.bin",
            "byteLength": 11816,
            "extensions": {
                "EXT_meshopt_compression": {
                    "fallback": true
                }
            }
        }
    ],
    "bufferViews": [
        {
            "buffer": 1,
            "byteOffset": 0,
            "byteLength": 6024,
            "byteStride": 12,
            "target": 34962,
            "extensions": {
                "EXT_meshopt_compression": {
                    "buffer": 0,
                    "byteOffset": 0,
                    "byteLength": 4820,
                    "byteStride": 12,
                    "mode": "ATTRIBUTES",
                    "count": 502
                }
            }
        },
        {
            "buffer": 1,
            "byteOffset": 6024,
            "byteLength": 5790,
            "target": 34963,
            "extensions": {
                "EXT_meshopt_compression": {
                    "buffer": 0,
                    "byteOffset": 4820,
                    "byteLength": 1169,
                    "byteStride": 2,
                    "mode": "TRIANGLES",
                    "count": 2895
                }
            }
        }
    ],
    "accessors": [
        {
            "bufferView": 0,
            "byteOffset": 0,
            "componentType": 5126,
            "count": 502,
            "type": "VEC3",
            "min": [
                -0.127091318,
                -0.127000004,
                -0.0751085579
            ],
            "max": [
                0.121178664,
                0.127003074,
                0.0748923644
            ]
        },
        {
            "bufferView": 1,
            "byteOffset": 0,
            "componentType": 5123,
            "count": 2895,
            "type": "SCALAR"
        }
    ],
    "materials": [
        {
            "name": "default",
            "pbrMetallicRoughness": {
                "baseColorFactor": [
                    0.300000012,
                    0.300000012,
                    0.300000012,
                    1
                ],
                "metallicFactor": 0
            }
        }
    ],
    "meshes": [
        {
            "primitives": [
                {
                    "attributes": {
                        "POSITION": 0
                    },
                    "indices": 1,
                    "material": 0
                }
            ]
        }
    ],
    "nodes": [
        {
            "name": "Node",
            "mesh": 0
        }
    ],
    "scenes": [
        {
            "nodes": [
                0
            ]
        }
    ],
    "scene": 0
}