{
    "asset": {
        "version": "2.0",
        "generator": "gltfpack 0.23"
    },
    "extensionsUsed": [
        "EXT_meshopt_compression"
    ],
    "buffers": [
        {
            "uri": "shoulder_pan.bin",
            "byteLength": 6180
        },
        {
            "uri": "shoulder_pan.fallback.bin",
            "byteLength": 12024,
            "extensions": {
                "EXT_meshopt_compression": {
                    "fallback": true
                }
            }
        }
    ],
    "bufferViews": [
        {
            "buffer": 1,
            "byteOffset": 0,
            "byteLength": 6024,
            "byteStride": 12,
            "target": 34962,
            "extensions": {
                "EXT_meshopt_compression": {
                    "buffer": 0,
                    "byteOffset": 0,
                    "byteLength": 4969,
                    "byteStride": 12,
                    "mode": "ATTRIBUTES",
                    "count": 502
                }
            }
        },
        {
            "buffer": 1,
            "byteOffset": 6024,
            "byteLength": 6000,
            "target": 34963,
            "extensions": {
                "EXT_meshopt_compression": {
                    "buffer": 0,
                    "byteOffset": 4972,
                    "byteLength": 1205,
                    "byteStride": 2,
                    "mode": "TRIANGLES",
                    "count": 3000
                }
            }
        }
    ],
    "accessors": [
        {
            "bufferView": 0,
            "byteOffset": 0,
            "componentType": 5126,
            "count": 502,
            "type": "VEC3",
            "min": [
                -0.127118602,
                -0.491002083,
                -0.127185285
            ],
            "max": [
                0.226503223,
                0.141944081,
                0.127129629
            ]
        },
        {
            "bufferView": 1,
            "byteOffset": 0,
            "componentType": 5123,
            "count": 3000,
            "type": "SCALAR"
        }
    ],
    "materials": [
        {
            "name": "default",
            "pbrMetallicRoughness": {
                "baseColorFactor": [
                    0,
                    0,
                    0.5,
                    1
                ],
                "metallicFactor": 0
            }
        }
    ],
    "meshes": [
        {
            "primitives": [
                {
                    "attributes": {
                        "POSITION": 0
                    },
                    "indices": 1,
                    "material": 0
                }
            ]
        }
    ],
    "nodes": [
        {
            "name": "Node",
            "mesh": 0
        }
    ],
    "scenes": [
        {
            "nodes": [
                0
            ]
        }
    ],
    "scene": 0
}