{
	"asset":{
		"generator":"Khronos glTF Blender I/O v4.1.62",
		"version":"2.0"
	},
	"scene":0,
	"scenes":[
		{
			"name":"Scene",
			"nodes":[
				0
			]
		}
	],
	"nodes":[
		{
			"mesh":0,
			"name":"Node"
		}
	],
	"materials":[
		{
			"name":"default.003",
			"pbrMetallicRoughness":{
				"baseColorFactor":[
					0,
					0,
					0,
					1
				],
				"metallicFactor":0,
				"roughnessFactor":0.15000000596046448
			}
		}
	],
	"meshes":[
		{
			"name":"Node-Mesh.004",
			"primitives":[
				{
					"attributes":{
						"POSITION":0,
						"NORMAL":1
					},
					"indices":2,
					"material":0
				}
			]
		}
	],
	"accessors":[
		{
			"bufferView":0,
			"componentType":5126,
			"count":4182,
			"max":[
				0.04125000163912773,
				2.5258340507388474e-18,
				0.45124998688697815
			],
			"min":[
				-0.04125000163912773,
				-0.043000999838113785,
				-0.04125000163912773
			],
			"type":"VEC3"
		},
		{
			"bufferView":1,
			"componentType":5126,
			"count":4182,
			"type":"VEC3"
		},
		{
			"bufferView":2,
			"componentType":5123,
			"count":24648,
			"type":"SCALAR"
		}
	],
	"bufferViews":[
		{
			"buffer":0,
			"byteLength":50184,
			"byteOffset":0,
			"target":34962
		},
		{
			"buffer":0,
			"byteLength":50184,
			"byteOffset":50184,
			"target":34962
		},
		{
			"buffer":0,
			"byteLength":49296,
			"byteOffset":100368,
			"target":34963
		}
	],
	"buffers":[
		{
			"byteLength":149664,
			"uri":"arm.bin"
		}
	]
}
