{
	"asset":{
		"generator":"Khronos glTF Blender I/O v4.1.62",
		"version":"2.0"
	},
	"scene":0,
	"scenes":[
		{
			"name":"Scene",
			"nodes":[
				0
			]
		}
	],
	"nodes":[
		{
			"mesh":0,
			"name":"Node"
		}
	],
	"materials":[
		{
			"name":"default.003",
			"pbrMetallicRoughness":{
				"baseColorFactor":[
					0,
					0,
					0,
					1
				],
				"metallicFactor":0,
				"roughnessFactor":0.15000000596046448
			}
		}
	],
	"meshes":[
		{
			"name":"Node-Mesh.003",
			"primitives":[
				{
					"attributes":{
						"POSITION":0,
						"NORMAL":1
					},
					"indices":2,
					"material":0
				}
			]
		}
	],
	"accessors":[
		{
			"bufferView":0,
			"componentType":5126,
			"count":3296,
			"max":[
				0.04125000163912773,
				2.5239970893935203e-18,
				0.04125000163912773
			],
			"min":[
				-0.04125000163912773,
				-0.2461249977350235,
				-0.04361400008201599
			],
			"type":"VEC3"
		},
		{
			"bufferView":1,
			"componentType":5126,
			"count":3296,
			"type":"VEC3"
		},
		{
			"bufferView":2,
			"componentType":5123,
			"count":19260,
			"type":"SCALAR"
		}
	],
	"bufferViews":[
		{
			"buffer":0,
			"byteLength":39552,
			"byteOffset":0,
			"target":34962
		},
		{
			"buffer":0,
			"byteLength":39552,
			"byteOffset":39552,
			"target":34962
		},
		{
			"buffer":0,
			"byteLength":38520,
			"byteOffset":79104,
			"target":34963
		}
	],
	"buffers":[
		{
			"byteLength":117624,
			"uri":"arm_half_2.bin"
		}
	]
}
