{
	"asset":{
		"generator":"Khronos glTF Blender I/O v4.1.62",
		"version":"2.0"
	},
	"scene":0,
	"scenes":[
		{
			"name":"Scene",
			"nodes":[
				0
			]
		}
	],
	"nodes":[
		{
			"mesh":0,
			"name":"Node"
		}
	],
	"materials":[
		{
			"name":"default.007",
			"pbrMetallicRoughness":{
				"baseColorFactor":[
					0.5,
					0.5,
					0.5,
					1
				],
				"metallicFactor":0
			}
		}
	],
	"meshes":[
		{
			"name":"Node-Mesh.007",
			"primitives":[
				{
					"attributes":{
						"POSITION":0,
						"NORMAL":1
					},
					"indices":2,
					"material":0
				}
			]
		}
	],
	"accessors":[
		{
			"bufferView":0,
			"componentType":5126,
			"count":4382,
			"max":[
				0.04125000163912773,
				2.5258340507388474e-18,
				0.33125001192092896
			],
			"min":[
				-0.04125000163912773,
				-0.043845999985933304,
				-0.04125000163912773
			],
			"type":"VEC3"
		},
		{
			"bufferView":1,
			"componentType":5126,
			"count":4382,
			"type":"VEC3"
		},
		{
			"bufferView":2,
			"componentType":5123,
			"count":25848,
			"type":"SCALAR"
		}
	],
	"bufferViews":[
		{
			"buffer":0,
			"byteLength":52584,
			"byteOffset":0,
			"target":34962
		},
		{
			"buffer":0,
			"byteLength":52584,
			"byteOffset":52584,
			"target":34962
		},
		{
			"buffer":0,
			"byteLength":51696,
			"byteOffset":105168,
			"target":34963
		}
	],
	"buffers":[
		{
			"byteLength":156864,
			"uri":"arm_mico.bin"
		}
	]
}
