{
	"asset":{
		"generator":"Khronos glTF Blender I/O v4.1.62",
		"version":"2.0"
	},
	"scene":0,
	"scenes":[
		{
			"name":"Scene",
			"nodes":[
				0
			]
		}
	],
	"nodes":[
		{
			"mesh":0,
			"name":"Node"
		}
	],
	"materials":[
		{
			"name":"default.006",
			"pbrMetallicRoughness":{
				"baseColorFactor":[
					0,
					0,
					0,
					1
				],
				"metallicFactor":0,
				"roughnessFactor":0.15000000596046448
			}
		}
	],
	"meshes":[
		{
			"name":"Node-Mesh.006",
			"primitives":[
				{
					"attributes":{
						"POSITION":0,
						"NORMAL":1
					},
					"indices":2,
					"material":0
				}
			]
		}
	],
	"accessors":[
		{
			"bufferView":0,
			"componentType":5126,
			"count":9248,
			"max":[
				0.04125000163912773,
				0.15674999356269836,
				0.04125000163912773
			],
			"min":[
				-0.04125000163912773,
				-1.954842440831762e-18,
				-0.04125000163912773
			],
			"type":"VEC3"
		},
		{
			"bufferView":1,
			"componentType":5126,
			"count":9248,
			"type":"VEC3"
		},
		{
			"bufferView":2,
			"componentType":5123,
			"count":51204,
			"type":"SCALAR"
		}
	],
	"bufferViews":[
		{
			"buffer":0,
			"byteLength":110976,
			"byteOffset":0,
			"target":34962
		},
		{
			"buffer":0,
			"byteLength":110976,
			"byteOffset":110976,
			"target":34962
		},
		{
			"buffer":0,
			"byteLength":102408,
			"byteOffset":221952,
			"target":34963
		}
	],
	"buffers":[
		{
			"byteLength":324360,
			"uri":"base.bin"
		}
	]
}
