{
    "asset": {
        "version": "2.0",
        "generator": "gltfpack 0.23"
    },
    "extensionsUsed": [
        "EXT_meshopt_compression"
    ],
    "buffers": [
        {
            "uri": "base.bin",
            "byteLength": 187360
        },
        {
            "uri": "base.fallback.bin",
            "byteLength": 324360,
            "extensions": {
                "EXT_meshopt_compression": {
                    "fallback": true
                }
            }
        }
    ],
    "bufferViews": [
        {
            "buffer": 1,
            "byteOffset": 0,
            "byteLength": 110976,
            "byteStride": 12,
            "target": 34962,
            "extensions": {
                "EXT_meshopt_compression": {
                    "buffer": 0,
                    "byteOffset": 0,
                    "byteLength": 79185,
                    "byteStride": 12,
                    "mode": "ATTRIBUTES",
                    "count": 9248
                }
            }
        },
        {
            "buffer": 1,
            "byteOffset": 110976,
            "byteLength": 110976,
            "byteStride": 12,
            "target": 34962,
            "extensions": {
                "EXT_meshopt_compression": {
                    "buffer": 0,
                    "byteOffset": 79188,
                    "byteLength": 87983,
                    "byteStride": 12,
                    "mode": "ATTRIBUTES",
                    "count": 9248
                }
            }
        },
        {
            "buffer": 1,
            "byteOffset": 221952,
            "byteLength": 102408,
            "target": 34963,
            "extensions": {
                "EXT_meshopt_compression": {
                    "buffer": 0,
                    "byteOffset": 167172,
                    "byteLength": 20188,
                    "byteStride": 2,
                    "mode": "TRIANGLES",
                    "count": 51204
                }
            }
        }
    ],
    "accessors": [
        {
            "bufferView": 0,
            "byteOffset": 0,
            "componentType": 5126,
            "count": 9248,
            "type": "VEC3",
            "min": [
                -0.0412500016,
                -1.95484244e-18,
                -0.0412500016
            ],
            "max": [
                0.0412500016,
                0.156749994,
                0.0412500016
            ]
        },
        {
            "bufferView": 1,
            "byteOffset": 0,
            "componentType": 5126,
            "count": 9248,
            "type": "VEC3"
        },
        {
            "bufferView": 2,
            "byteOffset": 0,
            "componentType": 5123,
            "count": 51204,
            "type": "SCALAR"
        }
    ],
    "materials": [
        {
            "name": "default.006",
            "pbrMetallicRoughness": {
                "baseColorFactor": [
                    0,
                    0,
                    0,
                    1
                ],
                "metallicFactor": 0,
                "roughnessFactor": 0.150000006
            }
        }
    ],
    "meshes": [
        {
            "primitives": [
                {
                    "attributes": {
                        "POSITION": 0,
                        "NORMAL": 1
                    },
                    "indices": 2,
                    "material": 0
                }
            ]
        }
    ],
    "nodes": [
        {
            "name": "Node",
            "mesh": 0
        }
    ],
    "scenes": [
        {
            "name": "Scene",
            "nodes": [
                0
            ]
        }
    ],
    "scene": 0
}