{
  "accessors":[
		{
			"bufferView":0,
			"componentType":5126,
			"count":1888,
			"max":[
				0.05060200020670891,
				0.01147099956870079,
				0.021266000345349312
			],
			"min":[
				-0.0073449998162686825,
				-0.01147099956870079,
				-0.005222999956458807
			],
			"type":"VEC3"
		},
		{
			"bufferView":1,
			"componentType":5126,
			"count":1888,
			"type":"VEC3"
		},
		{
			"bufferView":2,
			"componentType":5123,
			"count":8130,
			"type":"SCALAR"
		}
	],
	"bufferViews":[
		{
			"buffer":0,
			"byteLength":22656,
			"byteOffset":0,
			"target":34962
		},
		{
			"buffer":0,
			"byteLength":22656,
			"byteOffset":22656,
			"target":34962
		},
		{
			"buffer":0,
			"byteLength":16260,
			"byteOffset":45312,
			"target":34963
		}
	],
	"buffers":[
		{
			"byteLength":61572,
			"uri":"finger_proximal.bin"
		}
	],
  "asset": {
    "generator": "obj2gltf",
    "version": "2.0"
  },
  "materials": [
    {
      "name": "default",
      "pbrMetallicRoughness": {
        "baseColorFactor": [
          0.1560783,
          0.1560783,
          0.1560783,
          1
        ],
        "metallicFactor": 0,
        "roughnessFactor": 0.6
      },
      "emissiveFactor": [
        0,
        0,
        0
      ],
      "alphaMode": "OPAQUE",
      "doubleSided": false
    }
  ],
  "meshes": [
    {
      "name": "Node-Mesh",
      "primitives": [
        {
          "attributes": {
            "POSITION": 0,
            "NORMAL": 1
          },
          "indices": 2,
          "material": 0,
          "mode": 4
        }
      ]
    }
  ],
  "nodes": [
    {
      "name": "Node",
      "mesh": 0
    }
  ],
  "scene": 0,
  "scenes": [
    {
      "nodes": [
        0
      ]
    }
  ]
}
