{
	"asset":{
		"generator":"Khronos glTF Blender I/O v4.1.62",
		"version":"2.0"
	},
	"scene":0,
	"scenes":[
		{
			"name":"Scene",
			"nodes":[
				0
			]
		}
	],
	"nodes":[
		{
			"mesh":0,
			"name":"Node"
		}
	],
	"materials":[
		{
			"name":"default.008",
			"pbrMetallicRoughness":{
				"baseColorFactor":[
					0.5,
					0.5,
					0.5,
					1
				],
				"metallicFactor":0
			}
		}
	],
	"meshes":[
		{
			"name":"Node-Mesh.008",
			"primitives":[
				{
					"attributes":{
						"POSITION":0,
						"NORMAL":1
					},
					"indices":2,
					"material":0
				}
			]
		}
	],
	"accessors":[
		{
			"bufferView":0,
			"componentType":5126,
			"count":3908,
			"max":[
				0.04125000163912773,
				0.022874999791383743,
				0.04125000163912773
			],
			"min":[
				-0.04125000163912773,
				-0.04295799881219864,
				-0.12312500178813934
			],
			"type":"VEC3"
		},
		{
			"bufferView":1,
			"componentType":5126,
			"count":3908,
			"type":"VEC3"
		},
		{
			"bufferView":2,
			"componentType":5123,
			"count":22896,
			"type":"SCALAR"
		}
	],
	"bufferViews":[
		{
			"buffer":0,
			"byteLength":46896,
			"byteOffset":0,
			"target":34962
		},
		{
			"buffer":0,
			"byteLength":46896,
			"byteOffset":46896,
			"target":34962
		},
		{
			"buffer":0,
			"byteLength":45792,
			"byteOffset":93792,
			"target":34963
		}
	],
	"buffers":[
		{
			"byteLength":139584,
			"uri":"forearm_mico.bin"
		}
	]
}
