{
	"asset":{
		"generator":"Khronos glTF Blender I/O v4.1.62",
		"version":"2.0"
	},
	"scene":0,
	"scenes":[
		{
			"name":"Scene",
			"nodes":[
				0
			]
		}
	],
	"nodes":[
		{
			"mesh":0,
			"name":"Node"
		}
	],
	"materials":[
		{
			"name":"default",
			"pbrMetallicRoughness":{
				"baseColorFactor":[
					0,
					0,
					0,
					1
				],
				"metallicFactor":0,
				"roughnessFactor":0.15000000596046448
			}
		}
	],
	"meshes":[
		{
			"name":"Node-Mesh",
			"primitives":[
				{
					"attributes":{
						"POSITION":0,
						"NORMAL":1
					},
					"indices":2,
					"material":0
				}
			]
		}
	],
	"accessors":[
		{
			"bufferView":0,
			"componentType":5126,
			"count":15271,
			"max":[
				0.046362001448869705,
				1.9234302570700607e-18,
				0.05083699896931648
			],
			"min":[
				-0.046362001448869705,
				-0.12100700289011002,
				-0.05425500124692917
			],
			"type":"VEC3"
		},
		{
			"bufferView":1,
			"componentType":5126,
			"count":15271,
			"type":"VEC3"
		},
		{
			"bufferView":2,
			"componentType":5123,
			"count":83724,
			"type":"SCALAR"
		}
	],
	"bufferViews":[
		{
			"buffer":0,
			"byteLength":183252,
			"byteOffset":0,
			"target":34962
		},
		{
			"buffer":0,
			"byteLength":183252,
			"byteOffset":183252,
			"target":34962
		},
		{
			"buffer":0,
			"byteLength":167448,
			"byteOffset":366504,
			"target":34963
		}
	],
	"buffers":[
		{
			"byteLength":533952,
			"uri":"hand_3finger.bin"
		}
	]
}
