{
	"asset":{
		"generator":"Khronos glTF Blender I/O v4.1.62",
		"version":"2.0"
	},
	"scene":0,
	"scenes":[
		{
			"name":"Scene",
			"nodes":[
				0
			]
		}
	],
	"nodes":[
		{
			"mesh":0,
			"name":"Node"
		}
	],
	"materials":[
		{
			"name":"default",
			"pbrMetallicRoughness":{
				"baseColorFactor":[
					0,
					0,
					0,
					1
				],
				"metallicFactor":0,
				"roughnessFactor":0.15000000596046448
			}
		}
	],
	"meshes":[
		{
			"name":"Node-Mesh.009",
			"primitives":[
				{
					"attributes":{
						"POSITION":0,
						"NORMAL":1
					},
					"indices":2,
					"material":0
				}
			]
		}
	],
	"accessors":[
		{
			"bufferView":0,
			"componentType":5126,
			"count":28873,
			"max":[
				0.03150000050663948,
				1.9275328661131706e-18,
				0.05426599830389023
			],
			"min":[
				-0.03150000050663948,
				-0.12039799988269806,
				-0.05426599830389023
			],
			"type":"VEC3"
		},
		{
			"bufferView":1,
			"componentType":5126,
			"count":28873,
			"type":"VEC3"
		},
		{
			"bufferView":2,
			"componentType":5123,
			"count":151356,
			"type":"SCALAR"
		}
	],
	"bufferViews":[
		{
			"buffer":0,
			"byteLength":346476,
			"byteOffset":0,
			"target":34962
		},
		{
			"buffer":0,
			"byteLength":346476,
			"byteOffset":346476,
			"target":34962
		},
		{
			"buffer":0,
			"byteLength":302712,
			"byteOffset":692952,
			"target":34963
		}
	],
	"buffers":[
		{
			"byteLength":995664,
			"uri":"hand_2finger.bin"
		}
	]
}
