{
    "asset": {
        "version": "2.0",
        "generator": "gltfpack 0.23"
    },
    "extensionsUsed": [
        "EXT_meshopt_compression"
    ],
    "buffers": [
        {
            "uri": "shoulder.bin",
            "byteLength": 87672
        },
        {
            "uri": "shoulder.fallback.bin",
            "byteLength": 149988,
            "extensions": {
                "EXT_meshopt_compression": {
                    "fallback": true
                }
            }
        }
    ],
    "bufferViews": [
        {
            "buffer": 1,
            "byteOffset": 0,
            "byteLength": 50388,
            "byteStride": 12,
            "target": 34962,
            "extensions": {
                "EXT_meshopt_compression": {
                    "buffer": 0,
                    "byteOffset": 0,
                    "byteLength": 37760,
                    "byteStride": 12,
                    "mode": "ATTRIBUTES",
                    "count": 4199
                }
            }
        },
        {
            "buffer": 1,
            "byteOffset": 50388,
            "byteLength": 50388,
            "byteStride": 12,
            "target": 34962,
            "extensions": {
                "EXT_meshopt_compression": {
                    "buffer": 0,
                    "byteOffset": 37760,
                    "byteLength": 40029,
                    "byteStride": 12,
                    "mode": "ATTRIBUTES",
                    "count": 4199
                }
            }
        },
        {
            "buffer": 1,
            "byteOffset": 100776,
            "byteLength": 49212,
            "target": 34963,
            "extensions": {
                "EXT_meshopt_compression": {
                    "buffer": 0,
                    "byteOffset": 77792,
                    "byteLength": 9880,
                    "byteStride": 2,
                    "mode": "TRIANGLES",
                    "count": 24606
                }
            }
        }
    ],
    "accessors": [
        {
            "bufferView": 0,
            "byteOffset": 0,
            "componentType": 5126,
            "count": 4199,
            "type": "VEC3",
            "min": [
                -0.0412500016,
                -0.159875005,
                -0.0412500016
            ],
            "max": [
                0.0412500016,
                2.52583405e-18,
                0.0413139984
            ]
        },
        {
            "bufferView": 1,
            "byteOffset": 0,
            "componentType": 5126,
            "count": 4199,
            "type": "VEC3"
        },
        {
            "bufferView": 2,
            "byteOffset": 0,
            "componentType": 5123,
            "count": 24606,
            "type": "SCALAR"
        }
    ],
    "materials": [
        {
            "name": "default.005",
            "pbrMetallicRoughness": {
                "baseColorFactor": [
                    0,
                    0,
                    0,
                    1
                ],
                "metallicFactor": 0,
                "roughnessFactor": 0.150000006
            }
        }
    ],
    "meshes": [
        {
            "primitives": [
                {
                    "attributes": {
                        "POSITION": 0,
                        "NORMAL": 1
                    },
                    "indices": 2,
                    "material": 0
                }
            ]
        }
    ],
    "nodes": [
        {
            "name": "Node",
            "mesh": 0
        }
    ],
    "scenes": [
        {
            "name": "Scene",
            "nodes": [
                0
            ]
        }
    ],
    "scene": 0
}