{
	"asset":{
		"generator":"Khronos glTF Blender I/O v4.1.62",
		"version":"2.0"
	},
	"scene":0,
	"scenes":[
		{
			"name":"Scene",
			"nodes":[
				0
			]
		}
	],
	"nodes":[
		{
			"mesh":0,
			"name":"Node"
		}
	],
	"materials":[
		{
			"name":"default",
			"pbrMetallicRoughness":{
				"baseColorFactor":[
					0,
					0,
					0,
					1
				],
				"metallicFactor":0,
				"roughnessFactor":0.15000000596046448
			}
		}
	],
	"meshes":[
		{
			"name":"Node-Mesh",
			"primitives":[
				{
					"attributes":{
						"POSITION":0,
						"NORMAL":1
					},
					"indices":2,
					"material":0
				}
			]
		}
	],
	"accessors":[
		{
			"bufferView":0,
			"componentType":5126,
			"count":3966,
			"max":[
				0.03150000050663948,
				0.03170299902558327,
				0.03150000050663948
			],
			"min":[
				-0.03150000050663948,
				-0.04741400107741356,
				-0.10362499952316284
			],
			"type":"VEC3"
		},
		{
			"bufferView":1,
			"componentType":5126,
			"count":3966,
			"type":"VEC3"
		},
		{
			"bufferView":2,
			"componentType":5123,
			"count":23238,
			"type":"SCALAR"
		}
	],
	"bufferViews":[
		{
			"buffer":0,
			"byteLength":47592,
			"byteOffset":0,
			"target":34962
		},
		{
			"buffer":0,
			"byteLength":47592,
			"byteOffset":47592,
			"target":34962
		},
		{
			"buffer":0,
			"byteLength":46476,
			"byteOffset":95184,
			"target":34963
		}
	],
	"buffers":[
		{
			"byteLength":141660,
			"uri":"wrist_spherical_2.bin"
		}
	]
}
