{
    "asset": {
        "version": "2.0",
        "generator": "gltfpack 0.23"
    },
    "extensionsUsed": [
        "EXT_meshopt_compression"
    ],
    "buffers": [
        {
            "uri": "wrist_spherical_1.bin",
            "byteLength": 83236
        },
        {
            "uri": "wrist_spherical_1.fallback.bin",
            "byteLength": 141660,
            "extensions": {
                "EXT_meshopt_compression": {
                    "fallback": true
                }
            }
        }
    ],
    "bufferViews": [
        {
            "buffer": 1,
            "byteOffset": 0,
            "byteLength": 47592,
            "byteStride": 12,
            "target": 34962,
            "extensions": {
                "EXT_meshopt_compression": {
                    "buffer": 0,
                    "byteOffset": 0,
                    "byteLength": 36128,
                    "byteStride": 12,
                    "mode": "ATTRIBUTES",
                    "count": 3966
                }
            }
        },
        {
            "buffer": 1,
            "byteOffset": 47592,
            "byteLength": 47592,
            "byteStride": 12,
            "target": 34962,
            "extensions": {
                "EXT_meshopt_compression": {
                    "buffer": 0,
                    "byteOffset": 36128,
                    "byteLength": 37827,
                    "byteStride": 12,
                    "mode": "ATTRIBUTES",
                    "count": 3966
                }
            }
        },
        {
            "buffer": 1,
            "byteOffset": 95184,
            "byteLength": 46476,
            "target": 34963,
            "extensions": {
                "EXT_meshopt_compression": {
                    "buffer": 0,
                    "byteOffset": 73956,
                    "byteLength": 9277,
                    "byteStride": 2,
                    "mode": "TRIANGLES",
                    "count": 23238
                }
            }
        }
    ],
    "accessors": [
        {
            "bufferView": 0,
            "byteOffset": 0,
            "componentType": 5126,
            "count": 3966,
            "type": "VEC3",
            "min": [
                -0.0315000005,
                -0.135124996,
                -0.0475389995
            ],
            "max": [
                0.0315000005,
                1.92765529e-18,
                0.0315780006
            ]
        },
        {
            "bufferView": 1,
            "byteOffset": 0,
            "componentType": 5126,
            "count": 3966,
            "type": "VEC3"
        },
        {
            "bufferView": 2,
            "byteOffset": 0,
            "componentType": 5123,
            "count": 23238,
            "type": "SCALAR"
        }
    ],
    "materials": [
        {
            "name": "default.001",
            "pbrMetallicRoughness": {
                "baseColorFactor": [
                    0,
                    0,
                    0,
                    1
                ],
                "metallicFactor": 0,
                "roughnessFactor": 0.150000006
            }
        }
    ],
    "meshes": [
        {
            "primitives": [
                {
                    "attributes": {
                        "POSITION": 0,
                        "NORMAL": 1
                    },
                    "indices": 2,
                    "material": 0
                }
            ]
        }
    ],
    "nodes": [
        {
            "name": "Node",
            "mesh": 0
        }
    ],
    "scenes": [
        {
            "name": "Scene",
            "nodes": [
                0
            ]
        }
    ],
    "scene": 0
}