{
    "asset": {
        "version": "2.0",
        "generator": "gltfpack 0.23"
    },
    "extensionsUsed": [
        "EXT_meshopt_compression"
    ],
    "buffers": [
        {
            "uri": "tilting_hokuyo.bin",
            "byteLength": 6108
        },
        {
            "uri": "tilting_hokuyo.fallback.bin",
            "byteLength": 12036,
            "extensions": {
                "EXT_meshopt_compression": {
                    "fallback": true
                }
            }
        }
    ],
    "bufferViews": [
        {
            "buffer": 1,
            "byteOffset": 0,
            "byteLength": 6048,
            "byteStride": 12,
            "target": 34962,
            "extensions": {
                "EXT_meshopt_compression": {
                    "buffer": 0,
                    "byteOffset": 0,
                    "byteLength": 4947,
                    "byteStride": 12,
                    "mode": "ATTRIBUTES",
                    "count": 504
                }
            }
        },
        {
            "buffer": 1,
            "byteOffset": 6048,
            "byteLength": 5988,
            "target": 34963,
            "extensions": {
                "EXT_meshopt_compression": {
                    "buffer": 0,
                    "byteOffset": 4948,
                    "byteLength": 1158,
                    "byteStride": 2,
                    "mode": "TRIANGLES",
                    "count": 2994
                }
            }
        }
    ],
    "accessors": [
        {
            "bufferView": 0,
            "byteOffset": 0,
            "componentType": 5126,
            "count": 504,
            "type": "VEC3",
            "min": [
                -0.0607231073,
                -0.0563193038,
                -0.0815000609
            ],
            "max": [
                0.0562973954,
                0.0638561025,
                0.0815002769
            ]
        },
        {
            "bufferView": 1,
            "byteOffset": 0,
            "componentType": 5123,
            "count": 2994,
            "type": "SCALAR"
        }
    ],
    "materials": [
        {
            "name": "default",
            "pbrMetallicRoughness": {
                "baseColorFactor": [
                    0.5,
                    0,
                    0,
                    1
                ],
                "metallicFactor": 0
            }
        }
    ],
    "meshes": [
        {
            "primitives": [
                {
                    "attributes": {
                        "POSITION": 0
                    },
                    "indices": 1,
                    "material": 0
                }
            ]
        }
    ],
    "nodes": [
        {
            "name": "Node",
            "mesh": 0
        }
    ],
    "scenes": [
        {
            "nodes": [
                0
            ]
        }
    ],
    "scene": 0
}