{
    "asset": {
        "version": "2.0",
        "generator": "gltfpack 0.23"
    },
    "extensionsUsed": [
        "EXT_meshopt_compression"
    ],
    "buffers": [
        {
            "uri": "curtain_open.bin",
            "byteLength": 129092
        },
        {
            "uri": "curtain_open.fallback.bin",
            "byteLength": 213056,
            "extensions": {
                "EXT_meshopt_compression": {
                    "fallback": true
                }
            }
        }
    ],
    "bufferViews": [
        {
            "buffer": 1,
            "byteOffset": 0,
            "byteLength": 59160,
            "byteStride": 12,
            "target": 34962,
            "extensions": {
                "EXT_meshopt_compression": {
                    "buffer": 0,
                    "byteOffset": 0,
                    "byteLength": 40626,
                    "byteStride": 12,
                    "mode": "ATTRIBUTES",
                    "count": 4930
                }
            }
        },
        {
            "buffer": 1,
            "byteOffset": 59160,
            "byteLength": 59160,
            "byteStride": 12,
            "target": 34962,
            "extensions": {
                "EXT_meshopt_compression": {
                    "buffer": 0,
                    "byteOffset": 40628,
                    "byteLength": 48391,
                    "byteStride": 12,
                    "mode": "ATTRIBUTES",
                    "count": 4930
                }
            }
        },
        {
            "buffer": 1,
            "byteOffset": 118320,
            "byteLength": 39440,
            "byteStride": 8,
            "target": 34962,
            "extensions": {
                "EXT_meshopt_compression": {
                    "buffer": 0,
                    "byteOffset": 89020,
                    "byteLength": 29529,
                    "byteStride": 8,
                    "mode": "ATTRIBUTES",
                    "count": 4930
                }
            }
        },
        {
            "buffer": 1,
            "byteOffset": 157760,
            "byteLength": 55296,
            "target": 34963,
            "extensions": {
                "EXT_meshopt_compression": {
                    "buffer": 0,
                    "byteOffset": 118552,
                    "byteLength": 10537,
                    "byteStride": 2,
                    "mode": "TRIANGLES",
                    "count": 27648
                }
            }
        }
    ],
    "accessors": [
        {
            "bufferView": 0,
            "byteOffset": 0,
            "componentType": 5126,
            "count": 4930,
            "type": "VEC3",
            "min": [
                -1.60384524,
                -2.82869864,
                2.8454926
            ],
            "max": [
                1.60384524,
                0,
                2.9989233
            ]
        },
        {
            "bufferView": 1,
            "byteOffset": 0,
            "componentType": 5126,
            "count": 4930,
            "type": "VEC3"
        },
        {
            "bufferView": 2,
            "byteOffset": 0,
            "componentType": 5126,
            "count": 4930,
            "type": "VEC2"
        },
        {
            "bufferView": 3,
            "byteOffset": 0,
            "componentType": 5123,
            "count": 27648,
            "type": "SCALAR"
        }
    ],
    "samplers": [
        {
            "magFilter": 9729,
            "minFilter": 9987
        }
    ],
    "images": [
        {
            "name": "curtain_normal",
            "uri": "textures/curtain_normal.png"
        },
        {
            "name": "curtain_diffuse",
            "uri": "textures/curtain_diffuse.png"
        }
    ],
    "textures": [
        {
            "sampler": 0,
            "source": 0
        },
        {
            "sampler": 0,
            "source": 1
        }
    ],
    "materials": [
        {
            "name": "curtain",
            "pbrMetallicRoughness": {
                "baseColorTexture": {
                    "index": 1
                },
                "metallicFactor": 0,
                "roughnessFactor": 0.949999988
            },
            "normalTexture": {
                "index": 0
            }
        }
    ],
    "meshes": [
        {
            "primitives": [
                {
                    "attributes": {
                        "POSITION": 0,
                        "NORMAL": 1,
                        "TEXCOORD_0": 2
                    },
                    "indices": 3,
                    "material": 0
                }
            ]
        }
    ],
    "nodes": [
        {
            "name": "curtain1",
            "translation": [
                0,
                2.96391606,
                0
            ],
            "mesh": 0
        }
    ],
    "scenes": [
        {
            "name": "Scene",
            "nodes": [
                0
            ]
        }
    ],
    "scene": 0
}