{
    "asset": {
        "version": "2.0",
        "generator": "gltfpack 0.23"
    },
    "extensionsUsed": [
        "EXT_meshopt_compression"
    ],
    "buffers": [
        {
            "uri": "living_room.bin",
            "byteLength": 50084
        },
        {
            "uri": "living_room.fallback.bin",
            "byteLength": 96696,
            "extensions": {
                "EXT_meshopt_compression": {
                    "fallback": true
                }
            }
        }
    ],
    "bufferViews": [
        {
            "buffer": 1,
            "byteOffset": 0,
            "byteLength": 39396,
            "byteStride": 12,
            "target": 34962,
            "extensions": {
                "EXT_meshopt_compression": {
                    "buffer": 0,
                    "byteOffset": 0,
                    "byteLength": 28698,
                    "byteStride": 12,
                    "mode": "ATTRIBUTES",
                    "count": 3283
                }
            }
        },
        {
            "buffer": 1,
            "byteOffset": 39396,
            "byteLength": 39396,
            "byteStride": 12,
            "target": 34962,
            "extensions": {
                "EXT_meshopt_compression": {
                    "buffer": 0,
                    "byteOffset": 28700,
                    "byteLength": 17515,
                    "byteStride": 12,
                    "mode": "ATTRIBUTES",
                    "count": 3283
                }
            }
        },
        {
            "buffer": 1,
            "byteOffset": 78792,
            "byteLength": 16872,
            "target": 34963,
            "extensions": {
                "EXT_meshopt_compression": {
                    "buffer": 0,
                    "byteOffset": 46216,
                    "byteLength": 3054,
                    "byteStride": 2,
                    "mode": "TRIANGLES",
                    "count": 8436
                }
            }
        },
        {
            "buffer": 1,
            "byteOffset": 95664,
            "byteLength": 1032,
            "byteStride": 8,
            "target": 34962,
            "extensions": {
                "EXT_meshopt_compression": {
                    "buffer": 0,
                    "byteOffset": 49272,
                    "byteLength": 811,
                    "byteStride": 8,
                    "mode": "ATTRIBUTES",
                    "count": 129
                }
            }
        }
    ],
    "accessors": [
        {
            "bufferView": 0,
            "byteOffset": 0,
            "componentType": 5126,
            "count": 257,
            "type": "VEC3",
            "min": [
                -0.999999046,
                -1,
                -1
            ],
            "max": [
                0.999999702,
                0,
                0.999999344
            ]
        },
        {
            "bufferView": 1,
            "byteOffset": 0,
            "componentType": 5126,
            "count": 257,
            "type": "VEC3"
        },
        {
            "bufferView": 2,
            "byteOffset": 0,
            "componentType": 5123,
            "count": 1440,
            "type": "SCALAR"
        },
        {
            "bufferView": 0,
            "byteOffset": 3084,
            "componentType": 5126,
            "count": 148,
            "type": "VEC3",
            "min": [
                0.538629055,
                -1.01151693,
                -23.9222527
            ],
            "max": [
                41.17202,
                1,
                16.7009926
            ]
        },
        {
            "bufferView": 1,
            "byteOffset": 3084,
            "componentType": 5126,
            "count": 148,
            "type": "VEC3"
        },
        {
            "bufferView": 2,
            "byteOffset": 2880,
            "componentType": 5123,
            "count": 372,
            "type": "SCALAR"
        },
        {
            "bufferView": 0,
            "byteOffset": 4860,
            "componentType": 5126,
            "count": 124,
            "type": "VEC3",
            "min": [
                0.400679708,
                -2.08616257e-07,
                -1
            ],
            "max": [
                1.12851691,
                5.98071718,
                1
            ]
        },
        {
            "bufferView": 1,
            "byteOffset": 4860,
            "componentType": 5126,
            "count": 124,
            "type": "VEC3"
        },
        {
            "bufferView": 3,
            "byteOffset": 0,
            "componentType": 5126,
            "count": 124,
            "type": "VEC2"
        },
        {
            "bufferView": 2,
            "byteOffset": 3624,
            "componentType": 5123,
            "count": 198,
            "type": "SCALAR"
        },
        {
            "bufferView": 0,
            "byteOffset": 6348,
            "componentType": 5126,
            "count": 577,
            "type": "VEC3",
            "min": [
                -1,
                -1,
                -1
            ],
            "max": [
                1,
                3.45092082,
                1
            ]
        },
        {
            "bufferView": 1,
            "byteOffset": 6348,
            "componentType": 5126,
            "count": 577,
            "type": "VEC3"
        },
        {
            "bufferView": 2,
            "byteOffset": 4020,
            "componentType": 5123,
            "count": 2682,
            "type": "SCALAR"
        },
        {
            "bufferView": 0,
            "byteOffset": 13272,
            "componentType": 5126,
            "count": 82,
            "type": "VEC3",
            "min": [
                -0.723740041,
                -1.00007653,
                -0.582885444
            ],
            "max": [
                0.723740041,
                1.81978917,
                13.0799675
            ]
        },
        {
            "bufferView": 1,
            "byteOffset": 13272,
            "componentType": 5126,
            "count": 82,
            "type": "VEC3"
        },
        {
            "bufferView": 2,
            "byteOffset": 9384,
            "componentType": 5123,
            "count": 228,
            "type": "SCALAR"
        },
        {
            "bufferView": 0,
            "byteOffset": 14256,
            "componentType": 5126,
            "count": 1536,
            "type": "VEC3",
            "min": [
                -1.96321678,
                -1.02583373,
                -1.96320117
            ],
            "max": [
                1.96320903,
                1.02583373,
                1.96322453
            ]
        },
        {
            "bufferView": 1,
            "byteOffset": 14256,
            "componentType": 5126,
            "count": 1536,
            "type": "VEC3"
        },
        {
            "bufferView": 2,
            "byteOffset": 9840,
            "componentType": 5123,
            "count": 2292,
            "type": "SCALAR"
        },
        {
            "bufferView": 0,
            "byteOffset": 32688,
            "componentType": 5126,
            "count": 72,
            "type": "VEC3",
            "min": [
                -0.45063588,
                -0.106492631,
                1.05629754
            ],
            "max": [
                0.45063588,
                0.726639926,
                1.05629754
            ]
        },
        {
            "bufferView": 1,
            "byteOffset": 32688,
            "componentType": 5126,
            "count": 72,
            "type": "VEC3"
        },
        {
            "bufferView": 2,
            "byteOffset": 14424,
            "componentType": 5123,
            "count": 108,
            "type": "SCALAR"
        },
        {
            "bufferView": 0,
            "byteOffset": 33552,
            "componentType": 5126,
            "count": 83,
            "type": "VEC3",
            "min": [
                -1,
                -1,
                -1
            ],
            "max": [
                1,
                1,
                1.04957807
            ]
        },
        {
            "bufferView": 1,
            "byteOffset": 33552,
            "componentType": 5126,
            "count": 83,
            "type": "VEC3"
        },
        {
            "bufferView": 2,
            "byteOffset": 14640,
            "componentType": 5123,
            "count": 201,
            "type": "SCALAR"
        },
        {
            "bufferView": 0,
            "byteOffset": 34548,
            "componentType": 5126,
            "count": 5,
            "type": "VEC3",
            "min": [
                -1,
                1,
                -1
            ],
            "max": [
                1,
                1,
                1
            ]
        },
        {
            "bufferView": 1,
            "byteOffset": 34548,
            "componentType": 5126,
            "count": 5,
            "type": "VEC3"
        },
        {
            "bufferView": 2,
            "byteOffset": 15042,
            "componentType": 5123,
            "count": 9,
            "type": "SCALAR"
        },
        {
            "bufferView": 0,
            "byteOffset": 34608,
            "componentType": 5126,
            "count": 5,
            "type": "VEC3",
            "min": [
                -1,
                -1,
                -1
            ],
            "max": [
                1,
                -1,
                1
            ]
        },
        {
            "bufferView": 1,
            "byteOffset": 34608,
            "componentType": 5126,
            "count": 5,
            "type": "VEC3"
        },
        {
            "bufferView": 3,
            "byteOffset": 992,
            "componentType": 5126,
            "count": 5,
            "type": "VEC2"
        },
        {
            "bufferView": 2,
            "byteOffset": 15060,
            "componentType": 5123,
            "count": 9,
            "type": "SCALAR"
        },
        {
            "bufferView": 0,
            "byteOffset": 34668,
            "componentType": 5126,
            "count": 394,
            "type": "VEC3",
            "min": [
                -0.486595273,
                -0.176521599,
                1.04957807
            ],
            "max": [
                0.486595273,
                0.796668947,
                1.05629754
            ]
        },
        {
            "bufferView": 1,
            "byteOffset": 34668,
            "componentType": 5126,
            "count": 394,
            "type": "VEC3"
        },
        {
            "bufferView": 2,
            "byteOffset": 15078,
            "componentType": 5123,
            "count": 897,
            "type": "SCALAR"
        }
    ],
    "samplers": [
        {
            "magFilter": 9729,
            "minFilter": 9987
        }
    ],
    "images": [
        {
            "name": "wood_table_worn_nor_gl_1k",
            "uri": "textures/wood_table_worn_nor_gl_1k.png"
        },
        {
            "name": "wood_table_worn_diff_1k",
            "uri": "textures/wood_table_worn_diff_1k.jpg"
        },
        {
            "name": "wood_table_worn_rough_1k",
            "uri": "textures/wood_table_worn_rough_1k.png"
        },
        {
            "name": "rosewood_veneer1_nor_gl_1k",
            "uri": "textures/rosewood_veneer1_nor_gl_1k.png"
        },
        {
            "name": "rosewood_veneer1_diff_1k",
            "uri": "textures/rosewood_veneer1_diff_1k.jpg"
        },
        {
            "name": "rosewood_veneer1_rough_1k",
            "uri": "textures/rosewood_veneer1_rough_1k.png"
        }
    ],
    "textures": [
        {
            "sampler": 0,
            "source": 0
        },
        {
            "sampler": 0,
            "source": 1
        },
        {
            "sampler": 0,
            "source": 2
        },
        {
            "sampler": 0,
            "source": 3
        },
        {
            "sampler": 0,
            "source": 4
        },
        {
            "sampler": 0,
            "source": 5
        }
    ],
    "materials": [
        {
            "name": "LightOff",
            "pbrMetallicRoughness": {
                "baseColorFactor": [
                    0.800000012,
                    0.77229619,
                    0.724444389,
                    1
                ],
                "metallicFactor": 0,
                "roughnessFactor": 0.879310369
            }
        },
        {
            "name": "BaseboardPaint",
            "pbrMetallicRoughness": {
                "baseColorFactor": [
                    0.574919701,
                    0.590165377,
                    0.800007463,
                    1
                ],
                "metallicFactor": 0,
                "roughnessFactor": 0.757053256
            }
        },
        {
            "name": "DoorMat",
            "pbrMetallicRoughness": {
                "baseColorTexture": {
                    "index": 1
                },
                "metallicFactor": 0,
                "metallicRoughnessTexture": {
                    "index": 2
                }
            },
            "normalTexture": {
                "index": 0
            }
        },
        {
            "name": "Brass",
            "pbrMetallicRoughness": {
                "baseColorFactor": [
                    0.608812809,
                    0.461560369,
                    0,
                    1
                ],
                "roughnessFactor": 0.147058815
            }
        },
        {
            "name": "Glass",
            "pbrMetallicRoughness": {
                "baseColorFactor": [
                    0.68900001,
                    0.958999991,
                    1,
                    1
                ],
                "roughnessFactor": 0.5
            },
            "emissiveFactor": [
                0.68900001,
                0.958999991,
                1
            ]
        },
        {
            "name": "Wall paint",
            "pbrMetallicRoughness": {
                "baseColorFactor": [
                    0.153344646,
                    0.192156866,
                    0.305697262,
                    1
                ],
                "metallicFactor": 0,
                "roughnessFactor": 0.5
            },
            "doubleSided": true
        },
        {
            "name": "Ceiling paint",
            "pbrMetallicRoughness": {
                "baseColorFactor": [
                    0.671111107,
                    0.671113431,
                    0.800000012,
                    1
                ],
                "metallicFactor": 0,
                "roughnessFactor": 0.5
            },
            "doubleSided": true
        },
        {
            "name": "Floor",
            "pbrMetallicRoughness": {
                "baseColorTexture": {
                    "index": 4
                },
                "metallicFactor": 0,
                "metallicRoughnessTexture": {
                    "index": 5
                }
            },
            "normalTexture": {
                "index": 3
            }
        },
        {
            "name": "window_frame",
            "pbrMetallicRoughness": {
                "baseColorFactor": [
                    0.688888907,
                    0.688888907,
                    0.688888907,
                    1
                ],
                "metallicFactor": 0,
                "roughnessFactor": 0.5
            },
            "doubleSided": true
        }
    ],
    "meshes": [
        {
            "primitives": [
                {
                    "attributes": {
                        "POSITION": 0,
                        "NORMAL": 1
                    },
                    "indices": 2,
                    "material": 0
                }
            ]
        },
        {
            "primitives": [
                {
                    "attributes": {
                        "POSITION": 3,
                        "NORMAL": 4
                    },
                    "indices": 5,
                    "material": 1
                }
            ]
        },
        {
            "primitives": [
                {
                    "attributes": {
                        "POSITION": 6,
                        "NORMAL": 7,
                        "TEXCOORD_0": 8
                    },
                    "indices": 9,
                    "material": 2
                }
            ]
        },
        {
            "primitives": [
                {
                    "attributes": {
                        "POSITION": 10,
                        "NORMAL": 11
                    },
                    "indices": 12,
                    "material": 3
                }
            ]
        },
        {
            "primitives": [
                {
                    "attributes": {
                        "POSITION": 13,
                        "NORMAL": 14
                    },
                    "indices": 15,
                    "material": 1
                }
            ]
        },
        {
            "primitives": [
                {
                    "attributes": {
                        "POSITION": 16,
                        "NORMAL": 17
                    },
                    "indices": 18,
                    "material": 3
                }
            ]
        },
        {
            "primitives": [
                {
                    "attributes": {
                        "POSITION": 19,
                        "NORMAL": 20
                    },
                    "indices": 21,
                    "material": 4
                },
                {
                    "attributes": {
                        "POSITION": 22,
                        "NORMAL": 23
                    },
                    "indices": 24,
                    "material": 5
                },
                {
                    "attributes": {
                        "POSITION": 25,
                        "NORMAL": 26
                    },
                    "indices": 27,
                    "material": 6
                },
                {
                    "attributes": {
                        "POSITION": 28,
                        "NORMAL": 29,
                        "TEXCOORD_0": 30
                    },
                    "indices": 31,
                    "material": 7
                },
                {
                    "attributes": {
                        "POSITION": 32,
                        "NORMAL": 33
                    },
                    "indices": 34,
                    "material": 8
                }
            ]
        }
    ],
    "nodes": [
        {
            "name": "light0.001",
            "translation": [
                1.00139785,
                3.20340657,
                -0.995507121
            ],
            "scale": [
                0.153731063,
                0.0614183471,
                0.153731063
            ],
            "mesh": 0
        },
        {
            "name": "light1.001",
            "translation": [
                -0.983726144,
                3.20340657,
                -0.977835417
            ],
            "scale": [
                0.153731063,
                0.0614183471,
                0.153731063
            ],
            "mesh": 0
        },
        {
            "name": "light2.001",
            "translation": [
                -1.00728846,
                3.20340657,
                1.0131793
            ],
            "scale": [
                0.153731063,
                0.0614183471,
                0.153731063
            ],
            "mesh": 0
        },
        {
            "name": "light3.001",
            "translation": [
                1.00139785,
                3.20340657,
                1.01906991
            ],
            "scale": [
                0.153731063,
                0.0614183471,
                0.153731063
            ],
            "mesh": 0
        },
        {
            "name": "base board",
            "translation": [
                -3.10465813,
                0.137840673,
                0.540723205
            ],
            "scale": [
                0.148889661,
                0.148889661,
                0.148889661
            ],
            "mesh": 1
        },
        {
            "name": "door",
            "translation": [
                -3.0575695,
                0.0338249803,
                -0.2709665
            ],
            "scale": [
                0.0799544156,
                0.454393148,
                0.550000012
            ],
            "mesh": 2
        },
        {
            "name": "door knob",
            "translation": [
                -2.99658561,
                1.4040246,
                -0.731858671
            ],
            "rotation": [
                0,
                0,
                -0.707106829,
                0.707106829
            ],
            "scale": [
                0.0686269328,
                0.0279748607,
                0.0686269328
            ],
            "mesh": 3
        },
        {
            "name": "door_frame",
            "translation": [
                -2.98183799,
                1.03136158,
                -0.935901701
            ],
            "scale": [
                0.0319323763,
                1.04404545,
                0.106749117
            ],
            "mesh": 4
        },
        {
            "name": "curtain_rod",
            "translation": [
                0.00523304194,
                2.90570688,
                2.92145324
            ],
            "rotation": [
                0,
                0,
                -0.707106829,
                0.707106829
            ],
            "scale": [
                0.011186799,
                1.70549953,
                0.011186799
            ],
            "mesh": 5
        },
        {
            "name": "walls",
            "translation": [
                0,
                1.60000002,
                0
            ],
            "scale": [
                3,
                1.60000002,
                3
            ],
            "mesh": 6
        }
    ],
    "scenes": [
        {
            "name": "Scene",
            "nodes": [
                0,
                1,
                2,
                3,
                4,
                5,
                6,
                7,
                8,
                9
            ]
        }
    ],
    "scene": 0
}