{
	"asset":{
		"generator":"Khronos glTF Blender I/O v4.4.55",
		"version":"2.0"
	},
	"scene":0,
	"scenes":[
		{
			"name":"Scene",
			"nodes":[
				0,
				1,
				2,
				3,
				4,
				5,
				6,
				7,
				8,
				9
			]
		}
	],
	"nodes":[
		{
			"mesh":0,
			"name":"light0.001",
			"scale":[
				0.1537310630083084,
				0.06141834706068039,
				0.1537310630083084
			],
			"translation":[
				1.0013978481292725,
				3.203406572341919,
				-0.9955071210861206
			]
		},
		{
			"mesh":1,
			"name":"light1.001",
			"scale":[
				0.1537310630083084,
				0.06141834706068039,
				0.1537310630083084
			],
			"translation":[
				-0.9837261438369751,
				3.203406572341919,
				-0.9778354167938232
			]
		},
		{
			"mesh":2,
			"name":"light2.001",
			"scale":[
				0.1537310630083084,
				0.06141834706068039,
				0.1537310630083084
			],
			"translation":[
				-1.0072884559631348,
				3.203406572341919,
				1.0131793022155762
			]
		},
		{
			"mesh":3,
			"name":"light3.001",
			"scale":[
				0.1537310630083084,
				0.06141834706068039,
				0.1537310630083084
			],
			"translation":[
				1.0013978481292725,
				3.203406572341919,
				1.0190699100494385
			]
		},
		{
			"mesh":4,
			"name":"base board",
			"scale":[
				0.1488896608352661,
				0.1488896608352661,
				0.1488896608352661
			],
			"translation":[
				-3.1046581268310547,
				0.13784067332744598,
				0.5407232046127319
			]
		},
		{
			"mesh":5,
			"name":"door",
			"scale":[
				0.07995441555976868,
				0.4543931484222412,
				0.550000011920929
			],
			"translation":[
				-3.0575695037841797,
				0.03382498025894165,
				-0.270966500043869
			]
		},
		{
			"mesh":6,
			"name":"door knob",
			"rotation":[
				0,
				0,
				-0.7071068286895752,
				0.7071068286895752
			],
			"scale":[
				0.06862693279981613,
				0.02797486074268818,
				0.06862693279981613
			],
			"translation":[
				-2.9965856075286865,
				1.404024600982666,
				-0.7318586707115173
			]
		},
		{
			"mesh":7,
			"name":"door_frame",
			"scale":[
				0.03193237632513046,
				1.0440454483032227,
				0.10674911737442017
			],
			"translation":[
				-2.9818379878997803,
				1.0313615798950195,
				-0.9359017014503479
			]
		},
		{
			"mesh":8,
			"name":"curtain_rod",
			"rotation":[
				0,
				0,
				-0.7071068286895752,
				0.7071068286895752
			],
			"scale":[
				0.01118679903447628,
				1.705499529838562,
				0.01118679903447628
			],
			"translation":[
				0.005233041942119598,
				2.9057068824768066,
				2.9214532375335693
			]
		},
		{
			"mesh":9,
			"name":"walls",
			"scale":[
				3,
				1.600000023841858,
				3
			],
			"translation":[
				0,
				1.600000023841858,
				0
			]
		}
	],
	"materials":[
		{
			"doubleSided":false,
			"name":"LightOff",
			"pbrMetallicRoughness":{
				"baseColorFactor":[
					0.800000011920929,
					0.7722961902618408,
					0.7244443893432617,
					1
				],
				"metallicFactor":0,
				"roughnessFactor":0.8793103694915771
			}
		},
		{
			"doubleSided":false,
			"name":"BaseboardPaint",
			"pbrMetallicRoughness":{
				"baseColorFactor":[
					0.5749197006225586,
					0.590165376663208,
					0.8000074625015259,
					1
				],
				"metallicFactor":0,
				"roughnessFactor":0.7570532560348511
			}
		},
		{
			"doubleSided":false,
			"name":"DoorMat",
			"normalTexture":{
				"index":0
			},
			"pbrMetallicRoughness":{
				"baseColorTexture":{
					"index":1
				},
				"metallicFactor":0,
				"metallicRoughnessTexture":{
					"index":2
				}
			}
		},
		{
			"doubleSided":false,
			"name":"Brass",
			"pbrMetallicRoughness":{
				"baseColorFactor":[
					0.6088128089904785,
					0.46156036853790283,
					0,
					1
				],
				"roughnessFactor":0.14705881476402283
			}
		},
		{
			"doubleSided":false,
			"name":"Glass",
			"emissiveFactor": [0.689, 0.959, 1.0],
			"pbrMetallicRoughness":{
				"baseColorFactor":[
					0.689,
					0.959,
					1.0,
					1
				],
				"roughnessFactor":0.5
			}
		},
		{
			"doubleSided":true,
			"name":"Wall paint",
			"pbrMetallicRoughness":{
				"baseColorFactor":[
					0.15334464609622955,
					0.1921568661928177,
					0.3056972622871399,
					1
				],
				"metallicFactor":0,
				"roughnessFactor":0.5
			}
		},
		{
			"doubleSided":true,
			"name":"Ceiling paint",
			"pbrMetallicRoughness":{
				"baseColorFactor":[
					0.6711111068725586,
					0.6711134314537048,
					0.800000011920929,
					1
				],
				"metallicFactor":0,
				"roughnessFactor":0.5
			}
		},
		{
			"doubleSided":false,
			"name":"Floor",
			"normalTexture":{
				"index":3
			},
			"pbrMetallicRoughness":{
				"baseColorTexture":{
					"index":4
				},
				"metallicFactor":0,
				"metallicRoughnessTexture":{
					"index":5
				}
			}
		},
		{
			"doubleSided":true,
			"name":"window_frame",
			"pbrMetallicRoughness":{
				"baseColorFactor":[
					0.6888889074325562,
					0.6888889074325562,
					0.6888889074325562,
					1
				],
				"metallicFactor":0,
				"roughnessFactor":0.5
			}
		}
	],
	"meshes":[
		{
			"name":"Sphere.004",
			"primitives":[
				{
					"attributes":{
						"POSITION":0,
						"NORMAL":1,
						"TEXCOORD_0":2
					},
					"indices":3,
					"material":0
				}
			]
		},
		{
			"name":"Sphere.005",
			"primitives":[
				{
					"attributes":{
						"POSITION":4,
						"NORMAL":5,
						"TEXCOORD_0":6
					},
					"indices":3,
					"material":0
				}
			]
		},
		{
			"name":"Sphere.006",
			"primitives":[
				{
					"attributes":{
						"POSITION":7,
						"NORMAL":8,
						"TEXCOORD_0":9
					},
					"indices":3,
					"material":0
				}
			]
		},
		{
			"name":"Sphere.007",
			"primitives":[
				{
					"attributes":{
						"POSITION":10,
						"NORMAL":11,
						"TEXCOORD_0":12
					},
					"indices":3,
					"material":0
				}
			]
		},
		{
			"name":"Cube.004",
			"primitives":[
				{
					"attributes":{
						"POSITION":13,
						"NORMAL":14,
						"TEXCOORD_0":15
					},
					"indices":16,
					"material":1
				}
			]
		},
		{
			"name":"Cube.003",
			"primitives":[
				{
					"attributes":{
						"POSITION":17,
						"NORMAL":18,
						"TEXCOORD_0":19
					},
					"indices":20,
					"material":2
				}
			]
		},
		{
			"name":"Cylinder",
			"primitives":[
				{
					"attributes":{
						"POSITION":21,
						"NORMAL":22,
						"TEXCOORD_0":23
					},
					"indices":24,
					"material":3
				}
			]
		},
		{
			"name":"Cube.008",
			"primitives":[
				{
					"attributes":{
						"POSITION":25,
						"NORMAL":26,
						"TEXCOORD_0":27
					},
					"indices":28,
					"material":1
				}
			]
		},
		{
			"name":"Cylinder.001",
			"primitives":[
				{
					"attributes":{
						"POSITION":29,
						"NORMAL":30,
						"TEXCOORD_0":31
					},
					"indices":32,
					"material":3
				}
			]
		},
		{
			"name":"Cube.001",
			"primitives":[
				{
					"attributes":{
						"POSITION":33,
						"NORMAL":34,
						"TEXCOORD_0":35
					},
					"indices":36,
					"material":4
				},
				{
					"attributes":{
						"POSITION":37,
						"NORMAL":38,
						"TEXCOORD_0":39
					},
					"indices":40,
					"material":5
				},
				{
					"attributes":{
						"POSITION":41,
						"NORMAL":42,
						"TEXCOORD_0":43
					},
					"indices":44,
					"material":6
				},
				{
					"attributes":{
						"POSITION":45,
						"NORMAL":46,
						"TEXCOORD_0":47
					},
					"indices":48,
					"material":7
				},
				{
					"attributes":{
						"POSITION":49,
						"NORMAL":50,
						"TEXCOORD_0":51
					},
					"indices":52,
					"material":8
				}
			]
		}
	],
	"textures":[
		{
			"sampler":0,
			"source":0
		},
		{
			"sampler":0,
			"source":1
		},
		{
			"sampler":0,
			"source":2
		},
		{
			"sampler":0,
			"source":3
		},
		{
			"sampler":0,
			"source":4
		},
		{
			"sampler":0,
			"source":5
		}
	],
	"images":[
		{
			"mimeType":"image/png",
			"name":"wood_table_worn_nor_gl_1k",
			"uri":"textures/wood_table_worn_nor_gl_1k.png"
		},
		{
			"mimeType":"image/jpeg",
			"name":"wood_table_worn_diff_1k",
			"uri":"textures/wood_table_worn_diff_1k.jpg"
		},
		{
			"mimeType":"image/png",
			"name":"wood_table_worn_rough_1k",
			"uri":"textures/wood_table_worn_rough_1k.png"
		},
		{
			"mimeType":"image/png",
			"name":"rosewood_veneer1_nor_gl_1k",
			"uri":"textures/rosewood_veneer1_nor_gl_1k.png"
		},
		{
			"mimeType":"image/jpeg",
			"name":"rosewood_veneer1_diff_1k",
			"uri":"textures/rosewood_veneer1_diff_1k.jpg"
		},
		{
			"mimeType":"image/png",
			"name":"rosewood_veneer1_rough_1k",
			"uri":"textures/rosewood_veneer1_rough_1k.png"
		}
	],
	"accessors":[
		{
			"bufferView":0,
			"componentType":5126,
			"count":296,
			"max":[
				0.9999997019767761,
				0,
				0.9999993443489075
			],
			"min":[
				-0.9999990463256836,
				-1,
				-1
			],
			"type":"VEC3"
		},
		{
			"bufferView":1,
			"componentType":5126,
			"count":296,
			"type":"VEC3"
		},
		{
			"bufferView":2,
			"componentType":5126,
			"count":296,
			"type":"VEC2"
		},
		{
			"bufferView":3,
			"componentType":5123,
			"count":1440,
			"type":"SCALAR"
		},
		{
			"bufferView":4,
			"componentType":5126,
			"count":296,
			"max":[
				0.9999997019767761,
				0,
				0.9999993443489075
			],
			"min":[
				-0.9999990463256836,
				-1,
				-1
			],
			"type":"VEC3"
		},
		{
			"bufferView":5,
			"componentType":5126,
			"count":296,
			"type":"VEC3"
		},
		{
			"bufferView":6,
			"componentType":5126,
			"count":296,
			"type":"VEC2"
		},
		{
			"bufferView":7,
			"componentType":5126,
			"count":296,
			"max":[
				0.9999997019767761,
				0,
				0.9999993443489075
			],
			"min":[
				-0.9999990463256836,
				-1,
				-1
			],
			"type":"VEC3"
		},
		{
			"bufferView":8,
			"componentType":5126,
			"count":296,
			"type":"VEC3"
		},
		{
			"bufferView":9,
			"componentType":5126,
			"count":296,
			"type":"VEC2"
		},
		{
			"bufferView":10,
			"componentType":5126,
			"count":296,
			"max":[
				0.9999997019767761,
				0,
				0.9999993443489075
			],
			"min":[
				-0.9999990463256836,
				-1,
				-1
			],
			"type":"VEC3"
		},
		{
			"bufferView":11,
			"componentType":5126,
			"count":296,
			"type":"VEC3"
		},
		{
			"bufferView":12,
			"componentType":5126,
			"count":296,
			"type":"VEC2"
		},
		{
			"bufferView":13,
			"componentType":5126,
			"count":148,
			"max":[
				41.172019958496094,
				1,
				16.700992584228516
			],
			"min":[
				0.5386290550231934,
				-1.0115169286727905,
				-23.922252655029297
			],
			"type":"VEC3"
		},
		{
			"bufferView":14,
			"componentType":5126,
			"count":148,
			"type":"VEC3"
		},
		{
			"bufferView":15,
			"componentType":5126,
			"count":148,
			"type":"VEC2"
		},
		{
			"bufferView":16,
			"componentType":5123,
			"count":372,
			"type":"SCALAR"
		},
		{
			"bufferView":17,
			"componentType":5126,
			"count":124,
			"max":[
				1.1285169124603271,
				5.980717182159424,
				1
			],
			"min":[
				0.40067970752716064,
				-2.086162567138672e-07,
				-1
			],
			"type":"VEC3"
		},
		{
			"bufferView":18,
			"componentType":5126,
			"count":124,
			"type":"VEC3"
		},
		{
			"bufferView":19,
			"componentType":5126,
			"count":124,
			"type":"VEC2"
		},
		{
			"bufferView":20,
			"componentType":5123,
			"count":198,
			"type":"SCALAR"
		},
		{
			"bufferView":21,
			"componentType":5126,
			"count":727,
			"max":[
				1,
				3.450920820236206,
				1
			],
			"min":[
				-1,
				-1,
				-1
			],
			"type":"VEC3"
		},
		{
			"bufferView":22,
			"componentType":5126,
			"count":727,
			"type":"VEC3"
		},
		{
			"bufferView":23,
			"componentType":5126,
			"count":727,
			"type":"VEC2"
		},
		{
			"bufferView":24,
			"componentType":5123,
			"count":2682,
			"type":"SCALAR"
		},
		{
			"bufferView":25,
			"componentType":5126,
			"count":86,
			"max":[
				0.7237400412559509,
				1.819789171218872,
				13.079967498779297
			],
			"min":[
				-0.7237400412559509,
				-1.0000765323638916,
				-0.5828854441642761
			],
			"type":"VEC3"
		},
		{
			"bufferView":26,
			"componentType":5126,
			"count":86,
			"type":"VEC3"
		},
		{
			"bufferView":27,
			"componentType":5126,
			"count":86,
			"type":"VEC2"
		},
		{
			"bufferView":28,
			"componentType":5123,
			"count":228,
			"type":"SCALAR"
		},
		{
			"bufferView":29,
			"componentType":5126,
			"count":1536,
			"max":[
				1.9632090330123901,
				1.0258337259292603,
				1.9632245302200317
			],
			"min":[
				-1.963216781616211,
				-1.0258337259292603,
				-1.9632011651992798
			],
			"type":"VEC3"
		},
		{
			"bufferView":30,
			"componentType":5126,
			"count":1536,
			"type":"VEC3"
		},
		{
			"bufferView":31,
			"componentType":5126,
			"count":1536,
			"type":"VEC2"
		},
		{
			"bufferView":32,
			"componentType":5123,
			"count":2292,
			"type":"SCALAR"
		},
		{
			"bufferView":33,
			"componentType":5126,
			"count":72,
			"max":[
				0.4506358802318573,
				0.7266399264335632,
				1.0562975406646729
			],
			"min":[
				-0.4506358802318573,
				-0.10649263113737106,
				1.0562975406646729
			],
			"type":"VEC3"
		},
		{
			"bufferView":34,
			"componentType":5126,
			"count":72,
			"type":"VEC3"
		},
		{
			"bufferView":35,
			"componentType":5126,
			"count":72,
			"type":"VEC2"
		},
		{
			"bufferView":36,
			"componentType":5123,
			"count":108,
			"type":"SCALAR"
		},
		{
			"bufferView":37,
			"componentType":5126,
			"count":83,
			"max":[
				1,
				1,
				1.049578070640564
			],
			"min":[
				-1,
				-1,
				-1
			],
			"type":"VEC3"
		},
		{
			"bufferView":38,
			"componentType":5126,
			"count":83,
			"type":"VEC3"
		},
		{
			"bufferView":39,
			"componentType":5126,
			"count":83,
			"type":"VEC2"
		},
		{
			"bufferView":40,
			"componentType":5123,
			"count":201,
			"type":"SCALAR"
		},
		{
			"bufferView":41,
			"componentType":5126,
			"count":5,
			"max":[
				1,
				1,
				1
			],
			"min":[
				-1,
				1,
				-1
			],
			"type":"VEC3"
		},
		{
			"bufferView":42,
			"componentType":5126,
			"count":5,
			"type":"VEC3"
		},
		{
			"bufferView":43,
			"componentType":5126,
			"count":5,
			"type":"VEC2"
		},
		{
			"bufferView":44,
			"componentType":5123,
			"count":9,
			"type":"SCALAR"
		},
		{
			"bufferView":45,
			"componentType":5126,
			"count":5,
			"max":[
				1,
				-1,
				1
			],
			"min":[
				-1,
				-1,
				-1
			],
			"type":"VEC3"
		},
		{
			"bufferView":46,
			"componentType":5126,
			"count":5,
			"type":"VEC3"
		},
		{
			"bufferView":47,
			"componentType":5126,
			"count":5,
			"type":"VEC2"
		},
		{
			"bufferView":48,
			"componentType":5123,
			"count":9,
			"type":"SCALAR"
		},
		{
			"bufferView":49,
			"componentType":5126,
			"count":427,
			"max":[
				0.4865952730178833,
				0.7966689467430115,
				1.0562975406646729
			],
			"min":[
				-0.4865952730178833,
				-0.17652159929275513,
				1.049578070640564
			],
			"type":"VEC3"
		},
		{
			"bufferView":50,
			"componentType":5126,
			"count":427,
			"type":"VEC3"
		},
		{
			"bufferView":51,
			"componentType":5126,
			"count":427,
			"type":"VEC2"
		},
		{
			"bufferView":52,
			"componentType":5123,
			"count":897,
			"type":"SCALAR"
		}
	],
	"bufferViews":[
		{
			"buffer":0,
			"byteLength":3552,
			"byteOffset":0,
			"target":34962
		},
		{
			"buffer":0,
			"byteLength":3552,
			"byteOffset":3552,
			"target":34962
		},
		{
			"buffer":0,
			"byteLength":2368,
			"byteOffset":7104,
			"target":34962
		},
		{
			"buffer":0,
			"byteLength":2880,
			"byteOffset":9472,
			"target":34963
		},
		{
			"buffer":0,
			"byteLength":3552,
			"byteOffset":12352,
			"target":34962
		},
		{
			"buffer":0,
			"byteLength":3552,
			"byteOffset":15904,
			"target":34962
		},
		{
			"buffer":0,
			"byteLength":2368,
			"byteOffset":19456,
			"target":34962
		},
		{
			"buffer":0,
			"byteLength":3552,
			"byteOffset":21824,
			"target":34962
		},
		{
			"buffer":0,
			"byteLength":3552,
			"byteOffset":25376,
			"target":34962
		},
		{
			"buffer":0,
			"byteLength":2368,
			"byteOffset":28928,
			"target":34962
		},
		{
			"buffer":0,
			"byteLength":3552,
			"byteOffset":31296,
			"target":34962
		},
		{
			"buffer":0,
			"byteLength":3552,
			"byteOffset":34848,
			"target":34962
		},
		{
			"buffer":0,
			"byteLength":2368,
			"byteOffset":38400,
			"target":34962
		},
		{
			"buffer":0,
			"byteLength":1776,
			"byteOffset":40768,
			"target":34962
		},
		{
			"buffer":0,
			"byteLength":1776,
			"byteOffset":42544,
			"target":34962
		},
		{
			"buffer":0,
			"byteLength":1184,
			"byteOffset":44320,
			"target":34962
		},
		{
			"buffer":0,
			"byteLength":744,
			"byteOffset":45504,
			"target":34963
		},
		{
			"buffer":0,
			"byteLength":1488,
			"byteOffset":46248,
			"target":34962
		},
		{
			"buffer":0,
			"byteLength":1488,
			"byteOffset":47736,
			"target":34962
		},
		{
			"buffer":0,
			"byteLength":992,
			"byteOffset":49224,
			"target":34962
		},
		{
			"buffer":0,
			"byteLength":396,
			"byteOffset":50216,
			"target":34963
		},
		{
			"buffer":0,
			"byteLength":8724,
			"byteOffset":50612,
			"target":34962
		},
		{
			"buffer":0,
			"byteLength":8724,
			"byteOffset":59336,
			"target":34962
		},
		{
			"buffer":0,
			"byteLength":5816,
			"byteOffset":68060,
			"target":34962
		},
		{
			"buffer":0,
			"byteLength":5364,
			"byteOffset":73876,
			"target":34963
		},
		{
			"buffer":0,
			"byteLength":1032,
			"byteOffset":79240,
			"target":34962
		},
		{
			"buffer":0,
			"byteLength":1032,
			"byteOffset":80272,
			"target":34962
		},
		{
			"buffer":0,
			"byteLength":688,
			"byteOffset":81304,
			"target":34962
		},
		{
			"buffer":0,
			"byteLength":456,
			"byteOffset":81992,
			"target":34963
		},
		{
			"buffer":0,
			"byteLength":18432,
			"byteOffset":82448,
			"target":34962
		},
		{
			"buffer":0,
			"byteLength":18432,
			"byteOffset":100880,
			"target":34962
		},
		{
			"buffer":0,
			"byteLength":12288,
			"byteOffset":119312,
			"target":34962
		},
		{
			"buffer":0,
			"byteLength":4584,
			"byteOffset":131600,
			"target":34963
		},
		{
			"buffer":0,
			"byteLength":864,
			"byteOffset":136184,
			"target":34962
		},
		{
			"buffer":0,
			"byteLength":864,
			"byteOffset":137048,
			"target":34962
		},
		{
			"buffer":0,
			"byteLength":576,
			"byteOffset":137912,
			"target":34962
		},
		{
			"buffer":0,
			"byteLength":216,
			"byteOffset":138488,
			"target":34963
		},
		{
			"buffer":0,
			"byteLength":996,
			"byteOffset":138704,
			"target":34962
		},
		{
			"buffer":0,
			"byteLength":996,
			"byteOffset":139700,
			"target":34962
		},
		{
			"buffer":0,
			"byteLength":664,
			"byteOffset":140696,
			"target":34962
		},
		{
			"buffer":0,
			"byteLength":402,
			"byteOffset":141360,
			"target":34963
		},
		{
			"buffer":0,
			"byteLength":60,
			"byteOffset":141764,
			"target":34962
		},
		{
			"buffer":0,
			"byteLength":60,
			"byteOffset":141824,
			"target":34962
		},
		{
			"buffer":0,
			"byteLength":40,
			"byteOffset":141884,
			"target":34962
		},
		{
			"buffer":0,
			"byteLength":18,
			"byteOffset":141924,
			"target":34963
		},
		{
			"buffer":0,
			"byteLength":60,
			"byteOffset":141944,
			"target":34962
		},
		{
			"buffer":0,
			"byteLength":60,
			"byteOffset":142004,
			"target":34962
		},
		{
			"buffer":0,
			"byteLength":40,
			"byteOffset":142064,
			"target":34962
		},
		{
			"buffer":0,
			"byteLength":18,
			"byteOffset":142104,
			"target":34963
		},
		{
			"buffer":0,
			"byteLength":5124,
			"byteOffset":142124,
			"target":34962
		},
		{
			"buffer":0,
			"byteLength":5124,
			"byteOffset":147248,
			"target":34962
		},
		{
			"buffer":0,
			"byteLength":3416,
			"byteOffset":152372,
			"target":34962
		},
		{
			"buffer":0,
			"byteLength":1794,
			"byteOffset":155788,
			"target":34963
		}
	],
	"samplers":[
		{
			"magFilter":9729,
			"minFilter":9987
		}
	],
	"buffers":[
		{
			"byteLength":157584,
			"uri":"living_room.bin"
		}
	]
}
