{
    "asset": {
        "version": "2.0",
        "generator": "gltfpack 0.23"
    },
    "extensionsUsed": [
        "EXT_meshopt_compression"
    ],
    "buffers": [
        {
            "uri": "painted_wooden_stool_1k.bin",
            "byteLength": 15504
        },
        {
            "uri": "painted_wooden_stool_1k.fallback.bin",
            "byteLength": 23384,
            "extensions": {
                "EXT_meshopt_compression": {
                    "fallback": true
                }
            }
        }
    ],
    "bufferViews": [
        {
            "buffer": 1,
            "byteOffset": 0,
            "byteLength": 7248,
            "byteStride": 12,
            "target": 34962,
            "extensions": {
                "EXT_meshopt_compression": {
                    "buffer": 0,
                    "byteOffset": 0,
                    "byteLength": 5501,
                    "byteStride": 12,
                    "mode": "ATTRIBUTES",
                    "count": 604
                }
            }
        },
        {
            "buffer": 1,
            "byteOffset": 7248,
            "byteLength": 7248,
            "byteStride": 12,
            "target": 34962,
            "extensions": {
                "EXT_meshopt_compression": {
                    "buffer": 0,
                    "byteOffset": 5504,
                    "byteLength": 5536,
                    "byteStride": 12,
                    "mode": "ATTRIBUTES",
                    "count": 604
                }
            }
        },
        {
            "buffer": 1,
            "byteOffset": 14496,
            "byteLength": 4832,
            "byteStride": 8,
            "target": 34962,
            "extensions": {
                "EXT_meshopt_compression": {
                    "buffer": 0,
                    "byteOffset": 11040,
                    "byteLength": 3709,
                    "byteStride": 8,
                    "mode": "ATTRIBUTES",
                    "count": 604
                }
            }
        },
        {
            "buffer": 1,
            "byteOffset": 19328,
            "byteLength": 4056,
            "target": 34963,
            "extensions": {
                "EXT_meshopt_compression": {
                    "buffer": 0,
                    "byteOffset": 14752,
                    "byteLength": 752,
                    "byteStride": 2,
                    "mode": "TRIANGLES",
                    "count": 2028
                }
            }
        }
    ],
    "accessors": [
        {
            "bufferView": 0,
            "byteOffset": 0,
            "componentType": 5126,
            "count": 604,
            "type": "VEC3",
            "min": [
                -0.187479571,
                -0.000989402994,
                -0.189805254
            ],
            "max": [
                0.197357863,
                0.577925682,
                0.216269046
            ]
        },
        {
            "bufferView": 1,
            "byteOffset": 0,
            "componentType": 5126,
            "count": 604,
            "type": "VEC3"
        },
        {
            "bufferView": 2,
            "byteOffset": 0,
            "componentType": 5126,
            "count": 604,
            "type": "VEC2"
        },
        {
            "bufferView": 3,
            "byteOffset": 0,
            "componentType": 5123,
            "count": 2028,
            "type": "SCALAR"
        }
    ],
    "samplers": [
        {
            "magFilter": 9729,
            "minFilter": 9987
        }
    ],
    "images": [
        {
            "name": "painted_wooden_stool_nor_gl.png",
            "uri": "textures/painted_wooden_stool_nor_gl_1k.jpg"
        },
        {
            "name": "painted_wooden_stool_diff.png",
            "uri": "textures/painted_wooden_stool_diff_1k.jpg"
        },
        {
            "name": "painted_wooden_stool_rough.png",
            "uri": "textures/painted_wooden_stool_arm_1k.jpg"
        }
    ],
    "textures": [
        {
            "sampler": 0,
            "source": 0
        },
        {
            "sampler": 0,
            "source": 1
        },
        {
            "sampler": 0,
            "source": 2
        }
    ],
    "materials": [
        {
            "name": "painted_wooden_stool",
            "pbrMetallicRoughness": {
                "baseColorTexture": {
                    "index": 1
                },
                "metallicFactor": 0,
                "metallicRoughnessTexture": {
                    "index": 2
                }
            },
            "normalTexture": {
                "index": 0
            },
            "doubleSided": true
        }
    ],
    "meshes": [
        {
            "primitives": [
                {
                    "attributes": {
                        "POSITION": 0,
                        "NORMAL": 1,
                        "TEXCOORD_0": 2
                    },
                    "indices": 3,
                    "material": 0
                }
            ]
        }
    ],
    "nodes": [
        {
            "name": "painted_wooden_stool",
            "mesh": 0
        }
    ],
    "scenes": [
        {
            "name": "Scene",
            "nodes": [
                0
            ]
        }
    ],
    "scene": 0
}