{
    "asset": {
        "version": "2.0",
        "generator": "gltfpack 0.23"
    },
    "extensionsUsed": [
        "EXT_meshopt_compression"
    ],
    "buffers": [
        {
            "uri": "painted_wooden_cabinet_1k.bin",
            "byteLength": 47996
        },
        {
            "uri": "painted_wooden_cabinet_1k.fallback.bin",
            "byteLength": 78068,
            "extensions": {
                "EXT_meshopt_compression": {
                    "fallback": true
                }
            }
        }
    ],
    "bufferViews": [
        {
            "buffer": 1,
            "byteOffset": 0,
            "byteLength": 24264,
            "byteStride": 12,
            "target": 34962,
            "extensions": {
                "EXT_meshopt_compression": {
                    "buffer": 0,
                    "byteOffset": 0,
                    "byteLength": 17190,
                    "byteStride": 12,
                    "mode": "ATTRIBUTES",
                    "count": 2022
                }
            }
        },
        {
            "buffer": 1,
            "byteOffset": 24264,
            "byteLength": 24264,
            "byteStride": 12,
            "target": 34962,
            "extensions": {
                "EXT_meshopt_compression": {
                    "buffer": 0,
                    "byteOffset": 17192,
                    "byteLength": 16478,
                    "byteStride": 12,
                    "mode": "ATTRIBUTES",
                    "count": 2022
                }
            }
        },
        {
            "buffer": 1,
            "byteOffset": 48528,
            "byteLength": 16176,
            "byteStride": 8,
            "target": 34962,
            "extensions": {
                "EXT_meshopt_compression": {
                    "buffer": 0,
                    "byteOffset": 33672,
                    "byteLength": 11949,
                    "byteStride": 8,
                    "mode": "ATTRIBUTES",
                    "count": 2022
                }
            }
        },
        {
            "buffer": 1,
            "byteOffset": 64704,
            "byteLength": 13362,
            "target": 34963,
            "extensions": {
                "EXT_meshopt_compression": {
                    "buffer": 0,
                    "byteOffset": 45624,
                    "byteLength": 2370,
                    "byteStride": 2,
                    "mode": "TRIANGLES",
                    "count": 6681
                }
            }
        }
    ],
    "accessors": [
        {
            "bufferView": 0,
            "byteOffset": 0,
            "componentType": 5126,
            "count": 1033,
            "type": "VEC3",
            "min": [
                -0.594704807,
                -0.000370867667,
                -0.282392383
            ],
            "max": [
                0.599969745,
                1.18149889,
                0.264085472
            ]
        },
        {
            "bufferView": 1,
            "byteOffset": 0,
            "componentType": 5126,
            "count": 1033,
            "type": "VEC3"
        },
        {
            "bufferView": 2,
            "byteOffset": 0,
            "componentType": 5126,
            "count": 1033,
            "type": "VEC2"
        },
        {
            "bufferView": 3,
            "byteOffset": 0,
            "componentType": 5123,
            "count": 3279,
            "type": "SCALAR"
        },
        {
            "bufferView": 0,
            "byteOffset": 12396,
            "componentType": 5126,
            "count": 317,
            "type": "VEC3",
            "min": [
                -0.563109219,
                -0.37942636,
                -0.00262477994
            ],
            "max": [
                -0.003934443,
                0.346222699,
                0.0497470498
            ]
        },
        {
            "bufferView": 1,
            "byteOffset": 12396,
            "componentType": 5126,
            "count": 317,
            "type": "VEC3"
        },
        {
            "bufferView": 2,
            "byteOffset": 8264,
            "componentType": 5126,
            "count": 317,
            "type": "VEC2"
        },
        {
            "bufferView": 3,
            "byteOffset": 6558,
            "componentType": 5123,
            "count": 1212,
            "type": "SCALAR"
        },
        {
            "bufferView": 0,
            "byteOffset": 16200,
            "componentType": 5126,
            "count": 106,
            "type": "VEC3",
            "min": [
                0.00491344929,
                -0.378454059,
                -0.00262477994
            ],
            "max": [
                0.570731878,
                0.34719497,
                0.0215499699
            ]
        },
        {
            "bufferView": 1,
            "byteOffset": 16200,
            "componentType": 5126,
            "count": 106,
            "type": "VEC3"
        },
        {
            "bufferView": 2,
            "byteOffset": 10800,
            "componentType": 5126,
            "count": 106,
            "type": "VEC2"
        },
        {
            "bufferView": 3,
            "byteOffset": 8982,
            "componentType": 5123,
            "count": 240,
            "type": "SCALAR"
        },
        {
            "bufferView": 0,
            "byteOffset": 17472,
            "componentType": 5126,
            "count": 284,
            "type": "VEC3",
            "min": [
                -0.255934954,
                -0.133614421,
                -0.379887402
            ],
            "max": [
                0.254425317,
                0.0852864981,
                0.0426481813
            ]
        },
        {
            "bufferView": 1,
            "byteOffset": 17472,
            "componentType": 5126,
            "count": 284,
            "type": "VEC3"
        },
        {
            "bufferView": 2,
            "byteOffset": 11648,
            "componentType": 5126,
            "count": 284,
            "type": "VEC2"
        },
        {
            "bufferView": 3,
            "byteOffset": 9462,
            "componentType": 5123,
            "count": 975,
            "type": "SCALAR"
        },
        {
            "bufferView": 0,
            "byteOffset": 20880,
            "componentType": 5126,
            "count": 282,
            "type": "VEC3",
            "min": [
                -0.251012474,
                -0.133614421,
                -0.379885972
            ],
            "max": [
                0.259347856,
                0.0852864981,
                0.0426496267
            ]
        },
        {
            "bufferView": 1,
            "byteOffset": 20880,
            "componentType": 5126,
            "count": 282,
            "type": "VEC3"
        },
        {
            "bufferView": 2,
            "byteOffset": 13920,
            "componentType": 5126,
            "count": 282,
            "type": "VEC2"
        },
        {
            "bufferView": 3,
            "byteOffset": 11412,
            "componentType": 5123,
            "count": 975,
            "type": "SCALAR"
        }
    ],
    "samplers": [
        {
            "magFilter": 9729,
            "minFilter": 9987
        }
    ],
    "images": [
        {
            "name": "painted_wooden_cabinet_nor_gl",
            "uri": "textures/painted_wooden_cabinet_nor_gl_1k.jpg"
        },
        {
            "name": "painted_wooden_cabinet_diff",
            "uri": "textures/painted_wooden_cabinet_diff_1k.jpg"
        },
        {
            "name": "painted_wooden_cabinet_metal-painted_wooden_cabinet_rough",
            "uri": "textures/painted_wooden_cabinet_arm_1k.jpg"
        }
    ],
    "textures": [
        {
            "sampler": 0,
            "source": 0
        },
        {
            "sampler": 0,
            "source": 1
        },
        {
            "sampler": 0,
            "source": 2
        }
    ],
    "materials": [
        {
            "name": "painted_wooden_cabinet",
            "pbrMetallicRoughness": {
                "baseColorTexture": {
                    "index": 1
                },
                "metallicRoughnessTexture": {
                    "index": 2
                }
            },
            "normalTexture": {
                "index": 0
            },
            "doubleSided": true
        }
    ],
    "meshes": [
        {
            "primitives": [
                {
                    "attributes": {
                        "POSITION": 0,
                        "NORMAL": 1,
                        "TEXCOORD_0": 2
                    },
                    "indices": 3,
                    "material": 0
                }
            ]
        },
        {
            "primitives": [
                {
                    "attributes": {
                        "POSITION": 4,
                        "NORMAL": 5,
                        "TEXCOORD_0": 6
                    },
                    "indices": 7,
                    "material": 0
                }
            ]
        },
        {
            "primitives": [
                {
                    "attributes": {
                        "POSITION": 8,
                        "NORMAL": 9,
                        "TEXCOORD_0": 10
                    },
                    "indices": 11,
                    "material": 0
                }
            ]
        },
        {
            "primitives": [
                {
                    "attributes": {
                        "POSITION": 12,
                        "NORMAL": 13,
                        "TEXCOORD_0": 14
                    },
                    "indices": 15,
                    "material": 0
                }
            ]
        },
        {
            "primitives": [
                {
                    "attributes": {
                        "POSITION": 16,
                        "NORMAL": 17,
                        "TEXCOORD_0": 18
                    },
                    "indices": 19,
                    "material": 0
                }
            ]
        }
    ],
    "nodes": [
        {
            "name": "painted_wooden_cabinet",
            "mesh": 0
        },
        {
            "name": "painted_wooden_cabinet_door_02",
            "translation": [
                0.567788124,
                0.533415973,
                0.21147114
            ],
            "rotation": [
                0,
                0.0583391078,
                0,
                0.998296857
            ],
            "mesh": 1
        },
        {
            "name": "painted_wooden_cabinet_door_01",
            "translation": [
                -0.568228424,
                0.532443702,
                0.21147114
            ],
            "rotation": [
                0,
                -0.0188144818,
                0,
                0.999823034
            ],
            "mesh": 2
        },
        {
            "name": "painted_wooden_cabinet_drawer_02",
            "translation": [
                0.274566799,
                1.04650438,
                0.235148087
            ],
            "mesh": 3
        },
        {
            "name": "painted_wooden_cabinet_drawer_01",
            "translation": [
                -0.28029862,
                1.04650438,
                0.291593611
            ],
            "mesh": 4
        }
    ],
    "scenes": [
        {
            "name": "Scene",
            "nodes": [
                0,
                1,
                2,
                3,
                4
            ]
        }
    ],
    "scene": 0
}