{
  "asset": {
    "generator": "Khronos glTF Blender I/O v4.0.44",
    "version": "2.0"
  },
  "scene": 0,
  "scenes": [
    {
      "name": "Scene",
      "nodes": [
        0
      ]
    }
  ],
  "nodes": [
    {
      "mesh": 0,
      "name": "painted_wooden_stool"
    }
  ],
  "materials": [
    {
      "doubleSided": true,
      "name": "painted_wooden_stool",
      "normalTexture": {
        "index": 0
      },
      "pbrMetallicRoughness": {
        "baseColorTexture": {
          "index": 1
        },
        "metallicFactor": 0,
        "metallicRoughnessTexture": {
          "index": 2
        }
      }
    }
  ],
  "meshes": [
    {
      "name": "stool.001",
      "primitives": [
        {
          "attributes": {
            "POSITION": 0,
            "NORMAL": 1,
            "TEXCOORD_0": 2
          },
          "indices": 3,
          "material": 0
        }
      ]
    }
  ],
  "textures": [
    {
      "sampler": 0,
      "source": 0
    },
    {
      "sampler": 0,
      "source": 1
    },
    {
      "sampler": 0,
      "source": 2
    }
  ],
  "images": [
    {
      "mimeType": "image/jpeg",
      "name": "painted_wooden_stool_nor_gl.png",
      "uri": "textures/painted_wooden_stool_nor_gl_1k.jpg"
    },
    {
      "mimeType": "image/jpeg",
      "name": "painted_wooden_stool_diff.png",
      "uri": "textures/painted_wooden_stool_diff_1k.jpg"
    },
    {
      "mimeType": "image/jpeg",
      "name": "painted_wooden_stool_rough.png",
      "uri": "textures/painted_wooden_stool_arm_1k.jpg"
    }
  ],
  "accessors": [
    {
      "bufferView": 0,
      "componentType": 5126,
      "count": 604,
      "max": [
        0.19735786318778992,
        0.5779256820678711,
        0.21626904606819153
      ],
      "min": [
        -0.18747957050800323,
        -0.000989402993582189,
        -0.18980525434017181
      ],
      "type": "VEC3"
    },
    {
      "bufferView": 1,
      "componentType": 5126,
      "count": 604,
      "type": "VEC3"
    },
    {
      "bufferView": 2,
      "componentType": 5126,
      "count": 604,
      "type": "VEC2"
    },
    {
      "bufferView": 3,
      "componentType": 5123,
      "count": 2028,
      "type": "SCALAR"
    }
  ],
  "bufferViews": [
    {
      "buffer": 0,
      "byteLength": 7248,
      "byteOffset": 0,
      "target": 34962
    },
    {
      "buffer": 0,
      "byteLength": 7248,
      "byteOffset": 7248,
      "target": 34962
    },
    {
      "buffer": 0,
      "byteLength": 4832,
      "byteOffset": 14496,
      "target": 34962
    },
    {
      "buffer": 0,
      "byteLength": 4056,
      "byteOffset": 19328,
      "target": 34963
    }
  ],
  "samplers": [
    {
      "magFilter": 9729,
      "minFilter": 9987
    }
  ],
  "buffers": [
    {
      "byteLength": 23384,
      "uri": "painted_wooden_stool.bin"
    }
  ]
}