{
    "asset": {
        "version": "2.0",
        "generator": "gltfpack 0.23"
    },
    "extensionsUsed": [
        "EXT_meshopt_compression"
    ],
    "buffers": [
        {
            "uri": "painted_wooden_cabinet_02_1k.bin",
            "byteLength": 24276
        },
        {
            "uri": "painted_wooden_cabinet_02_1k.fallback.bin",
            "byteLength": 39332,
            "extensions": {
                "EXT_meshopt_compression": {
                    "fallback": true
                }
            }
        }
    ],
    "bufferViews": [
        {
            "buffer": 1,
            "byteOffset": 0,
            "byteLength": 12576,
            "byteStride": 12,
            "target": 34962,
            "extensions": {
                "EXT_meshopt_compression": {
                    "buffer": 0,
                    "byteOffset": 0,
                    "byteLength": 8768,
                    "byteStride": 12,
                    "mode": "ATTRIBUTES",
                    "count": 1048
                }
            }
        },
        {
            "buffer": 1,
            "byteOffset": 12576,
            "byteLength": 12576,
            "byteStride": 12,
            "target": 34962,
            "extensions": {
                "EXT_meshopt_compression": {
                    "buffer": 0,
                    "byteOffset": 8768,
                    "byteLength": 8342,
                    "byteStride": 12,
                    "mode": "ATTRIBUTES",
                    "count": 1048
                }
            }
        },
        {
            "buffer": 1,
            "byteOffset": 25152,
            "byteLength": 8384,
            "byteStride": 8,
            "target": 34962,
            "extensions": {
                "EXT_meshopt_compression": {
                    "buffer": 0,
                    "byteOffset": 17112,
                    "byteLength": 6151,
                    "byteStride": 8,
                    "mode": "ATTRIBUTES",
                    "count": 1048
                }
            }
        },
        {
            "buffer": 1,
            "byteOffset": 33536,
            "byteLength": 5796,
            "target": 34963,
            "extensions": {
                "EXT_meshopt_compression": {
                    "buffer": 0,
                    "byteOffset": 23264,
                    "byteLength": 1009,
                    "byteStride": 2,
                    "mode": "TRIANGLES",
                    "count": 2898
                }
            }
        }
    ],
    "accessors": [
        {
            "bufferView": 0,
            "byteOffset": 0,
            "componentType": 5126,
            "count": 548,
            "type": "VEC3",
            "min": [
                -0.49846676,
                -0.00102164026,
                -0.322184265
            ],
            "max": [
                0.4984667,
                2.5675509,
                0.332232684
            ]
        },
        {
            "bufferView": 1,
            "byteOffset": 0,
            "componentType": 5126,
            "count": 548,
            "type": "VEC3"
        },
        {
            "bufferView": 2,
            "byteOffset": 0,
            "componentType": 5126,
            "count": 548,
            "type": "VEC2"
        },
        {
            "bufferView": 3,
            "byteOffset": 0,
            "componentType": 5123,
            "count": 1446,
            "type": "SCALAR"
        },
        {
            "bufferView": 0,
            "byteOffset": 6576,
            "componentType": 5126,
            "count": 324,
            "type": "VEC3",
            "min": [
                -0.462417245,
                -0.109449267,
                -0.259381592
            ],
            "max": [
                0.462417245,
                0.109449148,
                0.259381592
            ]
        },
        {
            "bufferView": 1,
            "byteOffset": 6576,
            "componentType": 5126,
            "count": 324,
            "type": "VEC3"
        },
        {
            "bufferView": 2,
            "byteOffset": 4384,
            "componentType": 5126,
            "count": 324,
            "type": "VEC2"
        },
        {
            "bufferView": 3,
            "byteOffset": 2892,
            "componentType": 5123,
            "count": 948,
            "type": "SCALAR"
        },
        {
            "bufferView": 0,
            "byteOffset": 10464,
            "componentType": 5126,
            "count": 176,
            "type": "VEC3",
            "min": [
                -0.569554567,
                -0.43679294,
                -0.0381036699
            ],
            "max": [
                -0.000773906708,
                0.388726115,
                0.0349841714
            ]
        },
        {
            "bufferView": 1,
            "byteOffset": 10464,
            "componentType": 5126,
            "count": 176,
            "type": "VEC3"
        },
        {
            "bufferView": 2,
            "byteOffset": 6976,
            "componentType": 5126,
            "count": 176,
            "type": "VEC2"
        },
        {
            "bufferView": 3,
            "byteOffset": 4788,
            "componentType": 5123,
            "count": 504,
            "type": "SCALAR"
        }
    ],
    "samplers": [
        {
            "magFilter": 9729,
            "minFilter": 9987
        }
    ],
    "images": [
        {
            "name": "painted_wooden_cabinet_02_nor_gl",
            "uri": "textures/painted_wooden_cabinet_02_nor_gl_1k.jpg"
        },
        {
            "name": "painted_wooden_cabinet_02_diff",
            "uri": "textures/painted_wooden_cabinet_02_diff_1k.jpg"
        },
        {
            "name": "painted_wooden_cabinet_02_metal-painted_wooden_cabinet_02_rough",
            "uri": "textures/painted_wooden_cabinet_02_arm_1k.jpg"
        }
    ],
    "textures": [
        {
            "sampler": 0,
            "source": 0
        },
        {
            "sampler": 0,
            "source": 1
        },
        {
            "sampler": 0,
            "source": 2
        }
    ],
    "materials": [
        {
            "name": "painted_wooden_cabinet_02",
            "pbrMetallicRoughness": {
                "baseColorTexture": {
                    "index": 1
                },
                "metallicRoughnessTexture": {
                    "index": 2
                }
            },
            "normalTexture": {
                "index": 0
            },
            "doubleSided": true
        }
    ],
    "meshes": [
        {
            "primitives": [
                {
                    "attributes": {
                        "POSITION": 0,
                        "NORMAL": 1,
                        "TEXCOORD_0": 2
                    },
                    "indices": 3,
                    "material": 0
                }
            ]
        },
        {
            "primitives": [
                {
                    "attributes": {
                        "POSITION": 4,
                        "NORMAL": 5,
                        "TEXCOORD_0": 6
                    },
                    "indices": 7,
                    "material": 0
                }
            ]
        },
        {
            "primitives": [
                {
                    "attributes": {
                        "POSITION": 8,
                        "NORMAL": 9,
                        "TEXCOORD_0": 10
                    },
                    "indices": 11,
                    "material": 0
                }
            ]
        }
    ],
    "nodes": [
        {
            "name": "painted_wooden_cabinet_02",
            "mesh": 0
        },
        {
            "name": "painted_wooden_cabinet_02_drawer",
            "translation": [
                -0.000265717506,
                1.01773906,
                0.120316058
            ],
            "mesh": 1
        },
        {
            "name": "painted_wooden_cabinet_02_door",
            "translation": [
                0.284707785,
                0.471272111,
                0.326702118
            ],
            "rotation": [
                0,
                0.0401266292,
                0,
                0.999194622
            ],
            "mesh": 2
        }
    ],
    "scenes": [
        {
            "name": "Scene",
            "nodes": [
                0,
                1,
                2
            ]
        }
    ],
    "scene": 0
}