{
    "asset": {
        "version": "2.0",
        "generator": "gltfpack 0.23"
    },
    "extensionsUsed": [
        "EXT_meshopt_compression"
    ],
    "buffers": [
        {
            "uri": "sofa_03_1k.bin",
            "byteLength": 153080
        },
        {
            "uri": "sofa_03_1k.fallback.bin",
            "byteLength": 228984,
            "extensions": {
                "EXT_meshopt_compression": {
                    "fallback": true
                }
            }
        }
    ],
    "bufferViews": [
        {
            "buffer": 1,
            "byteOffset": 0,
            "byteLength": 67860,
            "byteStride": 12,
            "target": 34962,
            "extensions": {
                "EXT_meshopt_compression": {
                    "buffer": 0,
                    "byteOffset": 0,
                    "byteLength": 52225,
                    "byteStride": 12,
                    "mode": "ATTRIBUTES",
                    "count": 5655
                }
            }
        },
        {
            "buffer": 1,
            "byteOffset": 67860,
            "byteLength": 67860,
            "byteStride": 12,
            "target": 34962,
            "extensions": {
                "EXT_meshopt_compression": {
                    "buffer": 0,
                    "byteOffset": 52228,
                    "byteLength": 58766,
                    "byteStride": 12,
                    "mode": "ATTRIBUTES",
                    "count": 5655
                }
            }
        },
        {
            "buffer": 1,
            "byteOffset": 135720,
            "byteLength": 45240,
            "byteStride": 8,
            "target": 34962,
            "extensions": {
                "EXT_meshopt_compression": {
                    "buffer": 0,
                    "byteOffset": 110996,
                    "byteLength": 33279,
                    "byteStride": 8,
                    "mode": "ATTRIBUTES",
                    "count": 5655
                }
            }
        },
        {
            "buffer": 1,
            "byteOffset": 180960,
            "byteLength": 48024,
            "target": 34963,
            "extensions": {
                "EXT_meshopt_compression": {
                    "buffer": 0,
                    "byteOffset": 144276,
                    "byteLength": 8802,
                    "byteStride": 2,
                    "mode": "TRIANGLES",
                    "count": 24012
                }
            }
        }
    ],
    "accessors": [
        {
            "bufferView": 0,
            "byteOffset": 0,
            "componentType": 5126,
            "count": 4507,
            "type": "VEC3",
            "min": [
                -1.36558867,
                0.000628394599,
                -0.463883549
            ],
            "max": [
                1.36558867,
                1.11889243,
                0.461200655
            ]
        },
        {
            "bufferView": 1,
            "byteOffset": 0,
            "componentType": 5126,
            "count": 4507,
            "type": "VEC3"
        },
        {
            "bufferView": 2,
            "byteOffset": 0,
            "componentType": 5126,
            "count": 4507,
            "type": "VEC2"
        },
        {
            "bufferView": 3,
            "byteOffset": 0,
            "componentType": 5123,
            "count": 20982,
            "type": "SCALAR"
        },
        {
            "bufferView": 0,
            "byteOffset": 54084,
            "componentType": 5126,
            "count": 1148,
            "type": "VEC3",
            "min": [
                -1.11095059,
                0.499699622,
                -0.347506762
            ],
            "max": [
                1.11095047,
                1.02646208,
                0.20578219
            ]
        },
        {
            "bufferView": 1,
            "byteOffset": 54084,
            "componentType": 5126,
            "count": 1148,
            "type": "VEC3"
        },
        {
            "bufferView": 2,
            "byteOffset": 36056,
            "componentType": 5126,
            "count": 1148,
            "type": "VEC2"
        },
        {
            "bufferView": 3,
            "byteOffset": 41964,
            "componentType": 5123,
            "count": 3030,
            "type": "SCALAR"
        }
    ],
    "samplers": [
        {
            "magFilter": 9729,
            "minFilter": 9987
        }
    ],
    "images": [
        {
            "name": "sofa_03_nor_gl",
            "uri": "textures/sofa_03_nor_gl_1k.jpg"
        },
        {
            "name": "sofa_03_diff.png",
            "uri": "textures/sofa_03_diff_1k.jpg"
        },
        {
            "name": "sofa_03_rough.png",
            "uri": "textures/sofa_03_rough_1k.jpg"
        },
        {
            "name": "sofa_03_diff.png-sofa_03_opacity",
            "uri": "textures/sofa_03_diff_1k.jpg"
        }
    ],
    "textures": [
        {
            "sampler": 0,
            "source": 0
        },
        {
            "sampler": 0,
            "source": 1
        },
        {
            "sampler": 0,
            "source": 2
        },
        {
            "sampler": 0,
            "source": 3
        }
    ],
    "materials": [
        {
            "name": "sofa_03",
            "pbrMetallicRoughness": {
                "baseColorTexture": {
                    "index": 1
                },
                "metallicFactor": 0,
                "metallicRoughnessTexture": {
                    "index": 2
                }
            },
            "normalTexture": {
                "index": 0
            },
            "doubleSided": true
        },
        {
            "name": "sofa_03_fringe",
            "pbrMetallicRoughness": {
                "baseColorTexture": {
                    "index": 3
                },
                "metallicFactor": 0,
                "metallicRoughnessTexture": {
                    "index": 2
                }
            },
            "normalTexture": {
                "index": 0
            },
            "doubleSided": true
        }
    ],
    "meshes": [
        {
            "primitives": [
                {
                    "attributes": {
                        "POSITION": 0,
                        "NORMAL": 1,
                        "TEXCOORD_0": 2
                    },
                    "indices": 3,
                    "material": 0
                },
                {
                    "attributes": {
                        "POSITION": 4,
                        "NORMAL": 5,
                        "TEXCOORD_0": 6
                    },
                    "indices": 7,
                    "material": 1
                }
            ]
        }
    ],
    "nodes": [
        {
            "name": "sofa_03",
            "mesh": 0
        }
    ],
    "scenes": [
        {
            "name": "Scene",
            "nodes": [
                0
            ]
        }
    ],
    "scene": 0
}