{
    "asset": {
        "version": "2.0",
        "generator": "gltfpack 0.23"
    },
    "extensionsUsed": [
        "EXT_meshopt_compression"
    ],
    "buffers": [
        {
            "uri": "sphere.bin",
            "byteLength": 10872
        },
        {
            "uri": "sphere.fallback.bin",
            "byteLength": 17328,
            "extensions": {
                "EXT_meshopt_compression": {
                    "fallback": true
                }
            }
        }
    ],
    "bufferViews": [
        {
            "buffer": 1,
            "byteOffset": 0,
            "byteLength": 5784,
            "byteStride": 12,
            "target": 34962,
            "extensions": {
                "EXT_meshopt_compression": {
                    "buffer": 0,
                    "byteOffset": 0,
                    "byteLength": 4874,
                    "byteStride": 12,
                    "mode": "ATTRIBUTES",
                    "count": 482
                }
            }
        },
        {
            "buffer": 1,
            "byteOffset": 5784,
            "byteLength": 5784,
            "byteStride": 12,
            "target": 34962,
            "extensions": {
                "EXT_meshopt_compression": {
                    "buffer": 0,
                    "byteOffset": 4876,
                    "byteLength": 4855,
                    "byteStride": 12,
                    "mode": "ATTRIBUTES",
                    "count": 482
                }
            }
        },
        {
            "buffer": 1,
            "byteOffset": 11568,
            "byteLength": 5760,
            "target": 34963,
            "extensions": {
                "EXT_meshopt_compression": {
                    "buffer": 0,
                    "byteOffset": 9732,
                    "byteLength": 1140,
                    "byteStride": 2,
                    "mode": "TRIANGLES",
                    "count": 2880
                }
            }
        }
    ],
    "accessors": [
        {
            "bufferView": 0,
            "byteOffset": 0,
            "componentType": 5126,
            "count": 482,
            "type": "VEC3",
            "min": [
                -0.949896812,
                -0.983083487,
                -0.949896812
            ],
            "max": [
                0.949896991,
                0.983083487,
                0.949897051
            ]
        },
        {
            "bufferView": 1,
            "byteOffset": 0,
            "componentType": 5126,
            "count": 482,
            "type": "VEC3"
        },
        {
            "bufferView": 2,
            "byteOffset": 0,
            "componentType": 5123,
            "count": 2880,
            "type": "SCALAR"
        }
    ],
    "materials": [
        {
            "name": "sphere_mat",
            "pbrMetallicRoughness": {
                "baseColorFactor": [
                    0.800000012,
                    0.800000012,
                    0.800000012,
                    1
                ],
                "metallicFactor": 0.5,
                "roughnessFactor": 0.5
            },
            "doubleSided": true
        }
    ],
    "meshes": [
        {
            "primitives": [
                {
                    "attributes": {
                        "POSITION": 0,
                        "NORMAL": 1
                    },
                    "indices": 2,
                    "material": 0
                }
            ]
        }
    ],
    "nodes": [
        {
            "name": "Sphere",
            "mesh": 0
        }
    ],
    "scenes": [
        {
            "name": "Scene",
            "nodes": [
                0
            ]
        }
    ],
    "scene": 0
}