{
    "asset": {
        "version": "2.0",
        "generator": "gltfpack 0.23"
    },
    "extensionsUsed": [
        "EXT_meshopt_compression"
    ],
    "buffers": [
        {
            "uri": "tea_set_posed.bin",
            "byteLength": 506492
        },
        {
            "uri": "tea_set_posed.fallback.bin",
            "byteLength": 799184,
            "extensions": {
                "EXT_meshopt_compression": {
                    "fallback": true
                }
            }
        }
    ],
    "bufferViews": [
        {
            "buffer": 1,
            "byteOffset": 0,
            "byteLength": 223284,
            "byteStride": 12,
            "target": 34962,
            "extensions": {
                "EXT_meshopt_compression": {
                    "buffer": 0,
                    "byteOffset": 0,
                    "byteLength": 176837,
                    "byteStride": 12,
                    "mode": "ATTRIBUTES",
                    "count": 18607
                }
            }
        },
        {
            "buffer": 1,
            "byteOffset": 223284,
            "byteLength": 223284,
            "byteStride": 12,
            "target": 34962,
            "extensions": {
                "EXT_meshopt_compression": {
                    "buffer": 0,
                    "byteOffset": 176840,
                    "byteLength": 189604,
                    "byteStride": 12,
                    "mode": "ATTRIBUTES",
                    "count": 18607
                }
            }
        },
        {
            "buffer": 1,
            "byteOffset": 446568,
            "byteLength": 148856,
            "byteStride": 8,
            "target": 34962,
            "extensions": {
                "EXT_meshopt_compression": {
                    "buffer": 0,
                    "byteOffset": 366444,
                    "byteLength": 100429,
                    "byteStride": 8,
                    "mode": "ATTRIBUTES",
                    "count": 18607
                }
            }
        },
        {
            "buffer": 1,
            "byteOffset": 595424,
            "byteLength": 203760,
            "target": 34963,
            "extensions": {
                "EXT_meshopt_compression": {
                    "buffer": 0,
                    "byteOffset": 466876,
                    "byteLength": 39616,
                    "byteStride": 2,
                    "mode": "TRIANGLES",
                    "count": 101880
                }
            }
        }
    ],
    "accessors": [
        {
            "bufferView": 0,
            "byteOffset": 0,
            "componentType": 5126,
            "count": 2328,
            "type": "VEC3",
            "min": [
                -0.0534591861,
                0.00238560257,
                -0.0795061439
            ],
            "max": [
                0.0534591861,
                0.0697360709,
                0.0534591824
            ]
        },
        {
            "bufferView": 1,
            "byteOffset": 0,
            "componentType": 5126,
            "count": 2328,
            "type": "VEC3"
        },
        {
            "bufferView": 2,
            "byteOffset": 0,
            "componentType": 5126,
            "count": 2328,
            "type": "VEC2"
        },
        {
            "bufferView": 3,
            "byteOffset": 0,
            "componentType": 5123,
            "count": 12468,
            "type": "SCALAR"
        },
        {
            "bufferView": 0,
            "byteOffset": 27936,
            "componentType": 5126,
            "count": 1490,
            "type": "VEC3",
            "min": [
                -0.0744761974,
                -0.000700653531,
                -0.0744762048
            ],
            "max": [
                0.074476175,
                0.0152104832,
                0.0744762048
            ]
        },
        {
            "bufferView": 1,
            "byteOffset": 27936,
            "componentType": 5126,
            "count": 1490,
            "type": "VEC3"
        },
        {
            "bufferView": 2,
            "byteOffset": 18624,
            "componentType": 5126,
            "count": 1490,
            "type": "VEC2"
        },
        {
            "bufferView": 3,
            "byteOffset": 24936,
            "componentType": 5123,
            "count": 8640,
            "type": "SCALAR"
        },
        {
            "bufferView": 0,
            "byteOffset": 45816,
            "componentType": 5126,
            "count": 2926,
            "type": "VEC3",
            "min": [
                -0.0508304127,
                0.00238560257,
                -0.0709170699
            ],
            "max": [
                0.0508304201,
                0.0698567033,
                0.0709170699
            ]
        },
        {
            "bufferView": 1,
            "byteOffset": 45816,
            "componentType": 5126,
            "count": 2926,
            "type": "VEC3"
        },
        {
            "bufferView": 2,
            "byteOffset": 30544,
            "componentType": 5126,
            "count": 2926,
            "type": "VEC2"
        },
        {
            "bufferView": 3,
            "byteOffset": 42216,
            "componentType": 5123,
            "count": 15552,
            "type": "SCALAR"
        },
        {
            "bufferView": 0,
            "byteOffset": 80928,
            "componentType": 5126,
            "count": 4697,
            "type": "VEC3",
            "min": [
                -0.0823760703,
                -0.000186210949,
                -0.128876731
            ],
            "max": [
                0.0823760703,
                0.121792808,
                0.138917282
            ]
        },
        {
            "bufferView": 1,
            "byteOffset": 80928,
            "componentType": 5126,
            "count": 4697,
            "type": "VEC3"
        },
        {
            "bufferView": 2,
            "byteOffset": 53952,
            "componentType": 5126,
            "count": 4697,
            "type": "VEC2"
        },
        {
            "bufferView": 3,
            "byteOffset": 73320,
            "componentType": 5123,
            "count": 25296,
            "type": "SCALAR"
        },
        {
            "bufferView": 0,
            "byteOffset": 137292,
            "componentType": 5126,
            "count": 2328,
            "type": "VEC3",
            "min": [
                -0.0534591861,
                0.00238560257,
                -0.0795061439
            ],
            "max": [
                0.0534591861,
                0.0697360709,
                0.0534591824
            ]
        },
        {
            "bufferView": 1,
            "byteOffset": 137292,
            "componentType": 5126,
            "count": 2328,
            "type": "VEC3"
        },
        {
            "bufferView": 2,
            "byteOffset": 91528,
            "componentType": 5126,
            "count": 2328,
            "type": "VEC2"
        },
        {
            "bufferView": 3,
            "byteOffset": 123912,
            "componentType": 5123,
            "count": 12468,
            "type": "SCALAR"
        },
        {
            "bufferView": 0,
            "byteOffset": 165228,
            "componentType": 5126,
            "count": 1490,
            "type": "VEC3",
            "min": [
                -0.0744761974,
                -0.000700653531,
                -0.0744762048
            ],
            "max": [
                0.074476175,
                0.0152104832,
                0.0744762048
            ]
        },
        {
            "bufferView": 1,
            "byteOffset": 165228,
            "componentType": 5126,
            "count": 1490,
            "type": "VEC3"
        },
        {
            "bufferView": 2,
            "byteOffset": 110152,
            "componentType": 5126,
            "count": 1490,
            "type": "VEC2"
        },
        {
            "bufferView": 3,
            "byteOffset": 148848,
            "componentType": 5123,
            "count": 8640,
            "type": "SCALAR"
        },
        {
            "bufferView": 0,
            "byteOffset": 183108,
            "componentType": 5126,
            "count": 1385,
            "type": "VEC3",
            "min": [
                -0.0489474609,
                0.0685425997,
                -0.0489474088
            ],
            "max": [
                0.0489474237,
                0.10231787,
                0.0489474833
            ]
        },
        {
            "bufferView": 1,
            "byteOffset": 183108,
            "componentType": 5126,
            "count": 1385,
            "type": "VEC3"
        },
        {
            "bufferView": 2,
            "byteOffset": 122072,
            "componentType": 5126,
            "count": 1385,
            "type": "VEC2"
        },
        {
            "bufferView": 3,
            "byteOffset": 166128,
            "componentType": 5123,
            "count": 7680,
            "type": "SCALAR"
        },
        {
            "bufferView": 0,
            "byteOffset": 199728,
            "componentType": 5126,
            "count": 1963,
            "type": "VEC3",
            "min": [
                -0.0626899451,
                0.113044813,
                -0.0643984079
            ],
            "max": [
                0.0626899451,
                0.162619174,
                0.0609814525
            ]
        },
        {
            "bufferView": 1,
            "byteOffset": 199728,
            "componentType": 5126,
            "count": 1963,
            "type": "VEC3"
        },
        {
            "bufferView": 2,
            "byteOffset": 133152,
            "componentType": 5126,
            "count": 1963,
            "type": "VEC2"
        },
        {
            "bufferView": 3,
            "byteOffset": 181488,
            "componentType": 5123,
            "count": 11136,
            "type": "SCALAR"
        }
    ],
    "samplers": [
        {
            "magFilter": 9729,
            "minFilter": 9987
        }
    ],
    "images": [
        {
            "name": "tea_set_01_nor_gl_1k",
            "uri": "textures/tea_set_01_nor_gl_1k.jpg"
        },
        {
            "name": "tea_set_01_diff_1k",
            "uri": "textures/tea_set_01_diff_1k.jpg"
        },
        {
            "name": "tea_set_01_arm_1k",
            "uri": "textures/tea_set_01_arm_1k.jpg"
        }
    ],
    "textures": [
        {
            "sampler": 0,
            "source": 0
        },
        {
            "sampler": 0,
            "source": 1
        },
        {
            "sampler": 0,
            "source": 2
        }
    ],
    "materials": [
        {
            "name": "tea_set_01",
            "pbrMetallicRoughness": {
                "baseColorTexture": {
                    "index": 1
                },
                "metallicRoughnessTexture": {
                    "index": 2
                }
            },
            "normalTexture": {
                "index": 0
            },
            "doubleSided": true
        }
    ],
    "meshes": [
        {
            "primitives": [
                {
                    "attributes": {
                        "POSITION": 0,
                        "NORMAL": 1,
                        "TEXCOORD_0": 2
                    },
                    "indices": 3,
                    "material": 0
                }
            ]
        },
        {
            "primitives": [
                {
                    "attributes": {
                        "POSITION": 4,
                        "NORMAL": 5,
                        "TEXCOORD_0": 6
                    },
                    "indices": 7,
                    "material": 0
                }
            ]
        },
        {
            "primitives": [
                {
                    "attributes": {
                        "POSITION": 8,
                        "NORMAL": 9,
                        "TEXCOORD_0": 10
                    },
                    "indices": 11,
                    "material": 0
                }
            ]
        },
        {
            "primitives": [
                {
                    "attributes": {
                        "POSITION": 12,
                        "NORMAL": 13,
                        "TEXCOORD_0": 14
                    },
                    "indices": 15,
                    "material": 0
                }
            ]
        },
        {
            "primitives": [
                {
                    "attributes": {
                        "POSITION": 16,
                        "NORMAL": 17,
                        "TEXCOORD_0": 18
                    },
                    "indices": 19,
                    "material": 0
                }
            ]
        },
        {
            "primitives": [
                {
                    "attributes": {
                        "POSITION": 20,
                        "NORMAL": 21,
                        "TEXCOORD_0": 22
                    },
                    "indices": 23,
                    "material": 0
                }
            ]
        },
        {
            "primitives": [
                {
                    "attributes": {
                        "POSITION": 24,
                        "NORMAL": 25,
                        "TEXCOORD_0": 26
                    },
                    "indices": 27,
                    "material": 0
                }
            ]
        },
        {
            "primitives": [
                {
                    "attributes": {
                        "POSITION": 28,
                        "NORMAL": 29,
                        "TEXCOORD_0": 30
                    },
                    "indices": 31,
                    "material": 0
                }
            ]
        }
    ],
    "nodes": [
        {
            "name": "tea_set_01_cup_small_01",
            "translation": [
                0.118472427,
                0.00326715223,
                -0.120650955
            ],
            "mesh": 0
        },
        {
            "name": "tea_set_01_saucer_circular_03",
            "translation": [
                0.153609216,
                0,
                0.0769174099
            ],
            "mesh": 1
        },
        {
            "name": "tea_set_01_sugar_cup_01",
            "translation": [
                -0.0776582062,
                0,
                0.0315374359
            ],
            "mesh": 2
        },
        {
            "name": "tea_set_01_teapot_01",
            "translation": [
                -0.115382068,
                0,
                -0.147316501
            ],
            "rotation": [
                0,
                0.435479134,
                0,
                0.900198817
            ],
            "mesh": 3
        },
        {
            "name": "tea_set_01_cup_small_02",
            "translation": [
                0.154389709,
                0.00326715223,
                0.0756114423
            ],
            "rotation": [
                0,
                -0.792595208,
                0,
                0.609748185
            ],
            "mesh": 4
        },
        {
            "name": "tea_set_01_saucer_circular_04",
            "translation": [
                0.117691964,
                0,
                -0.120905884
            ],
            "mesh": 5
        },
        {
            "name": "tea_set_01_sugar_cup_01_lid",
            "translation": [
                -0.0776582062,
                0.000303979963,
                0.0315374359
            ],
            "mesh": 6
        },
        {
            "name": "tea_set_01_teapot_01_lid",
            "translation": [
                -0.115382068,
                0.00154130568,
                -0.147316501
            ],
            "rotation": [
                0,
                0.435479134,
                0,
                0.900198817
            ],
            "mesh": 7
        }
    ],
    "scenes": [
        {
            "name": "Scene",
            "nodes": [
                0,
                1,
                2,
                3,
                4,
                5,
                6,
                7
            ]
        }
    ],
    "scene": 0
}