{
    "asset": {
        "version": "2.0",
        "generator": "gltfpack 0.23"
    },
    "extensionsUsed": [
        "EXT_meshopt_compression"
    ],
    "buffers": [
        {
            "uri": "tea_set_01_1k.bin",
            "byteLength": 591712
        },
        {
            "uri": "tea_set_01_1k.fallback.bin",
            "byteLength": 941776,
            "extensions": {
                "EXT_meshopt_compression": {
                    "fallback": true
                }
            }
        }
    ],
    "bufferViews": [
        {
            "buffer": 1,
            "byteOffset": 0,
            "byteLength": 262500,
            "byteStride": 12,
            "target": 34962,
            "extensions": {
                "EXT_meshopt_compression": {
                    "buffer": 0,
                    "byteOffset": 0,
                    "byteLength": 207961,
                    "byteStride": 12,
                    "mode": "ATTRIBUTES",
                    "count": 21875
                }
            }
        },
        {
            "buffer": 1,
            "byteOffset": 262500,
            "byteLength": 262500,
            "byteStride": 12,
            "target": 34962,
            "extensions": {
                "EXT_meshopt_compression": {
                    "buffer": 0,
                    "byteOffset": 207964,
                    "byteLength": 218724,
                    "byteStride": 12,
                    "mode": "ATTRIBUTES",
                    "count": 21875
                }
            }
        },
        {
            "buffer": 1,
            "byteOffset": 525000,
            "byteLength": 175000,
            "byteStride": 8,
            "target": 34962,
            "extensions": {
                "EXT_meshopt_compression": {
                    "buffer": 0,
                    "byteOffset": 426688,
                    "byteLength": 117873,
                    "byteStride": 8,
                    "mode": "ATTRIBUTES",
                    "count": 21875
                }
            }
        },
        {
            "buffer": 1,
            "byteOffset": 700000,
            "byteLength": 241776,
            "target": 34963,
            "extensions": {
                "EXT_meshopt_compression": {
                    "buffer": 0,
                    "byteOffset": 544564,
                    "byteLength": 47146,
                    "byteStride": 2,
                    "mode": "TRIANGLES",
                    "count": 120888
                }
            }
        }
    ],
    "accessors": [
        {
            "bufferView": 0,
            "byteOffset": 0,
            "componentType": 5126,
            "count": 1634,
            "type": "VEC3",
            "min": [
                -0.0940060988,
                -0.000832573569,
                -0.0949592888
            ],
            "max": [
                0.0940060988,
                0.0168886241,
                0.0949592888
            ]
        },
        {
            "bufferView": 1,
            "byteOffset": 0,
            "componentType": 5126,
            "count": 1634,
            "type": "VEC3"
        },
        {
            "bufferView": 2,
            "byteOffset": 0,
            "componentType": 5126,
            "count": 1634,
            "type": "VEC2"
        },
        {
            "bufferView": 3,
            "byteOffset": 0,
            "componentType": 5123,
            "count": 9504,
            "type": "SCALAR"
        },
        {
            "bufferView": 0,
            "byteOffset": 19608,
            "componentType": 5126,
            "count": 2328,
            "type": "VEC3",
            "min": [
                -0.0534591861,
                0.00238560257,
                -0.0795061439
            ],
            "max": [
                0.0534591861,
                0.0697360709,
                0.0534591824
            ]
        },
        {
            "bufferView": 1,
            "byteOffset": 19608,
            "componentType": 5126,
            "count": 2328,
            "type": "VEC3"
        },
        {
            "bufferView": 2,
            "byteOffset": 13072,
            "componentType": 5126,
            "count": 2328,
            "type": "VEC2"
        },
        {
            "bufferView": 3,
            "byteOffset": 19008,
            "componentType": 5123,
            "count": 12468,
            "type": "SCALAR"
        },
        {
            "bufferView": 0,
            "byteOffset": 47544,
            "componentType": 5126,
            "count": 1490,
            "type": "VEC3",
            "min": [
                -0.0744761974,
                -0.000700653531,
                -0.0744762048
            ],
            "max": [
                0.074476175,
                0.0152104832,
                0.0744762048
            ]
        },
        {
            "bufferView": 1,
            "byteOffset": 47544,
            "componentType": 5126,
            "count": 1490,
            "type": "VEC3"
        },
        {
            "bufferView": 2,
            "byteOffset": 31696,
            "componentType": 5126,
            "count": 1490,
            "type": "VEC2"
        },
        {
            "bufferView": 3,
            "byteOffset": 43944,
            "componentType": 5123,
            "count": 8640,
            "type": "SCALAR"
        },
        {
            "bufferView": 0,
            "byteOffset": 65424,
            "componentType": 5126,
            "count": 1634,
            "type": "VEC3",
            "min": [
                -0.0937595665,
                -0.000832564896,
                -0.0937595814
            ],
            "max": [
                0.0937595591,
                0.0168886334,
                0.0937595665
            ]
        },
        {
            "bufferView": 1,
            "byteOffset": 65424,
            "componentType": 5126,
            "count": 1634,
            "type": "VEC3"
        },
        {
            "bufferView": 2,
            "byteOffset": 43616,
            "componentType": 5126,
            "count": 1634,
            "type": "VEC2"
        },
        {
            "bufferView": 3,
            "byteOffset": 61224,
            "componentType": 5123,
            "count": 9504,
            "type": "SCALAR"
        },
        {
            "bufferView": 0,
            "byteOffset": 85032,
            "componentType": 5126,
            "count": 2926,
            "type": "VEC3",
            "min": [
                -0.0508304127,
                0.00238560257,
                -0.0709170699
            ],
            "max": [
                0.0508304201,
                0.0698567033,
                0.0709170699
            ]
        },
        {
            "bufferView": 1,
            "byteOffset": 85032,
            "componentType": 5126,
            "count": 2926,
            "type": "VEC3"
        },
        {
            "bufferView": 2,
            "byteOffset": 56688,
            "componentType": 5126,
            "count": 2926,
            "type": "VEC2"
        },
        {
            "bufferView": 3,
            "byteOffset": 80232,
            "componentType": 5123,
            "count": 15552,
            "type": "SCALAR"
        },
        {
            "bufferView": 0,
            "byteOffset": 120144,
            "componentType": 5126,
            "count": 4697,
            "type": "VEC3",
            "min": [
                -0.0823760703,
                -0.000186210949,
                -0.128876731
            ],
            "max": [
                0.0823760703,
                0.121792808,
                0.138917282
            ]
        },
        {
            "bufferView": 1,
            "byteOffset": 120144,
            "componentType": 5126,
            "count": 4697,
            "type": "VEC3"
        },
        {
            "bufferView": 2,
            "byteOffset": 80096,
            "componentType": 5126,
            "count": 4697,
            "type": "VEC2"
        },
        {
            "bufferView": 3,
            "byteOffset": 111336,
            "componentType": 5123,
            "count": 25296,
            "type": "SCALAR"
        },
        {
            "bufferView": 0,
            "byteOffset": 176508,
            "componentType": 5126,
            "count": 2328,
            "type": "VEC3",
            "min": [
                -0.0534591861,
                0.00238560257,
                -0.0795061439
            ],
            "max": [
                0.0534591861,
                0.0697360709,
                0.0534591824
            ]
        },
        {
            "bufferView": 1,
            "byteOffset": 176508,
            "componentType": 5126,
            "count": 2328,
            "type": "VEC3"
        },
        {
            "bufferView": 2,
            "byteOffset": 117672,
            "componentType": 5126,
            "count": 2328,
            "type": "VEC2"
        },
        {
            "bufferView": 3,
            "byteOffset": 161928,
            "componentType": 5123,
            "count": 12468,
            "type": "SCALAR"
        },
        {
            "bufferView": 0,
            "byteOffset": 204444,
            "componentType": 5126,
            "count": 1490,
            "type": "VEC3",
            "min": [
                -0.0744761974,
                -0.000700653531,
                -0.0744762048
            ],
            "max": [
                0.074476175,
                0.0152104832,
                0.0744762048
            ]
        },
        {
            "bufferView": 1,
            "byteOffset": 204444,
            "componentType": 5126,
            "count": 1490,
            "type": "VEC3"
        },
        {
            "bufferView": 2,
            "byteOffset": 136296,
            "componentType": 5126,
            "count": 1490,
            "type": "VEC2"
        },
        {
            "bufferView": 3,
            "byteOffset": 186864,
            "componentType": 5123,
            "count": 8640,
            "type": "SCALAR"
        },
        {
            "bufferView": 0,
            "byteOffset": 222324,
            "componentType": 5126,
            "count": 1385,
            "type": "VEC3",
            "min": [
                -0.0489474609,
                0.0685425997,
                -0.0489474088
            ],
            "max": [
                0.0489474237,
                0.10231787,
                0.0489474833
            ]
        },
        {
            "bufferView": 1,
            "byteOffset": 222324,
            "componentType": 5126,
            "count": 1385,
            "type": "VEC3"
        },
        {
            "bufferView": 2,
            "byteOffset": 148216,
            "componentType": 5126,
            "count": 1385,
            "type": "VEC2"
        },
        {
            "bufferView": 3,
            "byteOffset": 204144,
            "componentType": 5123,
            "count": 7680,
            "type": "SCALAR"
        },
        {
            "bufferView": 0,
            "byteOffset": 238944,
            "componentType": 5126,
            "count": 1963,
            "type": "VEC3",
            "min": [
                -0.0626899451,
                0.113044813,
                -0.0643984079
            ],
            "max": [
                0.0626899451,
                0.162619174,
                0.0609814525
            ]
        },
        {
            "bufferView": 1,
            "byteOffset": 238944,
            "componentType": 5126,
            "count": 1963,
            "type": "VEC3"
        },
        {
            "bufferView": 2,
            "byteOffset": 159296,
            "componentType": 5126,
            "count": 1963,
            "type": "VEC2"
        },
        {
            "bufferView": 3,
            "byteOffset": 219504,
            "componentType": 5123,
            "count": 11136,
            "type": "SCALAR"
        }
    ],
    "samplers": [
        {
            "magFilter": 9729,
            "minFilter": 9987
        }
    ],
    "images": [
        {
            "name": "tea_set_01_nor_gl",
            "uri": "textures/tea_set_01_nor_gl_1k.jpg"
        },
        {
            "name": "tea_set_01_diff",
            "uri": "textures/tea_set_01_diff_1k.jpg"
        },
        {
            "name": "tea_set_01_metal-tea_set_01_rough",
            "uri": "textures/tea_set_01_arm_1k.jpg"
        }
    ],
    "textures": [
        {
            "sampler": 0,
            "source": 0
        },
        {
            "sampler": 0,
            "source": 1
        },
        {
            "sampler": 0,
            "source": 2
        }
    ],
    "materials": [
        {
            "name": "tea_set_01",
            "pbrMetallicRoughness": {
                "baseColorTexture": {
                    "index": 1
                },
                "metallicRoughnessTexture": {
                    "index": 2
                }
            },
            "normalTexture": {
                "index": 0
            },
            "doubleSided": true
        }
    ],
    "meshes": [
        {
            "primitives": [
                {
                    "attributes": {
                        "POSITION": 0,
                        "NORMAL": 1,
                        "TEXCOORD_0": 2
                    },
                    "indices": 3,
                    "material": 0
                }
            ]
        },
        {
            "primitives": [
                {
                    "attributes": {
                        "POSITION": 4,
                        "NORMAL": 5,
                        "TEXCOORD_0": 6
                    },
                    "indices": 7,
                    "material": 0
                }
            ]
        },
        {
            "primitives": [
                {
                    "attributes": {
                        "POSITION": 8,
                        "NORMAL": 9,
                        "TEXCOORD_0": 10
                    },
                    "indices": 11,
                    "material": 0
                }
            ]
        },
        {
            "primitives": [
                {
                    "attributes": {
                        "POSITION": 12,
                        "NORMAL": 13,
                        "TEXCOORD_0": 14
                    },
                    "indices": 15,
                    "material": 0
                }
            ]
        },
        {
            "primitives": [
                {
                    "attributes": {
                        "POSITION": 16,
                        "NORMAL": 17,
                        "TEXCOORD_0": 18
                    },
                    "indices": 19,
                    "material": 0
                }
            ]
        },
        {
            "primitives": [
                {
                    "attributes": {
                        "POSITION": 20,
                        "NORMAL": 21,
                        "TEXCOORD_0": 22
                    },
                    "indices": 23,
                    "material": 0
                }
            ]
        },
        {
            "primitives": [
                {
                    "attributes": {
                        "POSITION": 24,
                        "NORMAL": 25,
                        "TEXCOORD_0": 26
                    },
                    "indices": 27,
                    "material": 0
                }
            ]
        },
        {
            "primitives": [
                {
                    "attributes": {
                        "POSITION": 28,
                        "NORMAL": 29,
                        "TEXCOORD_0": 30
                    },
                    "indices": 31,
                    "material": 0
                }
            ]
        },
        {
            "primitives": [
                {
                    "attributes": {
                        "POSITION": 32,
                        "NORMAL": 33,
                        "TEXCOORD_0": 34
                    },
                    "indices": 35,
                    "material": 0
                }
            ]
        },
        {
            "primitives": [
                {
                    "attributes": {
                        "POSITION": 36,
                        "NORMAL": 37,
                        "TEXCOORD_0": 38
                    },
                    "indices": 39,
                    "material": 0
                }
            ]
        }
    ],
    "nodes": [
        {
            "name": "tea_set_01_plate_large_square_01",
            "translation": [
                -0.346627563,
                0,
                -0.188653558
            ],
            "mesh": 0
        },
        {
            "name": "tea_set_01_cup_small_01",
            "translation": [
                0.153372437,
                0,
                0.0613464266
            ],
            "mesh": 1
        },
        {
            "name": "tea_set_01_saucer_circular_03",
            "translation": [
                0.403372437,
                0,
                -0.188653618
            ],
            "mesh": 2
        },
        {
            "name": "tea_set_01_plate_large_circular_03",
            "translation": [
                -0.096627593,
                0,
                -0.188653573
            ],
            "mesh": 3
        },
        {
            "name": "tea_set_01_sugar_cup_01",
            "translation": [
                -0.0966275707,
                0,
                0.0613464266
            ],
            "mesh": 4
        },
        {
            "name": "tea_set_01_teapot_01",
            "translation": [
                -0.346627563,
                0,
                0.0613464415
            ],
            "mesh": 5
        },
        {
            "name": "tea_set_01_cup_small_02",
            "translation": [
                0.403372467,
                0,
                0.0613464117
            ],
            "mesh": 6
        },
        {
            "name": "tea_set_01_saucer_circular_04",
            "translation": [
                0.153372422,
                0,
                -0.188653588
            ],
            "mesh": 7
        },
        {
            "name": "tea_set_01_sugar_cup_01_lid",
            "translation": [
                -0.0966275707,
                0.000303979963,
                0.0613464266
            ],
            "mesh": 8
        },
        {
            "name": "tea_set_01_teapot_01_lid",
            "translation": [
                -0.346627563,
                0.00154130568,
                0.0613464415
            ],
            "mesh": 9
        }
    ],
    "scenes": [
        {
            "name": "Scene",
            "nodes": [
                0,
                1,
                2,
                3,
                4,
                5,
                6,
                7,
                8,
                9
            ]
        }
    ],
    "scene": 0
}