{
    "asset": {
        "version": "2.0",
        "generator": "gltfpack 0.23"
    },
    "extensionsUsed": [
        "EXT_meshopt_compression"
    ],
    "buffers": [
        {
            "uri": "wooden_table_02_1k.bin",
            "byteLength": 5556
        },
        {
            "uri": "wooden_table_02_1k.fallback.bin",
            "byteLength": 7576,
            "extensions": {
                "EXT_meshopt_compression": {
                    "fallback": true
                }
            }
        }
    ],
    "bufferViews": [
        {
            "buffer": 1,
            "byteOffset": 0,
            "byteLength": 2400,
            "byteStride": 12,
            "target": 34962,
            "extensions": {
                "EXT_meshopt_compression": {
                    "buffer": 0,
                    "byteOffset": 0,
                    "byteLength": 1880,
                    "byteStride": 12,
                    "mode": "ATTRIBUTES",
                    "count": 200
                }
            }
        },
        {
            "buffer": 1,
            "byteOffset": 2400,
            "byteLength": 2400,
            "byteStride": 12,
            "target": 34962,
            "extensions": {
                "EXT_meshopt_compression": {
                    "buffer": 0,
                    "byteOffset": 1880,
                    "byteLength": 2134,
                    "byteStride": 12,
                    "mode": "ATTRIBUTES",
                    "count": 200
                }
            }
        },
        {
            "buffer": 1,
            "byteOffset": 4800,
            "byteLength": 1600,
            "byteStride": 8,
            "target": 34962,
            "extensions": {
                "EXT_meshopt_compression": {
                    "buffer": 0,
                    "byteOffset": 4016,
                    "byteLength": 1323,
                    "byteStride": 8,
                    "mode": "ATTRIBUTES",
                    "count": 200
                }
            }
        },
        {
            "buffer": 1,
            "byteOffset": 6400,
            "byteLength": 1176,
            "target": 34963,
            "extensions": {
                "EXT_meshopt_compression": {
                    "buffer": 0,
                    "byteOffset": 5340,
                    "byteLength": 213,
                    "byteStride": 2,
                    "mode": "TRIANGLES",
                    "count": 588
                }
            }
        }
    ],
    "accessors": [
        {
            "bufferView": 0,
            "byteOffset": 0,
            "componentType": 5126,
            "count": 200,
            "type": "VEC3",
            "min": [
                -0.56720823,
                -0.000125152903,
                -0.353012413
            ],
            "max": [
                0.567208409,
                0.799417734,
                0.353012413
            ]
        },
        {
            "bufferView": 1,
            "byteOffset": 0,
            "componentType": 5126,
            "count": 200,
            "type": "VEC3"
        },
        {
            "bufferView": 2,
            "byteOffset": 0,
            "componentType": 5126,
            "count": 200,
            "type": "VEC2"
        },
        {
            "bufferView": 3,
            "byteOffset": 0,
            "componentType": 5123,
            "count": 588,
            "type": "SCALAR"
        }
    ],
    "samplers": [
        {
            "magFilter": 9729,
            "minFilter": 9987
        }
    ],
    "images": [
        {
            "name": "wooden_table_02_nor_gl",
            "uri": "textures/wooden_table_02_nor_gl_1k.jpg"
        },
        {
            "name": "wooden_table_02_diff",
            "uri": "textures/wooden_table_02_diff_1k.jpg"
        },
        {
            "name": "wooden_table_02_metal-wooden_table_02_rough",
            "uri": "textures/wooden_table_02_arm_1k.jpg"
        }
    ],
    "textures": [
        {
            "sampler": 0,
            "source": 0
        },
        {
            "sampler": 0,
            "source": 1
        },
        {
            "sampler": 0,
            "source": 2
        }
    ],
    "materials": [
        {
            "name": "wooden_table_02",
            "pbrMetallicRoughness": {
                "baseColorTexture": {
                    "index": 1
                },
                "metallicRoughnessTexture": {
                    "index": 2
                }
            },
            "normalTexture": {
                "index": 0
            },
            "doubleSided": true
        }
    ],
    "meshes": [
        {
            "primitives": [
                {
                    "attributes": {
                        "POSITION": 0,
                        "NORMAL": 1,
                        "TEXCOORD_0": 2
                    },
                    "indices": 3,
                    "material": 0
                }
            ]
        }
    ],
    "nodes": [
        {
            "name": "wooden_table_02",
            "mesh": 0
        }
    ],
    "scenes": [
        {
            "name": "Scene",
            "nodes": [
                0
            ]
        }
    ],
    "scene": 0
}