{
    "asset": {
        "version": "2.0",
        "generator": "gltfpack 0.23"
    },
    "extensionsUsed": [
        "EXT_meshopt_compression"
    ],
    "buffers": [
        {
            "uri": "wooden_bookshelf_worn_1k.bin",
            "byteLength": 155832
        },
        {
            "uri": "wooden_bookshelf_worn_1k.fallback.bin",
            "byteLength": 267964,
            "extensions": {
                "EXT_meshopt_compression": {
                    "fallback": true
                }
            }
        }
    ],
    "bufferViews": [
        {
            "buffer": 1,
            "byteOffset": 0,
            "byteLength": 77748,
            "byteStride": 12,
            "target": 34962,
            "extensions": {
                "EXT_meshopt_compression": {
                    "buffer": 0,
                    "byteOffset": 0,
                    "byteLength": 47492,
                    "byteStride": 12,
                    "mode": "ATTRIBUTES",
                    "count": 6479
                }
            }
        },
        {
            "buffer": 1,
            "byteOffset": 77748,
            "byteLength": 51832,
            "byteStride": 8,
            "target": 34962,
            "extensions": {
                "EXT_meshopt_compression": {
                    "buffer": 0,
                    "byteOffset": 47492,
                    "byteLength": 32300,
                    "byteStride": 8,
                    "mode": "ATTRIBUTES",
                    "count": 6479
                }
            }
        },
        {
            "buffer": 1,
            "byteOffset": 129580,
            "byteLength": 77748,
            "byteStride": 12,
            "target": 34962,
            "extensions": {
                "EXT_meshopt_compression": {
                    "buffer": 0,
                    "byteOffset": 79792,
                    "byteLength": 64987,
                    "byteStride": 12,
                    "mode": "ATTRIBUTES",
                    "count": 6479
                }
            }
        },
        {
            "buffer": 1,
            "byteOffset": 207328,
            "byteLength": 60636,
            "target": 34963,
            "extensions": {
                "EXT_meshopt_compression": {
                    "buffer": 0,
                    "byteOffset": 144780,
                    "byteLength": 11049,
                    "byteStride": 2,
                    "mode": "TRIANGLES",
                    "count": 30318
                }
            }
        }
    ],
    "accessors": [
        {
            "bufferView": 0,
            "byteOffset": 0,
            "componentType": 5126,
            "count": 6479,
            "type": "VEC3",
            "min": [
                -0.686975896,
                -5.96046448e-08,
                -0.290651023
            ],
            "max": [
                0.686975896,
                2.06344199,
                0.290650994
            ]
        },
        {
            "bufferView": 1,
            "byteOffset": 0,
            "componentType": 5126,
            "count": 6479,
            "type": "VEC2"
        },
        {
            "bufferView": 2,
            "byteOffset": 0,
            "componentType": 5126,
            "count": 6479,
            "type": "VEC3"
        },
        {
            "bufferView": 3,
            "byteOffset": 0,
            "componentType": 5123,
            "count": 30318,
            "type": "SCALAR"
        }
    ],
    "samplers": [
        {
            "magFilter": 9729,
            "minFilter": 9987
        }
    ],
    "images": [
        {
            "name": "wooden_bookshelf_worn_nor_gl",
            "uri": "textures/wooden_bookshelf_worn_nor_gl_1k.jpg"
        },
        {
            "name": "wooden_bookshelf_worn_diff",
            "uri": "textures/wooden_bookshelf_worn_diff_1k.jpg"
        },
        {
            "name": "wooden_bookshelf_worn_metal-wooden_bookshelf_worn_rough",
            "uri": "textures/wooden_bookshelf_worn_arm_1k.jpg"
        }
    ],
    "textures": [
        {
            "sampler": 0,
            "source": 0
        },
        {
            "sampler": 0,
            "source": 1
        },
        {
            "sampler": 0,
            "source": 2
        }
    ],
    "materials": [
        {
            "name": "wooden_bookshelf_worn",
            "pbrMetallicRoughness": {
                "baseColorTexture": {
                    "index": 1
                },
                "metallicRoughnessTexture": {
                    "index": 2
                }
            },
            "normalTexture": {
                "index": 0
            },
            "doubleSided": true
        }
    ],
    "meshes": [
        {
            "primitives": [
                {
                    "attributes": {
                        "POSITION": 0,
                        "TEXCOORD_0": 1,
                        "NORMAL": 2
                    },
                    "indices": 3,
                    "material": 0
                }
            ]
        }
    ],
    "nodes": [
        {
            "name": "wooden_bookshelf_worn",
            "mesh": 0
        }
    ],
    "scenes": [
        {
            "name": "Scene",
            "nodes": [
                0
            ]
        }
    ],
    "scene": 0
}