{
    "asset": {
        "version": "2.0",
        "generator": "gltfpack 0.23"
    },
    "extensionsUsed": [
        "EXT_meshopt_compression"
    ],
    "buffers": [
        {
            "uri": "forearm.bin",
            "byteLength": 10308
        },
        {
            "uri": "forearm.fallback.bin",
            "byteLength": 20424,
            "extensions": {
                "EXT_meshopt_compression": {
                    "fallback": true
                }
            }
        }
    ],
    "bufferViews": [
        {
            "buffer": 1,
            "byteOffset": 0,
            "byteLength": 10224,
            "byteStride": 12,
            "target": 34962,
            "extensions": {
                "EXT_meshopt_compression": {
                    "buffer": 0,
                    "byteOffset": 0,
                    "byteLength": 8253,
                    "byteStride": 12,
                    "mode": "ATTRIBUTES",
                    "count": 852
                }
            }
        },
        {
            "buffer": 1,
            "byteOffset": 10224,
            "byteLength": 10200,
            "target": 34963,
            "extensions": {
                "EXT_meshopt_compression": {
                    "buffer": 0,
                    "byteOffset": 8256,
                    "byteLength": 2051,
                    "byteStride": 2,
                    "mode": "TRIANGLES",
                    "count": 5100
                }
            }
        }
    ],
    "accessors": [
        {
            "bufferView": 0,
            "byteOffset": 0,
            "componentType": 5126,
            "count": 852,
            "type": "VEC3",
            "min": [
                0.0940999985,
                -0.0541023575,
                -0.0600756444
            ],
            "max": [
                0.35775727,
                0.0669405609,
                0.0600565448
            ]
        },
        {
            "bufferView": 1,
            "byteOffset": 0,
            "componentType": 5123,
            "count": 5100,
            "type": "SCALAR"
        }
    ],
    "materials": [
        {
            "name": "default",
            "pbrMetallicRoughness": {
                "baseColorFactor": [
                    0.300000012,
                    0.300000012,
                    0.300000012,
                    1
                ],
                "metallicFactor": 0
            }
        }
    ],
    "meshes": [
        {
            "primitives": [
                {
                    "attributes": {
                        "POSITION": 0
                    },
                    "indices": 1,
                    "material": 0
                }
            ]
        }
    ],
    "nodes": [
        {
            "name": "Node",
            "mesh": 0
        }
    ],
    "scenes": [
        {
            "nodes": [
                0
            ]
        }
    ],
    "scene": 0
}