{
    "asset": {
        "version": "2.0",
        "generator": "gltfpack 0.23"
    },
    "extensionsUsed": [
        "EXT_meshopt_compression"
    ],
    "buffers": [
        {
            "uri": "wrist_flex.bin",
            "byteLength": 6020
        },
        {
            "uri": "wrist_flex.fallback.bin",
            "byteLength": 11928,
            "extensions": {
                "EXT_meshopt_compression": {
                    "fallback": true
                }
            }
        }
    ],
    "bufferViews": [
        {
            "buffer": 1,
            "byteOffset": 0,
            "byteLength": 6012,
            "byteStride": 12,
            "target": 34962,
            "extensions": {
                "EXT_meshopt_compression": {
                    "buffer": 0,
                    "byteOffset": 0,
                    "byteLength": 4833,
                    "byteStride": 12,
                    "mode": "ATTRIBUTES",
                    "count": 501
                }
            }
        },
        {
            "buffer": 1,
            "byteOffset": 6012,
            "byteLength": 5916,
            "target": 34963,
            "extensions": {
                "EXT_meshopt_compression": {
                    "buffer": 0,
                    "byteOffset": 4836,
                    "byteLength": 1181,
                    "byteStride": 2,
                    "mode": "TRIANGLES",
                    "count": 2958
                }
            }
        }
    ],
    "accessors": [
        {
            "bufferView": 0,
            "byteOffset": 0,
            "componentType": 5126,
            "count": 501,
            "type": "VEC3",
            "min": [
                -0.0370225534,
                -0.0404402055,
                -0.0215000007
            ],
            "max": [
                0.027999999,
                0.0370011702,
                0.0215000007
            ]
        },
        {
            "bufferView": 1,
            "byteOffset": 0,
            "componentType": 5123,
            "count": 2958,
            "type": "SCALAR"
        }
    ],
    "materials": [
        {
            "name": "default",
            "pbrMetallicRoughness": {
                "baseColorFactor": [
                    0.300000012,
                    0.300000012,
                    0.300000012,
                    1
                ],
                "metallicFactor": 0
            }
        }
    ],
    "meshes": [
        {
            "primitives": [
                {
                    "attributes": {
                        "POSITION": 0
                    },
                    "indices": 1,
                    "material": 0
                }
            ]
        }
    ],
    "nodes": [
        {
            "name": "Node",
            "mesh": 0
        }
    ],
    "scenes": [
        {
            "nodes": [
                0
            ]
        }
    ],
    "scene": 0
}