{
	"asset":{
		"generator":"Khronos glTF Blender I/O v4.1.62",
		"version":"2.0"
	},
	"scene":0,
	"scenes":[
		{
			"name":"Scene",
			"nodes":[
				0
			]
		}
	],
	"nodes":[
		{
			"mesh":0,
			"name":"yellow_bell_pepper_no_stem_low"
		}
	],
	"materials":[
		{
			"name":"bell_pepper_no_stem_material",
			"normalTexture":{
				"index":0
			},
			"occlusionTexture":{
				"index":2
			},
			"pbrMetallicRoughness":{
				"baseColorTexture":{
					"index":1
				},
				"metallicRoughnessTexture":{
					"index":2
				}
			}
		}
	],
	"meshes":[
		{
			"name":"yellow_bell_pepper_no_stem_low_1",
			"primitives":[
				{
					"attributes":{
						"POSITION":0,
						"NORMAL":1,
						"TEXCOORD_0":2
					},
					"indices":3,
					"material":0
				}
			]
		}
	],
	"textures":[
		{
			"sampler":0,
			"source":0,
			"extensions":{
				"KHR_texture_basisu":{
					"source":3
				}
			}
		},
		{
			"sampler":0,
			"source":1,
			"extensions":{
				"KHR_texture_basisu":{
					"source":4
				}
			}
		},
		{
			"sampler":0,
			"source":2,
			"extensions":{
				"KHR_texture_basisu":{
					"source":5
				}
			}
		}
	],
	"images":[
		{
			"mimeType":"image/png",
			"name":"bell_pepper_no_stem_normal",
			"uri":"bell_pepper_no_stem_normal.png"
		},
		{
			"mimeType":"image/png",
			"name":"bell_pepper_no_stem_color",
			"uri":"bell_pepper_no_stem_color.png"
		},
		{
			"mimeType":"image/png",
			"name":"bell_pepper_no_stem_occlusion_roughness_metallic",
			"uri":"bell_pepper_no_stem_occlusion_roughness_metallic.png"
		},
		{
			"mimeType":"image/ktx2",
			"uri":"bell_pepper_no_stem_normal.ktx2"
		},
		{
			"mimeType":"image/ktx2",
			"uri":"bell_pepper_no_stem_color.ktx2"
		},
		{
			"mimeType":"image/ktx2",
			"uri":"bell_pepper_no_stem_occlusion_roughness_metallic.ktx2"
		}
	],
	"accessors":[
		{
			"bufferView":0,
			"componentType":5126,
			"count":620,
			"max":[
				0.040267180651426315,
				0.08057108521461487,
				0.04045148566365242
			],
			"min":[
				-0.040308646857738495,
				-0.00020435021724551916,
				-0.04007204249501228
			],
			"type":"VEC3"
		},
		{
			"bufferView":1,
			"componentType":5126,
			"count":620,
			"type":"VEC3"
		},
		{
			"bufferView":2,
			"componentType":5126,
			"count":620,
			"type":"VEC2"
		},
		{
			"bufferView":3,
			"componentType":5123,
			"count":2904,
			"type":"SCALAR"
		}
	],
	"bufferViews":[
		{
			"buffer":0,
			"byteLength":7440,
			"byteOffset":0,
			"target":34962
		},
		{
			"buffer":0,
			"byteLength":7440,
			"byteOffset":7440,
			"target":34962
		},
		{
			"buffer":0,
			"byteLength":4960,
			"byteOffset":14880,
			"target":34962
		},
		{
			"buffer":0,
			"byteLength":5808,
			"byteOffset":19840,
			"target":34963
		}
	],
	"samplers":[
		{
			"magFilter":9729,
			"minFilter":9987
		}
	],
	"buffers":[
		{
			"byteLength":25648,
			"uri":"yellow_bell_pepper_no_stem_low.bin"
		}
	],
	"extensionsUsed":[
		"KHR_texture_basisu"
	]
}
