{
	"accessors":[
		{
			"name":"forearm_1_0_positions",
			"componentType":5126,
			"count":12829,
			"min":[
				-0.03746679797768593,
				-0.037782102823257446,
				-0.0465499572455883
			],
			"max":[
				0.03746679797768593,
				0.2449062168598175,
				0.046567756682634354
			],
			"type":"VEC3",
			"bufferView":0,
			"byteOffset":0
		},
		{
			"name":"forearm_1_0_normals",
			"componentType":5126,
			"count":12829,
			"min":[
				-1,
				-1,
				-1
			],
			"max":[
				1,
				1,
				1
			],
			"type":"VEC3",
			"bufferView":1,
			"byteOffset":0
		},
		{
			"name":"forearm_1_0_texcoords",
			"componentType":5126,
			"count":12829,
			"min":[
				0.009064257144927979,
				0.0421525202691555
			],
			"max":[
				0.989554226398468,
				0.99094158411026
			],
			"type":"VEC2",
			"bufferView":2,
			"byteOffset":0
		},
		{
			"name":"forearm_1_0_indices",
			"componentType":5123,
			"count":65370,
			"min":[
				0
			],
			"max":[
				12828
			],
			"type":"SCALAR",
			"bufferView":3,
			"byteOffset":0
		}
	],
	"asset":{
		"generator":"obj2gltf",
		"version":"2.0"
	},
	"buffers":[
		{
			"name":"forearm",
			"byteLength":541268,
			"uri":"forearm.bin"
		}
	],
	"bufferViews":[
		{
			"name":"bufferView_0",
			"buffer":0,
			"byteLength":153948,
			"byteOffset":0,
			"byteStride":12,
			"target":34962
		},
		{
			"name":"bufferView_1",
			"buffer":0,
			"byteLength":153948,
			"byteOffset":153948,
			"byteStride":12,
			"target":34962
		},
		{
			"name":"bufferView_2",
			"buffer":0,
			"byteLength":102632,
			"byteOffset":307896,
			"byteStride":8,
			"target":34962
		},
		{
			"name":"bufferView_3",
			"buffer":0,
			"byteLength":130740,
			"byteOffset":410528,
			"target":34963
		}
	],
	"images":[
		{
			"mimeType":"image/png",
			"name":"ur3e_normal",
			"uri":"ur3e_normal.png"
		},
		{
			"mimeType":"image/png",
			"name":"ur3e_color",
			"uri":"ur3e_color.png"
		},
		{
			"mimeType":"image/png",
			"name":"ur3e_occlusion_roughness_metallic",
			"uri":"ur3e_occlusion_roughness_metallic.png"
		},
		{
			"mimeType":"image/ktx2",
			"uri":"ur3e_normal.ktx2"
		},
		{
			"mimeType":"image/ktx2",
			"uri":"ur3e_color.ktx2"
		},
		{
			"mimeType":"image/ktx2",
			"uri":"ur3e_occlusion_roughness_metallic.ktx2"
		}
	],
	"materials":[
		{
			"name":"ur3e_material",
			"normalTexture":{
				"index":0
			},
			"occlusionTexture":{
				"index":2
			},
			"pbrMetallicRoughness":{
				"baseColorFactor":[
					0.8,
					0.8,
					0.8,
					1
				],
				"baseColorTexture":{
					"index":1
				},
				"metallicRoughnessTexture":{
					"index":2
				}
			}
		}
	],
	"meshes":[
		{
			"name":"forearm_1",
			"primitives":[
				{
					"attributes":{
						"POSITION":0,
						"NORMAL":1,
						"TEXCOORD_0":2
					},
					"indices":3,
					"material":0,
					"mode":4
				}
			]
		}
	],
	"nodes":[
		{
			"name":"forearm",
			"mesh":0
		}
	],
	"samplers":[
		{
			"magFilter":9729,
			"minFilter":9987
		}
	],
	"scene":0,
	"scenes":[
		{
			"nodes":[
				0
			]
		}
	],
	"textures":[
		{
			"sampler":0,
			"source":0,
			"extensions":{
				"KHR_texture_basisu":{
					"source":3
				}
			}
		},
		{
			"sampler":0,
			"source":1,
			"extensions":{
				"KHR_texture_basisu":{
					"source":4
				}
			}
		},
		{
			"sampler":0,
			"source":2,
			"extensions":{
				"KHR_texture_basisu":{
					"source":5
				}
			}
		}
	],
	"extensionsUsed":[
		"KHR_texture_basisu"
	]
}
