{
    "asset": {
        "version": "2.0",
        "generator": "gltfpack 0.23"
    },
    "extensionsUsed": [
        "EXT_meshopt_compression",
        "KHR_texture_basisu"
    ],
    "extensionsRequired": [
        "KHR_texture_basisu"
    ],
    "buffers": [
        {
            "uri": "upperarm.bin",
            "byteLength": 517812
        },
        {
            "uri": "upperarm.fallback.bin",
            "byteLength": 865144,
            "extensions": {
                "EXT_meshopt_compression": {
                    "fallback": true
                }
            }
        }
    ],
    "bufferViews": [
        {
            "buffer": 1,
            "byteOffset": 0,
            "byteLength": 247020,
            "byteStride": 12,
            "target": 34962,
            "extensions": {
                "EXT_meshopt_compression": {
                    "buffer": 0,
                    "byteOffset": 0,
                    "byteLength": 169793,
                    "byteStride": 12,
                    "mode": "ATTRIBUTES",
                    "count": 20585
                }
            }
        },
        {
            "buffer": 1,
            "byteOffset": 247020,
            "byteLength": 247020,
            "byteStride": 12,
            "target": 34962,
            "extensions": {
                "EXT_meshopt_compression": {
                    "buffer": 0,
                    "byteOffset": 169796,
                    "byteLength": 205410,
                    "byteStride": 12,
                    "mode": "ATTRIBUTES",
                    "count": 20585
                }
            }
        },
        {
            "buffer": 1,
            "byteOffset": 494040,
            "byteLength": 164680,
            "byteStride": 8,
            "target": 34962,
            "extensions": {
                "EXT_meshopt_compression": {
                    "buffer": 0,
                    "byteOffset": 375208,
                    "byteLength": 102975,
                    "byteStride": 8,
                    "mode": "ATTRIBUTES",
                    "count": 20585
                }
            }
        },
        {
            "buffer": 1,
            "byteOffset": 658720,
            "byteLength": 206424,
            "target": 34963,
            "extensions": {
                "EXT_meshopt_compression": {
                    "buffer": 0,
                    "byteOffset": 478184,
                    "byteLength": 39626,
                    "byteStride": 2,
                    "mode": "TRIANGLES",
                    "count": 103212
                }
            }
        }
    ],
    "accessors": [
        {
            "bufferView": 0,
            "byteOffset": 0,
            "componentType": 5126,
            "count": 20585,
            "type": "VEC3",
            "min": [
                -0.0468996689,
                -0.0470944569,
                -0.0580354258
            ],
            "max": [
                0.0468996838,
                0.282691091,
                0.0570500307
            ]
        },
        {
            "bufferView": 1,
            "byteOffset": 0,
            "componentType": 5126,
            "count": 20585,
            "type": "VEC3"
        },
        {
            "bufferView": 2,
            "byteOffset": 0,
            "componentType": 5126,
            "count": 20585,
            "type": "VEC2"
        },
        {
            "bufferView": 3,
            "byteOffset": 0,
            "componentType": 5123,
            "count": 103212,
            "type": "SCALAR"
        }
    ],
    "samplers": [
        {
            "magFilter": 9729,
            "minFilter": 9987
        }
    ],
    "images": [
        {
            "name": "ur3e_normal",
            "uri": "ur3e_normal.png"
        },
        {
            "name": "ur3e_color",
            "uri": "ur3e_color.png"
        },
        {
            "name": "ur3e_occlusion_roughness_metallic",
            "uri": "ur3e_occlusion_roughness_metallic.png"
        },
        {
            "uri": "ur3e_normal.ktx2"
        },
        {
            "uri": "ur3e_color.ktx2"
        },
        {
            "uri": "ur3e_occlusion_roughness_metallic.ktx2"
        }
    ],
    "textures": [
        {
            "sampler": 0,
            "source": 0,
            "extensions": {
                "KHR_texture_basisu": {
                    "source": 3
                }
            }
        },
        {
            "sampler": 0,
            "source": 1,
            "extensions": {
                "KHR_texture_basisu": {
                    "source": 4
                }
            }
        },
        {
            "sampler": 0,
            "source": 2,
            "extensions": {
                "KHR_texture_basisu": {
                    "source": 5
                }
            }
        }
    ],
    "materials": [
        {
            "name": "ur3e_material",
            "pbrMetallicRoughness": {
                "baseColorFactor": [
                    0.800000012,
                    0.800000012,
                    0.800000012,
                    1
                ],
                "baseColorTexture": {
                    "index": 1
                },
                "metallicRoughnessTexture": {
                    "index": 2
                }
            },
            "normalTexture": {
                "index": 0
            },
            "occlusionTexture": {
                "index": 2
            }
        }
    ],
    "meshes": [
        {
            "primitives": [
                {
                    "attributes": {
                        "POSITION": 0,
                        "NORMAL": 1,
                        "TEXCOORD_0": 2
                    },
                    "indices": 3,
                    "material": 0
                }
            ]
        }
    ],
    "nodes": [
        {
            "name": "upperarm",
            "mesh": 0
        }
    ],
    "scenes": [
        {
            "nodes": [
                0
            ]
        }
    ],
    "scene": 0
}