{
  "accessors": [
    {
      "name": "upperarm_1_0_positions",
      "componentType": 5126,
      "count": 20585,
      "min": [
        -0.046899668872356415,
        -0.04709445685148239,
        -0.05803542584180832
      ],
      "max": [
        0.04689968377351761,
        0.282691091299057,
        0.057050030678510666
      ],
      "type": "VEC3",
      "bufferView": 0,
      "byteOffset": 0
    },
    {
      "name": "upperarm_1_0_normals",
      "componentType": 5126,
      "count": 20585,
      "min": [
        -1,
        -1,
        -1
      ],
      "max": [
        1,
        1,
        1
      ],
      "type": "VEC3",
      "bufferView": 1,
      "byteOffset": 0
    },
    {
      "name": "upperarm_1_0_texcoords",
      "componentType": 5126,
      "count": 20585,
      "min": [
        0.009058673866093159,
        0.009260299615561962
      ],
      "max": [
        0.9000205993652344,
        0.9909340143203735
      ],
      "type": "VEC2",
      "bufferView": 2,
      "byteOffset": 0
    },
    {
      "name": "upperarm_1_0_indices",
      "componentType": 5123,
      "count": 103212,
      "min": [
        0
      ],
      "max": [
        20584
      ],
      "type": "SCALAR",
      "bufferView": 3,
      "byteOffset": 0
    }
  ],
  "asset": {
    "generator": "obj2gltf",
    "version": "2.0"
  },
  "buffers": [
    {
      "name": "upperarm",
      "byteLength": 865144,
      "uri": "upperarm.bin"
    }
  ],
  "bufferViews": [
    {
      "name": "bufferView_0",
      "buffer": 0,
      "byteLength": 247020,
      "byteOffset": 0,
      "byteStride": 12,
      "target": 34962
    },
    {
      "name": "bufferView_1",
      "buffer": 0,
      "byteLength": 247020,
      "byteOffset": 247020,
      "byteStride": 12,
      "target": 34962
    },
    {
      "name": "bufferView_2",
      "buffer": 0,
      "byteLength": 164680,
      "byteOffset": 494040,
      "byteStride": 8,
      "target": 34962
    },
    {
      "name": "bufferView_3",
      "buffer": 0,
      "byteLength": 206424,
      "byteOffset": 658720,
      "target": 34963
    }
  ],
  "images": [
		{
			"mimeType":"image/png",
			"name":"ur3e_normal",
			"uri":"ur3e_normal.png"
		},
		{
			"mimeType":"image/png",
			"name":"ur3e_color",
			"uri":"ur3e_color.png"
		},
		{
			"mimeType":"image/png",
			"name":"ur3e_occlusion_roughness_metallic",
			"uri":"ur3e_occlusion_roughness_metallic.png"
		},
		{
			"mimeType":"image/ktx2",
			"uri":"ur3e_normal.ktx2"
		},
		{
			"mimeType":"image/ktx2",
			"uri":"ur3e_color.ktx2"
		},
		{
			"mimeType":"image/ktx2",
			"uri":"ur3e_occlusion_roughness_metallic.ktx2"
		}
  ],
  "materials": [
		{
			"name":"ur3e_material",
			"normalTexture":{
				"index":0
			},
			"occlusionTexture":{
				"index":2
			},
			"pbrMetallicRoughness":{
				"baseColorFactor":[
					0.8,
					0.8,
					0.8,
					1
				],
				"baseColorTexture":{
					"index":1
				},
				"metallicRoughnessTexture":{
					"index":2
				}
			}
		}
  ],
  "meshes": [
    {
      "name": "upperarm_1",
      "primitives": [
        {
          "attributes": {
            "POSITION": 0,
            "NORMAL": 1,
            "TEXCOORD_0": 2
          },
          "indices": 3,
          "material": 0,
          "mode": 4
        }
      ]
    }
  ],
  "nodes": [
    {
      "name": "upperarm",
      "mesh": 0
    }
  ],
  "samplers": [
		{
			"magFilter":9729,
			"minFilter":9987
		}
  ],
  "scene": 0,
  "scenes": [
    {
      "nodes": [
        0
      ]
    }
  ],
  "textures": [
		{
			"sampler":0,
			"source":0,
			"extensions":{
				"KHR_texture_basisu":{
					"source":3
				}
			}
		},
		{
			"sampler":0,
			"source":1,
			"extensions":{
				"KHR_texture_basisu":{
					"source":4
				}
			}
		},
		{
			"sampler":0,
			"source":2,
			"extensions":{
				"KHR_texture_basisu":{
					"source":5
				}
			}
		}
  ],
	"extensionsUsed":[
		"KHR_texture_basisu"
	]
}
