{
    "asset": {
        "version": "2.0",
        "generator": "gltfpack 0.23"
    },
    "extensionsUsed": [
        "EXT_meshopt_compression",
        "KHR_texture_basisu"
    ],
    "extensionsRequired": [
        "KHR_texture_basisu"
    ],
    "buffers": [
        {
            "uri": "wrist3.bin",
            "byteLength": 89836
        },
        {
            "uri": "wrist3.fallback.bin",
            "byteLength": 149016,
            "extensions": {
                "EXT_meshopt_compression": {
                    "fallback": true
                }
            }
        }
    ],
    "bufferViews": [
        {
            "buffer": 1,
            "byteOffset": 0,
            "byteLength": 45972,
            "byteStride": 12,
            "target": 34962,
            "extensions": {
                "EXT_meshopt_compression": {
                    "buffer": 0,
                    "byteOffset": 0,
                    "byteLength": 31195,
                    "byteStride": 12,
                    "mode": "ATTRIBUTES",
                    "count": 3831
                }
            }
        },
        {
            "buffer": 1,
            "byteOffset": 45972,
            "byteLength": 45972,
            "byteStride": 12,
            "target": 34962,
            "extensions": {
                "EXT_meshopt_compression": {
                    "buffer": 0,
                    "byteOffset": 31196,
                    "byteLength": 33351,
                    "byteStride": 12,
                    "mode": "ATTRIBUTES",
                    "count": 3831
                }
            }
        },
        {
            "buffer": 1,
            "byteOffset": 91944,
            "byteLength": 30648,
            "byteStride": 8,
            "target": 34962,
            "extensions": {
                "EXT_meshopt_compression": {
                    "buffer": 0,
                    "byteOffset": 64548,
                    "byteLength": 20606,
                    "byteStride": 8,
                    "mode": "ATTRIBUTES",
                    "count": 3831
                }
            }
        },
        {
            "buffer": 1,
            "byteOffset": 122592,
            "byteLength": 26424,
            "target": 34963,
            "extensions": {
                "EXT_meshopt_compression": {
                    "buffer": 0,
                    "byteOffset": 85156,
                    "byteLength": 4678,
                    "byteStride": 2,
                    "mode": "TRIANGLES",
                    "count": 13212
                }
            }
        }
    ],
    "accessors": [
        {
            "bufferView": 0,
            "byteOffset": 0,
            "componentType": 5126,
            "count": 3831,
            "type": "VEC3",
            "min": [
                -0.0315001495,
                -0.0315500386,
                -0.0921499431
            ],
            "max": [
                0.0315001495,
                0.0377970338,
                -0.0504499413
            ]
        },
        {
            "bufferView": 1,
            "byteOffset": 0,
            "componentType": 5126,
            "count": 3831,
            "type": "VEC3"
        },
        {
            "bufferView": 2,
            "byteOffset": 0,
            "componentType": 5126,
            "count": 3831,
            "type": "VEC2"
        },
        {
            "bufferView": 3,
            "byteOffset": 0,
            "componentType": 5123,
            "count": 13212,
            "type": "SCALAR"
        }
    ],
    "samplers": [
        {
            "magFilter": 9729,
            "minFilter": 9987
        }
    ],
    "images": [
        {
            "name": "ur3e_normal",
            "uri": "ur3e_normal.png"
        },
        {
            "name": "ur3e_color",
            "uri": "ur3e_color.png"
        },
        {
            "name": "ur3e_occlusion_roughness_metallic",
            "uri": "ur3e_occlusion_roughness_metallic.png"
        },
        {
            "uri": "ur3e_normal.ktx2"
        },
        {
            "uri": "ur3e_color.ktx2"
        },
        {
            "uri": "ur3e_occlusion_roughness_metallic.ktx2"
        }
    ],
    "textures": [
        {
            "sampler": 0,
            "source": 0,
            "extensions": {
                "KHR_texture_basisu": {
                    "source": 3
                }
            }
        },
        {
            "sampler": 0,
            "source": 1,
            "extensions": {
                "KHR_texture_basisu": {
                    "source": 4
                }
            }
        },
        {
            "sampler": 0,
            "source": 2,
            "extensions": {
                "KHR_texture_basisu": {
                    "source": 5
                }
            }
        }
    ],
    "materials": [
        {
            "name": "ur3e_material",
            "pbrMetallicRoughness": {
                "baseColorFactor": [
                    0.800000012,
                    0.800000012,
                    0.800000012,
                    1
                ],
                "baseColorTexture": {
                    "index": 1
                },
                "metallicRoughnessTexture": {
                    "index": 2
                }
            },
            "normalTexture": {
                "index": 0
            },
            "occlusionTexture": {
                "index": 2
            }
        }
    ],
    "meshes": [
        {
            "primitives": [
                {
                    "attributes": {
                        "POSITION": 0,
                        "NORMAL": 1,
                        "TEXCOORD_0": 2
                    },
                    "indices": 3,
                    "material": 0
                }
            ]
        }
    ],
    "nodes": [
        {
            "name": "wrist3",
            "mesh": 0
        }
    ],
    "scenes": [
        {
            "nodes": [
                0
            ]
        }
    ],
    "scene": 0
}