{
    "asset": {
        "version": "2.0",
        "generator": "gltfpack 0.23"
    },
    "extensionsUsed": [
        "EXT_meshopt_compression",
        "KHR_texture_basisu"
    ],
    "extensionsRequired": [
        "KHR_texture_basisu"
    ],
    "buffers": [
        {
            "uri": "wrist1.bin",
            "byteLength": 222632
        },
        {
            "uri": "wrist1.fallback.bin",
            "byteLength": 369908,
            "extensions": {
                "EXT_meshopt_compression": {
                    "fallback": true
                }
            }
        }
    ],
    "bufferViews": [
        {
            "buffer": 1,
            "byteOffset": 0,
            "byteLength": 105384,
            "byteStride": 12,
            "target": 34962,
            "extensions": {
                "EXT_meshopt_compression": {
                    "buffer": 0,
                    "byteOffset": 0,
                    "byteLength": 72831,
                    "byteStride": 12,
                    "mode": "ATTRIBUTES",
                    "count": 8782
                }
            }
        },
        {
            "buffer": 1,
            "byteOffset": 105384,
            "byteLength": 105384,
            "byteStride": 12,
            "target": 34962,
            "extensions": {
                "EXT_meshopt_compression": {
                    "buffer": 0,
                    "byteOffset": 72832,
                    "byteLength": 88391,
                    "byteStride": 12,
                    "mode": "ATTRIBUTES",
                    "count": 8782
                }
            }
        },
        {
            "buffer": 1,
            "byteOffset": 210768,
            "byteLength": 70256,
            "byteStride": 8,
            "target": 34962,
            "extensions": {
                "EXT_meshopt_compression": {
                    "buffer": 0,
                    "byteOffset": 161224,
                    "byteLength": 44290,
                    "byteStride": 8,
                    "mode": "ATTRIBUTES",
                    "count": 8782
                }
            }
        },
        {
            "buffer": 1,
            "byteOffset": 281024,
            "byteLength": 88884,
            "target": 34963,
            "extensions": {
                "EXT_meshopt_compression": {
                    "buffer": 0,
                    "byteOffset": 205516,
                    "byteLength": 17115,
                    "byteStride": 2,
                    "mode": "TRIANGLES",
                    "count": 44442
                }
            }
        }
    ],
    "accessors": [
        {
            "bufferView": 0,
            "byteOffset": 0,
            "componentType": 5126,
            "count": 8782,
            "type": "VEC3",
            "min": [
                -0.0321860686,
                -0.0469677299,
                -0.136356115
            ],
            "max": [
                0.0321859941,
                0.0426999703,
                -0.0430999212
            ]
        },
        {
            "bufferView": 1,
            "byteOffset": 0,
            "componentType": 5126,
            "count": 8782,
            "type": "VEC3"
        },
        {
            "bufferView": 2,
            "byteOffset": 0,
            "componentType": 5126,
            "count": 8782,
            "type": "VEC2"
        },
        {
            "bufferView": 3,
            "byteOffset": 0,
            "componentType": 5123,
            "count": 44442,
            "type": "SCALAR"
        }
    ],
    "samplers": [
        {
            "magFilter": 9729,
            "minFilter": 9987
        }
    ],
    "images": [
        {
            "name": "ur3e_normal",
            "uri": "ur3e_normal.png"
        },
        {
            "name": "ur3e_color",
            "uri": "ur3e_color.png"
        },
        {
            "name": "ur3e_occlusion_roughness_metallic",
            "uri": "ur3e_occlusion_roughness_metallic.png"
        },
        {
            "uri": "ur3e_normal.ktx2"
        },
        {
            "uri": "ur3e_color.ktx2"
        },
        {
            "uri": "ur3e_occlusion_roughness_metallic.ktx2"
        }
    ],
    "textures": [
        {
            "sampler": 0,
            "source": 0,
            "extensions": {
                "KHR_texture_basisu": {
                    "source": 3
                }
            }
        },
        {
            "sampler": 0,
            "source": 1,
            "extensions": {
                "KHR_texture_basisu": {
                    "source": 4
                }
            }
        },
        {
            "sampler": 0,
            "source": 2,
            "extensions": {
                "KHR_texture_basisu": {
                    "source": 5
                }
            }
        }
    ],
    "materials": [
        {
            "name": "ur3e_material",
            "pbrMetallicRoughness": {
                "baseColorFactor": [
                    0.800000012,
                    0.800000012,
                    0.800000012,
                    1
                ],
                "baseColorTexture": {
                    "index": 1
                },
                "metallicRoughnessTexture": {
                    "index": 2
                }
            },
            "normalTexture": {
                "index": 0
            },
            "occlusionTexture": {
                "index": 2
            }
        }
    ],
    "meshes": [
        {
            "primitives": [
                {
                    "attributes": {
                        "POSITION": 0,
                        "NORMAL": 1,
                        "TEXCOORD_0": 2
                    },
                    "indices": 3,
                    "material": 0
                }
            ]
        }
    ],
    "nodes": [
        {
            "name": "wrist1",
            "mesh": 0
        }
    ],
    "scenes": [
        {
            "nodes": [
                0
            ]
        }
    ],
    "scene": 0
}