{
    "asset": {
        "version": "2.0",
        "generator": "gltfpack 0.23"
    },
    "extensionsUsed": [
        "EXT_meshopt_compression",
        "KHR_texture_basisu"
    ],
    "extensionsRequired": [
        "KHR_texture_basisu"
    ],
    "buffers": [
        {
            "uri": "wrist2.bin",
            "byteLength": 246412
        },
        {
            "uri": "wrist2.fallback.bin",
            "byteLength": 412272,
            "extensions": {
                "EXT_meshopt_compression": {
                    "fallback": true
                }
            }
        }
    ],
    "bufferViews": [
        {
            "buffer": 1,
            "byteOffset": 0,
            "byteLength": 118368,
            "byteStride": 12,
            "target": 34962,
            "extensions": {
                "EXT_meshopt_compression": {
                    "buffer": 0,
                    "byteOffset": 0,
                    "byteLength": 80729,
                    "byteStride": 12,
                    "mode": "ATTRIBUTES",
                    "count": 9864
                }
            }
        },
        {
            "buffer": 1,
            "byteOffset": 118368,
            "byteLength": 118368,
            "byteStride": 12,
            "target": 34962,
            "extensions": {
                "EXT_meshopt_compression": {
                    "buffer": 0,
                    "byteOffset": 80732,
                    "byteLength": 98023,
                    "byteStride": 12,
                    "mode": "ATTRIBUTES",
                    "count": 9864
                }
            }
        },
        {
            "buffer": 1,
            "byteOffset": 236736,
            "byteLength": 78912,
            "byteStride": 8,
            "target": 34962,
            "extensions": {
                "EXT_meshopt_compression": {
                    "buffer": 0,
                    "byteOffset": 178756,
                    "byteLength": 49285,
                    "byteStride": 8,
                    "mode": "ATTRIBUTES",
                    "count": 9864
                }
            }
        },
        {
            "buffer": 1,
            "byteOffset": 315648,
            "byteLength": 96624,
            "target": 34963,
            "extensions": {
                "EXT_meshopt_compression": {
                    "buffer": 0,
                    "byteOffset": 228044,
                    "byteLength": 18367,
                    "byteStride": 2,
                    "mode": "TRIANGLES",
                    "count": 48312
                }
            }
        }
    ],
    "accessors": [
        {
            "bufferView": 0,
            "byteOffset": 0,
            "componentType": 5126,
            "count": 9864,
            "type": "VEC3",
            "min": [
                -0.0321860053,
                0.0427000113,
                -0.0504499413
            ],
            "max": [
                0.0321860649,
                0.11725533,
                0.0465178117
            ]
        },
        {
            "bufferView": 1,
            "byteOffset": 0,
            "componentType": 5126,
            "count": 9864,
            "type": "VEC3"
        },
        {
            "bufferView": 2,
            "byteOffset": 0,
            "componentType": 5126,
            "count": 9864,
            "type": "VEC2"
        },
        {
            "bufferView": 3,
            "byteOffset": 0,
            "componentType": 5123,
            "count": 48312,
            "type": "SCALAR"
        }
    ],
    "samplers": [
        {
            "magFilter": 9729,
            "minFilter": 9987
        }
    ],
    "images": [
        {
            "name": "ur3e_normal",
            "uri": "ur3e_normal.png"
        },
        {
            "name": "ur3e_color",
            "uri": "ur3e_color.png"
        },
        {
            "name": "ur3e_occlusion_roughness_metallic",
            "uri": "ur3e_occlusion_roughness_metallic.png"
        },
        {
            "uri": "ur3e_normal.ktx2"
        },
        {
            "uri": "ur3e_color.ktx2"
        },
        {
            "uri": "ur3e_occlusion_roughness_metallic.ktx2"
        }
    ],
    "textures": [
        {
            "sampler": 0,
            "source": 0,
            "extensions": {
                "KHR_texture_basisu": {
                    "source": 3
                }
            }
        },
        {
            "sampler": 0,
            "source": 1,
            "extensions": {
                "KHR_texture_basisu": {
                    "source": 4
                }
            }
        },
        {
            "sampler": 0,
            "source": 2,
            "extensions": {
                "KHR_texture_basisu": {
                    "source": 5
                }
            }
        }
    ],
    "materials": [
        {
            "name": "ur3e_material",
            "pbrMetallicRoughness": {
                "baseColorFactor": [
                    0.800000012,
                    0.800000012,
                    0.800000012,
                    1
                ],
                "baseColorTexture": {
                    "index": 1
                },
                "metallicRoughnessTexture": {
                    "index": 2
                }
            },
            "normalTexture": {
                "index": 0
            },
            "occlusionTexture": {
                "index": 2
            }
        }
    ],
    "meshes": [
        {
            "primitives": [
                {
                    "attributes": {
                        "POSITION": 0,
                        "NORMAL": 1,
                        "TEXCOORD_0": 2
                    },
                    "indices": 3,
                    "material": 0
                }
            ]
        }
    ],
    "nodes": [
        {
            "name": "wrist2",
            "mesh": 0
        }
    ],
    "scenes": [
        {
            "nodes": [
                0
            ]
        }
    ],
    "scene": 0
}