{
    "asset": {
        "version": "2.0",
        "generator": "gltfpack 0.23"
    },
    "extensionsUsed": [
        "EXT_meshopt_compression",
        "KHR_texture_basisu"
    ],
    "extensionsRequired": [
        "KHR_texture_basisu"
    ],
    "buffers": [
        {
            "uri": "003_cracker_box_textured.bin",
            "byteLength": 222400
        },
        {
            "uri": "003_cracker_box_textured.fallback.bin",
            "byteLength": 367968,
            "extensions": {
                "EXT_meshopt_compression": {
                    "fallback": true
                }
            }
        }
    ],
    "bufferViews": [
        {
            "buffer": 1,
            "byteOffset": 0,
            "byteLength": 101124,
            "byteStride": 12,
            "target": 34962,
            "extensions": {
                "EXT_meshopt_compression": {
                    "buffer": 0,
                    "byteOffset": 0,
                    "byteLength": 74399,
                    "byteStride": 12,
                    "mode": "ATTRIBUTES",
                    "count": 8427
                }
            }
        },
        {
            "buffer": 1,
            "byteOffset": 101124,
            "byteLength": 101124,
            "byteStride": 12,
            "target": 34962,
            "extensions": {
                "EXT_meshopt_compression": {
                    "buffer": 0,
                    "byteOffset": 74400,
                    "byteLength": 82543,
                    "byteStride": 12,
                    "mode": "ATTRIBUTES",
                    "count": 8427
                }
            }
        },
        {
            "buffer": 1,
            "byteOffset": 202248,
            "byteLength": 67416,
            "byteStride": 8,
            "target": 34962,
            "extensions": {
                "EXT_meshopt_compression": {
                    "buffer": 0,
                    "byteOffset": 156944,
                    "byteLength": 45741,
                    "byteStride": 8,
                    "mode": "ATTRIBUTES",
                    "count": 8427
                }
            }
        },
        {
            "buffer": 1,
            "byteOffset": 269664,
            "byteLength": 98304,
            "target": 34963,
            "extensions": {
                "EXT_meshopt_compression": {
                    "buffer": 0,
                    "byteOffset": 202688,
                    "byteLength": 19709,
                    "byteStride": 2,
                    "mode": "TRIANGLES",
                    "count": 49152
                }
            }
        }
    ],
    "accessors": [
        {
            "bufferView": 0,
            "byteOffset": 0,
            "componentType": 5126,
            "count": 8427,
            "type": "VEC3",
            "min": [
                -0.048785001,
                -0.00324300001,
                -0.0678760037
            ],
            "max": [
                0.0230149999,
                0.210194007,
                0.0961600021
            ]
        },
        {
            "bufferView": 1,
            "byteOffset": 0,
            "componentType": 5126,
            "count": 8427,
            "type": "VEC3"
        },
        {
            "bufferView": 2,
            "byteOffset": 0,
            "componentType": 5126,
            "count": 8427,
            "type": "VEC2"
        },
        {
            "bufferView": 3,
            "byteOffset": 0,
            "componentType": 5123,
            "count": 49152,
            "type": "SCALAR"
        }
    ],
    "samplers": [
        {
            "magFilter": 9729,
            "minFilter": 9986
        }
    ],
    "images": [
        {
            "name": "003_cracker_box_textured",
            "uri": "003_cracker_box_textured.png"
        },
        {
            "uri": "003_cracker_box_textured.ktx2"
        }
    ],
    "textures": [
        {
            "sampler": 0,
            "source": 0,
            "extensions": {
                "KHR_texture_basisu": {
                    "source": 1
                }
            }
        }
    ],
    "materials": [
        {
            "name": "material_0",
            "pbrMetallicRoughness": {
                "baseColorTexture": {
                    "index": 0
                },
                "metallicFactor": 0
            }
        }
    ],
    "meshes": [
        {
            "primitives": [
                {
                    "attributes": {
                        "POSITION": 0,
                        "NORMAL": 1,
                        "TEXCOORD_0": 2
                    },
                    "indices": 3,
                    "material": 0
                }
            ]
        }
    ],
    "nodes": [
        {
            "name": "Node",
            "mesh": 0
        }
    ],
    "scenes": [
        {
            "nodes": [
                0
            ]
        }
    ],
    "scene": 0
}