{
	"accessors":[
		{
			"name":"Node-Mesh_0_positions",
			"componentType":5126,
			"count":8427,
			"min":[
				-0.048785001039505005,
				-0.0032430000137537718,
				-0.06787600368261337
			],
			"max":[
				0.02301499992609024,
				0.21019400656223297,
				0.09616000205278397
			],
			"type":"VEC3",
			"bufferView":0,
			"byteOffset":0
		},
		{
			"name":"Node-Mesh_0_normals",
			"componentType":5126,
			"count":8427,
			"min":[
				-0.9999999403953552,
				-1,
				-0.9999999403953552
			],
			"max":[
				0.9999988079071045,
				0.9999979734420776,
				0.9999994039535522
			],
			"type":"VEC3",
			"bufferView":1,
			"byteOffset":0
		},
		{
			"name":"Node-Mesh_0_texcoords",
			"componentType":5126,
			"count":8427,
			"min":[
				0.009085999801754951,
				0.2519730031490326
			],
			"max":[
				0.990913987159729,
				0.990913987159729
			],
			"type":"VEC2",
			"bufferView":2,
			"byteOffset":0
		},
		{
			"name":"Node-Mesh_0_indices",
			"componentType":5123,
			"count":49152,
			"min":[
				0
			],
			"max":[
				8426
			],
			"type":"SCALAR",
			"bufferView":3,
			"byteOffset":0
		}
	],
	"asset":{
		"generator":"obj2gltf",
		"version":"2.0"
	},
	"buffers":[
		{
			"name":"003_cracker_box_textured",
			"byteLength":367968,
			"uri":"003_cracker_box_textured.bin"
		}
	],
	"bufferViews":[
		{
			"name":"bufferView_0",
			"buffer":0,
			"byteLength":101124,
			"byteOffset":0,
			"byteStride":12,
			"target":34962
		},
		{
			"name":"bufferView_1",
			"buffer":0,
			"byteLength":101124,
			"byteOffset":101124,
			"byteStride":12,
			"target":34962
		},
		{
			"name":"bufferView_2",
			"buffer":0,
			"byteLength":67416,
			"byteOffset":202248,
			"byteStride":8,
			"target":34962
		},
		{
			"name":"bufferView_3",
			"buffer":0,
			"byteLength":98304,
			"byteOffset":269664,
			"target":34963
		}
	],
	"images":[
		{
			"name":"003_cracker_box_textured",
			"mimeType":"image/png",
			"uri":"003_cracker_box_textured.png"
		},
		{
			"mimeType":"image/ktx2",
			"uri":"003_cracker_box_textured.ktx2"
		}
	],
	"materials":[
		{
			"name":"material_0",
			"pbrMetallicRoughness":{
				"baseColorTexture":{
					"index":0
				},
				"baseColorFactor":[
					1,
					1,
					1,
					1
				],
				"metallicFactor":0,
				"roughnessFactor":1
			},
			"emissiveFactor":[
				0,
				0,
				0
			],
			"alphaMode":"OPAQUE",
			"doubleSided":false
		}
	],
	"meshes":[
		{
			"name":"Node-Mesh",
			"primitives":[
				{
					"attributes":{
						"POSITION":0,
						"NORMAL":1,
						"TEXCOORD_0":2
					},
					"indices":3,
					"material":0,
					"mode":4
				}
			]
		}
	],
	"nodes":[
		{
			"name":"Node",
			"mesh":0
		}
	],
	"samplers":[
		{
			"magFilter":9729,
			"minFilter":9986,
			"wrapS":10497,
			"wrapT":10497
		}
	],
	"scene":0,
	"scenes":[
		{
			"nodes":[
				0
			]
		}
	],
	"textures":[
		{
			"name":"003_cracker_box_textured",
			"sampler":0,
			"source":0,
			"extensions":{
				"KHR_texture_basisu":{
					"source":1
				}
			}
		}
	],
	"extensionsUsed":[
		"KHR_texture_basisu"
	]
}
