{
    "asset": {
        "version": "2.0",
        "generator": "gltfpack 0.23"
    },
    "extensionsUsed": [
        "EXT_meshopt_compression",
        "KHR_texture_basisu"
    ],
    "extensionsRequired": [
        "KHR_texture_basisu"
    ],
    "buffers": [
        {
            "uri": "005_tomato_soup_can_textured.bin",
            "byteLength": 230968
        },
        {
            "uri": "005_tomato_soup_can_textured.fallback.bin",
            "byteLength": 378176,
            "extensions": {
                "EXT_meshopt_compression": {
                    "fallback": true
                }
            }
        }
    ],
    "bufferViews": [
        {
            "buffer": 1,
            "byteOffset": 0,
            "byteLength": 104952,
            "byteStride": 12,
            "target": 34962,
            "extensions": {
                "EXT_meshopt_compression": {
                    "buffer": 0,
                    "byteOffset": 0,
                    "byteLength": 74791,
                    "byteStride": 12,
                    "mode": "ATTRIBUTES",
                    "count": 8746
                }
            }
        },
        {
            "buffer": 1,
            "byteOffset": 104952,
            "byteLength": 104952,
            "byteStride": 12,
            "target": 34962,
            "extensions": {
                "EXT_meshopt_compression": {
                    "buffer": 0,
                    "byteOffset": 74792,
                    "byteLength": 89608,
                    "byteStride": 12,
                    "mode": "ATTRIBUTES",
                    "count": 8746
                }
            }
        },
        {
            "buffer": 1,
            "byteOffset": 209904,
            "byteLength": 69968,
            "byteStride": 8,
            "target": 34962,
            "extensions": {
                "EXT_meshopt_compression": {
                    "buffer": 0,
                    "byteOffset": 164400,
                    "byteLength": 46865,
                    "byteStride": 8,
                    "mode": "ATTRIBUTES",
                    "count": 8746
                }
            }
        },
        {
            "buffer": 1,
            "byteOffset": 279872,
            "byteLength": 98304,
            "target": 34963,
            "extensions": {
                "EXT_meshopt_compression": {
                    "buffer": 0,
                    "byteOffset": 211268,
                    "byteLength": 19698,
                    "byteStride": 2,
                    "mode": "TRIANGLES",
                    "count": 49152
                }
            }
        }
    ],
    "accessors": [
        {
            "bufferView": 0,
            "byteOffset": 0,
            "componentType": 5126,
            "count": 8746,
            "type": "VEC3",
            "min": [
                -0.0431240015,
                7.89999976e-05,
                -0.117889002
            ],
            "max": [
                0.0247869994,
                0.101934001,
                -0.0501459986
            ]
        },
        {
            "bufferView": 1,
            "byteOffset": 0,
            "componentType": 5126,
            "count": 8746,
            "type": "VEC3"
        },
        {
            "bufferView": 2,
            "byteOffset": 0,
            "componentType": 5126,
            "count": 8746,
            "type": "VEC2"
        },
        {
            "bufferView": 3,
            "byteOffset": 0,
            "componentType": 5123,
            "count": 49152,
            "type": "SCALAR"
        }
    ],
    "samplers": [
        {
            "magFilter": 9729,
            "minFilter": 9986
        }
    ],
    "images": [
        {
            "name": "005_tomato_soup_can_textured",
            "uri": "005_tomato_soup_can_textured.png"
        },
        {
            "uri": "005_tomato_soup_can_textured.ktx2"
        }
    ],
    "textures": [
        {
            "sampler": 0,
            "source": 0,
            "extensions": {
                "KHR_texture_basisu": {
                    "source": 1
                }
            }
        }
    ],
    "materials": [
        {
            "name": "material_0",
            "pbrMetallicRoughness": {
                "baseColorTexture": {
                    "index": 0
                },
                "metallicFactor": 0
            }
        }
    ],
    "meshes": [
        {
            "primitives": [
                {
                    "attributes": {
                        "POSITION": 0,
                        "NORMAL": 1,
                        "TEXCOORD_0": 2
                    },
                    "indices": 3,
                    "material": 0
                }
            ]
        }
    ],
    "nodes": [
        {
            "name": "Node",
            "mesh": 0
        }
    ],
    "scenes": [
        {
            "nodes": [
                0
            ]
        }
    ],
    "scene": 0
}