{
    "asset": {
        "version": "2.0",
        "generator": "gltfpack 0.23"
    },
    "extensionsUsed": [
        "EXT_meshopt_compression",
        "KHR_texture_basisu"
    ],
    "extensionsRequired": [
        "KHR_texture_basisu"
    ],
    "buffers": [
        {
            "uri": "006_mustard_bottle_textured.bin",
            "byteLength": 225368
        },
        {
            "uri": "006_mustard_bottle_textured.fallback.bin",
            "byteLength": 367840,
            "extensions": {
                "EXT_meshopt_compression": {
                    "fallback": true
                }
            }
        }
    ],
    "bufferViews": [
        {
            "buffer": 1,
            "byteOffset": 0,
            "byteLength": 101076,
            "byteStride": 12,
            "target": 34962,
            "extensions": {
                "EXT_meshopt_compression": {
                    "buffer": 0,
                    "byteOffset": 0,
                    "byteLength": 77216,
                    "byteStride": 12,
                    "mode": "ATTRIBUTES",
                    "count": 8423
                }
            }
        },
        {
            "buffer": 1,
            "byteOffset": 101076,
            "byteLength": 101076,
            "byteStride": 12,
            "target": 34962,
            "extensions": {
                "EXT_meshopt_compression": {
                    "buffer": 0,
                    "byteOffset": 77216,
                    "byteLength": 81957,
                    "byteStride": 12,
                    "mode": "ATTRIBUTES",
                    "count": 8423
                }
            }
        },
        {
            "buffer": 1,
            "byteOffset": 202152,
            "byteLength": 67384,
            "byteStride": 8,
            "target": 34962,
            "extensions": {
                "EXT_meshopt_compression": {
                    "buffer": 0,
                    "byteOffset": 159176,
                    "byteLength": 46415,
                    "byteStride": 8,
                    "mode": "ATTRIBUTES",
                    "count": 8423
                }
            }
        },
        {
            "buffer": 1,
            "byteOffset": 269536,
            "byteLength": 98304,
            "target": 34963,
            "extensions": {
                "EXT_meshopt_compression": {
                    "buffer": 0,
                    "byteOffset": 205592,
                    "byteLength": 19775,
                    "byteStride": 2,
                    "mode": "TRIANGLES",
                    "count": 49152
                }
            }
        }
    ],
    "accessors": [
        {
            "bufferView": 0,
            "byteOffset": 0,
            "componentType": 5126,
            "count": 8423,
            "type": "VEC3",
            "min": [
                -0.0639379993,
                -0.00315300003,
                -0.00981200021
            ],
            "max": [
                0.033259999,
                0.188148007,
                0.0568090007
            ]
        },
        {
            "bufferView": 1,
            "byteOffset": 0,
            "componentType": 5126,
            "count": 8423,
            "type": "VEC3"
        },
        {
            "bufferView": 2,
            "byteOffset": 0,
            "componentType": 5126,
            "count": 8423,
            "type": "VEC2"
        },
        {
            "bufferView": 3,
            "byteOffset": 0,
            "componentType": 5123,
            "count": 49152,
            "type": "SCALAR"
        }
    ],
    "samplers": [
        {
            "magFilter": 9729,
            "minFilter": 9986
        }
    ],
    "images": [
        {
            "name": "006_mustard_bottle_textured",
            "uri": "006_mustard_bottle_textured.png"
        },
        {
            "uri": "006_mustard_bottle_textured.ktx2"
        }
    ],
    "textures": [
        {
            "sampler": 0,
            "source": 0,
            "extensions": {
                "KHR_texture_basisu": {
                    "source": 1
                }
            }
        }
    ],
    "materials": [
        {
            "name": "material_0",
            "pbrMetallicRoughness": {
                "baseColorTexture": {
                    "index": 0
                },
                "metallicFactor": 0
            }
        }
    ],
    "meshes": [
        {
            "primitives": [
                {
                    "attributes": {
                        "POSITION": 0,
                        "NORMAL": 1,
                        "TEXCOORD_0": 2
                    },
                    "indices": 3,
                    "material": 0
                }
            ]
        }
    ],
    "nodes": [
        {
            "name": "Node",
            "mesh": 0
        }
    ],
    "scenes": [
        {
            "nodes": [
                0
            ]
        }
    ],
    "scene": 0
}