{
	"accessors":[
		{
			"name":"Node-Mesh_0_positions",
			"componentType":5126,
			"count":8423,
			"min":[
				-0.06393799930810928,
				-0.0031530000269412994,
				-0.009812000207602978
			],
			"max":[
				0.03325999900698662,
				0.18814800679683685,
				0.05680900067090988
			],
			"type":"VEC3",
			"bufferView":0,
			"byteOffset":0
		},
		{
			"name":"Node-Mesh_0_normals",
			"componentType":5126,
			"count":8423,
			"min":[
				-0.9998481869697571,
				-0.9999938607215881,
				-0.99998939037323
			],
			"max":[
				0.9999139308929443,
				0.9999943375587463,
				0.9999116063117981
			],
			"type":"VEC3",
			"bufferView":1,
			"byteOffset":0
		},
		{
			"name":"Node-Mesh_0_texcoords",
			"componentType":5126,
			"count":8423,
			"min":[
				0.010409999638795853,
				0.016905000433325768
			],
			"max":[
				0.9895899891853333,
				0.9895899891853333
			],
			"type":"VEC2",
			"bufferView":2,
			"byteOffset":0
		},
		{
			"name":"Node-Mesh_0_indices",
			"componentType":5123,
			"count":49152,
			"min":[
				0
			],
			"max":[
				8422
			],
			"type":"SCALAR",
			"bufferView":3,
			"byteOffset":0
		}
	],
	"asset":{
		"generator":"obj2gltf",
		"version":"2.0"
	},
	"buffers":[
		{
			"name":"006_mustard_bottle_textured",
			"byteLength":367840,
			"uri":"006_mustard_bottle_textured.bin"
		}
	],
	"bufferViews":[
		{
			"name":"bufferView_0",
			"buffer":0,
			"byteLength":101076,
			"byteOffset":0,
			"byteStride":12,
			"target":34962
		},
		{
			"name":"bufferView_1",
			"buffer":0,
			"byteLength":101076,
			"byteOffset":101076,
			"byteStride":12,
			"target":34962
		},
		{
			"name":"bufferView_2",
			"buffer":0,
			"byteLength":67384,
			"byteOffset":202152,
			"byteStride":8,
			"target":34962
		},
		{
			"name":"bufferView_3",
			"buffer":0,
			"byteLength":98304,
			"byteOffset":269536,
			"target":34963
		}
	],
	"images":[
		{
			"name":"006_mustard_bottle_textured",
			"mimeType":"image/png",
			"uri":"006_mustard_bottle_textured.png"
		},
		{
			"mimeType":"image/ktx2",
			"uri":"006_mustard_bottle_textured.ktx2"
		}
	],
	"materials":[
		{
			"name":"material_0",
			"pbrMetallicRoughness":{
				"baseColorTexture":{
					"index":0
				},
				"baseColorFactor":[
					1,
					1,
					1,
					1
				],
				"metallicFactor":0,
				"roughnessFactor":1
			},
			"emissiveFactor":[
				0,
				0,
				0
			],
			"alphaMode":"OPAQUE",
			"doubleSided":false
		}
	],
	"meshes":[
		{
			"name":"Node-Mesh",
			"primitives":[
				{
					"attributes":{
						"POSITION":0,
						"NORMAL":1,
						"TEXCOORD_0":2
					},
					"indices":3,
					"material":0,
					"mode":4
				}
			]
		}
	],
	"nodes":[
		{
			"name":"Node",
			"mesh":0
		}
	],
	"samplers":[
		{
			"magFilter":9729,
			"minFilter":9986,
			"wrapS":10497,
			"wrapT":10497
		}
	],
	"scene":0,
	"scenes":[
		{
			"nodes":[
				0
			]
		}
	],
	"textures":[
		{
			"name":"006_mustard_bottle_textured",
			"sampler":0,
			"source":0,
			"extensions":{
				"KHR_texture_basisu":{
					"source":1
				}
			}
		}
	],
	"extensionsUsed":[
		"KHR_texture_basisu"
	]
}
