{
    "asset": {
        "version": "2.0",
        "generator": "gltfpack 0.23"
    },
    "extensionsUsed": [
        "EXT_meshopt_compression",
        "KHR_texture_basisu"
    ],
    "extensionsRequired": [
        "KHR_texture_basisu"
    ],
    "buffers": [
        {
            "uri": "009_gelatin_box_textured.bin",
            "byteLength": 221248
        },
        {
            "uri": "009_gelatin_box_textured.fallback.bin",
            "byteLength": 367584,
            "extensions": {
                "EXT_meshopt_compression": {
                    "fallback": true
                }
            }
        }
    ],
    "bufferViews": [
        {
            "buffer": 1,
            "byteOffset": 0,
            "byteLength": 100980,
            "byteStride": 12,
            "target": 34962,
            "extensions": {
                "EXT_meshopt_compression": {
                    "buffer": 0,
                    "byteOffset": 0,
                    "byteLength": 75609,
                    "byteStride": 12,
                    "mode": "ATTRIBUTES",
                    "count": 8415
                }
            }
        },
        {
            "buffer": 1,
            "byteOffset": 100980,
            "byteLength": 100980,
            "byteStride": 12,
            "target": 34962,
            "extensions": {
                "EXT_meshopt_compression": {
                    "buffer": 0,
                    "byteOffset": 75612,
                    "byteLength": 80435,
                    "byteStride": 12,
                    "mode": "ATTRIBUTES",
                    "count": 8415
                }
            }
        },
        {
            "buffer": 1,
            "byteOffset": 201960,
            "byteLength": 67320,
            "byteStride": 8,
            "target": 34962,
            "extensions": {
                "EXT_meshopt_compression": {
                    "buffer": 0,
                    "byteOffset": 156048,
                    "byteLength": 45410,
                    "byteStride": 8,
                    "mode": "ATTRIBUTES",
                    "count": 8415
                }
            }
        },
        {
            "buffer": 1,
            "byteOffset": 269280,
            "byteLength": 98304,
            "target": 34963,
            "extensions": {
                "EXT_meshopt_compression": {
                    "buffer": 0,
                    "byteOffset": 201460,
                    "byteLength": 19785,
                    "byteStride": 2,
                    "mode": "TRIANGLES",
                    "count": 49152
                }
            }
        }
    ],
    "accessors": [
        {
            "bufferView": 0,
            "byteOffset": 0,
            "componentType": 5126,
            "count": 8415,
            "type": "VEC3",
            "min": [
                -0.0674770027,
                -0.000545000017,
                -0.0423090011
            ],
            "max": [
                0.0219269991,
                0.0295289997,
                0.0587989986
            ]
        },
        {
            "bufferView": 1,
            "byteOffset": 0,
            "componentType": 5126,
            "count": 8415,
            "type": "VEC3"
        },
        {
            "bufferView": 2,
            "byteOffset": 0,
            "componentType": 5126,
            "count": 8415,
            "type": "VEC2"
        },
        {
            "bufferView": 3,
            "byteOffset": 0,
            "componentType": 5123,
            "count": 49152,
            "type": "SCALAR"
        }
    ],
    "samplers": [
        {
            "magFilter": 9729,
            "minFilter": 9986
        }
    ],
    "images": [
        {
            "name": "009_gelatin_box_textured",
            "uri": "009_gelatin_box_textured.png"
        },
        {
            "uri": "009_gelatin_box_textured.ktx2"
        }
    ],
    "textures": [
        {
            "sampler": 0,
            "source": 0,
            "extensions": {
                "KHR_texture_basisu": {
                    "source": 1
                }
            }
        }
    ],
    "materials": [
        {
            "name": "material_0",
            "pbrMetallicRoughness": {
                "baseColorTexture": {
                    "index": 0
                },
                "metallicFactor": 0
            }
        }
    ],
    "meshes": [
        {
            "primitives": [
                {
                    "attributes": {
                        "POSITION": 0,
                        "NORMAL": 1,
                        "TEXCOORD_0": 2
                    },
                    "indices": 3,
                    "material": 0
                }
            ]
        }
    ],
    "nodes": [
        {
            "name": "Node",
            "mesh": 0
        }
    ],
    "scenes": [
        {
            "nodes": [
                0
            ]
        }
    ],
    "scene": 0
}