{
    "asset": {
        "version": "2.0",
        "generator": "gltfpack 0.23"
    },
    "extensionsUsed": [
        "EXT_meshopt_compression"
    ],
    "buffers": [
        {
            "uri": "head_tilt.bin",
            "byteLength": 6344
        },
        {
            "uri": "head_tilt.fallback.bin",
            "byteLength": 12888,
            "extensions": {
                "EXT_meshopt_compression": {
                    "fallback": true
                }
            }
        }
    ],
    "bufferViews": [
        {
            "buffer": 1,
            "byteOffset": 0,
            "byteLength": 6576,
            "byteStride": 12,
            "target": 34962,
            "extensions": {
                "EXT_meshopt_compression": {
                    "buffer": 0,
                    "byteOffset": 0,
                    "byteLength": 5127,
                    "byteStride": 12,
                    "mode": "ATTRIBUTES",
                    "count": 548
                }
            }
        },
        {
            "buffer": 1,
            "byteOffset": 6576,
            "byteLength": 6312,
            "target": 34963,
            "extensions": {
                "EXT_meshopt_compression": {
                    "buffer": 0,
                    "byteOffset": 5128,
                    "byteLength": 1215,
                    "byteStride": 2,
                    "mode": "TRIANGLES",
                    "count": 3156
                }
            }
        }
    ],
    "accessors": [
        {
            "bufferView": 0,
            "byteOffset": 0,
            "componentType": 5126,
            "count": 548,
            "type": "VEC3",
            "min": [
                -0.184045434,
                -0.0620000027,
                -0.147799999
            ],
            "max": [
                0.0773484036,
                0.155000001,
                0.1479
            ]
        },
        {
            "bufferView": 1,
            "byteOffset": 0,
            "componentType": 5123,
            "count": 3156,
            "type": "SCALAR"
        }
    ],
    "materials": [
        {
            "name": "default",
            "pbrMetallicRoughness": {
                "baseColorFactor": [
                    0,
                    0.5,
                    0,
                    1
                ],
                "metallicFactor": 0
            }
        }
    ],
    "meshes": [
        {
            "primitives": [
                {
                    "attributes": {
                        "POSITION": 0
                    },
                    "indices": 1,
                    "material": 0
                }
            ]
        }
    ],
    "nodes": [
        {
            "name": "Node",
            "mesh": 0
        }
    ],
    "scenes": [
        {
            "nodes": [
                0
            ]
        }
    ],
    "scene": 0
}