{
    "asset": {
        "version": "2.0",
        "generator": "gltfpack 0.23"
    },
    "extensionsUsed": [
        "EXT_meshopt_compression"
    ],
    "buffers": [
        {
            "uri": "bubble_finger.bin",
            "byteLength": 3614144
        },
        {
            "uri": "bubble_finger.fallback.bin",
            "byteLength": 8277864,
            "extensions": {
                "EXT_meshopt_compression": {
                    "fallback": true
                }
            }
        }
    ],
    "bufferViews": [
        {
            "buffer": 1,
            "byteOffset": 0,
            "byteLength": 3481188,
            "byteStride": 12,
            "target": 34962,
            "extensions": {
                "EXT_meshopt_compression": {
                    "buffer": 0,
                    "byteOffset": 0,
                    "byteLength": 2110400,
                    "byteStride": 12,
                    "mode": "ATTRIBUTES",
                    "count": 290099
                }
            }
        },
        {
            "buffer": 1,
            "byteOffset": 3481188,
            "byteLength": 3481188,
            "byteStride": 12,
            "target": 34962,
            "extensions": {
                "EXT_meshopt_compression": {
                    "buffer": 0,
                    "byteOffset": 2110400,
                    "byteLength": 1390942,
                    "byteStride": 12,
                    "mode": "ATTRIBUTES",
                    "count": 290099
                }
            }
        },
        {
            "buffer": 1,
            "byteOffset": 6962376,
            "byteLength": 1315488,
            "target": 34963,
            "extensions": {
                "EXT_meshopt_compression": {
                    "buffer": 0,
                    "byteOffset": 3501344,
                    "byteLength": 112800,
                    "byteStride": 4,
                    "mode": "TRIANGLES",
                    "count": 328872
                }
            }
        }
    ],
    "accessors": [
        {
            "bufferView": 0,
            "byteOffset": 0,
            "componentType": 5126,
            "count": 290099,
            "type": "VEC3",
            "min": [
                -43,
                -88.6415863,
                -13.0510273
            ],
            "max": [
                43,
                7.99144934e-16,
                173.09996
            ]
        },
        {
            "bufferView": 1,
            "byteOffset": 0,
            "componentType": 5126,
            "count": 290099,
            "type": "VEC3"
        },
        {
            "bufferView": 2,
            "byteOffset": 0,
            "componentType": 5125,
            "count": 328872,
            "type": "SCALAR"
        }
    ],
    "materials": [
        {
            "name": "None",
            "pbrMetallicRoughness": {
                "baseColorFactor": [
                    0.400000006,
                    0.400000006,
                    0.400000006,
                    1
                ],
                "metallicFactor": 0,
                "roughnessFactor": 0.800000012
            }
        }
    ],
    "meshes": [
        {
            "primitives": [
                {
                    "attributes": {
                        "POSITION": 0,
                        "NORMAL": 1
                    },
                    "indices": 2,
                    "material": 0
                }
            ]
        }
    ],
    "nodes": [
        {
            "name": "Bubble_Finger",
            "mesh": 0
        }
    ],
    "scenes": [
        {
            "nodes": [
                0
            ]
        }
    ],
    "scene": 0
}