{
    "asset": {
        "version": "2.0",
        "generator": "gltfpack 0.23"
    },
    "extensionsUsed": [
        "EXT_meshopt_compression"
    ],
    "buffers": [
        {
            "uri": "ellipsoid_bubble_geometry.bin",
            "byteLength": 1152072
        },
        {
            "uri": "ellipsoid_bubble_geometry.fallback.bin",
            "byteLength": 2757768,
            "extensions": {
                "EXT_meshopt_compression": {
                    "fallback": true
                }
            }
        }
    ],
    "bufferViews": [
        {
            "buffer": 1,
            "byteOffset": 0,
            "byteLength": 1111044,
            "byteStride": 12,
            "target": 34962,
            "extensions": {
                "EXT_meshopt_compression": {
                    "buffer": 0,
                    "byteOffset": 0,
                    "byteLength": 698769,
                    "byteStride": 12,
                    "mode": "ATTRIBUTES",
                    "count": 92587
                }
            }
        },
        {
            "buffer": 1,
            "byteOffset": 1111044,
            "byteLength": 1111044,
            "byteStride": 12,
            "target": 34962,
            "extensions": {
                "EXT_meshopt_compression": {
                    "buffer": 0,
                    "byteOffset": 698772,
                    "byteLength": 408638,
                    "byteStride": 12,
                    "mode": "ATTRIBUTES",
                    "count": 92587
                }
            }
        },
        {
            "buffer": 1,
            "byteOffset": 2222088,
            "byteLength": 535680,
            "target": 34963,
            "extensions": {
                "EXT_meshopt_compression": {
                    "buffer": 0,
                    "byteOffset": 1107412,
                    "byteLength": 44660,
                    "byteStride": 4,
                    "mode": "TRIANGLES",
                    "count": 133920
                }
            }
        }
    ],
    "accessors": [
        {
            "bufferView": 0,
            "byteOffset": 0,
            "componentType": 5126,
            "count": 92587,
            "type": "VEC3",
            "min": [
                -59.9998741,
                -29.992445,
                -39.9999924
            ],
            "max": [
                60,
                2.44929318e-15,
                39.9988327
            ]
        },
        {
            "bufferView": 1,
            "byteOffset": 0,
            "componentType": 5126,
            "count": 92587,
            "type": "VEC3"
        },
        {
            "bufferView": 2,
            "byteOffset": 0,
            "componentType": 5125,
            "count": 133920,
            "type": "SCALAR"
        }
    ],
    "materials": [
        {
            "name": "None",
            "pbrMetallicRoughness": {
                "baseColorFactor": [
                    0.800000012,
                    0.400000006,
                    0.400000006,
                    0.200000003
                ],
                "metallicFactor": 0
            },
            "alphaMode": "BLEND",
            "doubleSided": true
        }
    ],
    "meshes": [
        {
            "primitives": [
                {
                    "attributes": {
                        "POSITION": 0,
                        "NORMAL": 1
                    },
                    "indices": 2,
                    "material": 0
                }
            ]
        }
    ],
    "nodes": [
        {
            "name": "Ellipsoid_Bubble_Geometry",
            "mesh": 0
        }
    ],
    "scenes": [
        {
            "nodes": [
                0
            ]
        }
    ],
    "scene": 0
}