{
    "asset": {
        "version": "2.0",
        "generator": "gltfpack 0.23"
    },
    "extensionsUsed": [
        "EXT_meshopt_compression"
    ],
    "buffers": [
        {
            "uri": "finger_with_tip.bin",
            "byteLength": 11888
        },
        {
            "uri": "finger_with_tip.fallback.bin",
            "byteLength": 24720,
            "extensions": {
                "EXT_meshopt_compression": {
                    "fallback": true
                }
            }
        }
    ],
    "bufferViews": [
        {
            "buffer": 1,
            "byteOffset": 0,
            "byteLength": 10968,
            "byteStride": 12,
            "target": 34962,
            "extensions": {
                "EXT_meshopt_compression": {
                    "buffer": 0,
                    "byteOffset": 0,
                    "byteLength": 7404,
                    "byteStride": 12,
                    "mode": "ATTRIBUTES",
                    "count": 914
                }
            }
        },
        {
            "buffer": 1,
            "byteOffset": 10968,
            "byteLength": 10968,
            "byteStride": 12,
            "target": 34962,
            "extensions": {
                "EXT_meshopt_compression": {
                    "buffer": 0,
                    "byteOffset": 7404,
                    "byteLength": 3998,
                    "byteStride": 12,
                    "mode": "ATTRIBUTES",
                    "count": 914
                }
            }
        },
        {
            "buffer": 1,
            "byteOffset": 21936,
            "byteLength": 2784,
            "target": 34963,
            "extensions": {
                "EXT_meshopt_compression": {
                    "buffer": 0,
                    "byteOffset": 11404,
                    "byteLength": 484,
                    "byteStride": 2,
                    "mode": "TRIANGLES",
                    "count": 1392
                }
            }
        }
    ],
    "accessors": [
        {
            "bufferView": 0,
            "byteOffset": 0,
            "componentType": 5126,
            "count": 914,
            "type": "VEC3",
            "min": [
                -0.00899999961,
                -0.0149999997,
                -0.0409910008
            ],
            "max": [
                0.0140000004,
                0.0149999997,
                0.0410000011
            ]
        },
        {
            "bufferView": 1,
            "byteOffset": 0,
            "componentType": 5126,
            "count": 914,
            "type": "VEC3"
        },
        {
            "bufferView": 2,
            "byteOffset": 0,
            "componentType": 5123,
            "count": 1392,
            "type": "SCALAR"
        }
    ],
    "materials": [
        {
            "name": "default",
            "pbrMetallicRoughness": {
                "baseColorFactor": [
                    0.00999999978,
                    0.00999999978,
                    0.00999999978,
                    1
                ],
                "metallicFactor": 0
            }
        }
    ],
    "meshes": [
        {
            "primitives": [
                {
                    "attributes": {
                        "POSITION": 0,
                        "NORMAL": 1
                    },
                    "indices": 2,
                    "material": 0
                }
            ]
        }
    ],
    "nodes": [
        {
            "name": "Node",
            "mesh": 0
        }
    ],
    "scenes": [
        {
            "nodes": [
                0
            ]
        }
    ],
    "scene": 0
}