{
    "asset": {
        "version": "2.0",
        "generator": "gltfpack 0.23"
    },
    "extensionsUsed": [
        "EXT_meshopt_compression"
    ],
    "buffers": [
        {
            "uri": "finger_without_tip.bin",
            "byteLength": 7408
        },
        {
            "uri": "finger_without_tip.fallback.bin",
            "byteLength": 16056,
            "extensions": {
                "EXT_meshopt_compression": {
                    "fallback": true
                }
            }
        }
    ],
    "bufferViews": [
        {
            "buffer": 1,
            "byteOffset": 0,
            "byteLength": 7032,
            "byteStride": 12,
            "target": 34962,
            "extensions": {
                "EXT_meshopt_compression": {
                    "buffer": 0,
                    "byteOffset": 0,
                    "byteLength": 4647,
                    "byteStride": 12,
                    "mode": "ATTRIBUTES",
                    "count": 586
                }
            }
        },
        {
            "buffer": 1,
            "byteOffset": 7032,
            "byteLength": 7032,
            "byteStride": 12,
            "target": 34962,
            "extensions": {
                "EXT_meshopt_compression": {
                    "buffer": 0,
                    "byteOffset": 4648,
                    "byteLength": 2401,
                    "byteStride": 12,
                    "mode": "ATTRIBUTES",
                    "count": 586
                }
            }
        },
        {
            "buffer": 1,
            "byteOffset": 14064,
            "byteLength": 1992,
            "target": 34963,
            "extensions": {
                "EXT_meshopt_compression": {
                    "buffer": 0,
                    "byteOffset": 7052,
                    "byteLength": 355,
                    "byteStride": 2,
                    "mode": "TRIANGLES",
                    "count": 996
                }
            }
        }
    ],
    "accessors": [
        {
            "bufferView": 0,
            "byteOffset": 0,
            "componentType": 5126,
            "count": 586,
            "type": "VEC3",
            "min": [
                -0.00600000005,
                -0.0149999997,
                -0.0410000011
            ],
            "max": [
                0.0140000004,
                0.0149999997,
                0.0410000011
            ]
        },
        {
            "bufferView": 1,
            "byteOffset": 0,
            "componentType": 5126,
            "count": 586,
            "type": "VEC3"
        },
        {
            "bufferView": 2,
            "byteOffset": 0,
            "componentType": 5123,
            "count": 996,
            "type": "SCALAR"
        }
    ],
    "materials": [
        {
            "name": "default",
            "pbrMetallicRoughness": {
                "baseColorFactor": [
                    0.00999999978,
                    0.00999999978,
                    0.00999999978,
                    1
                ],
                "metallicFactor": 0,
                "roughnessFactor": 0.800000012
            }
        }
    ],
    "meshes": [
        {
            "primitives": [
                {
                    "attributes": {
                        "POSITION": 0,
                        "NORMAL": 1
                    },
                    "indices": 2,
                    "material": 0
                }
            ]
        }
    ],
    "nodes": [
        {
            "name": "Node",
            "mesh": 0
        }
    ],
    "scenes": [
        {
            "nodes": [
                0
            ]
        }
    ],
    "scene": 0
}