# Blender v2.83.5 OBJ File: ''
# www.blender.org
v 0.003018 0.040965 -0.000841
v 0.003071 0.040858 -0.001677
v -0.006000 0.040858 -0.001677
v 0.005345 0.036311 -0.008473
v 0.006000 0.035000 -0.009165
v -0.006000 0.036311 -0.008473
v -0.006000 0.034815 -0.009244
v -0.006000 0.037657 -0.007463
v 0.004672 0.037657 -0.007463
v 0.004997 0.037005 -0.007996
v -0.006000 0.038814 -0.006241
v -0.006000 0.039750 -0.004842
v 0.003625 0.039750 -0.004842
v 0.003844 0.039311 -0.005561
v 0.004093 0.038814 -0.006241
v 0.004370 0.038261 -0.006876
v -0.006000 0.040438 -0.003306
v 0.003159 0.040682 -0.002500
v 0.003281 0.040438 -0.003306
v 0.003437 0.040126 -0.004089
v 0.003000 0.041000 0.000000
v -0.006000 0.041000 0.000000
v 0.003018 0.040965 0.000841
v -0.006000 0.040858 0.001677
v 0.003071 0.040858 0.001677
v 0.003159 0.040682 0.002500
v -0.006000 0.040438 0.003306
v 0.003281 0.040438 0.003306
v 0.003437 0.040126 0.004089
v -0.006000 0.039750 0.004842
v 0.003625 0.039750 0.004842
v 0.003844 0.039311 0.005561
v -0.006000 0.038814 0.006241
v 0.004093 0.038814 0.006241
v 0.004370 0.038261 0.006876
v -0.006000 0.037657 0.007463
v 0.004672 0.037657 0.007463
v 0.004997 0.037005 0.007996
v -0.006000 0.036311 0.008473
v 0.005345 0.036311 0.008473
v 0.006000 0.034815 -0.009244
v 0.006000 0.033211 -0.009753
v -0.006000 0.033211 -0.009753
v 0.006000 0.031544 -0.009985
v -0.006000 0.031544 -0.009985
v 0.006000 0.029862 -0.009935
v -0.006000 0.029862 -0.009935
v 0.006000 0.028212 -0.009603
v -0.006000 0.028212 -0.009603
v 0.006000 0.026641 -0.009000
v -0.006000 0.026641 -0.009000
v 0.006000 0.035000 0.009165
v -0.006000 0.034815 0.009244
v 0.006000 0.034815 0.009244
v -0.006000 0.033211 0.009753
v 0.006000 0.033211 0.009753
v -0.006000 0.031544 0.009985
v 0.006000 0.031544 0.009985
v -0.006000 0.029862 0.009935
v 0.006000 0.029862 0.009935
v -0.006000 0.028212 0.009603
v 0.006000 0.028212 0.009603
v -0.006000 0.026641 0.009000
v 0.006000 0.026641 0.009000
v 0.010886 -0.007216 -0.006894
v 0.011358 -0.008394 -0.006578
v 0.014000 -0.015000 -0.015000
v 0.010400 -0.006000 -0.007000
v 0.011800 -0.009500 -0.006062
v 0.012200 -0.010500 -0.005362
v 0.012545 -0.011362 -0.004500
v 0.012200 -0.010500 0.005362
v 0.011800 -0.009500 0.006062
v 0.014000 -0.015000 0.015000
v 0.011358 -0.008394 0.006578
v 0.006000 0.005000 -0.007000
v 0.006642 0.003396 -0.008561
v 0.006000 0.005000 -0.008145
v 0.013157 -0.012894 -0.001216
v 0.013189 -0.012973 -0.000610
v 0.013200 -0.013000 0.000000
v 0.013189 -0.012973 0.000610
v 0.013157 -0.012894 0.001216
v 0.013105 -0.012761 0.001812
v 0.010886 -0.007216 0.006894
v 0.010400 -0.006000 0.007000
v 0.006642 0.003396 0.008561
v 0.006000 0.005000 0.007000
v 0.006000 0.005000 0.008145
v 0.012938 -0.012344 -0.002958
v 0.013031 -0.012578 -0.002394
v 0.013105 -0.012761 -0.001812
v 0.013031 -0.012578 0.002394
v 0.012938 -0.012344 0.002958
v 0.012825 -0.012062 0.003500
v 0.012694 -0.011734 -0.004015
v 0.012825 -0.012062 -0.003500
v 0.012694 -0.011734 0.004015
v 0.012545 -0.011362 0.004500
v 0.012000 -0.032000 -0.015000
v 0.012000 -0.032000 0.015000
v 0.003000 -0.032000 -0.015000
v 0.003000 -0.032000 0.015000
v -0.006000 0.003396 -0.008561
v -0.006000 -0.015000 -0.015000
v -0.006000 0.003396 0.008561
v -0.006000 -0.015000 0.015000
v -0.006000 -0.017000 -0.015000
v 0.003000 -0.017000 -0.015000
v -0.006000 -0.017000 0.015000
v 0.003000 -0.017000 0.015000
v -0.006000 0.025244 -0.008449
v -0.006000 0.005024 -0.008141
v -0.006000 0.005024 0.008141
v -0.006000 0.006699 -0.008000
v -0.006000 0.006699 0.008000
v -0.006000 0.022282 -0.008000
v -0.006000 0.022282 0.008000
v -0.006000 0.023780 -0.008113
v -0.006000 0.023780 0.008113
v -0.006000 0.025244 0.008449
v 0.006000 0.006699 -0.008000
v 0.006000 0.022282 -0.008000
v 0.006000 0.006699 0.008000
v 0.006000 0.022282 0.008000
v 0.006000 0.005024 -0.008141
v 0.006000 0.025244 0.008449
v 0.006000 0.023780 0.008113
v 0.006000 -0.006000 -0.007000
v 0.006000 -0.006000 0.007000
v 0.006000 -0.007216 0.006894
v 0.006000 -0.011362 -0.004500
v 0.006000 -0.010500 -0.005362
v 0.006000 -0.008394 0.006578
v 0.006000 -0.009500 0.006062
v 0.006000 -0.010500 0.005362
v 0.006000 -0.011362 0.004500
v 0.006000 -0.012062 0.003500
v 0.006000 -0.012578 0.002394
v 0.006000 -0.012894 0.001216
v 0.006000 -0.013000 -0.000000
v 0.006000 -0.012894 -0.001216
v 0.006000 0.023780 -0.008113
v 0.006000 0.025244 -0.008449
v 0.006000 -0.007216 -0.006894
v 0.006000 -0.009500 -0.006062
v 0.006000 -0.008394 -0.006578
v 0.006000 0.005024 0.008141
v 0.006000 -0.012578 -0.002394
v 0.006000 -0.012062 -0.003500
v 0.013200 -0.013000 -0.000000
v 0.003000 0.041000 0.000000
v 0.012000 -0.032000 -0.014000
v 0.012000 -0.032000 0.014000
v 0.012000 -0.041000 -0.014000
v 0.012000 -0.041000 0.014000
v 0.003000 -0.032000 0.015000
v 0.011000 -0.032000 0.015000
v 0.011000 -0.032000 -0.015000
v 0.003000 -0.032000 -0.015000
v 0.003000 -0.017000 0.014000
v 0.003000 -0.018000 0.015000
v 0.003000 -0.017000 -0.014000
v 0.003000 -0.018000 -0.015000
v -0.006000 -0.017000 -0.014000
v -0.006000 -0.017000 0.014000
v -0.006000 -0.018000 -0.015000
v -0.006000 -0.041000 -0.015000
v -0.006000 -0.041000 0.015000
v -0.006000 -0.018000 0.015000
v 0.011000 -0.041000 0.015000
v 0.011000 -0.041000 -0.015000
vn 0.0000 0.9920 -0.1260
vn 0.0000 0.4668 -0.8843
vn -0.0012 0.4579 -0.8890
vn 0.0000 0.6005 -0.7996
vn -0.0063 0.6318 -0.7751
vn 0.0000 0.5663 -0.8242
vn 0.0000 0.8311 -0.5561
vn -0.0070 0.8528 -0.5222
vn 0.0000 0.8070 -0.5906
vn 0.0000 0.7261 -0.6876
vn -0.0067 0.7529 -0.6580
vn 0.0000 0.6965 -0.7176
vn 0.0000 0.9682 -0.2500
vn -0.0077 0.9777 -0.2098
vn 0.0000 0.9568 -0.2906
vn 0.0000 0.9126 -0.4089
vn -0.0074 0.9285 -0.3713
vn 0.0000 0.8946 -0.4469
vn -0.0078 0.9991 -0.0423
vn 0.0000 0.9965 -0.0841
vn 0.0000 0.9991 0.0421
vn -0.0039 0.9964 0.0841
vn 0.0000 0.9920 0.1260
vn 0.0000 0.9779 0.2091
vn -0.0039 0.9682 0.2500
vn 0.0000 0.9568 0.2906
vn 0.0000 0.9290 0.3701
vn -0.0038 0.9126 0.4089
vn 0.0000 0.8946 0.4469
vn 0.0000 0.8538 0.5206
vn -0.0036 0.8311 0.5561
vn 0.0000 0.8070 0.5906
vn 0.0000 0.7544 0.6564
vn -0.0034 0.7261 0.6876
vn 0.0000 0.6965 0.7176
vn 0.0000 0.6336 0.7736
vn -0.0032 0.6005 0.7996
vn 0.0000 0.5663 0.8242
vn 0.0000 0.3908 -0.9205
vn 0.0000 0.3023 -0.9532
vn 0.0000 0.1382 -0.9904
vn 0.0000 -0.0298 -0.9996
vn 0.0000 -0.1970 -0.9804
vn 0.0000 -0.3586 -0.9335
vn 0.0000 0.4668 0.8843
vn -0.0012 0.4579 0.8890
vn 0.0000 0.3908 0.9205
vn 0.0000 0.3023 0.9532
vn 0.0000 0.1382 0.9904
vn 0.0000 -0.0298 0.9996
vn 0.0000 -0.1970 0.9804
vn 0.0000 -0.3586 0.9335
vn 0.9285 0.3714 0.0000
vn 0.0000 -1.0000 0.0000
vn 0.0000 0.3304 -0.9439
vn 0.0000 0.3304 0.9439
vn 0.0000 0.0000 -1.0000
vn 0.0000 0.0000 1.0000
vn -1.0000 -0.0000 0.0000
vn 1.0000 0.0000 0.0000
vn 0.9932 -0.1168 0.0000
vn 0.0000 0.0872 0.9962
vn 0.0000 0.2588 0.9659
vn 0.0000 0.4226 0.9063
vn 0.0000 0.5736 0.8192
vn 0.0000 0.7071 0.7071
vn 0.0000 0.7934 0.6088
vn 0.0040 0.8191 0.5736
vn 0.0000 0.8434 0.5373
vn 0.0000 0.8870 0.4617
vn 0.0038 0.9063 0.4226
vn 0.0000 0.9239 0.3827
vn 0.0000 0.9537 0.3007
vn 0.0037 0.9659 0.2588
vn 0.0000 0.9763 0.2164
vn 0.0000 0.9914 0.1305
vn 0.0037 0.9962 0.0872
vn 0.0000 0.9990 0.0436
vn 0.0000 0.9990 -0.0436
vn 0.0037 0.9962 -0.0872
vn 0.0000 0.9914 -0.1305
vn 0.0000 0.9763 -0.2164
vn 0.0037 0.9659 -0.2588
vn 0.0000 0.9537 -0.3007
vn 0.0000 0.9239 -0.3827
vn 0.0038 0.9063 -0.4226
vn 0.0000 0.8870 -0.4617
vn 0.0000 0.8434 -0.5373
vn 0.0040 0.8191 -0.5736
vn 0.0000 0.7934 -0.6088
vn 0.0000 0.7071 -0.7071
vn 0.0000 0.5736 -0.8192
vn 0.0000 0.4226 -0.9063
vn 0.0000 0.2588 -0.9659
vn 0.0000 0.0872 -0.9962
vn 0.8944 0.4472 0.0000
vn 0.0000 0.0841 -0.9965
vn 0.0000 0.2498 -0.9683
vn 0.0116 0.1687 -0.9856
vn 0.0000 0.2510 -0.9680
vn 0.0000 0.0841 0.9965
vn 0.0000 0.1687 0.9857
vn 0.0002 0.2498 0.9683
vn 0.0000 0.2510 0.9680
vn 0.0000 -0.3671 0.9302
vn 0.0000 -0.2236 0.9747
vn 0.0000 -0.0751 0.9972
vn 0.0000 -0.0751 -0.9972
vn 0.0000 -0.2236 -0.9747
vn 0.0000 -0.3671 -0.9302
vn 0.0000 1.0000 -0.0000
vn 0.7071 0.0000 -0.7071
vn 0.7071 0.0000 0.7071
f 1//1 2//1 3//1
f 4//2 5//2 6//2
f 6//3 5//3 7//3
f 8//4 9//4 6//4
f 6//5 9//5 10//5
f 6//6 10//6 4//6
f 11//7 12//7 13//7
f 13//8 14//8 11//8
f 11//9 14//9 15//9
f 11//10 15//10 8//10
f 8//11 15//11 16//11
f 8//12 16//12 9//12
f 3//13 2//13 17//13
f 2//14 18//14 17//14
f 17//15 18//15 19//15
f 17//16 19//16 12//16
f 12//17 19//17 20//17
f 12//18 20//18 13//18
f 1//19 3//19 21//19
f 21//20 3//20 22//20
f 21//21 22//21 23//21
f 23//22 22//22 24//22
f 23//23 24//23 25//23
f 25//24 24//24 26//24
f 26//25 24//25 27//25
f 26//26 27//26 28//26
f 28//27 27//27 29//27
f 29//28 27//28 30//28
f 29//29 30//29 31//29
f 31//30 30//30 32//30
f 32//31 30//31 33//31
f 32//32 33//32 34//32
f 34//33 33//33 35//33
f 35//34 33//34 36//34
f 35//35 36//35 37//35
f 37//36 36//36 38//36
f 38//37 36//37 39//37
f 38//38 39//38 40//38
f 5//39 41//39 7//39
f 7//40 41//40 42//40
f 7//40 42//40 43//40
f 43//41 42//41 44//41
f 43//41 44//41 45//41
f 45//42 44//42 46//42
f 45//42 46//42 47//42
f 47//43 46//43 48//43
f 47//43 48//43 49//43
f 49//44 48//44 50//44
f 49//44 50//44 51//44
f 40//45 39//45 52//45
f 52//46 39//46 53//46
f 52//47 53//47 54//47
f 54//48 53//48 55//48
f 54//48 55//48 56//48
f 56//49 55//49 57//49
f 56//49 57//49 58//49
f 58//50 57//50 59//50
f 58//50 59//50 60//50
f 60//51 59//51 61//51
f 60//51 61//51 62//51
f 62//52 61//52 63//52
f 62//52 63//52 64//52
f 65//53 66//53 67//53
f 65//53 67//53 68//53
f 66//53 69//53 67//53
f 67//53 69//53 70//53
f 67//53 70//53 71//53
f 72//53 73//53 74//53
f 74//53 73//53 75//53
f 68//53 67//53 76//53
f 76//53 67//53 77//53
f 76//53 77//53 78//53
f 79//53 80//53 67//53
f 67//53 80//53 81//53
f 67//53 81//53 74//53
f 81//53 82//53 74//53
f 74//53 82//53 83//53
f 74//53 83//53 84//53
f 75//53 85//53 74//53
f 74//53 85//53 86//53
f 74//53 86//53 87//53
f 87//53 86//53 88//53
f 87//53 88//53 89//53
f 90//53 91//53 67//53
f 67//53 91//53 92//53
f 67//53 92//53 79//53
f 84//53 93//53 74//53
f 74//53 93//53 94//53
f 74//53 94//53 95//53
f 71//53 96//53 67//53
f 67//53 96//53 97//53
f 67//53 97//53 90//53
f 95//53 98//53 74//53
f 74//53 98//53 99//53
f 74//53 99//53 72//53
f 100//54 101//54 102//54
f 102//54 101//54 103//54
f 77//55 67//55 104//55
f 104//55 67//55 105//55
f 106//56 107//56 87//56
f 87//56 107//56 74//56
f 108//57 105//57 109//57
f 109//57 105//57 67//57
f 109//57 67//57 102//57
f 102//57 67//57 100//57
f 107//58 110//58 111//58
f 103//58 101//58 111//58
f 111//58 101//58 74//58
f 111//58 74//58 107//58
f 112//59 63//59 61//59
f 33//59 30//59 51//59
f 51//59 30//59 27//59
f 51//59 27//59 24//59
f 108//59 110//59 105//59
f 105//59 110//59 107//59
f 105//59 107//59 104//59
f 104//59 107//59 106//59
f 104//59 106//59 113//59
f 113//59 106//59 114//59
f 113//59 114//59 115//59
f 115//59 114//59 116//59
f 115//59 116//59 117//59
f 117//59 116//59 118//59
f 117//59 118//59 119//59
f 119//59 118//59 120//59
f 119//59 120//59 112//59
f 112//59 120//59 121//59
f 112//59 121//59 63//59
f 61//59 59//59 112//59
f 112//59 59//59 57//59
f 112//59 57//59 51//59
f 51//59 57//59 55//59
f 51//59 55//59 53//59
f 53//59 39//59 51//59
f 51//59 39//59 36//59
f 51//59 36//59 33//59
f 24//59 22//59 51//59
f 51//59 22//59 3//59
f 51//59 3//59 17//59
f 17//59 12//59 51//59
f 51//59 12//59 11//59
f 51//59 11//59 8//59
f 47//59 7//59 45//59
f 45//59 7//59 43//59
f 8//59 6//59 51//59
f 51//59 6//59 7//59
f 51//59 7//59 49//59
f 49//59 7//59 47//59
f 115//57 117//57 122//57
f 122//57 117//57 123//57
f 124//58 125//58 116//58
f 116//58 125//58 118//58
f 122//60 123//60 88//60
f 76//60 78//60 126//60
f 42//60 64//60 44//60
f 44//60 64//60 127//60
f 44//60 127//60 46//60
f 128//60 50//60 127//60
f 127//60 50//60 48//60
f 127//60 48//60 46//60
f 126//60 122//60 76//60
f 76//60 122//60 88//60
f 76//60 88//60 129//60
f 129//60 88//60 130//60
f 129//60 130//60 131//60
f 132//60 133//60 129//60
f 58//60 60//60 42//60
f 42//60 60//60 62//60
f 42//60 62//60 64//60
f 131//60 134//60 129//60
f 129//60 134//60 135//60
f 129//60 135//60 136//60
f 136//60 137//60 129//60
f 129//60 137//60 138//60
f 129//60 138//60 139//60
f 139//60 140//60 129//60
f 129//60 140//60 141//60
f 129//60 141//60 142//60
f 5//60 52//60 41//60
f 41//60 52//60 54//60
f 41//60 54//60 42//60
f 42//60 54//60 56//60
f 42//60 56//60 58//60
f 123//60 143//60 128//60
f 128//60 143//60 144//60
f 128//60 144//60 50//60
f 129//60 133//60 145//60
f 145//60 133//60 146//60
f 145//60 146//60 147//60
f 128//60 125//60 123//60
f 123//60 125//60 124//60
f 123//60 124//60 88//60
f 88//60 124//60 148//60
f 88//60 148//60 89//60
f 142//60 149//60 129//60
f 129//60 149//60 150//60
f 129//60 150//60 132//60
f 67//61 74//61 100//61
f 100//61 74//61 101//61
f 109//54 111//54 108//54
f 108//54 111//54 110//54
f 109//59 102//59 111//59
f 111//59 102//59 103//59
f 68//62 129//62 145//62
f 68//62 145//62 65//62
f 65//63 145//63 147//63
f 65//63 147//63 66//63
f 66//64 147//64 146//64
f 66//64 146//64 69//64
f 69//65 146//65 133//65
f 69//65 133//65 70//65
f 70//66 133//66 132//66
f 70//66 132//66 71//66
f 71//67 132//67 96//67
f 96//68 132//68 150//68
f 96//69 150//69 97//69
f 97//70 150//70 90//70
f 90//71 150//71 149//71
f 90//72 149//72 91//72
f 91//73 149//73 92//73
f 92//74 149//74 142//74
f 92//75 142//75 79//75
f 79//76 142//76 80//76
f 80//77 142//77 141//77
f 80//78 141//78 151//78
f 151//79 141//79 82//79
f 82//80 141//80 140//80
f 82//81 140//81 83//81
f 83//82 140//82 84//82
f 84//83 140//83 139//83
f 84//84 139//84 93//84
f 93//85 139//85 94//85
f 94//86 139//86 138//86
f 94//87 138//87 95//87
f 95//88 138//88 98//88
f 98//89 138//89 137//89
f 98//90 137//90 99//90
f 99//91 137//91 136//91
f 99//91 136//91 72//91
f 72//92 136//92 135//92
f 72//92 135//92 73//92
f 73//93 135//93 134//93
f 73//93 134//93 75//93
f 75//94 134//94 131//94
f 75//94 131//94 85//94
f 85//95 131//95 130//95
f 85//95 130//95 86//95
f 129//58 68//58 76//58
f 130//57 88//57 86//57
f 4//96 38//96 5//96
f 5//96 38//96 40//96
f 5//96 40//96 52//96
f 4//96 10//96 38//96
f 38//96 10//96 9//96
f 38//96 9//96 37//96
f 34//96 35//96 15//96
f 37//96 9//96 35//96
f 35//96 9//96 16//96
f 35//96 16//96 15//96
f 31//96 32//96 13//96
f 34//96 15//96 32//96
f 32//96 15//96 14//96
f 32//96 14//96 13//96
f 28//96 29//96 19//96
f 31//96 13//96 29//96
f 29//96 13//96 20//96
f 29//96 20//96 19//96
f 28//96 19//96 26//96
f 26//96 19//96 18//96
f 26//96 18//96 25//96
f 18//96 2//96 25//96
f 25//96 2//96 1//96
f 25//96 1//96 23//96
f 23//96 1//96 152//96
f 115//97 122//97 113//97
f 113//97 122//97 126//97
f 113//98 126//98 104//98
f 104//99 126//99 78//99
f 104//100 78//100 77//100
f 124//101 116//101 148//101
f 148//101 116//101 114//101
f 148//102 114//102 89//102
f 89//103 114//103 106//103
f 89//104 106//104 87//104
f 64//105 63//105 127//105
f 127//105 63//105 121//105
f 127//106 121//106 128//106
f 128//106 121//106 120//106
f 128//107 120//107 125//107
f 125//107 120//107 118//107
f 123//108 117//108 143//108
f 143//108 117//108 119//108
f 143//109 119//109 144//109
f 144//109 119//109 112//109
f 144//110 112//110 50//110
f 50//110 112//110 51//110
f 153//60 154//60 155//60
f 155//60 154//60 156//60
f 157//111 158//111 154//111
f 154//111 153//111 157//111
f 157//111 153//111 159//111
f 157//111 159//111 160//111
f 161//60 162//60 157//60
f 163//60 161//60 164//60
f 164//60 161//60 157//60
f 164//60 157//60 160//60
f 165//111 166//111 163//111
f 163//111 166//111 161//111
f 167//59 168//59 165//59
f 165//59 168//59 169//59
f 165//59 169//59 166//59
f 166//59 169//59 170//59
f 156//54 171//54 169//54
f 155//54 156//54 172//54
f 172//54 156//54 169//54
f 172//54 169//54 168//54
f 162//58 170//58 157//58
f 157//58 170//58 169//58
f 157//58 169//58 158//58
f 158//58 169//58 171//58
f 159//57 172//57 160//57
f 160//57 172//57 168//57
f 160//57 168//57 164//57
f 164//57 168//57 167//57
f 167//91 165//91 164//91
f 164//91 165//91 163//91
f 166//66 170//66 161//66
f 161//66 170//66 162//66
f 159//112 153//112 172//112
f 172//112 153//112 155//112
f 154//113 158//113 156//113
f 156//113 158//113 171//113
