# Blender v2.83.5 OBJ File: ''
# www.blender.org
v 0.010886 -0.007216 -0.006894
v 0.011358 -0.008394 -0.006578
v 0.014000 -0.015000 -0.015000
v 0.010400 -0.006000 -0.007000
v 0.011800 -0.009500 -0.006062
v 0.012200 -0.010500 -0.005362
v 0.012545 -0.011362 -0.004500
v 0.012200 -0.010500 0.005362
v 0.011800 -0.009500 0.006062
v 0.014000 -0.015000 0.015000
v 0.011358 -0.008394 0.006578
v 0.006000 0.005000 -0.007000
v 0.006642 0.003396 -0.008561
v 0.006000 0.005000 -0.008145
v 0.013157 -0.012894 -0.001216
v 0.013189 -0.012973 -0.000610
v 0.013200 -0.013000 0.000000
v 0.013189 -0.012973 0.000610
v 0.013157 -0.012894 0.001216
v 0.013105 -0.012761 0.001812
v 0.010886 -0.007216 0.006894
v 0.010400 -0.006000 0.007000
v 0.006642 0.003396 0.008561
v 0.006000 0.005000 0.007000
v 0.006000 0.005000 0.008145
v 0.012938 -0.012344 -0.002958
v 0.013031 -0.012578 -0.002394
v 0.013105 -0.012761 -0.001812
v 0.013031 -0.012578 0.002394
v 0.012938 -0.012344 0.002958
v 0.012825 -0.012062 0.003500
v 0.012694 -0.011734 -0.004015
v 0.012825 -0.012062 -0.003500
v 0.012694 -0.011734 0.004015
v 0.012545 -0.011362 0.004500
v 0.012000 -0.032000 -0.015000
v 0.012000 -0.032000 0.015000
v 0.003000 -0.032000 -0.015000
v 0.003000 -0.032000 0.015000
v -0.006000 0.003396 -0.008561
v -0.006000 -0.015000 -0.015000
v -0.006000 0.003396 0.008561
v -0.006000 -0.015000 0.015000
v -0.006000 -0.017000 -0.015000
v 0.003000 -0.017000 -0.015000
v -0.006000 -0.017000 0.015000
v 0.003000 -0.017000 0.015000
v -0.009000 0.027669 0.009429
v -0.009000 0.028000 0.009539
v -0.009000 0.028000 -0.009539
v -0.009000 0.026881 -0.009112
v -0.009000 0.025400 -0.008285
v -0.009000 0.024081 -0.007220
v -0.009000 0.022071 -0.004502
v -0.009000 0.021438 -0.002928
v -0.009000 0.021081 -0.001270
v -0.009000 0.021721 0.003729
v -0.009000 0.022485 0.005243
v -0.009000 0.023493 0.006607
v -0.009000 0.024718 0.007780
v -0.009000 0.022960 -0.005946
v -0.009000 0.026123 0.008730
v -0.009000 0.021009 0.000424
v -0.009000 0.021224 0.002107
v -0.006000 0.025400 -0.008285
v -0.006000 0.026641 -0.009000
v -0.006000 0.025244 -0.008449
v -0.006000 0.024081 -0.007220
v -0.006000 0.023780 -0.008113
v -0.006000 0.022282 -0.008000
v -0.006000 0.024718 0.007780
v -0.006000 0.025244 0.008449
v -0.006000 0.026123 0.008730
v -0.006000 0.026641 0.009000
v -0.006000 0.005024 -0.008141
v -0.006000 0.021438 -0.002928
v -0.006000 0.021081 -0.001270
v -0.006000 0.021009 0.000424
v -0.006000 0.021224 0.002107
v -0.006000 0.021721 0.003729
v -0.006000 0.005024 0.008141
v -0.006000 0.022485 0.005243
v -0.006000 0.006699 0.008000
v -0.006000 0.023493 0.006607
v -0.006000 0.022282 0.008000
v -0.006000 0.023780 0.008113
v -0.006000 0.006699 -0.008000
v -0.006000 0.022071 -0.004502
v -0.006000 0.022960 -0.005946
v 0.006000 0.006699 -0.008000
v 0.006000 0.022282 -0.008000
v 0.006000 0.026641 0.009000
v 0.006000 0.027669 0.009429
v 0.003005 0.040991 -0.000424
v 0.003040 0.040919 -0.001270
v -0.009000 0.040919 -0.001270
v -0.007061 0.032061 0.009944
v -0.006893 0.031860 0.009963
v 0.006000 0.032690 0.009856
v -0.006823 0.031750 0.009972
v -0.006762 0.031634 0.009980
v -0.006712 0.031513 0.009987
v -0.006672 0.031388 0.009992
v -0.009000 0.034000 -0.009539
v -0.009000 0.035119 -0.009112
v 0.005942 0.035117 -0.009107
v -0.008515 0.033515 -0.009659
v 0.006000 0.031848 -0.009964
v -0.006884 0.031848 -0.009964
v 0.006000 0.033520 -0.009677
v -0.006893 0.031860 -0.009963
v -0.007061 0.032061 -0.009944
v 0.006000 0.035000 -0.009165
v -0.007795 0.032795 -0.009838
v -0.006762 0.030366 -0.009980
v -0.006712 0.030487 -0.009987
v 0.006000 0.030152 -0.009964
v -0.006672 0.030612 -0.009992
v -0.006644 0.031260 -0.009997
v -0.006672 0.031388 -0.009992
v -0.006627 0.031131 -0.009999
v -0.006644 0.030739 -0.009997
v -0.006627 0.030869 -0.009999
v -0.006621 0.031000 -0.010000
v -0.006712 0.031513 -0.009987
v -0.006762 0.031634 -0.009980
v 0.006000 0.028480 -0.009677
v -0.008520 0.028480 -0.009677
v -0.007795 0.029205 -0.009838
v -0.007061 0.029939 -0.009944
v -0.006893 0.030140 -0.009963
v -0.006884 0.030152 -0.009964
v -0.006644 0.031261 0.009997
v -0.006627 0.031131 0.009999
v 0.006000 0.031000 0.010000
v -0.006621 0.031000 0.010000
v 0.006000 0.029310 0.009856
v -0.006627 0.030869 0.009999
v -0.006644 0.030740 0.009997
v -0.006672 0.030612 0.009992
v -0.006712 0.030487 0.009987
v -0.006762 0.030366 0.009980
v -0.006822 0.030250 0.009972
v -0.006893 0.030140 0.009963
v -0.007061 0.029939 0.009944
v -0.007690 0.029310 0.009856
v 0.006000 0.026881 -0.009112
v 0.006000 0.026641 -0.009000
v -0.009000 0.036600 -0.008285
v -0.009000 0.037919 -0.007220
v 0.004540 0.037919 -0.007220
v 0.004859 0.037282 -0.007780
v 0.005200 0.036600 -0.008285
v 0.005562 0.035877 -0.008730
v -0.009000 0.039040 -0.005946
v -0.009000 0.039929 -0.004502
v 0.003535 0.039929 -0.004502
v 0.003742 0.039515 -0.005243
v 0.003980 0.039040 -0.005946
v 0.004247 0.038507 -0.006607
v -0.009000 0.040562 -0.002928
v 0.003112 0.040776 -0.002107
v 0.003219 0.040562 -0.002928
v 0.003361 0.040279 -0.003729
v 0.003005 0.040991 0.000424
v -0.009000 0.040991 0.000424
v 0.003040 0.040919 0.001270
v -0.009000 0.040776 0.002107
v 0.003112 0.040776 0.002107
v 0.003219 0.040562 0.002928
v -0.009000 0.040279 0.003729
v 0.003361 0.040279 0.003729
v 0.003535 0.039929 0.004502
v -0.009000 0.039515 0.005243
v 0.003742 0.039515 0.005243
v 0.003980 0.039040 0.005946
v -0.009000 0.038507 0.006607
v 0.004247 0.038507 0.006607
v 0.004540 0.037919 0.007220
v -0.009000 0.037282 0.007780
v 0.004859 0.037282 0.007780
v 0.005200 0.036600 0.008285
v -0.009000 0.035877 0.008730
v 0.005562 0.035877 0.008730
v 0.006000 0.035000 0.009165
v -0.009000 0.034331 0.009429
v 0.006000 0.034331 0.009429
v -0.009000 0.034000 0.009539
v -0.007690 0.032690 0.009856
v 0.006000 0.006699 0.008000
v 0.006000 0.022282 0.008000
v 0.006000 0.005024 -0.008141
v 0.006000 0.025244 0.008449
v 0.006000 0.023780 0.008113
v 0.006000 -0.006000 -0.007000
v 0.006000 -0.006000 0.007000
v 0.006000 -0.007216 0.006894
v 0.006000 -0.011362 -0.004500
v 0.006000 -0.010500 -0.005362
v 0.006000 -0.008394 0.006578
v 0.006000 -0.009500 0.006062
v 0.006000 -0.010500 0.005362
v 0.006000 -0.011362 0.004500
v 0.006000 -0.012062 0.003500
v 0.006000 -0.012578 0.002394
v 0.006000 -0.012894 0.001216
v 0.006000 -0.013000 -0.000000
v 0.006000 -0.012894 -0.001216
v 0.006000 0.023780 -0.008113
v 0.006000 0.025244 -0.008449
v 0.006000 -0.007216 -0.006894
v 0.006000 -0.009500 -0.006062
v 0.006000 -0.008394 -0.006578
v 0.006000 0.005024 0.008141
v 0.006000 -0.012578 -0.002394
v 0.006000 -0.012062 -0.003500
v 0.013200 -0.013000 -0.000000
v 0.012000 -0.032000 -0.014000
v 0.012000 -0.032000 0.014000
v 0.012000 -0.041000 -0.014000
v 0.012000 -0.041000 0.014000
v 0.003000 -0.032000 0.015000
v 0.011000 -0.032000 0.015000
v 0.011000 -0.032000 -0.015000
v 0.003000 -0.032000 -0.015000
v 0.003000 -0.017000 0.014000
v 0.003000 -0.018000 0.015000
v 0.003000 -0.017000 -0.014000
v 0.003000 -0.018000 -0.015000
v -0.006000 -0.017000 -0.014000
v -0.006000 -0.017000 0.014000
v -0.006000 -0.018000 -0.015000
v -0.006000 -0.041000 -0.015000
v -0.006000 -0.041000 0.015000
v -0.006000 -0.018000 0.015000
v 0.011000 -0.041000 0.015000
v 0.011000 -0.041000 -0.015000
vn 0.9285 0.3714 0.0000
vn 0.0000 -1.0000 0.0000
vn 0.0000 0.3304 -0.9439
vn 0.0000 0.3304 0.9439
vn 0.0000 0.0000 -1.0000
vn 0.0000 0.0000 1.0000
vn -1.0000 -0.0000 0.0000
vn 0.0000 -0.3851 0.9229
vn 0.0000 0.9964 -0.0848
vn 0.0020 0.0977 0.9952
vn 0.0030 0.0824 0.9966
vn 0.0038 0.0712 0.9975
vn 0.0048 0.0593 0.9982
vn 0.0059 0.0469 0.9989
vn 0.0004 0.3566 -0.9343
vn 0.0094 0.2490 -0.9684
vn 0.0000 0.1690 -0.9856
vn 0.0101 0.0924 -0.9957
vn 0.0087 0.1033 -0.9946
vn -0.0143 0.4386 -0.8986
vn -0.0013 0.3270 -0.9450
vn -0.0013 0.2390 -0.9710
vn 0.0038 0.1466 -0.9892
vn 0.0003 -0.0574 -0.9983
vn 0.0006 -0.0452 -0.9990
vn 0.0011 0.0327 -0.9995
vn 0.0017 0.0198 -0.9998
vn 0.0011 -0.0327 -0.9995
vn 0.0017 -0.0198 -0.9998
vn 0.0028 0.0000 -1.0000
vn 0.0033 -0.0067 -1.0000
vn 0.0024 0.0067 -1.0000
vn 0.0006 0.0453 -0.9990
vn 0.0003 0.0575 -0.9983
vn 0.0000 0.0741 -0.9973
vn 0.0000 -0.2159 -0.9764
vn 0.0038 -0.1466 -0.9892
vn 0.0087 -0.1033 -0.9946
vn 0.0001 -0.1690 -0.9856
vn 0.0000 -0.0854 -0.9963
vn 0.0000 -0.0741 -0.9973
vn 0.0072 0.0341 0.9994
vn 0.0088 0.0207 0.9997
vn 0.0008 0.0848 0.9964
vn 0.0000 0.0065 1.0000
vn 0.0000 -0.0848 0.9964
vn 0.0105 -0.0070 0.9999
vn 0.0088 -0.0207 0.9997
vn 0.0073 -0.0340 0.9994
vn 0.0059 -0.0469 0.9989
vn 0.0048 -0.0593 0.9982
vn 0.0038 -0.0711 0.9975
vn 0.0030 -0.0824 0.9966
vn 0.0020 -0.0977 0.9952
vn 0.0000 -0.1376 0.9905
vn 0.0000 -0.2520 0.9677
vn 0.0000 -0.4239 -0.9057
vn 0.0000 -0.2761 -0.9611
vn 0.0020 -0.3331 -0.9429
vn 0.0000 -0.3566 -0.9343
vn -0.0063 -0.4877 -0.8730
vn 0.0000 0.6282 -0.7780
vn -0.0051 0.6592 -0.7519
vn 0.0000 0.5946 -0.8040
vn 0.0000 0.4877 -0.8730
vn -0.0048 0.5226 -0.8526
vn 0.0004 0.4445 -0.8958
vn 0.0000 0.8515 -0.5243
vn -0.0056 0.8723 -0.4889
vn 0.0000 0.8285 -0.5600
vn 0.0000 0.7507 -0.6607
vn -0.0053 0.7770 -0.6295
vn 0.0000 0.7220 -0.6919
vn 0.0000 0.9776 -0.2107
vn -0.0059 0.9855 -0.1695
vn 0.0000 0.9677 -0.2520
vn 0.0000 0.9279 -0.3729
vn -0.0058 0.9425 -0.3340
vn 0.0000 0.9112 -0.4119
vn -0.0060 1.0000 0.0000
vn 0.0000 0.9991 -0.0424
vn 0.0000 0.9964 0.0848
vn -0.0030 0.9919 0.1270
vn 0.0000 0.9856 0.1690
vn 0.0000 0.9677 0.2520
vn -0.0029 0.9562 0.2928
vn 0.0000 0.9429 0.3331
vn 0.0000 0.9112 0.4119
vn -0.0029 0.8929 0.4502
vn 0.0000 0.8730 0.4877
vn 0.0000 0.8285 0.5600
vn -0.0028 0.8040 0.5946
vn 0.0000 0.7780 0.6282
vn 0.0000 0.7220 0.6919
vn -0.0027 0.6919 0.7220
vn 0.0000 0.6607 0.7507
vn 0.0000 0.5946 0.8040
vn -0.0025 0.5600 0.8285
vn 0.0000 0.5243 0.8515
vn 0.0000 0.4444 0.8958
vn -0.0023 0.4119 0.9112
vn 0.0000 0.3668 0.9303
vn 0.0000 0.3166 0.9486
vn 0.0016 0.2520 0.9677
vn 0.0000 0.2350 0.9720
vn 0.0000 0.1376 0.9905
vn -0.0315 -0.4618 0.8864
vn 0.0000 -0.3166 0.9486
vn 0.0019 -0.2369 0.9715
vn 0.0000 -0.4992 -0.8665
vn 0.0000 -0.6282 -0.7780
vn 0.0000 -0.7507 -0.6607
vn 0.0000 -0.8515 -0.5243
vn 0.0000 -0.9279 -0.3729
vn 0.0000 -0.9776 -0.2107
vn 0.0000 -0.9991 -0.0424
vn 0.0000 -0.9919 0.1270
vn 0.0000 -0.9562 0.2928
vn 0.0000 -0.8929 0.4502
vn 0.0000 -0.8040 0.5946
vn 0.0000 -0.6919 0.7220
vn 0.0000 -0.5600 0.8285
vn 0.0000 -0.4119 0.9112
vn 1.0000 0.0000 0.0000
vn -0.8685 0.4957 0.0000
vn -0.8871 0.4616 0.0005
vn -0.8220 0.5695 -0.0003
vn -0.8435 0.5372 0.0000
vn -0.7660 0.6428 0.0000
vn -0.9239 0.3826 0.0000
vn -0.9238 0.3828 0.0000
vn -0.9538 0.3006 -0.0000
vn -0.9537 0.3008 0.0000
vn -0.9763 0.2163 0.0000
vn -0.9763 0.2166 -0.0000
vn -0.9915 0.1304 0.0000
vn -0.9914 0.1307 0.0000
vn -0.9991 0.0435 0.0000
vn -0.9990 0.0436 0.0000
vn -0.9990 -0.0437 -0.0000
vn -0.9990 -0.0436 0.0000
vn -0.9914 -0.1307 0.0000
vn -0.9915 -0.1304 -0.0000
vn -0.9763 -0.2166 0.0000
vn -0.9763 -0.2163 0.0000
vn -0.9537 -0.3008 0.0000
vn -0.9538 -0.3006 0.0000
vn -0.9238 -0.3828 -0.0000
vn -0.9239 -0.3826 0.0000
vn -0.8685 -0.4957 0.0000
vn -0.8869 -0.4619 0.0005
vn -0.8220 -0.5695 -0.0003
vn -0.8433 -0.5374 0.0000
vn -0.7660 -0.6428 0.0000
vn -0.7071 0.7071 0.0000
vn -0.7071 -0.7071 0.0000
vn 0.9932 -0.1168 0.0000
vn 0.0000 0.0872 0.9962
vn 0.0000 0.2588 0.9659
vn 0.0000 0.4226 0.9063
vn 0.0000 0.5736 0.8192
vn 0.0000 0.7071 0.7071
vn 0.0000 0.7934 0.6088
vn 0.0040 0.8191 0.5736
vn 0.0000 0.8434 0.5373
vn 0.0000 0.8870 0.4617
vn 0.0038 0.9063 0.4226
vn 0.0000 0.9239 0.3827
vn 0.0000 0.9537 0.3007
vn 0.0037 0.9659 0.2588
vn 0.0000 0.9763 0.2164
vn 0.0000 0.9914 0.1305
vn 0.0037 0.9962 0.0872
vn 0.0000 0.9990 0.0436
vn 0.0000 0.9990 -0.0436
vn 0.0037 0.9962 -0.0872
vn 0.0000 0.9914 -0.1305
vn 0.0000 0.9763 -0.2164
vn 0.0037 0.9659 -0.2588
vn 0.0000 0.9537 -0.3007
vn 0.0000 0.9239 -0.3827
vn 0.0038 0.9063 -0.4226
vn 0.0000 0.8870 -0.4617
vn 0.0000 0.8434 -0.5373
vn 0.0040 0.8191 -0.5736
vn 0.0000 0.7934 -0.6088
vn 0.0000 0.7071 -0.7071
vn 0.0000 0.5736 -0.8192
vn 0.0000 0.4226 -0.9063
vn 0.0000 0.2588 -0.9659
vn 0.0000 0.0872 -0.9962
vn 0.8944 0.4472 0.0000
vn 0.0000 0.0841 -0.9965
vn 0.0000 0.2498 -0.9683
vn 0.0116 0.1687 -0.9856
vn 0.0000 0.2510 -0.9680
vn 0.0000 0.0841 0.9965
vn 0.0000 0.1687 0.9857
vn 0.0002 0.2498 0.9683
vn 0.0000 0.2510 0.9680
vn 0.0000 -0.3671 0.9302
vn 0.0000 -0.2236 0.9747
vn 0.0000 -0.0751 0.9972
vn 0.0000 -0.0751 -0.9972
vn 0.0000 -0.2236 -0.9747
vn 0.0000 -0.3671 -0.9302
vn 0.0000 1.0000 -0.0000
vn 0.7071 0.0000 -0.7071
vn 0.7071 0.0000 0.7071
f 1//1 2//1 3//1
f 1//1 3//1 4//1
f 2//1 5//1 3//1
f 3//1 5//1 6//1
f 3//1 6//1 7//1
f 8//1 9//1 10//1
f 10//1 9//1 11//1
f 4//1 3//1 12//1
f 12//1 3//1 13//1
f 12//1 13//1 14//1
f 15//1 16//1 3//1
f 3//1 16//1 17//1
f 3//1 17//1 10//1
f 17//1 18//1 10//1
f 10//1 18//1 19//1
f 10//1 19//1 20//1
f 11//1 21//1 10//1
f 10//1 21//1 22//1
f 10//1 22//1 23//1
f 23//1 22//1 24//1
f 23//1 24//1 25//1
f 26//1 27//1 3//1
f 3//1 27//1 28//1
f 3//1 28//1 15//1
f 20//1 29//1 10//1
f 10//1 29//1 30//1
f 10//1 30//1 31//1
f 7//1 32//1 3//1
f 3//1 32//1 33//1
f 3//1 33//1 26//1
f 31//1 34//1 10//1
f 10//1 34//1 35//1
f 10//1 35//1 8//1
f 36//2 37//2 38//2
f 38//2 37//2 39//2
f 13//3 3//3 40//3
f 40//3 3//3 41//3
f 42//4 43//4 23//4
f 23//4 43//4 10//4
f 44//5 41//5 45//5
f 45//5 41//5 3//5
f 45//5 3//5 38//5
f 38//5 3//5 36//5
f 43//6 46//6 47//6
f 39//6 37//6 47//6
f 47//6 37//6 10//6
f 47//6 10//6 43//6
f 48//7 49//7 50//7
f 50//7 51//7 48//7
f 48//7 51//7 52//7
f 48//7 52//7 53//7
f 54//7 55//7 56//7
f 57//7 58//7 54//7
f 54//7 58//7 59//7
f 54//7 59//7 60//7
f 53//7 61//7 48//7
f 48//7 61//7 54//7
f 48//7 54//7 62//7
f 62//7 54//7 60//7
f 56//7 63//7 54//7
f 54//7 63//7 64//7
f 54//7 64//7 57//7
f 65//7 66//7 67//7
f 40//7 41//7 44//7
f 65//7 67//7 68//7
f 68//7 67//7 69//7
f 68//7 69//7 70//7
f 71//7 72//7 73//7
f 73//7 72//7 74//7
f 75//7 40//7 76//7
f 46//7 43//7 42//7
f 76//7 40//7 77//7
f 77//7 40//7 44//7
f 77//7 44//7 78//7
f 78//7 44//7 46//7
f 78//7 46//7 79//7
f 79//7 46//7 42//7
f 79//7 42//7 80//7
f 80//7 42//7 81//7
f 80//7 81//7 82//7
f 82//7 81//7 83//7
f 82//7 83//7 84//7
f 84//7 83//7 85//7
f 84//7 85//7 71//7
f 71//7 85//7 86//7
f 71//7 86//7 72//7
f 75//7 76//7 87//7
f 87//7 76//7 88//7
f 87//7 88//7 70//7
f 70//7 88//7 89//7
f 70//7 89//7 68//7
f 87//5 70//5 90//5
f 90//5 70//5 91//5
f 74//8 92//8 93//8
f 94//9 95//9 96//9
f 97//10 98//10 99//10
f 99//11 98//11 100//11
f 100//12 101//12 99//12
f 99//13 101//13 102//13
f 99//14 102//14 103//14
f 104//15 105//15 106//15
f 104//16 106//16 107//16
f 108//17 109//17 110//17
f 110//18 109//18 111//18
f 110//19 111//19 112//19
f 106//20 113//20 107//20
f 107//21 113//21 110//21
f 107//22 110//22 114//22
f 114//23 110//23 112//23
f 115//24 116//24 117//24
f 117//25 116//25 118//25
f 119//26 120//26 108//26
f 119//27 108//27 121//27
f 118//28 122//28 117//28
f 117//29 122//29 123//29
f 117//30 123//30 108//30
f 108//31 123//31 124//31
f 108//32 124//32 121//32
f 120//33 125//33 108//33
f 108//34 125//34 126//34
f 108//35 126//35 109//35
f 127//36 128//36 129//36
f 129//37 130//37 127//37
f 127//38 130//38 131//38
f 127//39 131//39 117//39
f 117//40 131//40 132//40
f 117//41 132//41 115//41
f 103//42 133//42 99//42
f 99//43 133//43 134//43
f 99//44 134//44 135//44
f 135//45 134//45 136//45
f 135//46 136//46 137//46
f 137//47 136//47 138//47
f 138//48 139//48 137//48
f 137//49 139//49 140//49
f 137//50 140//50 141//50
f 141//51 142//51 137//51
f 137//52 142//52 143//52
f 137//53 143//53 144//53
f 144//54 145//54 137//54
f 137//55 145//55 146//55
f 137//56 146//56 93//56
f 147//57 148//57 66//57
f 128//58 127//58 50//58
f 50//59 127//59 147//59
f 50//60 147//60 51//60
f 51//57 147//57 66//57
f 51//61 66//61 52//61
f 149//62 150//62 151//62
f 151//63 152//63 149//63
f 149//64 152//64 153//64
f 149//65 153//65 105//65
f 105//66 153//66 154//66
f 105//67 154//67 106//67
f 155//68 156//68 157//68
f 157//69 158//69 155//69
f 155//70 158//70 159//70
f 155//71 159//71 150//71
f 150//72 159//72 160//72
f 150//73 160//73 151//73
f 96//74 95//74 161//74
f 95//75 162//75 161//75
f 161//76 162//76 163//76
f 161//77 163//77 156//77
f 156//78 163//78 164//78
f 156//79 164//79 157//79
f 94//80 96//80 165//80
f 165//81 96//81 166//81
f 165//82 166//82 167//82
f 167//83 166//83 168//83
f 167//84 168//84 169//84
f 169//85 168//85 170//85
f 170//86 168//86 171//86
f 170//87 171//87 172//87
f 172//88 171//88 173//88
f 173//89 171//89 174//89
f 173//90 174//90 175//90
f 175//91 174//91 176//91
f 176//92 174//92 177//92
f 176//93 177//93 178//93
f 178//94 177//94 179//94
f 179//95 177//95 180//95
f 179//96 180//96 181//96
f 181//97 180//97 182//97
f 182//98 180//98 183//98
f 182//99 183//99 184//99
f 184//100 183//100 185//100
f 185//101 183//101 186//101
f 185//102 186//102 187//102
f 187//103 186//103 188//103
f 187//104 188//104 99//104
f 99//105 188//105 189//105
f 99//106 189//106 97//106
f 73//107 74//107 48//107
f 48//8 74//8 93//8
f 48//108 93//108 49//108
f 49//109 93//109 146//109
f 66//110 65//110 52//110
f 52//111 65//111 68//111
f 52//111 68//111 53//111
f 53//112 68//112 89//112
f 53//112 89//112 61//112
f 61//113 89//113 88//113
f 61//113 88//113 54//113
f 54//114 88//114 76//114
f 54//114 76//114 55//114
f 55//115 76//115 77//115
f 55//115 77//115 56//115
f 56//116 77//116 78//116
f 56//116 78//116 63//116
f 63//117 78//117 79//117
f 63//117 79//117 64//117
f 64//118 79//118 80//118
f 64//118 80//118 57//118
f 57//119 80//119 82//119
f 57//119 82//119 58//119
f 58//120 82//120 84//120
f 58//120 84//120 59//120
f 59//121 84//121 71//121
f 59//121 71//121 60//121
f 60//122 71//122 73//122
f 60//122 73//122 62//122
f 62//123 73//123 48//123
f 190//6 191//6 83//6
f 83//6 191//6 85//6
f 90//124 91//124 24//124
f 12//124 14//124 192//124
f 193//124 108//124 92//124
f 92//124 108//124 110//124
f 92//124 110//124 93//124
f 194//124 148//124 193//124
f 193//124 148//124 147//124
f 147//124 127//124 193//124
f 193//124 127//124 117//124
f 193//124 117//124 108//124
f 113//124 185//124 110//124
f 110//124 185//124 187//124
f 110//124 187//124 99//124
f 192//124 90//124 12//124
f 12//124 90//124 24//124
f 12//124 24//124 195//124
f 195//124 24//124 196//124
f 195//124 196//124 197//124
f 198//124 199//124 195//124
f 197//124 200//124 195//124
f 195//124 200//124 201//124
f 195//124 201//124 202//124
f 202//124 203//124 195//124
f 195//124 203//124 204//124
f 195//124 204//124 205//124
f 205//124 206//124 195//124
f 195//124 206//124 207//124
f 195//124 207//124 208//124
f 99//124 135//124 110//124
f 110//124 135//124 137//124
f 110//124 137//124 93//124
f 91//124 209//124 194//124
f 194//124 209//124 210//124
f 194//124 210//124 148//124
f 195//124 199//124 211//124
f 211//124 199//124 212//124
f 211//124 212//124 213//124
f 194//124 191//124 91//124
f 91//124 191//124 190//124
f 91//124 190//124 24//124
f 24//124 190//124 214//124
f 24//124 214//124 25//124
f 208//124 215//124 195//124
f 195//124 215//124 216//124
f 195//124 216//124 198//124
f 105//7 104//7 186//7
f 186//7 104//7 188//7
f 149//7 105//7 166//7
f 166//7 105//7 168//7
f 186//7 183//7 105//7
f 105//7 183//7 180//7
f 105//7 180//7 177//7
f 156//7 166//7 161//7
f 161//7 166//7 96//7
f 156//7 155//7 166//7
f 166//7 155//7 150//7
f 166//7 150//7 149//7
f 177//7 174//7 105//7
f 105//7 174//7 171//7
f 105//7 171//7 168//7
f 142//125 115//125 132//125
f 142//126 132//126 143//126
f 143//127 132//127 131//127
f 143//128 131//128 144//128
f 144//129 131//129 130//129
f 144//129 130//129 145//129
f 115//130 142//130 116//130
f 116//131 142//131 141//131
f 116//132 141//132 118//132
f 141//133 140//133 118//133
f 118//134 140//134 139//134
f 118//135 139//135 122//135
f 122//136 139//136 138//136
f 122//137 138//137 123//137
f 123//138 138//138 124//138
f 124//139 138//139 136//139
f 124//140 136//140 121//140
f 136//141 134//141 121//141
f 121//142 134//142 133//142
f 121//143 133//143 119//143
f 119//144 133//144 103//144
f 119//145 103//145 120//145
f 120//146 103//146 125//146
f 125//147 103//147 102//147
f 125//148 102//148 126//148
f 126//149 102//149 101//149
f 126//150 101//150 109//150
f 109//151 101//151 100//151
f 109//152 100//152 111//152
f 100//153 98//153 111//153
f 111//154 98//154 97//154
f 111//154 97//154 112//154
f 130//155 129//155 145//155
f 145//155 129//155 128//155
f 145//155 128//155 146//155
f 146//155 128//155 50//155
f 146//155 50//155 49//155
f 188//156 104//156 189//156
f 189//156 104//156 107//156
f 189//156 107//156 97//156
f 97//156 107//156 114//156
f 97//156 114//156 112//156
f 3//157 10//157 36//157
f 36//157 10//157 37//157
f 45//2 47//2 44//2
f 44//2 47//2 46//2
f 45//7 38//7 47//7
f 47//7 38//7 39//7
f 4//158 195//158 211//158
f 4//158 211//158 1//158
f 1//159 211//159 213//159
f 1//159 213//159 2//159
f 2//160 213//160 212//160
f 2//160 212//160 5//160
f 5//161 212//161 199//161
f 5//161 199//161 6//161
f 6//162 199//162 198//162
f 6//162 198//162 7//162
f 7//163 198//163 32//163
f 32//164 198//164 216//164
f 32//165 216//165 33//165
f 33//166 216//166 26//166
f 26//167 216//167 215//167
f 26//168 215//168 27//168
f 27//169 215//169 28//169
f 28//170 215//170 208//170
f 28//171 208//171 15//171
f 15//172 208//172 16//172
f 16//173 208//173 207//173
f 16//174 207//174 217//174
f 217//175 207//175 18//175
f 18//176 207//176 206//176
f 18//177 206//177 19//177
f 19//178 206//178 20//178
f 20//179 206//179 205//179
f 20//180 205//180 29//180
f 29//181 205//181 30//181
f 30//182 205//182 204//182
f 30//183 204//183 31//183
f 31//184 204//184 34//184
f 34//185 204//185 203//185
f 34//186 203//186 35//186
f 35//187 203//187 202//187
f 35//187 202//187 8//187
f 8//188 202//188 201//188
f 8//188 201//188 9//188
f 9//189 201//189 200//189
f 9//189 200//189 11//189
f 11//190 200//190 197//190
f 11//190 197//190 21//190
f 21//191 197//191 196//191
f 21//191 196//191 22//191
f 195//6 4//6 12//6
f 196//5 24//5 22//5
f 185//192 113//192 106//192
f 181//192 182//192 152//192
f 152//192 182//192 153//192
f 106//192 154//192 185//192
f 185//192 154//192 153//192
f 185//192 153//192 184//192
f 184//192 153//192 182//192
f 178//192 179//192 160//192
f 181//192 152//192 179//192
f 179//192 152//192 151//192
f 179//192 151//192 160//192
f 173//192 175//192 157//192
f 178//192 160//192 176//192
f 176//192 160//192 159//192
f 176//192 159//192 175//192
f 175//192 159//192 158//192
f 175//192 158//192 157//192
f 170//192 172//192 163//192
f 173//192 157//192 172//192
f 172//192 157//192 164//192
f 172//192 164//192 163//192
f 170//192 163//192 169//192
f 169//192 163//192 162//192
f 169//192 162//192 95//192
f 94//192 165//192 95//192
f 95//192 165//192 167//192
f 95//192 167//192 169//192
f 87//193 90//193 75//193
f 75//193 90//193 192//193
f 75//194 192//194 40//194
f 40//195 192//195 14//195
f 40//196 14//196 13//196
f 190//197 83//197 214//197
f 214//197 83//197 81//197
f 214//198 81//198 25//198
f 25//199 81//199 42//199
f 25//200 42//200 23//200
f 92//201 74//201 193//201
f 193//201 74//201 72//201
f 193//202 72//202 194//202
f 194//202 72//202 86//202
f 194//203 86//203 191//203
f 191//203 86//203 85//203
f 91//204 70//204 209//204
f 209//204 70//204 69//204
f 209//205 69//205 210//205
f 210//205 69//205 67//205
f 210//206 67//206 148//206
f 148//206 67//206 66//206
f 218//124 219//124 220//124
f 220//124 219//124 221//124
f 222//207 223//207 219//207
f 219//207 218//207 222//207
f 222//207 218//207 224//207
f 222//207 224//207 225//207
f 226//124 227//124 222//124
f 228//124 226//124 229//124
f 229//124 226//124 222//124
f 229//124 222//124 225//124
f 230//207 231//207 228//207
f 228//207 231//207 226//207
f 232//7 233//7 230//7
f 230//7 233//7 234//7
f 230//7 234//7 231//7
f 231//7 234//7 235//7
f 221//2 236//2 234//2
f 220//2 221//2 237//2
f 237//2 221//2 234//2
f 237//2 234//2 233//2
f 227//6 235//6 222//6
f 222//6 235//6 234//6
f 222//6 234//6 223//6
f 223//6 234//6 236//6
f 224//5 237//5 225//5
f 225//5 237//5 233//5
f 225//5 233//5 229//5
f 229//5 233//5 232//5
f 232//187 230//187 229//187
f 229//187 230//187 228//187
f 231//162 235//162 226//162
f 226//162 235//162 227//162
f 224//208 218//208 237//208
f 237//208 218//208 220//208
f 219//209 223//209 221//209
f 221//209 223//209 236//209
