{
    "asset": {
        "version": "2.0",
        "generator": "gltfpack 0.23"
    },
    "extensionsUsed": [
        "EXT_meshopt_compression",
        "KHR_texture_basisu"
    ],
    "extensionsRequired": [
        "KHR_texture_basisu"
    ],
    "buffers": [
        {
            "uri": "textured_bubble.bin",
            "byteLength": 8924
        },
        {
            "uri": "textured_bubble.fallback.bin",
            "byteLength": 13132,
            "extensions": {
                "EXT_meshopt_compression": {
                    "fallback": true
                }
            }
        }
    ],
    "bufferViews": [
        {
            "buffer": 1,
            "byteOffset": 0,
            "byteLength": 3660,
            "byteStride": 12,
            "target": 34962,
            "extensions": {
                "EXT_meshopt_compression": {
                    "buffer": 0,
                    "byteOffset": 0,
                    "byteLength": 3151,
                    "byteStride": 12,
                    "mode": "ATTRIBUTES",
                    "count": 305
                }
            }
        },
        {
            "buffer": 1,
            "byteOffset": 3660,
            "byteLength": 3660,
            "byteStride": 12,
            "target": 34962,
            "extensions": {
                "EXT_meshopt_compression": {
                    "buffer": 0,
                    "byteOffset": 3152,
                    "byteLength": 3114,
                    "byteStride": 12,
                    "mode": "ATTRIBUTES",
                    "count": 305
                }
            }
        },
        {
            "buffer": 1,
            "byteOffset": 7320,
            "byteLength": 2440,
            "byteStride": 8,
            "target": 34962,
            "extensions": {
                "EXT_meshopt_compression": {
                    "buffer": 0,
                    "byteOffset": 6268,
                    "byteLength": 1985,
                    "byteStride": 8,
                    "mode": "ATTRIBUTES",
                    "count": 305
                }
            }
        },
        {
            "buffer": 1,
            "byteOffset": 9760,
            "byteLength": 3372,
            "target": 34963,
            "extensions": {
                "EXT_meshopt_compression": {
                    "buffer": 0,
                    "byteOffset": 8256,
                    "byteLength": 668,
                    "byteStride": 2,
                    "mode": "TRIANGLES",
                    "count": 1686
                }
            }
        }
    ],
    "accessors": [
        {
            "bufferView": 0,
            "byteOffset": 0,
            "componentType": 5126,
            "count": 305,
            "type": "VEC3",
            "min": [
                -0.0543946065,
                -0.03418402,
                -0.0361789465
            ],
            "max": [
                0.0546358526,
                -0.00190562231,
                0.0361752249
            ]
        },
        {
            "bufferView": 1,
            "byteOffset": 0,
            "componentType": 5126,
            "count": 305,
            "type": "VEC3"
        },
        {
            "bufferView": 2,
            "byteOffset": 0,
            "componentType": 5126,
            "count": 305,
            "type": "VEC2"
        },
        {
            "bufferView": 3,
            "byteOffset": 0,
            "componentType": 5123,
            "count": 1686,
            "type": "SCALAR"
        }
    ],
    "samplers": [
        {
            "magFilter": 9729,
            "minFilter": 9986
        }
    ],
    "images": [
        {
            "name": "dots",
            "uri": "textured_bubble_dots.png"
        },
        {
            "uri": "textured_bubble_dots.ktx2"
        }
    ],
    "textures": [
        {
            "sampler": 0,
            "source": 0,
            "extensions": {
                "KHR_texture_basisu": {
                    "source": 1
                }
            }
        }
    ],
    "materials": [
        {
            "name": "dots",
            "pbrMetallicRoughness": {
                "baseColorTexture": {
                    "index": 0
                },
                "metallicFactor": 0
            }
        }
    ],
    "meshes": [
        {
            "primitives": [
                {
                    "attributes": {
                        "POSITION": 0,
                        "NORMAL": 1,
                        "TEXCOORD_0": 2
                    },
                    "indices": 3,
                    "material": 0
                }
            ]
        }
    ],
    "nodes": [
        {
            "name": "Node",
            "mesh": 0
        }
    ],
    "scenes": [
        {
            "nodes": [
                0
            ]
        }
    ],
    "scene": 0
}