{
    "asset": {
        "version": "2.0",
        "generator": "gltfpack 0.23"
    },
    "extensionsUsed": [
        "EXT_meshopt_compression"
    ],
    "buffers": [
        {
            "uri": "wsg_body.bin",
            "byteLength": 4540
        },
        {
            "uri": "wsg_body.fallback.bin",
            "byteLength": 10164,
            "extensions": {
                "EXT_meshopt_compression": {
                    "fallback": true
                }
            }
        }
    ],
    "bufferViews": [
        {
            "buffer": 1,
            "byteOffset": 0,
            "byteLength": 4380,
            "byteStride": 12,
            "target": 34962,
            "extensions": {
                "EXT_meshopt_compression": {
                    "buffer": 0,
                    "byteOffset": 0,
                    "byteLength": 2802,
                    "byteStride": 12,
                    "mode": "ATTRIBUTES",
                    "count": 365
                }
            }
        },
        {
            "buffer": 1,
            "byteOffset": 4380,
            "byteLength": 4380,
            "byteStride": 12,
            "target": 34962,
            "extensions": {
                "EXT_meshopt_compression": {
                    "buffer": 0,
                    "byteOffset": 2804,
                    "byteLength": 1477,
                    "byteStride": 12,
                    "mode": "ATTRIBUTES",
                    "count": 365
                }
            }
        },
        {
            "buffer": 1,
            "byteOffset": 8760,
            "byteLength": 1404,
            "target": 34963,
            "extensions": {
                "EXT_meshopt_compression": {
                    "buffer": 0,
                    "byteOffset": 4284,
                    "byteLength": 253,
                    "byteStride": 2,
                    "mode": "TRIANGLES",
                    "count": 702
                }
            }
        }
    ],
    "accessors": [
        {
            "bufferView": 0,
            "byteOffset": 0,
            "componentType": 5126,
            "count": 365,
            "type": "VEC3",
            "min": [
                -0.0729999989,
                -0.0250000004,
                -0.036249999
            ],
            "max": [
                0.0729999989,
                0.0250000004,
                0.036249999
            ]
        },
        {
            "bufferView": 1,
            "byteOffset": 0,
            "componentType": 5126,
            "count": 365,
            "type": "VEC3"
        },
        {
            "bufferView": 2,
            "byteOffset": 0,
            "componentType": 5123,
            "count": 702,
            "type": "SCALAR"
        }
    ],
    "materials": [
        {
            "name": "default",
            "pbrMetallicRoughness": {
                "baseColorFactor": [
                    0.200000003,
                    0.200000003,
                    0.200000003,
                    1
                ],
                "metallicFactor": 0,
                "roughnessFactor": 0.5
            }
        }
    ],
    "meshes": [
        {
            "primitives": [
                {
                    "attributes": {
                        "POSITION": 0,
                        "NORMAL": 1
                    },
                    "indices": 2,
                    "material": 0
                }
            ]
        }
    ],
    "nodes": [
        {
            "name": "Node",
            "mesh": 0
        }
    ],
    "scenes": [
        {
            "nodes": [
                0
            ]
        }
    ],
    "scene": 0
}