{
    "asset": {
        "version": "2.0",
        "generator": "gltfpack 0.23"
    },
    "extensionsUsed": [
        "EXT_meshopt_compression"
    ],
    "buffers": [
        {
            "uri": "link_0.bin",
            "byteLength": 389480
        },
        {
            "uri": "link_0.fallback.bin",
            "byteLength": 691380,
            "extensions": {
                "EXT_meshopt_compression": {
                    "fallback": true
                }
            }
        }
    ],
    "bufferViews": [
        {
            "buffer": 1,
            "byteOffset": 0,
            "byteLength": 238236,
            "byteStride": 12,
            "target": 34962,
            "extensions": {
                "EXT_meshopt_compression": {
                    "buffer": 0,
                    "byteOffset": 0,
                    "byteLength": 162582,
                    "byteStride": 12,
                    "mode": "ATTRIBUTES",
                    "count": 19853
                }
            }
        },
        {
            "buffer": 1,
            "byteOffset": 238236,
            "byteLength": 238236,
            "byteStride": 12,
            "target": 34962,
            "extensions": {
                "EXT_meshopt_compression": {
                    "buffer": 0,
                    "byteOffset": 162584,
                    "byteLength": 184003,
                    "byteStride": 12,
                    "mode": "ATTRIBUTES",
                    "count": 19853
                }
            }
        },
        {
            "buffer": 1,
            "byteOffset": 476472,
            "byteLength": 214908,
            "target": 34963,
            "extensions": {
                "EXT_meshopt_compression": {
                    "buffer": 0,
                    "byteOffset": 346588,
                    "byteLength": 42892,
                    "byteStride": 2,
                    "mode": "TRIANGLES",
                    "count": 107454
                }
            }
        }
    ],
    "accessors": [
        {
            "bufferView": 0,
            "byteOffset": 0,
            "componentType": 5126,
            "count": 19853,
            "type": "VEC3",
            "min": [
                -0.112999998,
                -6.34587489e-18,
                -0.103937
            ],
            "max": [
                0.103873998,
                0.157499999,
                0.103937
            ]
        },
        {
            "bufferView": 1,
            "byteOffset": 0,
            "componentType": 5126,
            "count": 19853,
            "type": "VEC3"
        },
        {
            "bufferView": 2,
            "byteOffset": 0,
            "componentType": 5123,
            "count": 107454,
            "type": "SCALAR"
        }
    ],
    "materials": [
        {
            "name": "grey",
            "pbrMetallicRoughness": {
                "baseColorFactor": [
                    0.200000003,
                    0.200000003,
                    0.200000003,
                    1
                ],
                "metallicFactor": 0.400000006,
                "roughnessFactor": 0.5
            }
        }
    ],
    "meshes": [
        {
            "primitives": [
                {
                    "attributes": {
                        "POSITION": 0,
                        "NORMAL": 1
                    },
                    "indices": 2,
                    "material": 0
                }
            ]
        }
    ],
    "nodes": [
        {
            "name": "Node",
            "mesh": 0
        }
    ],
    "scenes": [
        {
            "nodes": [
                0
            ]
        }
    ],
    "scene": 0
}