{
    "asset": {
        "version": "2.0",
        "generator": "gltfpack 0.23"
    },
    "extensionsUsed": [
        "EXT_meshopt_compression"
    ],
    "buffers": [
        {
            "uri": "link_6.bin",
            "byteLength": 322728
        },
        {
            "uri": "link_6.fallback.bin",
            "byteLength": 540876,
            "extensions": {
                "EXT_meshopt_compression": {
                    "fallback": true
                }
            }
        }
    ],
    "bufferViews": [
        {
            "buffer": 1,
            "byteOffset": 0,
            "byteLength": 191844,
            "byteStride": 12,
            "target": 34962,
            "extensions": {
                "EXT_meshopt_compression": {
                    "buffer": 0,
                    "byteOffset": 0,
                    "byteLength": 142196,
                    "byteStride": 12,
                    "mode": "ATTRIBUTES",
                    "count": 15987
                }
            }
        },
        {
            "buffer": 1,
            "byteOffset": 191844,
            "byteLength": 191844,
            "byteStride": 12,
            "target": 34962,
            "extensions": {
                "EXT_meshopt_compression": {
                    "buffer": 0,
                    "byteOffset": 142196,
                    "byteLength": 149607,
                    "byteStride": 12,
                    "mode": "ATTRIBUTES",
                    "count": 15987
                }
            }
        },
        {
            "buffer": 1,
            "byteOffset": 383688,
            "byteLength": 157188,
            "target": 34963,
            "extensions": {
                "EXT_meshopt_compression": {
                    "buffer": 0,
                    "byteOffset": 291804,
                    "byteLength": 30921,
                    "byteStride": 2,
                    "mode": "TRIANGLES",
                    "count": 78594
                }
            }
        }
    ],
    "accessors": [
        {
            "bufferView": 0,
            "byteOffset": 0,
            "componentType": 5126,
            "count": 15987,
            "type": "VEC3",
            "min": [
                -0.0661659986,
                -0.0104999999,
                -0.0908999965
            ],
            "max": [
                0.0661680028,
                0.126909003,
                0.0864870027
            ]
        },
        {
            "bufferView": 1,
            "byteOffset": 0,
            "componentType": 5126,
            "count": 15987,
            "type": "VEC3"
        },
        {
            "bufferView": 2,
            "byteOffset": 0,
            "componentType": 5123,
            "count": 78594,
            "type": "SCALAR"
        }
    ],
    "materials": [
        {
            "name": "orange",
            "pbrMetallicRoughness": {
                "baseColorFactor": [
                    1,
                    0.150000006,
                    0,
                    1
                ],
                "metallicFactor": 0.400000006,
                "roughnessFactor": 0.5
            }
        }
    ],
    "meshes": [
        {
            "primitives": [
                {
                    "attributes": {
                        "POSITION": 0,
                        "NORMAL": 1
                    },
                    "indices": 2,
                    "material": 0
                }
            ]
        }
    ],
    "nodes": [
        {
            "name": "Node",
            "mesh": 0
        }
    ],
    "scenes": [
        {
            "nodes": [
                0
            ]
        }
    ],
    "scene": 0
}