{
    "asset": {
        "version": "2.0",
        "generator": "gltfpack 0.23"
    },
    "extensionsUsed": [
        "EXT_meshopt_compression"
    ],
    "buffers": [
        {
            "uri": "link_1.bin",
            "byteLength": 107220
        },
        {
            "uri": "link_1.fallback.bin",
            "byteLength": 189444,
            "extensions": {
                "EXT_meshopt_compression": {
                    "fallback": true
                }
            }
        }
    ],
    "bufferViews": [
        {
            "buffer": 1,
            "byteOffset": 0,
            "byteLength": 66900,
            "byteStride": 12,
            "target": 34962,
            "extensions": {
                "EXT_meshopt_compression": {
                    "buffer": 0,
                    "byteOffset": 0,
                    "byteLength": 49604,
                    "byteStride": 12,
                    "mode": "ATTRIBUTES",
                    "count": 5575
                }
            }
        },
        {
            "buffer": 1,
            "byteOffset": 66900,
            "byteLength": 66900,
            "byteStride": 12,
            "target": 34962,
            "extensions": {
                "EXT_meshopt_compression": {
                    "buffer": 0,
                    "byteOffset": 49604,
                    "byteLength": 46662,
                    "byteStride": 12,
                    "mode": "ATTRIBUTES",
                    "count": 5575
                }
            }
        },
        {
            "buffer": 1,
            "byteOffset": 133800,
            "byteLength": 55644,
            "target": 34963,
            "extensions": {
                "EXT_meshopt_compression": {
                    "buffer": 0,
                    "byteOffset": 96268,
                    "byteLength": 10949,
                    "byteStride": 2,
                    "mode": "TRIANGLES",
                    "count": 27822
                }
            }
        }
    ],
    "accessors": [
        {
            "bufferView": 0,
            "byteOffset": 0,
            "componentType": 5126,
            "count": 5575,
            "type": "VEC3",
            "min": [
                -0.0679799989,
                -0.00999999978,
                -0.0679910034
            ],
            "max": [
                0.0679799989,
                0.25099501,
                0.114592999
            ]
        },
        {
            "bufferView": 1,
            "byteOffset": 0,
            "componentType": 5126,
            "count": 5575,
            "type": "VEC3"
        },
        {
            "bufferView": 2,
            "byteOffset": 0,
            "componentType": 5123,
            "count": 27822,
            "type": "SCALAR"
        }
    ],
    "materials": [
        {
            "name": "grey",
            "pbrMetallicRoughness": {
                "baseColorFactor": [
                    0.200000003,
                    0.200000003,
                    0.200000003,
                    1
                ],
                "metallicFactor": 0.400000006,
                "roughnessFactor": 0.5
            }
        }
    ],
    "meshes": [
        {
            "primitives": [
                {
                    "attributes": {
                        "POSITION": 0,
                        "NORMAL": 1
                    },
                    "indices": 2,
                    "material": 0
                }
            ]
        }
    ],
    "nodes": [
        {
            "name": "Node",
            "mesh": 0
        }
    ],
    "scenes": [
        {
            "nodes": [
                0
            ]
        }
    ],
    "scene": 0
}