{
    "asset": {
        "version": "2.0",
        "generator": "gltfpack 0.23"
    },
    "extensionsUsed": [
        "EXT_meshopt_compression"
    ],
    "buffers": [
        {
            "uri": "link_7.bin",
            "byteLength": 515388
        },
        {
            "uri": "link_7.fallback.bin",
            "byteLength": 903516,
            "extensions": {
                "EXT_meshopt_compression": {
                    "fallback": true
                }
            }
        }
    ],
    "bufferViews": [
        {
            "buffer": 1,
            "byteOffset": 0,
            "byteLength": 324264,
            "byteStride": 12,
            "target": 34962,
            "extensions": {
                "EXT_meshopt_compression": {
                    "buffer": 0,
                    "byteOffset": 0,
                    "byteLength": 215605,
                    "byteStride": 12,
                    "mode": "ATTRIBUTES",
                    "count": 27022
                }
            }
        },
        {
            "buffer": 1,
            "byteOffset": 324264,
            "byteLength": 324264,
            "byteStride": 12,
            "target": 34962,
            "extensions": {
                "EXT_meshopt_compression": {
                    "buffer": 0,
                    "byteOffset": 215608,
                    "byteLength": 250267,
                    "byteStride": 12,
                    "mode": "ATTRIBUTES",
                    "count": 27022
                }
            }
        },
        {
            "buffer": 1,
            "byteOffset": 648528,
            "byteLength": 254988,
            "target": 34963,
            "extensions": {
                "EXT_meshopt_compression": {
                    "buffer": 0,
                    "byteOffset": 465876,
                    "byteLength": 49510,
                    "byteStride": 2,
                    "mode": "TRIANGLES",
                    "count": 127494
                }
            }
        }
    ],
    "accessors": [
        {
            "bufferView": 0,
            "byteOffset": 0,
            "componentType": 5126,
            "count": 27022,
            "type": "VEC3",
            "min": [
                -0.0519229993,
                -3.00000011e-06,
                -0.0519450009
            ],
            "max": [
                0.0519270003,
                0.0449969992,
                0.0519400015
            ]
        },
        {
            "bufferView": 1,
            "byteOffset": 0,
            "componentType": 5126,
            "count": 27022,
            "type": "VEC3"
        },
        {
            "bufferView": 2,
            "byteOffset": 0,
            "componentType": 5123,
            "count": 127494,
            "type": "SCALAR"
        }
    ],
    "materials": [
        {
            "name": "grey",
            "pbrMetallicRoughness": {
                "baseColorFactor": [
                    0.200000003,
                    0.200000003,
                    0.200000003,
                    1
                ],
                "metallicFactor": 0.400000006,
                "roughnessFactor": 0.5
            }
        }
    ],
    "meshes": [
        {
            "primitives": [
                {
                    "attributes": {
                        "POSITION": 0,
                        "NORMAL": 1
                    },
                    "indices": 2,
                    "material": 0
                }
            ]
        }
    ],
    "nodes": [
        {
            "name": "Node",
            "mesh": 0
        }
    ],
    "scenes": [
        {
            "nodes": [
                0
            ]
        }
    ],
    "scene": 0
}