{
    "asset": {
        "version": "2.0",
        "generator": "gltfpack 0.23"
    },
    "extensionsUsed": [
        "EXT_meshopt_compression"
    ],
    "buffers": [
        {
            "uri": "link_5.bin",
            "byteLength": 137856
        },
        {
            "uri": "link_5.fallback.bin",
            "byteLength": 237060,
            "extensions": {
                "EXT_meshopt_compression": {
                    "fallback": true
                }
            }
        }
    ],
    "bufferViews": [
        {
            "buffer": 1,
            "byteOffset": 0,
            "byteLength": 83784,
            "byteStride": 12,
            "target": 34962,
            "extensions": {
                "EXT_meshopt_compression": {
                    "buffer": 0,
                    "byteOffset": 0,
                    "byteLength": 59738,
                    "byteStride": 12,
                    "mode": "ATTRIBUTES",
                    "count": 6982
                }
            }
        },
        {
            "buffer": 1,
            "byteOffset": 83784,
            "byteLength": 83784,
            "byteStride": 12,
            "target": 34962,
            "extensions": {
                "EXT_meshopt_compression": {
                    "buffer": 0,
                    "byteOffset": 59740,
                    "byteLength": 64437,
                    "byteStride": 12,
                    "mode": "ATTRIBUTES",
                    "count": 6982
                }
            }
        },
        {
            "buffer": 1,
            "byteOffset": 167568,
            "byteLength": 69492,
            "target": 34963,
            "extensions": {
                "EXT_meshopt_compression": {
                    "buffer": 0,
                    "byteOffset": 124180,
                    "byteLength": 13675,
                    "byteStride": 2,
                    "mode": "TRIANGLES",
                    "count": 34746
                }
            }
        }
    ],
    "accessors": [
        {
            "bufferView": 0,
            "byteOffset": 0,
            "componentType": 5126,
            "count": 6982,
            "type": "VEC3",
            "min": [
                -0.0679989979,
                -0.00999999978,
                -0.0990919992
            ],
            "max": [
                0.0680000037,
                0.266916007,
                0.0680000037
            ]
        },
        {
            "bufferView": 1,
            "byteOffset": 0,
            "componentType": 5126,
            "count": 6982,
            "type": "VEC3"
        },
        {
            "bufferView": 2,
            "byteOffset": 0,
            "componentType": 5123,
            "count": 34746,
            "type": "SCALAR"
        }
    ],
    "materials": [
        {
            "name": "grey",
            "pbrMetallicRoughness": {
                "baseColorFactor": [
                    0.200000003,
                    0.200000003,
                    0.200000003,
                    1
                ],
                "metallicFactor": 0.400000006,
                "roughnessFactor": 0.5
            }
        }
    ],
    "meshes": [
        {
            "primitives": [
                {
                    "attributes": {
                        "POSITION": 0,
                        "NORMAL": 1
                    },
                    "indices": 2,
                    "material": 0
                }
            ]
        }
    ],
    "nodes": [
        {
            "name": "Node",
            "mesh": 0
        }
    ],
    "scenes": [
        {
            "nodes": [
                0
            ]
        }
    ],
    "scene": 0
}