{
    "asset": {
        "version": "2.0",
        "generator": "gltfpack 0.23"
    },
    "extensionsUsed": [
        "EXT_meshopt_compression"
    ],
    "buffers": [
        {
            "uri": "link_4.bin",
            "byteLength": 321436
        },
        {
            "uri": "link_4.fallback.bin",
            "byteLength": 547560,
            "extensions": {
                "EXT_meshopt_compression": {
                    "fallback": true
                }
            }
        }
    ],
    "bufferViews": [
        {
            "buffer": 1,
            "byteOffset": 0,
            "byteLength": 194292,
            "byteStride": 12,
            "target": 34962,
            "extensions": {
                "EXT_meshopt_compression": {
                    "buffer": 0,
                    "byteOffset": 0,
                    "byteLength": 140212,
                    "byteStride": 12,
                    "mode": "ATTRIBUTES",
                    "count": 16191
                }
            }
        },
        {
            "buffer": 1,
            "byteOffset": 194292,
            "byteLength": 194292,
            "byteStride": 12,
            "target": 34962,
            "extensions": {
                "EXT_meshopt_compression": {
                    "buffer": 0,
                    "byteOffset": 140212,
                    "byteLength": 149776,
                    "byteStride": 12,
                    "mode": "ATTRIBUTES",
                    "count": 16191
                }
            }
        },
        {
            "buffer": 1,
            "byteOffset": 388584,
            "byteLength": 158976,
            "target": 34963,
            "extensions": {
                "EXT_meshopt_compression": {
                    "buffer": 0,
                    "byteOffset": 289988,
                    "byteLength": 31445,
                    "byteStride": 2,
                    "mode": "TRIANGLES",
                    "count": 79488
                }
            }
        }
    ],
    "accessors": [
        {
            "bufferView": 0,
            "byteOffset": 0,
            "componentType": 5126,
            "count": 16191,
            "type": "VEC3",
            "min": [
                -0.0679939985,
                -0.0679989979,
                -0.184
            ],
            "max": [
                0.0679939985,
                0.114606,
                0.0679910034
            ]
        },
        {
            "bufferView": 1,
            "byteOffset": 0,
            "componentType": 5126,
            "count": 16191,
            "type": "VEC3"
        },
        {
            "bufferView": 2,
            "byteOffset": 0,
            "componentType": 5123,
            "count": 79488,
            "type": "SCALAR"
        }
    ],
    "materials": [
        {
            "name": "orange",
            "pbrMetallicRoughness": {
                "baseColorFactor": [
                    1,
                    0.150000006,
                    0,
                    1
                ],
                "metallicFactor": 0.400000006,
                "roughnessFactor": 0.5
            }
        }
    ],
    "meshes": [
        {
            "primitives": [
                {
                    "attributes": {
                        "POSITION": 0,
                        "NORMAL": 1
                    },
                    "indices": 2,
                    "material": 0
                }
            ]
        }
    ],
    "nodes": [
        {
            "name": "Node",
            "mesh": 0
        }
    ],
    "scenes": [
        {
            "nodes": [
                0
            ]
        }
    ],
    "scene": 0
}