{
    "asset": {
        "version": "2.0",
        "generator": "gltfpack 0.23"
    },
    "extensionsUsed": [
        "EXT_meshopt_compression"
    ],
    "buffers": [
        {
            "uri": "homecart_arm_mount_stack.bin",
            "byteLength": 3500
        },
        {
            "uri": "homecart_arm_mount_stack.fallback.bin",
            "byteLength": 7824,
            "extensions": {
                "EXT_meshopt_compression": {
                    "fallback": true
                }
            }
        }
    ],
    "bufferViews": [
        {
            "buffer": 1,
            "byteOffset": 0,
            "byteLength": 3096,
            "byteStride": 12,
            "target": 34962,
            "extensions": {
                "EXT_meshopt_compression": {
                    "buffer": 0,
                    "byteOffset": 0,
                    "byteLength": 2113,
                    "byteStride": 12,
                    "mode": "ATTRIBUTES",
                    "count": 258
                }
            }
        },
        {
            "buffer": 1,
            "byteOffset": 3096,
            "byteLength": 3096,
            "byteStride": 12,
            "target": 34962,
            "extensions": {
                "EXT_meshopt_compression": {
                    "buffer": 0,
                    "byteOffset": 2116,
                    "byteLength": 1070,
                    "byteStride": 12,
                    "mode": "ATTRIBUTES",
                    "count": 258
                }
            }
        },
        {
            "buffer": 1,
            "byteOffset": 6192,
            "byteLength": 1632,
            "target": 34963,
            "extensions": {
                "EXT_meshopt_compression": {
                    "buffer": 0,
                    "byteOffset": 3188,
                    "byteLength": 309,
                    "byteStride": 2,
                    "mode": "TRIANGLES",
                    "count": 816
                }
            }
        }
    ],
    "accessors": [
        {
            "bufferView": 0,
            "byteOffset": 0,
            "componentType": 5126,
            "count": 258,
            "type": "VEC3",
            "min": [
                -0.063500002,
                0.0149999997,
                -0.063500002
            ],
            "max": [
                0.063500002,
                0.0350000001,
                0.063500002
            ]
        },
        {
            "bufferView": 1,
            "byteOffset": 0,
            "componentType": 5126,
            "count": 258,
            "type": "VEC3"
        },
        {
            "bufferView": 2,
            "byteOffset": 0,
            "componentType": 5123,
            "count": 816,
            "type": "SCALAR"
        }
    ],
    "materials": [
        {
            "name": "homecart_arm_mount_stack_material",
            "pbrMetallicRoughness": {
                "baseColorFactor": [
                    0.400000006,
                    0.400000006,
                    0.400000006,
                    1
                ],
                "roughnessFactor": 0.300000012
            },
            "doubleSided": true
        }
    ],
    "meshes": [
        {
            "primitives": [
                {
                    "attributes": {
                        "POSITION": 0,
                        "NORMAL": 1
                    },
                    "indices": 2,
                    "material": 0
                }
            ]
        }
    ],
    "nodes": [
        {
            "name": "homecart_arm_mount_stack",
            "mesh": 0
        }
    ],
    "scenes": [
        {
            "name": "Scene",
            "nodes": [
                0
            ]
        }
    ],
    "scene": 0
}