{
    "asset": {
        "version": "2.0",
        "generator": "gltfpack 0.23"
    },
    "extensionsUsed": [
        "EXT_meshopt_compression"
    ],
    "buffers": [
        {
            "uri": "homecart_arm_mount_cantilever.bin",
            "byteLength": 1072
        },
        {
            "uri": "homecart_arm_mount_cantilever.fallback.bin",
            "byteLength": 1944,
            "extensions": {
                "EXT_meshopt_compression": {
                    "fallback": true
                }
            }
        }
    ],
    "bufferViews": [
        {
            "buffer": 1,
            "byteOffset": 0,
            "byteLength": 792,
            "byteStride": 12,
            "target": 34962,
            "extensions": {
                "EXT_meshopt_compression": {
                    "buffer": 0,
                    "byteOffset": 0,
                    "byteLength": 668,
                    "byteStride": 12,
                    "mode": "ATTRIBUTES",
                    "count": 66
                }
            }
        },
        {
            "buffer": 1,
            "byteOffset": 792,
            "byteLength": 792,
            "byteStride": 12,
            "target": 34962,
            "extensions": {
                "EXT_meshopt_compression": {
                    "buffer": 0,
                    "byteOffset": 668,
                    "byteLength": 322,
                    "byteStride": 12,
                    "mode": "ATTRIBUTES",
                    "count": 66
                }
            }
        },
        {
            "buffer": 1,
            "byteOffset": 1584,
            "byteLength": 360,
            "target": 34963,
            "extensions": {
                "EXT_meshopt_compression": {
                    "buffer": 0,
                    "byteOffset": 992,
                    "byteLength": 77,
                    "byteStride": 2,
                    "mode": "TRIANGLES",
                    "count": 180
                }
            }
        }
    ],
    "accessors": [
        {
            "bufferView": 0,
            "byteOffset": 0,
            "componentType": 5126,
            "count": 66,
            "type": "VEC3",
            "min": [
                -0.063500002,
                0,
                -0.063500002
            ],
            "max": [
                0.190500006,
                0.0149999997,
                0.063500002
            ]
        },
        {
            "bufferView": 1,
            "byteOffset": 0,
            "componentType": 5126,
            "count": 66,
            "type": "VEC3"
        },
        {
            "bufferView": 2,
            "byteOffset": 0,
            "componentType": 5123,
            "count": 180,
            "type": "SCALAR"
        }
    ],
    "materials": [
        {
            "name": "homecart_arm_mount_cantilever_material",
            "pbrMetallicRoughness": {
                "baseColorFactor": [
                    0.400000006,
                    0.400000006,
                    0.400000006,
                    1
                ],
                "roughnessFactor": 0.300000012
            },
            "doubleSided": true
        }
    ],
    "meshes": [
        {
            "primitives": [
                {
                    "attributes": {
                        "POSITION": 0,
                        "NORMAL": 1
                    },
                    "indices": 2,
                    "material": 0
                }
            ]
        }
    ],
    "nodes": [
        {
            "name": "homecart_arm_mount_cantilever",
            "mesh": 0
        }
    ],
    "scenes": [
        {
            "name": "Scene",
            "nodes": [
                0
            ]
        }
    ],
    "scene": 0
}