{
	"asset":{
		"generator":"Khronos glTF Blender I/O v4.0.44",
		"version":"2.0"
	},
	"extensionsUsed": [
		"KHR_texture_basisu"
	],
	"scene":0,
	"scenes":[
		{
			"name":"Scene",
			"nodes":[
				0
			]
		}
	],
	"nodes":[
		{
			"mesh":0,
			"name":"homecart_basecart"
		}
	],
	"materials":[
		{
			"doubleSided":true,
			"name":"homecart_basecart_shiny_metal_material",
			"pbrMetallicRoughness":{
				"baseColorFactor":[
					0.4000000059604645,
					0.4000000059604645,
					0.4000000059604645,
					1
				],
				"roughnessFactor":0.30000001192092896
			}
		},
		{
			"doubleSided":true,
			"name":"homecart_basecart_rough_metal_material",
			"pbrMetallicRoughness":{
				"baseColorFactor":[
					0.4000000059604645,
					0.4000000059604645,
					0.4000000059604645,
					1
				],
				"roughnessFactor":0.3999999761581421
			}
		},
		{
			"doubleSided":true,
			"name":"homecart_basecart_wheel_grey_material",
			"pbrMetallicRoughness":{
				"baseColorFactor":[
					0.2195259928703308,
					0.2195259928703308,
					0.2195259928703308,
					1
				],
				"metallicFactor":0,
				"roughnessFactor":0.5
			}
		},
		{
			"doubleSided":true,
			"name":"homecart_basecart_wheel_white_material",
			"pbrMetallicRoughness":{
				"baseColorFactor":[
					0.8030279874801636,
					0.8030279874801636,
					0.8030279874801636,
					1
				],
				"metallicFactor":0,
				"roughnessFactor":0.5
			}
		},
		{
			"doubleSided":true,
			"name":"homecart_basecart_wood",
			"pbrMetallicRoughness":{
				"baseColorTexture":{
					"index":0
				},
				"metallicFactor":0,
				"roughnessFactor":0.5
			}
		}
	],
	"meshes":[
		{
			"name":"homecart_basecart",
			"primitives":[
				{
					"attributes":{
						"POSITION":0,
						"NORMAL":1,
						"TEXCOORD_0":2
					},
					"indices":3,
					"material":0
				},
				{
					"attributes":{
						"POSITION":4,
						"NORMAL":5,
						"TEXCOORD_0":6
					},
					"indices":7,
					"material":1
				},
				{
					"attributes":{
						"POSITION":8,
						"NORMAL":9,
						"TEXCOORD_0":10
					},
					"indices":11,
					"material":2
				},
				{
					"attributes":{
						"POSITION":12,
						"NORMAL":13,
						"TEXCOORD_0":14
					},
					"indices":15,
					"material":3
				},
				{
					"attributes":{
						"POSITION":16,
						"NORMAL":17,
						"TEXCOORD_0":18
					},
					"indices":19,
					"material":4
				}
			]
		}
	],
	"textures":[
		{
			"sampler":0,
			"source":0,
			"extensions": {
				"KHR_texture_basisu": {
					"source": 1
				}
			}
		}
	],
	"images":[
		{
			"mimeType":"image/png",
			"name":"homecart_cutting_board_color",
			"uri":"homecart_cutting_board_color.png"
		},
		{
			"mimeType":"image/ktx2",
			"name":"homecart_cutting_board_color",
			"uri":"homecart_cutting_board_color.ktx2"
		}
	],
	"accessors":[
		{
			"bufferView":0,
			"componentType":5126,
			"count":5142,
			"max":[
				0.34081000089645386,
				0,
				0.45768898725509644
			],
			"min":[
				-0.30528900027275085,
				-0.9294800162315369,
				-0.4576900005340576
			],
			"type":"VEC3"
		},
		{
			"bufferView":1,
			"componentType":5126,
			"count":5142,
			"type":"VEC3"
		},
		{
			"bufferView":2,
			"componentType":5126,
			"count":5142,
			"type":"VEC2"
		},
		{
			"bufferView":3,
			"componentType":5123,
			"count":8328,
			"type":"SCALAR"
		},
		{
			"bufferView":4,
			"componentType":5126,
			"count":2765,
			"max":[
				0.3416129946708679,
				-0.0010000000474974513,
				0.46032899618148804
			],
			"min":[
				-0.30792000889778137,
				-0.9143999814987183,
				-0.46032899618148804
			],
			"type":"VEC3"
		},
		{
			"bufferView":5,
			"componentType":5126,
			"count":2765,
			"type":"VEC3"
		},
		{
			"bufferView":6,
			"componentType":5126,
			"count":2765,
			"type":"VEC2"
		},
		{
			"bufferView":7,
			"componentType":5123,
			"count":5352,
			"type":"SCALAR"
		},
		{
			"bufferView":8,
			"componentType":5126,
			"count":348,
			"max":[
				0.27401599287986755,
				-0.963483989238739,
				0.492684006690979
			],
			"min":[
				-0.27401500940322876,
				-1.0286959409713745,
				-0.492684006690979
			],
			"type":"VEC3"
		},
		{
			"bufferView":9,
			"componentType":5126,
			"count":348,
			"type":"VEC3"
		},
		{
			"bufferView":10,
			"componentType":5126,
			"count":348,
			"type":"VEC2"
		},
		{
			"bufferView":11,
			"componentType":5123,
			"count":1008,
			"type":"SCALAR"
		},
		{
			"bufferView":12,
			"componentType":5126,
			"count":3770,
			"max":[
				0.30441001057624817,
				-0.9294800162315369,
				0.492684006690979
			],
			"min":[
				-0.304408997297287,
				-1.0286959409713745,
				-0.492684006690979
			],
			"type":"VEC3"
		},
		{
			"bufferView":13,
			"componentType":5126,
			"count":3770,
			"type":"VEC3"
		},
		{
			"bufferView":14,
			"componentType":5126,
			"count":3770,
			"type":"VEC2"
		},
		{
			"bufferView":15,
			"componentType":5123,
			"count":10176,
			"type":"SCALAR"
		},
		{
			"bufferView":16,
			"componentType":5126,
			"count":168,
			"max":[
				0.30480000376701355,
				-0.7153499722480774,
				0.45719999074935913
			],
			"min":[
				-0.30480000376701355,
				-0.7343999743461609,
				-0.45719999074935913
			],
			"type":"VEC3"
		},
		{
			"bufferView":17,
			"componentType":5126,
			"count":168,
			"type":"VEC3"
		},
		{
			"bufferView":18,
			"componentType":5126,
			"count":168,
			"type":"VEC2"
		},
		{
			"bufferView":19,
			"componentType":5123,
			"count":420,
			"type":"SCALAR"
		}
	],
	"bufferViews":[
		{
			"buffer":0,
			"byteLength":61704,
			"byteOffset":0,
			"target":34962
		},
		{
			"buffer":0,
			"byteLength":61704,
			"byteOffset":61704,
			"target":34962
		},
		{
			"buffer":0,
			"byteLength":41136,
			"byteOffset":123408,
			"target":34962
		},
		{
			"buffer":0,
			"byteLength":16656,
			"byteOffset":164544,
			"target":34963
		},
		{
			"buffer":0,
			"byteLength":33180,
			"byteOffset":181200,
			"target":34962
		},
		{
			"buffer":0,
			"byteLength":33180,
			"byteOffset":214380,
			"target":34962
		},
		{
			"buffer":0,
			"byteLength":22120,
			"byteOffset":247560,
			"target":34962
		},
		{
			"buffer":0,
			"byteLength":10704,
			"byteOffset":269680,
			"target":34963
		},
		{
			"buffer":0,
			"byteLength":4176,
			"byteOffset":280384,
			"target":34962
		},
		{
			"buffer":0,
			"byteLength":4176,
			"byteOffset":284560,
			"target":34962
		},
		{
			"buffer":0,
			"byteLength":2784,
			"byteOffset":288736,
			"target":34962
		},
		{
			"buffer":0,
			"byteLength":2016,
			"byteOffset":291520,
			"target":34963
		},
		{
			"buffer":0,
			"byteLength":45240,
			"byteOffset":293536,
			"target":34962
		},
		{
			"buffer":0,
			"byteLength":45240,
			"byteOffset":338776,
			"target":34962
		},
		{
			"buffer":0,
			"byteLength":30160,
			"byteOffset":384016,
			"target":34962
		},
		{
			"buffer":0,
			"byteLength":20352,
			"byteOffset":414176,
			"target":34963
		},
		{
			"buffer":0,
			"byteLength":2016,
			"byteOffset":434528,
			"target":34962
		},
		{
			"buffer":0,
			"byteLength":2016,
			"byteOffset":436544,
			"target":34962
		},
		{
			"buffer":0,
			"byteLength":1344,
			"byteOffset":438560,
			"target":34962
		},
		{
			"buffer":0,
			"byteLength":840,
			"byteOffset":439904,
			"target":34963
		}
	],
	"samplers":[
		{
			"magFilter":9729,
			"minFilter":9987
		}
	],
	"buffers":[
		{
			"byteLength":440744,
			"uri":"homecart_basecart.bin"
		}
	]
}
