{
	"asset":{
		"generator":"Khronos glTF Blender I/O v4.0.44",
		"version":"2.0"
	},
	"scene":0,
	"scenes":[
		{
			"name":"Scene",
			"nodes":[
				0
			]
		}
	],
	"nodes":[
		{
			"mesh":0,
			"name":"homecart_arm_mount_cantilever"
		}
	],
	"materials":[
		{
			"doubleSided":true,
			"name":"homecart_arm_mount_cantilever_material",
			"pbrMetallicRoughness":{
				"baseColorFactor":[
					0.4000000059604645,
					0.4000000059604645,
					0.4000000059604645,
					1
				],
				"roughnessFactor":0.30000001192092896
			}
		}
	],
	"meshes":[
		{
			"name":"homecart_arm_mount_cantilever",
			"primitives":[
				{
					"attributes":{
						"POSITION":0,
						"NORMAL":1,
						"TEXCOORD_0":2
					},
					"indices":3,
					"material":0
				}
			]
		}
	],
	"accessors":[
		{
			"bufferView":0,
			"componentType":5126,
			"count":74,
			"max":[
				0.19050000607967377,
				0.014999999664723873,
				0.06350000202655792
			],
			"min":[
				-0.06350000202655792,
				0,
				-0.06350000202655792
			],
			"type":"VEC3"
		},
		{
			"bufferView":1,
			"componentType":5126,
			"count":74,
			"type":"VEC3"
		},
		{
			"bufferView":2,
			"componentType":5126,
			"count":74,
			"type":"VEC2"
		},
		{
			"bufferView":3,
			"componentType":5123,
			"count":180,
			"type":"SCALAR"
		}
	],
	"bufferViews":[
		{
			"buffer":0,
			"byteLength":888,
			"byteOffset":0,
			"target":34962
		},
		{
			"buffer":0,
			"byteLength":888,
			"byteOffset":888,
			"target":34962
		},
		{
			"buffer":0,
			"byteLength":592,
			"byteOffset":1776,
			"target":34962
		},
		{
			"buffer":0,
			"byteLength":360,
			"byteOffset":2368,
			"target":34963
		}
	],
	"buffers":[
		{
			"byteLength":2728,
			"uri":"homecart_arm_mount_cantilever.bin"
		}
	]
}
