{
	"asset":{
		"generator":"Khronos glTF Blender I/O v4.0.44",
		"version":"2.0"
	},
	"scene":0,
	"scenes":[
		{
			"name":"Scene",
			"nodes":[
				0
			]
		}
	],
	"nodes":[
		{
			"mesh":0,
			"name":"homecart_arm_mount_stack"
		}
	],
	"materials":[
		{
			"doubleSided":true,
			"name":"homecart_arm_mount_stack_material",
			"pbrMetallicRoughness":{
				"baseColorFactor":[
					0.4000000059604645,
					0.4000000059604645,
					0.4000000059604645,
					1
				],
				"roughnessFactor":0.30000001192092896
			}
		}
	],
	"meshes":[
		{
			"name":"homecart_arm_mount_stack",
			"primitives":[
				{
					"attributes":{
						"POSITION":0,
						"NORMAL":1,
						"TEXCOORD_0":2
					},
					"indices":3,
					"material":0
				}
			]
		}
	],
	"accessors":[
		{
			"bufferView":0,
			"componentType":5126,
			"count":274,
			"max":[
				0.06350000202655792,
				0.03500000014901161,
				0.06350000202655792
			],
			"min":[
				-0.06350000202655792,
				0.014999999664723873,
				-0.06350000202655792
			],
			"type":"VEC3"
		},
		{
			"bufferView":1,
			"componentType":5126,
			"count":274,
			"type":"VEC3"
		},
		{
			"bufferView":2,
			"componentType":5126,
			"count":274,
			"type":"VEC2"
		},
		{
			"bufferView":3,
			"componentType":5123,
			"count":816,
			"type":"SCALAR"
		}
	],
	"bufferViews":[
		{
			"buffer":0,
			"byteLength":3288,
			"byteOffset":0,
			"target":34962
		},
		{
			"buffer":0,
			"byteLength":3288,
			"byteOffset":3288,
			"target":34962
		},
		{
			"buffer":0,
			"byteLength":2192,
			"byteOffset":6576,
			"target":34962
		},
		{
			"buffer":0,
			"byteLength":1632,
			"byteOffset":8768,
			"target":34963
		}
	],
	"buffers":[
		{
			"byteLength":10400,
			"uri":"homecart_arm_mount_stack.bin"
		}
	]
}
