{
	"asset":{
		"generator":"Khronos glTF Blender I/O v4.0.44",
		"version":"2.0"
	},
	"scene":0,
	"scenes":[
		{
			"name":"Scene",
			"nodes":[
				0
			]
		}
	],
	"nodes":[
		{
			"mesh":0,
			"name":"homecart_baseplate"
		}
	],
	"materials":[
		{
			"doubleSided":true,
			"name":"homecart_baseplate_material",
			"pbrMetallicRoughness":{
				"baseColorFactor":[
					0.4000000059604645,
					0.4000000059604645,
					0.4000000059604645,
					1
				],
				"roughnessFactor":0.30000001192092896
			}
		}
	],
	"meshes":[
		{
			"name":"homecart_baseplate",
			"primitives":[
				{
					"attributes":{
						"POSITION":0,
						"NORMAL":1,
						"TEXCOORD_0":2
					},
					"indices":3,
					"material":0
				}
			]
		}
	],
	"accessors":[
		{
			"bufferView":0,
			"componentType":5126,
			"count":400,
			"max":[
				0.3407999873161316,
				0,
				0.49320000410079956
			],
			"min":[
				-0.3407999873161316,
				-0.006500000134110451,
				-0.49320000410079956
			],
			"type":"VEC3"
		},
		{
			"bufferView":1,
			"componentType":5126,
			"count":400,
			"type":"VEC3"
		},
		{
			"bufferView":2,
			"componentType":5126,
			"count":400,
			"type":"VEC2"
		},
		{
			"bufferView":3,
			"componentType":5123,
			"count":1092,
			"type":"SCALAR"
		}
	],
	"bufferViews":[
		{
			"buffer":0,
			"byteLength":4800,
			"byteOffset":0,
			"target":34962
		},
		{
			"buffer":0,
			"byteLength":4800,
			"byteOffset":4800,
			"target":34962
		},
		{
			"buffer":0,
			"byteLength":3200,
			"byteOffset":9600,
			"target":34962
		},
		{
			"buffer":0,
			"byteLength":2184,
			"byteOffset":12800,
			"target":34963
		}
	],
	"buffers":[
		{
			"byteLength":14984,
			"uri":"homecart_baseplate.bin"
		}
	]
}
