{
	"asset":{
		"generator":"Khronos glTF Blender I/O v4.0.44",
		"version":"2.0"
	},
	"extensionsUsed": [
		"KHR_texture_basisu"
	],
	"scene":0,
	"scenes":[
		{
			"name":"Scene",
			"nodes":[
				0
			]
		}
	],
	"nodes":[
		{
			"mesh":0,
			"name":"homecart_cutting_board"
		}
	],
	"materials":[
		{
			"doubleSided":true,
			"name":"homecart_cutting_board_material",
			"pbrMetallicRoughness":{
				"baseColorTexture":{
					"index":0
				},
				"metallicFactor":0,
				"roughnessFactor":0.3898428678512573
			}
		}
	],
	"meshes":[
		{
			"name":"homecart_cutting_board",
			"primitives":[
				{
					"attributes":{
						"POSITION":0,
						"NORMAL":1,
						"TEXCOORD_0":2
					},
					"indices":3,
					"material":0
				}
			]
		}
	],
	"textures":[
		{
			"sampler":0,
			"source":0,
			"extensions": {
				"KHR_texture_basisu": {
					"source": 1
				}
			}
		}
	],
	"images":[
		{
			"mimeType":"image/png",
			"name":"homecart_cutting_board_color",
			"uri":"homecart_cutting_board_color.png"
		},
		{
			"mimeType":"image/ktx2",
			"name":"homecart_cutting_board_color",
			"uri":"homecart_cutting_board_color.ktx2"
		}
	],
	"accessors":[
		{
			"bufferView":0,
			"componentType":5126,
			"count":3496,
			"max":[
				0.3407999873161316,
				0,
				0.49320000410079956
			],
			"min":[
				-0.3407999873161316,
				-0.02539999969303608,
				-0.49320000410079956
			],
			"type":"VEC3"
		},
		{
			"bufferView":1,
			"componentType":5126,
			"count":3496,
			"type":"VEC3"
		},
		{
			"bufferView":2,
			"componentType":5126,
			"count":3496,
			"type":"VEC2"
		},
		{
			"bufferView":3,
			"componentType":5123,
			"count":13800,
			"type":"SCALAR"
		}
	],
	"bufferViews":[
		{
			"buffer":0,
			"byteLength":41952,
			"byteOffset":0,
			"target":34962
		},
		{
			"buffer":0,
			"byteLength":41952,
			"byteOffset":41952,
			"target":34962
		},
		{
			"buffer":0,
			"byteLength":27968,
			"byteOffset":83904,
			"target":34962
		},
		{
			"buffer":0,
			"byteLength":27600,
			"byteOffset":111872,
			"target":34963
		}
	],
	"samplers":[
		{
			"magFilter":9729,
			"minFilter":9987
		}
	],
	"buffers":[
		{
			"byteLength":139472,
			"uri":"homecart_cutting_board.bin"
		}
	]
}
