{
    "asset": {
        "version": "2.0",
        "generator": "gltfpack 0.23"
    },
    "extensionsUsed": [
        "EXT_meshopt_compression"
    ],
    "buffers": [
        {
            "uri": "homecart_bimanual_upper_structure.bin",
            "byteLength": 90452
        },
        {
            "uri": "homecart_bimanual_upper_structure.fallback.bin",
            "byteLength": 182112,
            "extensions": {
                "EXT_meshopt_compression": {
                    "fallback": true
                }
            }
        }
    ],
    "bufferViews": [
        {
            "buffer": 1,
            "byteOffset": 0,
            "byteLength": 77616,
            "byteStride": 12,
            "target": 34962,
            "extensions": {
                "EXT_meshopt_compression": {
                    "buffer": 0,
                    "byteOffset": 0,
                    "byteLength": 53003,
                    "byteStride": 12,
                    "mode": "ATTRIBUTES",
                    "count": 6468
                }
            }
        },
        {
            "buffer": 1,
            "byteOffset": 77616,
            "byteLength": 77616,
            "byteStride": 12,
            "target": 34962,
            "extensions": {
                "EXT_meshopt_compression": {
                    "buffer": 0,
                    "byteOffset": 53004,
                    "byteLength": 32851,
                    "byteStride": 12,
                    "mode": "ATTRIBUTES",
                    "count": 6468
                }
            }
        },
        {
            "buffer": 1,
            "byteOffset": 155232,
            "byteLength": 26880,
            "target": 34963,
            "extensions": {
                "EXT_meshopt_compression": {
                    "buffer": 0,
                    "byteOffset": 85856,
                    "byteLength": 4596,
                    "byteStride": 2,
                    "mode": "TRIANGLES",
                    "count": 13440
                }
            }
        }
    ],
    "accessors": [
        {
            "bufferView": 0,
            "byteOffset": 0,
            "componentType": 5126,
            "count": 2557,
            "type": "VEC3",
            "min": [
                0.000121999998,
                -0.934441984,
                -0.685599983
            ],
            "max": [
                0.990400016,
                0.00400000019,
                9.00000032e-06
            ]
        },
        {
            "bufferView": 1,
            "byteOffset": 0,
            "componentType": 5126,
            "count": 2557,
            "type": "VEC3"
        },
        {
            "bufferView": 2,
            "byteOffset": 0,
            "componentType": 5123,
            "count": 4056,
            "type": "SCALAR"
        },
        {
            "bufferView": 0,
            "byteOffset": 30684,
            "componentType": 5126,
            "count": 551,
            "type": "VEC3",
            "min": [
                -0.00206499989,
                -0.934581995,
                -0.681707978
            ],
            "max": [
                0.98872,
                -0.914291024,
                0.000108
            ]
        },
        {
            "bufferView": 1,
            "byteOffset": 30684,
            "componentType": 5126,
            "count": 551,
            "type": "VEC3"
        },
        {
            "bufferView": 2,
            "byteOffset": 8112,
            "componentType": 5123,
            "count": 1296,
            "type": "SCALAR"
        },
        {
            "bufferView": 0,
            "byteOffset": 37296,
            "componentType": 5126,
            "count": 3360,
            "type": "VEC3",
            "min": [
                -0.00374599989,
                -0.914399981,
                -0.685599983
            ],
            "max": [
                0.990400016,
                0.00400000019,
                0.00399899995
            ]
        },
        {
            "bufferView": 1,
            "byteOffset": 37296,
            "componentType": 5126,
            "count": 3360,
            "type": "VEC3"
        },
        {
            "bufferView": 2,
            "byteOffset": 10704,
            "componentType": 5123,
            "count": 8088,
            "type": "SCALAR"
        }
    ],
    "materials": [
        {
            "name": "homecart_bimanual_upper_structure_shiny_metal_material",
            "pbrMetallicRoughness": {
                "baseColorFactor": [
                    0.400000006,
                    0.400000006,
                    0.400000006,
                    1
                ],
                "roughnessFactor": 0.300000012
            },
            "doubleSided": true
        },
        {
            "name": "homecart_bimanual_upper_structure_black_material",
            "pbrMetallicRoughness": {
                "baseColorFactor": [
                    0.00385099999,
                    0.00385099999,
                    0.00385099999,
                    1
                ],
                "metallicFactor": 0,
                "roughnessFactor": 0.399999976
            },
            "doubleSided": true
        },
        {
            "name": "homecart_bimanual_upper_structure_rough_metal_material",
            "pbrMetallicRoughness": {
                "baseColorFactor": [
                    0.400000006,
                    0.400000006,
                    0.400000006,
                    1
                ],
                "roughnessFactor": 0.5
            },
            "doubleSided": true
        }
    ],
    "meshes": [
        {
            "primitives": [
                {
                    "attributes": {
                        "POSITION": 0,
                        "NORMAL": 1
                    },
                    "indices": 2,
                    "material": 0
                },
                {
                    "attributes": {
                        "POSITION": 3,
                        "NORMAL": 4
                    },
                    "indices": 5,
                    "material": 1
                },
                {
                    "attributes": {
                        "POSITION": 6,
                        "NORMAL": 7
                    },
                    "indices": 8,
                    "material": 2
                }
            ]
        }
    ],
    "nodes": [
        {
            "name": "homecart_bimanual_upper_structure",
            "mesh": 0
        }
    ],
    "scenes": [
        {
            "name": "Scene",
            "nodes": [
                0
            ]
        }
    ],
    "scene": 0
}