{
    "asset": {
        "version": "2.0",
        "generator": "gltfpack 0.23"
    },
    "extensionsUsed": [
        "EXT_meshopt_compression",
        "KHR_texture_basisu"
    ],
    "extensionsRequired": [
        "KHR_texture_basisu"
    ],
    "buffers": [
        {
            "uri": "homecart_cutting_board.bin",
            "byteLength": 77820
        },
        {
            "uri": "homecart_cutting_board.fallback.bin",
            "byteLength": 139472,
            "extensions": {
                "EXT_meshopt_compression": {
                    "fallback": true
                }
            }
        }
    ],
    "bufferViews": [
        {
            "buffer": 1,
            "byteOffset": 0,
            "byteLength": 41952,
            "byteStride": 12,
            "target": 34962,
            "extensions": {
                "EXT_meshopt_compression": {
                    "buffer": 0,
                    "byteOffset": 0,
                    "byteLength": 27077,
                    "byteStride": 12,
                    "mode": "ATTRIBUTES",
                    "count": 3496
                }
            }
        },
        {
            "buffer": 1,
            "byteOffset": 41952,
            "byteLength": 41952,
            "byteStride": 12,
            "target": 34962,
            "extensions": {
                "EXT_meshopt_compression": {
                    "buffer": 0,
                    "byteOffset": 27080,
                    "byteLength": 26842,
                    "byteStride": 12,
                    "mode": "ATTRIBUTES",
                    "count": 3496
                }
            }
        },
        {
            "buffer": 1,
            "byteOffset": 83904,
            "byteLength": 27968,
            "byteStride": 8,
            "target": 34962,
            "extensions": {
                "EXT_meshopt_compression": {
                    "buffer": 0,
                    "byteOffset": 53924,
                    "byteLength": 18859,
                    "byteStride": 8,
                    "mode": "ATTRIBUTES",
                    "count": 3496
                }
            }
        },
        {
            "buffer": 1,
            "byteOffset": 111872,
            "byteLength": 27600,
            "target": 34963,
            "extensions": {
                "EXT_meshopt_compression": {
                    "buffer": 0,
                    "byteOffset": 72784,
                    "byteLength": 5034,
                    "byteStride": 2,
                    "mode": "TRIANGLES",
                    "count": 13800
                }
            }
        }
    ],
    "accessors": [
        {
            "bufferView": 0,
            "byteOffset": 0,
            "componentType": 5126,
            "count": 3496,
            "type": "VEC3",
            "min": [
                -0.340799987,
                -0.0253999997,
                -0.493200004
            ],
            "max": [
                0.340799987,
                0,
                0.493200004
            ]
        },
        {
            "bufferView": 1,
            "byteOffset": 0,
            "componentType": 5126,
            "count": 3496,
            "type": "VEC3"
        },
        {
            "bufferView": 2,
            "byteOffset": 0,
            "componentType": 5126,
            "count": 3496,
            "type": "VEC2"
        },
        {
            "bufferView": 3,
            "byteOffset": 0,
            "componentType": 5123,
            "count": 13800,
            "type": "SCALAR"
        }
    ],
    "samplers": [
        {
            "magFilter": 9729,
            "minFilter": 9987
        }
    ],
    "images": [
        {
            "name": "homecart_cutting_board_color",
            "uri": "homecart_cutting_board_color.png"
        },
        {
            "name": "homecart_cutting_board_color",
            "uri": "homecart_cutting_board_color.ktx2"
        }
    ],
    "textures": [
        {
            "sampler": 0,
            "source": 0,
            "extensions": {
                "KHR_texture_basisu": {
                    "source": 1
                }
            }
        }
    ],
    "materials": [
        {
            "name": "homecart_cutting_board_material",
            "pbrMetallicRoughness": {
                "baseColorTexture": {
                    "index": 0
                },
                "metallicFactor": 0,
                "roughnessFactor": 0.389842868
            },
            "doubleSided": true
        }
    ],
    "meshes": [
        {
            "primitives": [
                {
                    "attributes": {
                        "POSITION": 0,
                        "NORMAL": 1,
                        "TEXCOORD_0": 2
                    },
                    "indices": 3,
                    "material": 0
                }
            ]
        }
    ],
    "nodes": [
        {
            "name": "homecart_cutting_board",
            "mesh": 0
        }
    ],
    "scenes": [
        {
            "name": "Scene",
            "nodes": [
                0
            ]
        }
    ],
    "scene": 0
}