{
    "asset": {
        "version": "2.0",
        "generator": "gltfpack 0.23"
    },
    "extensionsUsed": [
        "EXT_meshopt_compression",
        "KHR_texture_basisu"
    ],
    "extensionsRequired": [
        "KHR_texture_basisu"
    ],
    "buffers": [
        {
            "uri": "homecart_basecart.bin",
            "byteLength": 153072
        },
        {
            "uri": "homecart_basecart.fallback.bin",
            "byteLength": 336480,
            "extensions": {
                "EXT_meshopt_compression": {
                    "fallback": true
                }
            }
        }
    ],
    "bufferViews": [
        {
            "buffer": 1,
            "byteOffset": 0,
            "byteLength": 142284,
            "byteStride": 12,
            "target": 34962,
            "extensions": {
                "EXT_meshopt_compression": {
                    "buffer": 0,
                    "byteOffset": 0,
                    "byteLength": 89064,
                    "byteStride": 12,
                    "mode": "ATTRIBUTES",
                    "count": 11857
                }
            }
        },
        {
            "buffer": 1,
            "byteOffset": 142284,
            "byteLength": 142284,
            "byteStride": 12,
            "target": 34962,
            "extensions": {
                "EXT_meshopt_compression": {
                    "buffer": 0,
                    "byteOffset": 89064,
                    "byteLength": 54176,
                    "byteStride": 12,
                    "mode": "ATTRIBUTES",
                    "count": 11857
                }
            }
        },
        {
            "buffer": 1,
            "byteOffset": 284568,
            "byteLength": 50568,
            "target": 34963,
            "extensions": {
                "EXT_meshopt_compression": {
                    "buffer": 0,
                    "byteOffset": 143240,
                    "byteLength": 8705,
                    "byteStride": 2,
                    "mode": "TRIANGLES",
                    "count": 25284
                }
            }
        },
        {
            "buffer": 1,
            "byteOffset": 335136,
            "byteLength": 1344,
            "byteStride": 8,
            "target": 34962,
            "extensions": {
                "EXT_meshopt_compression": {
                    "buffer": 0,
                    "byteOffset": 151948,
                    "byteLength": 1124,
                    "byteStride": 8,
                    "mode": "ATTRIBUTES",
                    "count": 168
                }
            }
        }
    ],
    "accessors": [
        {
            "bufferView": 0,
            "byteOffset": 0,
            "componentType": 5126,
            "count": 5062,
            "type": "VEC3",
            "min": [
                -0.305289,
                -0.929480016,
                -0.457690001
            ],
            "max": [
                0.340810001,
                0,
                0.457688987
            ]
        },
        {
            "bufferView": 1,
            "byteOffset": 0,
            "componentType": 5126,
            "count": 5062,
            "type": "VEC3"
        },
        {
            "bufferView": 2,
            "byteOffset": 0,
            "componentType": 5123,
            "count": 8328,
            "type": "SCALAR"
        },
        {
            "bufferView": 0,
            "byteOffset": 60744,
            "componentType": 5126,
            "count": 2709,
            "type": "VEC3",
            "min": [
                -0.307920009,
                -0.914399981,
                -0.460328996
            ],
            "max": [
                0.341612995,
                -0.00100000005,
                0.460328996
            ]
        },
        {
            "bufferView": 1,
            "byteOffset": 60744,
            "componentType": 5126,
            "count": 2709,
            "type": "VEC3"
        },
        {
            "bufferView": 2,
            "byteOffset": 16656,
            "componentType": 5123,
            "count": 5352,
            "type": "SCALAR"
        },
        {
            "bufferView": 0,
            "byteOffset": 93252,
            "componentType": 5126,
            "count": 340,
            "type": "VEC3",
            "min": [
                -0.274015009,
                -1.02869594,
                -0.492684007
            ],
            "max": [
                0.274015993,
                -0.963483989,
                0.492684007
            ]
        },
        {
            "bufferView": 1,
            "byteOffset": 93252,
            "componentType": 5126,
            "count": 340,
            "type": "VEC3"
        },
        {
            "bufferView": 2,
            "byteOffset": 27360,
            "componentType": 5123,
            "count": 1008,
            "type": "SCALAR"
        },
        {
            "bufferView": 0,
            "byteOffset": 97332,
            "componentType": 5126,
            "count": 3578,
            "type": "VEC3",
            "min": [
                -0.304408997,
                -1.02869594,
                -0.492684007
            ],
            "max": [
                0.304410011,
                -0.929480016,
                0.492684007
            ]
        },
        {
            "bufferView": 1,
            "byteOffset": 97332,
            "componentType": 5126,
            "count": 3578,
            "type": "VEC3"
        },
        {
            "bufferView": 2,
            "byteOffset": 29376,
            "componentType": 5123,
            "count": 10176,
            "type": "SCALAR"
        },
        {
            "bufferView": 0,
            "byteOffset": 140268,
            "componentType": 5126,
            "count": 168,
            "type": "VEC3",
            "min": [
                -0.304800004,
                -0.734399974,
                -0.457199991
            ],
            "max": [
                0.304800004,
                -0.715349972,
                0.457199991
            ]
        },
        {
            "bufferView": 1,
            "byteOffset": 140268,
            "componentType": 5126,
            "count": 168,
            "type": "VEC3"
        },
        {
            "bufferView": 3,
            "byteOffset": 0,
            "componentType": 5126,
            "count": 168,
            "type": "VEC2"
        },
        {
            "bufferView": 2,
            "byteOffset": 49728,
            "componentType": 5123,
            "count": 420,
            "type": "SCALAR"
        }
    ],
    "samplers": [
        {
            "magFilter": 9729,
            "minFilter": 9987
        }
    ],
    "images": [
        {
            "name": "homecart_cutting_board_color",
            "uri": "homecart_cutting_board_color.png"
        },
        {
            "name": "homecart_cutting_board_color",
            "uri": "homecart_cutting_board_color.ktx2"
        }
    ],
    "textures": [
        {
            "sampler": 0,
            "source": 0,
            "extensions": {
                "KHR_texture_basisu": {
                    "source": 1
                }
            }
        }
    ],
    "materials": [
        {
            "name": "homecart_basecart_shiny_metal_material",
            "pbrMetallicRoughness": {
                "baseColorFactor": [
                    0.400000006,
                    0.400000006,
                    0.400000006,
                    1
                ],
                "roughnessFactor": 0.300000012
            },
            "doubleSided": true
        },
        {
            "name": "homecart_basecart_rough_metal_material",
            "pbrMetallicRoughness": {
                "baseColorFactor": [
                    0.400000006,
                    0.400000006,
                    0.400000006,
                    1
                ],
                "roughnessFactor": 0.399999976
            },
            "doubleSided": true
        },
        {
            "name": "homecart_basecart_wheel_grey_material",
            "pbrMetallicRoughness": {
                "baseColorFactor": [
                    0.219525993,
                    0.219525993,
                    0.219525993,
                    1
                ],
                "metallicFactor": 0,
                "roughnessFactor": 0.5
            },
            "doubleSided": true
        },
        {
            "name": "homecart_basecart_wheel_white_material",
            "pbrMetallicRoughness": {
                "baseColorFactor": [
                    0.803027987,
                    0.803027987,
                    0.803027987,
                    1
                ],
                "metallicFactor": 0,
                "roughnessFactor": 0.5
            },
            "doubleSided": true
        },
        {
            "name": "homecart_basecart_wood",
            "pbrMetallicRoughness": {
                "baseColorTexture": {
                    "index": 0
                },
                "metallicFactor": 0,
                "roughnessFactor": 0.5
            },
            "doubleSided": true
        }
    ],
    "meshes": [
        {
            "primitives": [
                {
                    "attributes": {
                        "POSITION": 0,
                        "NORMAL": 1
                    },
                    "indices": 2,
                    "material": 0
                },
                {
                    "attributes": {
                        "POSITION": 3,
                        "NORMAL": 4
                    },
                    "indices": 5,
                    "material": 1
                },
                {
                    "attributes": {
                        "POSITION": 6,
                        "NORMAL": 7
                    },
                    "indices": 8,
                    "material": 2
                },
                {
                    "attributes": {
                        "POSITION": 9,
                        "NORMAL": 10
                    },
                    "indices": 11,
                    "material": 3
                },
                {
                    "attributes": {
                        "POSITION": 12,
                        "NORMAL": 13,
                        "TEXCOORD_0": 14
                    },
                    "indices": 15,
                    "material": 4
                }
            ]
        }
    ],
    "nodes": [
        {
            "name": "homecart_basecart",
            "mesh": 0
        }
    ],
    "scenes": [
        {
            "name": "Scene",
            "nodes": [
                0
            ]
        }
    ],
    "scene": 0
}