{
	"asset":{
		"generator":"Khronos glTF Blender I/O v4.0.44",
		"version":"2.0"
	},
	"scene":0,
	"scenes":[
		{
			"name":"Scene",
			"nodes":[
				0
			]
		}
	],
	"nodes":[
		{
			"mesh":0,
			"name":"homecart_bimanual_upper_structure"
		}
	],
	"materials":[
		{
			"doubleSided":true,
			"name":"homecart_bimanual_upper_structure_shiny_metal_material",
			"pbrMetallicRoughness":{
				"baseColorFactor":[
					0.4000000059604645,
					0.4000000059604645,
					0.4000000059604645,
					1
				],
				"roughnessFactor":0.30000001192092896
			}
		},
		{
			"doubleSided":true,
			"name":"homecart_bimanual_upper_structure_black_material",
			"pbrMetallicRoughness":{
				"baseColorFactor":[
					0.0038509999867528677,
					0.0038509999867528677,
					0.0038509999867528677,
					1
				],
				"metallicFactor":0,
				"roughnessFactor":0.3999999761581421
			}
		},
		{
			"doubleSided":true,
			"name":"homecart_bimanual_upper_structure_rough_metal_material",
			"pbrMetallicRoughness":{
				"baseColorFactor":[
					0.4000000059604645,
					0.4000000059604645,
					0.4000000059604645,
					1
				],
				"roughnessFactor":0.5
			}
		}
	],
	"meshes":[
		{
			"name":"homecart_bimanual_upper_structure",
			"primitives":[
				{
					"attributes":{
						"POSITION":0,
						"NORMAL":1,
						"TEXCOORD_0":2
					},
					"indices":3,
					"material":0
				},
				{
					"attributes":{
						"POSITION":4,
						"NORMAL":5,
						"TEXCOORD_0":6
					},
					"indices":7,
					"material":1
				},
				{
					"attributes":{
						"POSITION":8,
						"NORMAL":9,
						"TEXCOORD_0":10
					},
					"indices":11,
					"material":2
				}
			]
		}
	],
	"accessors":[
		{
			"bufferView":0,
			"componentType":5126,
			"count":2557,
			"max":[
				0.9904000163078308,
				0.004000000189989805,
				9.000000318337698e-06
			],
			"min":[
				0.00012199999764561653,
				-0.9344419836997986,
				-0.6855999827384949
			],
			"type":"VEC3"
		},
		{
			"bufferView":1,
			"componentType":5126,
			"count":2557,
			"type":"VEC3"
		},
		{
			"bufferView":2,
			"componentType":5126,
			"count":2557,
			"type":"VEC2"
		},
		{
			"bufferView":3,
			"componentType":5123,
			"count":4056,
			"type":"SCALAR"
		},
		{
			"bufferView":4,
			"componentType":5126,
			"count":564,
			"max":[
				0.9887199997901917,
				-0.9142910242080688,
				0.00010800000018207356
			],
			"min":[
				-0.0020649998914450407,
				-0.934581995010376,
				-0.6817079782485962
			],
			"type":"VEC3"
		},
		{
			"bufferView":5,
			"componentType":5126,
			"count":564,
			"type":"VEC3"
		},
		{
			"bufferView":6,
			"componentType":5126,
			"count":564,
			"type":"VEC2"
		},
		{
			"bufferView":7,
			"componentType":5123,
			"count":1296,
			"type":"SCALAR"
		},
		{
			"bufferView":8,
			"componentType":5126,
			"count":3600,
			"max":[
				0.9904000163078308,
				0.004000000189989805,
				0.003998999949544668
			],
			"min":[
				-0.003745999885722995,
				-0.9143999814987183,
				-0.6855999827384949
			],
			"type":"VEC3"
		},
		{
			"bufferView":9,
			"componentType":5126,
			"count":3600,
			"type":"VEC3"
		},
		{
			"bufferView":10,
			"componentType":5126,
			"count":3600,
			"type":"VEC2"
		},
		{
			"bufferView":11,
			"componentType":5123,
			"count":8088,
			"type":"SCALAR"
		}
	],
	"bufferViews":[
		{
			"buffer":0,
			"byteLength":30684,
			"byteOffset":0,
			"target":34962
		},
		{
			"buffer":0,
			"byteLength":30684,
			"byteOffset":30684,
			"target":34962
		},
		{
			"buffer":0,
			"byteLength":20456,
			"byteOffset":61368,
			"target":34962
		},
		{
			"buffer":0,
			"byteLength":8112,
			"byteOffset":81824,
			"target":34963
		},
		{
			"buffer":0,
			"byteLength":6768,
			"byteOffset":89936,
			"target":34962
		},
		{
			"buffer":0,
			"byteLength":6768,
			"byteOffset":96704,
			"target":34962
		},
		{
			"buffer":0,
			"byteLength":4512,
			"byteOffset":103472,
			"target":34962
		},
		{
			"buffer":0,
			"byteLength":2592,
			"byteOffset":107984,
			"target":34963
		},
		{
			"buffer":0,
			"byteLength":43200,
			"byteOffset":110576,
			"target":34962
		},
		{
			"buffer":0,
			"byteLength":43200,
			"byteOffset":153776,
			"target":34962
		},
		{
			"buffer":0,
			"byteLength":28800,
			"byteOffset":196976,
			"target":34962
		},
		{
			"buffer":0,
			"byteLength":16176,
			"byteOffset":225776,
			"target":34963
		}
	],
	"buffers":[
		{
			"byteLength":241952,
			"uri":"homecart_bimanual_upper_structure.bin"
		}
	]
}
