{
    "asset": {
        "version": "2.0",
        "generator": "gltfpack 0.23"
    },
    "extensionsUsed": [
        "EXT_meshopt_compression"
    ],
    "buffers": [
        {
            "uri": "homecart_baseplate.bin",
            "byteLength": 5012
        },
        {
            "uri": "homecart_baseplate.fallback.bin",
            "byteLength": 11400,
            "extensions": {
                "EXT_meshopt_compression": {
                    "fallback": true
                }
            }
        }
    ],
    "bufferViews": [
        {
            "buffer": 1,
            "byteOffset": 0,
            "byteLength": 4608,
            "byteStride": 12,
            "target": 34962,
            "extensions": {
                "EXT_meshopt_compression": {
                    "buffer": 0,
                    "byteOffset": 0,
                    "byteLength": 2830,
                    "byteStride": 12,
                    "mode": "ATTRIBUTES",
                    "count": 384
                }
            }
        },
        {
            "buffer": 1,
            "byteOffset": 4608,
            "byteLength": 4608,
            "byteStride": 12,
            "target": 34962,
            "extensions": {
                "EXT_meshopt_compression": {
                    "buffer": 0,
                    "byteOffset": 2832,
                    "byteLength": 1773,
                    "byteStride": 12,
                    "mode": "ATTRIBUTES",
                    "count": 384
                }
            }
        },
        {
            "buffer": 1,
            "byteOffset": 9216,
            "byteLength": 2184,
            "target": 34963,
            "extensions": {
                "EXT_meshopt_compression": {
                    "buffer": 0,
                    "byteOffset": 4608,
                    "byteLength": 402,
                    "byteStride": 2,
                    "mode": "TRIANGLES",
                    "count": 1092
                }
            }
        }
    ],
    "accessors": [
        {
            "bufferView": 0,
            "byteOffset": 0,
            "componentType": 5126,
            "count": 384,
            "type": "VEC3",
            "min": [
                -0.340799987,
                -0.00650000013,
                -0.493200004
            ],
            "max": [
                0.340799987,
                0,
                0.493200004
            ]
        },
        {
            "bufferView": 1,
            "byteOffset": 0,
            "componentType": 5126,
            "count": 384,
            "type": "VEC3"
        },
        {
            "bufferView": 2,
            "byteOffset": 0,
            "componentType": 5123,
            "count": 1092,
            "type": "SCALAR"
        }
    ],
    "materials": [
        {
            "name": "homecart_baseplate_material",
            "pbrMetallicRoughness": {
                "baseColorFactor": [
                    0.400000006,
                    0.400000006,
                    0.400000006,
                    1
                ],
                "roughnessFactor": 0.300000012
            },
            "doubleSided": true
        }
    ],
    "meshes": [
        {
            "primitives": [
                {
                    "attributes": {
                        "POSITION": 0,
                        "NORMAL": 1
                    },
                    "indices": 2,
                    "material": 0
                }
            ]
        }
    ],
    "nodes": [
        {
            "name": "homecart_baseplate",
            "mesh": 0
        }
    ],
    "scenes": [
        {
            "name": "Scene",
            "nodes": [
                0
            ]
        }
    ],
    "scene": 0
}