# Blender v3.1.2 OBJ File: 'homecart_reduce_08.blend'
# www.blender.org
mtllib homecart_arm_mount_stack.mtl
v -0.062130 -0.058537 0.015000
v -0.063500 -0.053500 0.015000
v -0.053500 -0.063500 0.015000
v -0.058537 -0.062130 0.015000
v -0.050000 -0.043255 0.015000
v -0.046627 -0.044158 0.015000
v -0.053373 -0.044158 0.015000
v -0.044158 -0.046627 0.015000
v -0.055842 -0.046627 0.015000
v -0.043255 -0.050000 0.015000
v -0.056745 -0.050000 0.015000
v -0.044158 -0.053373 0.015000
v -0.046627 -0.055842 0.015000
v -0.050000 -0.056745 0.015000
v -0.062130 -0.058537 0.035000
v -0.063500 -0.053500 0.035000
v -0.053500 -0.063500 0.035000
v -0.058537 -0.062130 0.035000
v -0.053373 -0.055842 0.015000
v -0.055842 -0.053373 0.015000
v -0.050000 -0.043255 0.035000
v -0.046627 -0.044158 0.035000
v -0.053373 -0.044158 0.035000
v -0.044158 -0.046627 0.035000
v -0.055842 -0.046627 0.035000
v -0.043255 -0.050000 0.035000
v -0.056745 -0.050000 0.035000
v -0.044158 -0.053373 0.035000
v -0.046627 -0.055842 0.035000
v -0.050000 -0.056745 0.035000
v -0.053373 -0.055842 0.035000
v -0.055842 -0.053373 0.035000
v 0.062130 -0.058537 0.015000
v 0.063500 -0.053500 0.015000
v 0.053500 -0.063500 0.015000
v 0.058537 -0.062130 0.015000
v 0.050000 -0.043255 0.015000
v 0.046627 -0.044158 0.015000
v 0.053373 -0.044158 0.015000
v 0.044158 -0.046627 0.015000
v 0.055842 -0.046627 0.015000
v 0.043255 -0.050000 0.015000
v 0.056745 -0.050000 0.015000
v 0.044158 -0.053373 0.015000
v 0.046627 -0.055842 0.015000
v 0.050000 -0.056745 0.015000
v 0.053373 -0.055842 0.015000
v 0.062130 -0.058537 0.035000
v 0.063500 -0.053500 0.035000
v 0.053500 -0.063500 0.035000
v 0.058537 -0.062130 0.035000
v 0.055842 -0.053373 0.015000
v -0.062130 0.058537 0.015000
v 0.050000 -0.043255 0.035000
v 0.046627 -0.044158 0.035000
v 0.053373 -0.044158 0.035000
v 0.044158 -0.046627 0.035000
v 0.055842 -0.046627 0.035000
v 0.043255 -0.050000 0.035000
v 0.056745 -0.050000 0.035000
v 0.044158 -0.053373 0.035000
v 0.046627 -0.055842 0.035000
v 0.050000 -0.056745 0.035000
v 0.053373 -0.055842 0.035000
v 0.055842 -0.053373 0.035000
v -0.063500 0.053500 0.015000
v -0.053500 0.063500 0.015000
v -0.058537 0.062130 0.015000
v -0.050000 0.043255 0.015000
v -0.046627 0.044158 0.015000
v -0.053373 0.044158 0.015000
v -0.044158 0.046627 0.015000
v -0.055842 0.046627 0.015000
v -0.043255 0.050000 0.015000
v -0.056745 0.050000 0.015000
v -0.044158 0.053373 0.015000
v -0.046627 0.055842 0.015000
v -0.050000 0.056745 0.015000
v -0.062130 0.058537 0.035000
v -0.063500 0.053500 0.035000
v -0.053500 0.063500 0.035000
v -0.058537 0.062130 0.035000
v -0.053373 0.055842 0.015000
v -0.055842 0.053373 0.015000
v -0.050000 0.043255 0.035000
v -0.046627 0.044158 0.035000
v -0.053373 0.044158 0.035000
v -0.044158 0.046627 0.035000
v -0.055842 0.046627 0.035000
v -0.043255 0.050000 0.035000
v -0.056745 0.050000 0.035000
v -0.044158 0.053373 0.035000
v -0.046627 0.055842 0.035000
v -0.050000 0.056745 0.035000
v -0.053373 0.055842 0.035000
v -0.055842 0.053373 0.035000
v 0.062130 0.058537 0.015000
v 0.063500 0.053500 0.015000
v 0.053500 0.063500 0.015000
v 0.058537 0.062130 0.015000
v 0.050000 0.043255 0.015000
v 0.046627 0.044158 0.015000
v 0.053373 0.044158 0.015000
v 0.044158 0.046627 0.015000
v 0.055842 0.046627 0.015000
v 0.043255 0.050000 0.015000
v 0.056745 0.050000 0.015000
v 0.044158 0.053373 0.015000
v 0.046627 0.055842 0.015000
v 0.050000 0.056745 0.015000
v 0.062130 0.058537 0.035000
v 0.063500 0.053500 0.035000
v 0.053500 0.063500 0.035000
v 0.058537 0.062130 0.035000
v 0.053373 0.055842 0.015000
v 0.055842 0.053373 0.015000
v 0.050000 0.043255 0.035000
v 0.046627 0.044158 0.035000
v 0.053373 0.044158 0.035000
v 0.044158 0.046627 0.035000
v 0.055842 0.046627 0.035000
v 0.043255 0.050000 0.035000
v 0.056745 0.050000 0.035000
v 0.044158 0.053373 0.035000
v 0.046627 0.055842 0.035000
v 0.050000 0.056745 0.035000
v 0.053373 0.055842 0.035000
v 0.055842 0.053373 0.035000
v 0.000000 0.000000 0.035000
v 0.000000 0.000000 0.015000
vt 0.881392 0.029190
vt 0.881670 0.012474
vt 0.892664 0.015465
vt 0.881392 0.247453
vt 0.881392 0.054690
vt 0.886781 0.049301
vt 0.016231 0.010644
vt 0.028645 0.010644
vt 0.028645 0.010644
vt 0.861281 0.034579
vt 0.859308 0.041940
vt 0.668517 0.034579
vt 0.039145 0.989910
vt 0.026667 0.989910
vt 0.039145 0.989910
vt 0.855467 0.271764
vt 0.852532 0.260808
vt 0.855467 0.271764
vt 0.637134 0.015465
vt 0.643017 0.034579
vt 0.629293 0.023307
vt 0.861281 0.049301
vt 0.764899 0.151071
vt 0.643017 0.252842
vt 0.626302 0.267842
vt 0.643017 0.049301
vt 0.739000 0.406398
vt 0.739000 0.398503
vt 0.739000 0.398503
vt 0.861281 0.267564
vt 0.866669 0.272953
vt 0.663129 0.272953
vt 0.016231 0.010644
vt 0.028645 0.010644
vt 0.016231 0.010644
vt 0.026667 0.989910
vt 0.039145 0.989910
vt 0.026667 0.989910
vt 0.028645 0.010644
vt 0.028645 0.010644
vt 0.014523 0.989910
vt 0.014523 0.989910
vt 0.028645 0.010644
vt 0.028645 0.010644
vt 0.885399 0.279785
vt 0.882113 0.290389
vt 0.893150 0.287387
vt 0.904025 0.268478
vt 0.893420 0.271764
vt 0.901022 0.279515
vt 0.882113 0.290389
vt 0.885399 0.279785
vt 0.893150 0.287387
vt 0.893420 0.271764
vt 0.893150 0.287387
vt 0.901022 0.279515
vt 0.643017 0.267564
vt 0.637134 0.286678
vt 0.629293 0.278836
vt 0.904025 0.268478
vt 0.893420 0.271764
vt 0.896355 0.260808
vt 0.026667 0.989910
vt 0.014523 0.989910
vt 0.039145 0.989910
vt 0.893420 0.249852
vt 0.904025 0.268478
vt 0.893420 0.249852
vt 0.855467 0.271764
vt 0.863488 0.279785
vt 0.863488 0.279785
vt 0.016231 0.010644
vt 0.903496 0.034301
vt 0.886781 0.034579
vt 0.900505 0.023307
vt 0.668517 0.252842
vt 0.670490 0.260203
vt 0.626302 0.034301
vt 0.641045 0.041940
vt 0.648128 0.012474
vt 0.648406 0.029190
vt 0.026667 0.989910
vt 0.039145 0.989910
vt 0.039145 0.989910
vt 0.892664 0.286678
vt 0.886781 0.267564
vt 0.900505 0.278836
vt 0.882113 0.290389
vt 0.885399 0.279785
vt 0.893150 0.287387
vt 0.039145 0.989910
vt 0.039145 0.989910
vt 0.014523 0.989910
vt 0.026667 0.989910
vt 0.739000 0.390609
vt 0.739000 0.382714
vt 0.739000 0.374819
vt 0.739000 0.382714
vt 0.739000 0.335346
vt 0.739000 0.343241
vt 0.739000 0.343241
vt 0.739000 0.382714
vt 0.739000 0.390609
vt 0.739000 0.382714
vt 0.648406 0.272953
vt 0.648128 0.289669
vt 0.855467 0.249852
vt 0.764884 0.151249
vt 0.739000 0.382714
vt 0.739000 0.390609
vt 0.739000 0.382714
vt 0.739000 0.351135
vt 0.739000 0.359030
vt 0.739000 0.351135
vt 0.739000 0.366925
vt 0.739000 0.366925
vt 0.739000 0.327451
vt 0.739000 0.319557
vt 0.739000 0.327451
vt 0.739000 0.398503
vt 0.739000 0.406398
vt 0.739000 0.398503
vt 0.739000 0.343241
vt 0.739000 0.311662
vt 0.739000 0.319557
vt 0.739000 0.311662
vt 0.881670 0.289669
vt 0.881392 0.272953
vt 0.739000 0.366925
vt 0.739000 0.359030
vt 0.739000 0.366925
vt 0.739000 0.398503
vt 0.739000 0.398503
vt 0.739000 0.374819
vt 0.026667 0.989910
vt 0.014523 0.989910
vt 0.014523 0.989910
vt 0.852532 0.260808
vt 0.855467 0.249852
vt 0.903496 0.267842
vt 0.888753 0.260203
vt 0.885399 0.241832
vt 0.885399 0.241832
vt 0.893420 0.249852
vt 0.739000 0.351135
vt 0.739000 0.351135
vt 0.739000 0.335346
vt 0.739000 0.327451
vt 0.739000 0.319557
vt 0.739000 0.327451
vt 0.739000 0.374819
vt 0.739000 0.382714
vt 0.739000 0.382714
vt 0.893420 0.271764
vt 0.901022 0.279515
vt 0.739000 0.406398
vt 0.739000 0.398503
vt 0.739000 0.398503
vt 0.739000 0.374819
vt 0.739000 0.327451
vt 0.739000 0.319557
vt 0.739000 0.327451
vt 0.739000 0.327451
vt 0.739000 0.319557
vt 0.739000 0.327451
vt 0.739000 0.374819
vt 0.739000 0.374819
vt 0.739000 0.335346
vt 0.739000 0.311662
vt 0.739000 0.311662
vt 0.739000 0.311662
vt 0.739000 0.311662
vt 0.739000 0.359030
vt 0.739000 0.351135
vt 0.739000 0.351135
vt 0.739000 0.366925
vt 0.739000 0.366925
vt 0.739000 0.343241
vt 0.739000 0.343241
vt 0.739000 0.351135
vt 0.739000 0.351135
vt 0.739000 0.343241
vt 0.739000 0.359030
vt 0.739000 0.366925
vt 0.739000 0.366925
vt 0.885399 0.279785
vt 0.882113 0.290389
vt 0.739000 0.406398
vt 0.739000 0.335346
vt 0.739000 0.343241
vt 0.739000 0.374819
vt 0.739000 0.390609
vt 0.739000 0.343241
vt 0.739000 0.335346
vt 0.739000 0.311662
vt 0.739000 0.311662
vt 0.901022 0.279515
vt 0.904025 0.268478
vt 0.896355 0.260808
vt 0.016231 0.010644
vt 0.739000 0.374819
vt 0.874031 0.027217
vt 0.874031 0.245481
vt 0.866669 0.247453
vt 0.866669 0.054690
vt 0.874031 0.056662
vt 0.886781 0.252842
vt 0.888753 0.041940
vt 0.016231 0.010644
vt 0.866669 0.029190
vt 0.663129 0.029190
vt 0.655767 0.027217
vt 0.670490 0.041940
vt 0.863488 0.279785
vt 0.874443 0.282720
vt 0.863488 0.279785
vt 0.874443 0.282720
vt 0.852532 0.260808
vt 0.663129 0.054690
vt 0.668517 0.049301
vt 0.663129 0.247453
vt 0.655767 0.245481
vt 0.655767 0.056662
vt 0.648406 0.247453
vt 0.648406 0.054690
vt 0.641045 0.260203
vt 0.739000 0.406398
vt 0.874031 0.274925
vt 0.655767 0.274925
vt 0.668517 0.267564
vt 0.859308 0.260203
vt 0.028645 0.010644
vt 0.874443 0.282720
vt 0.896355 0.260808
vt 0.014523 0.989910
vt 0.863488 0.241832
vt 0.874443 0.238897
vt 0.874443 0.238897
vt 0.885399 0.241832
vt 0.885399 0.241832
vt 0.863488 0.241832
vt 0.896355 0.260808
vt 0.874443 0.282720
vt 0.855467 0.271764
vt 0.852532 0.260808
vt 0.016231 0.010644
vt 0.861281 0.252842
vt 0.014523 0.989910
vt 0.739000 0.390609
vt 0.739000 0.390609
vt 0.863488 0.241832
vt 0.855467 0.249852
vt 0.739000 0.390609
vt 0.739000 0.359030
vt 0.739000 0.319557
vt 0.739000 0.406398
vt 0.739000 0.359030
vt 0.026667 0.989910
vt 0.855467 0.249852
vt 0.863488 0.241832
vt 0.874443 0.238897
vt 0.874443 0.238897
vt 0.893420 0.249852
vt 0.739000 0.319557
vt 0.739000 0.406398
vt 0.739000 0.319557
vt 0.739000 0.335346
vt 0.739000 0.359030
vt 0.739000 0.359030
vt 0.739000 0.406398
vt 0.739000 0.335346
vt 0.739000 0.390609
vt 0.739000 0.335346
vt 0.016231 0.010644
vn -0.0000 0.0000 1.0000
vn -0.8651 0.5017 0.0000
vn -0.9912 0.1324 0.0000
vn 0.1324 -0.9912 0.0000
vn 0.5017 -0.8651 0.0000
vn 0.0000 0.0000 -1.0000
vn -1.0000 -0.0000 0.0000
vn -0.8660 -0.5000 0.0000
vn 0.8651 -0.5017 0.0000
vn 0.9912 -0.1324 0.0000
vn -0.5017 -0.8651 0.0000
vn -0.1324 -0.9912 0.0000
vn 0.9912 0.1324 0.0000
vn -0.8651 -0.5017 0.0000
vn -0.9912 -0.1324 0.0000
vn 0.8651 0.5017 0.0000
vn 0.5017 0.8651 0.0000
vn 0.1324 0.9912 0.0000
vn -0.1324 0.9912 0.0000
vn -0.5000 -0.8660 0.0000
vn 0.0000 -1.0000 0.0000
vn 0.5000 -0.8660 0.0000
vn -0.0000 1.0000 0.0000
vn 0.5000 0.8660 0.0000
vn -0.5000 0.8660 0.0000
vn -0.8660 0.5000 0.0000
vn 0.8660 -0.5000 0.0000
vn 1.0000 0.0000 0.0000
vn -0.5017 0.8651 0.0000
vn 0.8660 0.5000 0.0000
usemtl homecart_arm_mount_stack_material
s 1
f 64/1/1 50/2/1 51/3/1
f 119/4/1 56/5/1 58/6/1
f 79/7/2 66/8/3 80/9/3
f 61/10/1 59/11/1 28/12/1
f 35/13/4 51/14/5 50/15/4
f 108/16/6 106/17/6 76/18/6
f 18/19/1 32/20/1 15/21/1
f 59/11/1 57/22/1 129/23/1
f 89/24/1 80/25/1 25/26/1
f 122/27/7 104/28/8 120/29/8
f 124/30/1 125/31/1 93/32/1
f 33/33/9 49/34/10 48/35/9
f 4/36/11 17/37/12 18/38/11
f 49/34/10 98/39/13 112/40/13
f 1/41/14 18/38/11 15/42/14
f 80/9/3 2/43/15 16/44/15
f 19/45/6 3/46/6 4/47/6
f 2/48/6 20/49/6 1/50/6
f 67/51/6 83/52/6 68/53/6
f 116/54/6 100/55/6 97/56/6
f 96/57/1 82/58/1 79/59/1
f 66/60/6 84/61/6 75/62/6
f 36/63/5 48/64/9 51/14/5
f 3/65/12 50/15/4 17/37/12
f 105/66/6 98/67/6 41/68/6
f 44/69/6 45/70/6 13/71/6
f 98/39/13 111/72/16 112/40/13
f 49/73/1 65/74/1 48/75/1
f 88/76/1 129/23/1 90/77/1
f 16/78/1 32/20/1 27/79/1
f 17/80/1 31/81/1 18/19/1
f 114/82/17 99/83/18 113/84/18
f 114/85/1 128/86/1 111/87/1
f 35/88/6 47/89/6 36/90/6
f 113/84/18 67/91/19 81/92/19
f 111/93/16 100/94/17 114/82/17
f 104/28/8 118/95/20 120/29/8
f 101/96/21 119/97/22 117/98/21
f 110/99/23 127/100/24 115/101/24
f 69/102/21 86/103/22 85/104/21
f 80/25/1 96/57/1 79/59/1
f 95/105/1 81/106/1 82/58/1
f 104/107/6 130/108/6 106/17/6
f 37/109/23 55/110/25 54/111/23
f 84/112/26 91/113/7 96/114/26
f 91/113/7 73/115/8 89/116/8
f 109/117/25 124/118/26 125/119/25
f 40/120/26 59/121/7 57/122/26
f 95/123/25 84/112/26 96/114/26
f 42/124/7 61/125/8 59/126/7
f 113/127/1 127/128/1 114/85/1
f 55/110/25 40/120/26 57/122/26
f 105/129/27 123/130/28 121/131/27
f 86/103/22 72/132/27 88/133/27
f 103/134/22 121/131/27 119/97/22
f 82/135/29 53/136/2 79/137/2
f 10/138/6 8/139/6 130/108/6
f 112/140/1 128/86/1 123/141/1
f 71/142/6 7/143/6 9/144/6
f 67/91/19 82/135/29 81/92/19
f 116/145/30 127/100/24 128/146/30
f 65/74/1 51/3/1 48/75/1
f 126/147/23 109/117/25 125/119/25
f 93/148/24 76/149/30 77/150/24
f 7/151/25 21/152/23 5/153/23
f 36/90/6 52/154/6 33/155/6
f 118/95/20 101/96/21 117/98/21
f 20/49/6 4/47/6 1/50/6
f 26/156/28 8/157/30 24/158/30
f 87/159/20 69/102/21 85/104/21
f 13/160/22 28/161/27 29/162/22
f 62/163/20 44/164/8 45/165/20
f 89/116/8 71/166/20 87/159/20
f 123/130/28 116/145/30 128/146/30
f 98/67/6 116/54/6 97/56/6
f 56/167/24 37/109/23 54/111/23
f 29/162/22 14/168/21 13/160/22
f 28/161/27 10/169/28 26/170/28
f 76/149/30 90/171/28 74/172/28
f 43/173/28 65/174/27 52/175/27
f 58/176/30 43/173/28 41/177/30
f 65/174/27 47/178/22 52/175/27
f 19/179/20 32/180/8 20/181/8
f 14/168/21 31/182/20 19/179/20
f 11/183/7 25/184/26 9/185/26
f 115/186/6 99/187/6 100/55/6
f 74/188/28 88/133/27 72/132/27
f 95/123/25 78/189/23 83/190/25
f 78/189/23 93/148/24 77/150/24
f 7/151/25 25/184/26 23/191/25
f 32/180/8 11/183/7 20/181/8
f 6/192/24 24/158/30 8/157/30
f 64/193/22 46/194/21 47/178/22
f 21/152/23 6/192/24 5/153/23
f 46/194/21 62/163/20 45/165/20
f 124/118/26 106/195/7 122/196/7
f 68/53/6 84/61/6 53/197/6
f 34/198/6 52/154/6 43/199/6
f 2/43/15 15/200/14 16/44/15
f 58/176/30 39/201/24 56/167/24
f 64/1/1 63/202/1 50/2/1
f 117/203/1 118/204/1 129/23/1
f 129/23/1 55/205/1 54/206/1
f 129/23/1 54/206/1 117/203/1
f 54/206/1 56/5/1 119/4/1
f 119/4/1 117/203/1 54/206/1
f 112/140/1 123/141/1 121/207/1
f 112/140/1 121/207/1 58/6/1
f 121/207/1 119/4/1 58/6/1
f 60/208/1 49/73/1 58/6/1
f 49/73/1 112/140/1 58/6/1
f 79/7/2 53/209/2 66/8/3
f 17/80/1 50/2/1 62/210/1
f 50/2/1 63/202/1 62/210/1
f 29/211/1 30/212/1 17/80/1
f 59/11/1 26/213/1 28/12/1
f 28/12/1 29/211/1 61/10/1
f 29/211/1 17/80/1 62/210/1
f 61/10/1 29/211/1 62/210/1
f 35/13/4 36/63/5 51/14/5
f 67/51/6 99/187/6 109/214/6
f 99/187/6 110/215/6 109/214/6
f 77/216/6 78/217/6 67/51/6
f 106/17/6 74/218/6 76/18/6
f 76/18/6 77/216/6 108/16/6
f 77/216/6 67/51/6 109/214/6
f 108/16/6 77/216/6 109/214/6
f 18/19/1 31/81/1 32/20/1
f 57/22/1 55/205/1 129/23/1
f 129/23/1 22/219/1 24/220/1
f 24/220/1 26/213/1 129/23/1
f 26/213/1 59/11/1 129/23/1
f 129/23/1 86/221/1 85/222/1
f 129/23/1 85/222/1 21/223/1
f 85/222/1 87/224/1 23/225/1
f 21/223/1 22/219/1 129/23/1
f 23/225/1 21/223/1 85/222/1
f 16/78/1 27/79/1 25/26/1
f 25/26/1 23/225/1 87/224/1
f 89/24/1 91/226/1 80/25/1
f 25/26/1 87/224/1 89/24/1
f 80/25/1 16/78/1 25/26/1
f 122/27/7 106/227/7 104/28/8
f 126/228/1 113/127/1 125/31/1
f 113/127/1 81/106/1 125/31/1
f 81/106/1 94/229/1 93/32/1
f 92/230/1 90/77/1 122/231/1
f 81/106/1 93/32/1 125/31/1
f 93/32/1 92/230/1 124/30/1
f 92/230/1 122/231/1 124/30/1
f 33/33/9 34/232/10 49/34/10
f 4/36/11 3/65/12 17/37/12
f 49/34/10 34/232/10 98/39/13
f 1/41/14 4/36/11 18/38/11
f 80/9/3 66/8/3 2/43/15
f 19/45/6 14/233/6 3/46/6
f 2/48/6 11/234/6 20/49/6
f 67/51/6 78/217/6 83/52/6
f 116/54/6 115/186/6 100/55/6
f 96/57/1 95/105/1 82/58/1
f 66/60/6 53/197/6 84/61/6
f 36/63/5 33/235/9 48/64/9
f 3/65/12 35/13/4 50/15/4
f 130/108/6 102/236/6 101/237/6
f 130/108/6 101/237/6 37/238/6
f 101/237/6 103/239/6 39/240/6
f 37/238/6 38/241/6 130/108/6
f 39/240/6 37/238/6 101/237/6
f 34/198/6 43/199/6 41/68/6
f 41/68/6 39/240/6 103/239/6
f 105/66/6 107/242/6 98/67/6
f 41/68/6 103/239/6 105/66/6
f 98/67/6 34/198/6 41/68/6
f 46/243/6 35/88/6 45/70/6
f 35/88/6 3/46/6 45/70/6
f 3/46/6 14/233/6 13/71/6
f 12/244/6 10/138/6 42/245/6
f 3/46/6 13/71/6 45/70/6
f 13/71/6 12/244/6 44/69/6
f 12/244/6 42/245/6 44/69/6
f 98/39/13 97/246/16 111/72/16
f 49/73/1 60/208/1 65/74/1
f 86/221/1 129/23/1 88/76/1
f 129/23/1 118/204/1 120/247/1
f 120/247/1 122/231/1 129/23/1
f 122/231/1 90/77/1 129/23/1
f 16/78/1 15/21/1 32/20/1
f 17/80/1 30/212/1 31/81/1
f 114/82/17 100/94/17 99/83/18
f 114/85/1 127/128/1 128/86/1
f 35/88/6 46/243/6 47/89/6
f 113/84/18 99/83/18 67/91/19
f 111/93/16 97/248/16 100/94/17
f 104/28/8 102/249/20 118/95/20
f 101/96/21 103/134/22 119/97/22
f 110/99/23 126/147/23 127/100/24
f 69/102/21 70/250/22 86/103/22
f 80/25/1 91/226/1 96/57/1
f 95/105/1 94/229/1 81/106/1
f 102/236/6 130/108/6 104/107/6
f 130/108/6 70/251/6 72/252/6
f 72/252/6 74/218/6 130/108/6
f 74/218/6 106/17/6 130/108/6
f 37/109/23 38/253/25 55/110/25
f 84/112/26 75/254/7 91/113/7
f 91/113/7 75/254/7 73/115/8
f 109/117/25 108/255/26 124/118/26
f 40/120/26 42/256/7 59/121/7
f 95/123/25 83/190/25 84/112/26
f 42/124/7 44/164/8 61/125/8
f 113/127/1 126/228/1 127/128/1
f 55/110/25 38/253/25 40/120/26
f 105/129/27 107/257/28 123/130/28
f 86/103/22 70/250/22 72/132/27
f 103/134/22 105/129/27 121/131/27
f 82/135/29 68/258/29 53/136/2
f 130/108/6 38/241/6 40/259/6
f 40/259/6 42/245/6 130/108/6
f 42/245/6 10/138/6 130/108/6
f 8/139/6 6/260/6 130/108/6
f 112/140/1 111/87/1 128/86/1
f 69/261/6 70/251/6 130/108/6
f 130/108/6 6/260/6 5/262/6
f 130/108/6 5/262/6 69/261/6
f 5/262/6 7/143/6 71/142/6
f 71/142/6 69/261/6 5/262/6
f 66/60/6 75/62/6 73/263/6
f 66/60/6 73/263/6 9/144/6
f 73/263/6 71/142/6 9/144/6
f 11/234/6 2/48/6 9/144/6
f 2/48/6 66/60/6 9/144/6
f 67/91/19 68/258/29 82/135/29
f 116/145/30 115/101/24 127/100/24
f 65/74/1 64/1/1 51/3/1
f 126/147/23 110/99/23 109/117/25
f 93/148/24 92/264/30 76/149/30
f 7/151/25 23/191/25 21/152/23
f 36/90/6 47/89/6 52/154/6
f 118/95/20 102/249/20 101/96/21
f 20/49/6 19/45/6 4/47/6
f 26/156/28 10/265/28 8/157/30
f 87/159/20 71/166/20 69/102/21
f 13/160/22 12/266/27 28/161/27
f 62/163/20 61/125/8 44/164/8
f 89/116/8 73/115/8 71/166/20
f 123/130/28 107/257/28 116/145/30
f 98/67/6 107/242/6 116/54/6
f 56/167/24 39/201/24 37/109/23
f 29/162/22 30/267/21 14/168/21
f 28/161/27 12/266/27 10/169/28
f 76/149/30 92/264/30 90/171/28
f 43/173/28 60/268/28 65/174/27
f 58/176/30 60/268/28 43/173/28
f 65/174/27 64/193/22 47/178/22
f 19/179/20 31/182/20 32/180/8
f 14/168/21 30/267/21 31/182/20
f 11/183/7 27/269/7 25/184/26
f 115/186/6 110/215/6 99/187/6
f 74/188/28 90/270/28 88/133/27
f 95/123/25 94/271/23 78/189/23
f 78/189/23 94/271/23 93/148/24
f 7/151/25 9/185/26 25/184/26
f 32/180/8 27/269/7 11/183/7
f 6/192/24 22/272/24 24/158/30
f 64/193/22 63/273/21 46/194/21
f 21/152/23 22/272/24 6/192/24
f 46/194/21 63/273/21 62/163/20
f 124/118/26 108/255/26 106/195/7
f 68/53/6 83/52/6 84/61/6
f 34/198/6 33/155/6 52/154/6
f 2/43/15 1/274/14 15/200/14
f 58/176/30 41/177/30 39/201/24
