{
    "asset": {
        "version": "2.0",
        "generator": "gltfpack 0.23"
    },
    "extensionsUsed": [
        "EXT_meshopt_compression"
    ],
    "buffers": [
        {
            "uri": "finger.bin",
            "byteLength": 29648
        },
        {
            "uri": "finger.fallback.bin",
            "byteLength": 48672,
            "extensions": {
                "EXT_meshopt_compression": {
                    "fallback": true
                }
            }
        }
    ],
    "bufferViews": [
        {
            "buffer": 1,
            "byteOffset": 0,
            "byteLength": 22464,
            "byteStride": 12,
            "target": 34962,
            "extensions": {
                "EXT_meshopt_compression": {
                    "buffer": 0,
                    "byteOffset": 0,
                    "byteLength": 17380,
                    "byteStride": 12,
                    "mode": "ATTRIBUTES",
                    "count": 1872
                }
            }
        },
        {
            "buffer": 1,
            "byteOffset": 22464,
            "byteLength": 22464,
            "byteStride": 12,
            "target": 34962,
            "extensions": {
                "EXT_meshopt_compression": {
                    "buffer": 0,
                    "byteOffset": 17380,
                    "byteLength": 11621,
                    "byteStride": 12,
                    "mode": "ATTRIBUTES",
                    "count": 1872
                }
            }
        },
        {
            "buffer": 1,
            "byteOffset": 44928,
            "byteLength": 3744,
            "target": 34963,
            "extensions": {
                "EXT_meshopt_compression": {
                    "buffer": 0,
                    "byteOffset": 29004,
                    "byteLength": 642,
                    "byteStride": 2,
                    "mode": "TRIANGLES",
                    "count": 1872
                }
            }
        }
    ],
    "accessors": [
        {
            "bufferView": 0,
            "byteOffset": 0,
            "componentType": 5126,
            "count": 786,
            "type": "VEC3",
            "min": [
                -0.00893068314,
                -0.0109066898,
                -0.0538998805
            ],
            "max": [
                0.00893133786,
                8.37642947e-05,
                -0.0360903703
            ]
        },
        {
            "bufferView": 1,
            "byteOffset": 0,
            "componentType": 5126,
            "count": 786,
            "type": "VEC3"
        },
        {
            "bufferView": 2,
            "byteOffset": 0,
            "componentType": 5123,
            "count": 786,
            "type": "SCALAR"
        },
        {
            "bufferView": 0,
            "byteOffset": 9432,
            "componentType": 5126,
            "count": 1086,
            "type": "VEC3",
            "min": [
                -0.0105009004,
                -0.0263454895,
                -0.0538575612
            ],
            "max": [
                0.0105015598,
                -0.00248241401,
                -0.000133331996
            ]
        },
        {
            "bufferView": 1,
            "byteOffset": 9432,
            "componentType": 5126,
            "count": 1086,
            "type": "VEC3"
        },
        {
            "bufferView": 2,
            "byteOffset": 1572,
            "componentType": 5123,
            "count": 1086,
            "type": "SCALAR"
        }
    ],
    "materials": [
        {
            "name": "Part__Feature_007",
            "pbrMetallicRoughness": {
                "baseColorFactor": [
                    0.250980407,
                    0.250980407,
                    0.250980407,
                    1
                ],
                "metallicFactor": 0
            }
        },
        {
            "name": "Part__Feature001_006",
            "pbrMetallicRoughness": {
                "baseColorFactor": [
                    0.90196079,
                    0.921568573,
                    0.929411829,
                    1
                ],
                "metallicFactor": 0
            }
        }
    ],
    "meshes": [
        {
            "primitives": [
                {
                    "attributes": {
                        "POSITION": 0,
                        "NORMAL": 1
                    },
                    "indices": 2,
                    "material": 0
                }
            ]
        },
        {
            "primitives": [
                {
                    "attributes": {
                        "POSITION": 3,
                        "NORMAL": 4
                    },
                    "indices": 5,
                    "material": 1
                }
            ]
        }
    ],
    "nodes": [
        {
            "name": "node0",
            "mesh": 0
        },
        {
            "name": "node1",
            "mesh": 1
        }
    ],
    "scenes": [
        {
            "nodes": [
                0,
                1
            ]
        }
    ],
    "scene": 0
}