{
    "asset": {
        "version": "2.0",
        "generator": "gltfpack 0.23"
    },
    "extensionsUsed": [
        "EXT_meshopt_compression",
        "KHR_texture_basisu"
    ],
    "extensionsRequired": [
        "KHR_texture_basisu"
    ],
    "buffers": [
        {
            "uri": "hand.bin",
            "byteLength": 529692
        },
        {
            "uri": "hand.fallback.bin",
            "byteLength": 912736,
            "extensions": {
                "EXT_meshopt_compression": {
                    "fallback": true
                }
            }
        }
    ],
    "bufferViews": [
        {
            "buffer": 1,
            "byteOffset": 0,
            "byteLength": 276432,
            "byteStride": 12,
            "target": 34962,
            "extensions": {
                "EXT_meshopt_compression": {
                    "buffer": 0,
                    "byteOffset": 0,
                    "byteLength": 187109,
                    "byteStride": 12,
                    "mode": "ATTRIBUTES",
                    "count": 23036
                }
            }
        },
        {
            "buffer": 1,
            "byteOffset": 276432,
            "byteLength": 276432,
            "byteStride": 12,
            "target": 34962,
            "extensions": {
                "EXT_meshopt_compression": {
                    "buffer": 0,
                    "byteOffset": 187112,
                    "byteLength": 197126,
                    "byteStride": 12,
                    "mode": "ATTRIBUTES",
                    "count": 23036
                }
            }
        },
        {
            "buffer": 1,
            "byteOffset": 552864,
            "byteLength": 184288,
            "byteStride": 8,
            "target": 34962,
            "extensions": {
                "EXT_meshopt_compression": {
                    "buffer": 0,
                    "byteOffset": 384240,
                    "byteLength": 113052,
                    "byteStride": 8,
                    "mode": "ATTRIBUTES",
                    "count": 23036
                }
            }
        },
        {
            "buffer": 1,
            "byteOffset": 737152,
            "byteLength": 175584,
            "target": 34963,
            "extensions": {
                "EXT_meshopt_compression": {
                    "buffer": 0,
                    "byteOffset": 497292,
                    "byteLength": 32398,
                    "byteStride": 2,
                    "mode": "TRIANGLES",
                    "count": 87792
                }
            }
        }
    ],
    "accessors": [
        {
            "bufferView": 0,
            "byteOffset": 0,
            "componentType": 5126,
            "count": 23036,
            "type": "VEC3",
            "min": [
                -0.0313703939,
                -0.0660148636,
                -0.103974611
            ],
            "max": [
                0.0313703939,
                0.0267536268,
                0.100613981
            ]
        },
        {
            "bufferView": 1,
            "byteOffset": 0,
            "componentType": 5126,
            "count": 23036,
            "type": "VEC3"
        },
        {
            "bufferView": 2,
            "byteOffset": 0,
            "componentType": 5126,
            "count": 23036,
            "type": "VEC2"
        },
        {
            "bufferView": 3,
            "byteOffset": 0,
            "componentType": 5123,
            "count": 87792,
            "type": "SCALAR"
        }
    ],
    "samplers": [
        {
            "magFilter": 9729,
            "minFilter": 9987
        }
    ],
    "images": [
        {
            "name": "hand_normal",
            "uri": "hand_normal.png"
        },
        {
            "name": "hand_occlusion_roughness_metallic",
            "uri": "hand_occlusion_roughness_metallic.png"
        },
        {
            "name": "hand_color",
            "uri": "hand_color.png"
        },
        {
            "uri": "hand_normal.ktx2"
        },
        {
            "uri": "hand_occlusion_roughness_metallic.ktx2"
        },
        {
            "uri": "hand_color.ktx2"
        }
    ],
    "textures": [
        {
            "sampler": 0,
            "source": 0,
            "extensions": {
                "KHR_texture_basisu": {
                    "source": 3
                }
            }
        },
        {
            "sampler": 0,
            "source": 1,
            "extensions": {
                "KHR_texture_basisu": {
                    "source": 4
                }
            }
        },
        {
            "sampler": 0,
            "source": 2,
            "extensions": {
                "KHR_texture_basisu": {
                    "source": 5
                }
            }
        }
    ],
    "materials": [
        {
            "name": "hand_material",
            "pbrMetallicRoughness": {
                "baseColorTexture": {
                    "index": 2
                },
                "metallicRoughnessTexture": {
                    "index": 1
                }
            },
            "normalTexture": {
                "index": 0
            },
            "occlusionTexture": {
                "index": 1
            },
            "doubleSided": true
        }
    ],
    "meshes": [
        {
            "primitives": [
                {
                    "attributes": {
                        "POSITION": 0,
                        "NORMAL": 1,
                        "TEXCOORD_0": 2
                    },
                    "indices": 3,
                    "material": 0
                }
            ]
        }
    ],
    "nodes": [
        {
            "name": "hand",
            "rotation": [
                1,
                0,
                0,
                -4.37113883e-08
            ],
            "mesh": 0
        }
    ],
    "scenes": [
        {
            "name": "Scene",
            "nodes": [
                0
            ]
        }
    ],
    "scene": 0
}