{
	"asset":{
		"generator":"Khronos glTF Blender I/O v4.0.44",
		"version":"2.0"
	},
	"scene":0,
	"scenes":[
		{
			"name":"Scene",
			"nodes":[
				0
			]
		}
	],
	"nodes":[
		{
			"mesh":0,
			"name":"link1"
		}
	],
	"materials":[
		{
			"doubleSided":true,
			"name":"link_1_material",
			"normalTexture":{
				"index":0
			},
			"occlusionTexture":{
				"index":1
			},
			"pbrMetallicRoughness":{
				"baseColorTexture":{
					"index":2
				},
				"metallicRoughnessTexture":{
					"index":1
				}
			}
		}
	],
	"meshes":[
		{
			"name":"link1",
			"primitives":[
				{
					"attributes":{
						"POSITION":0,
						"NORMAL":1,
						"TEXCOORD_0":2
					},
					"indices":3,
					"material":0
				}
			]
		}
	],
	"textures":[
		{
			"sampler":0,
			"source":0,
			"extensions":{
				"KHR_texture_basisu":{
					"source":3
				}
			}
		},
		{
			"sampler":0,
			"source":1,
			"extensions":{
				"KHR_texture_basisu":{
					"source":4
				}
			}
		},
		{
			"sampler":0,
			"source":2,
			"extensions":{
				"KHR_texture_basisu":{
					"source":5
				}
			}
		}
	],
	"images":[
		{
			"mimeType":"image/png",
			"name":"link1_normal",
			"uri":"link1_normal.png"
		},
		{
			"mimeType":"image/png",
			"name":"link1_occlusion_roughness_metallic",
			"uri":"link1_occlusion_roughness_metallic.png"
		},
		{
			"mimeType":"image/png",
			"name":"link1_color",
			"uri":"link1_color.png"
		},
		{
			"mimeType":"image/ktx2",
			"uri":"link1_normal.ktx2"
		},
		{
			"mimeType":"image/ktx2",
			"uri":"link1_occlusion_roughness_metallic.ktx2"
		},
		{
			"mimeType":"image/ktx2",
			"uri":"link1_color.ktx2"
		}
	],
	"accessors":[
		{
			"bufferView":0,
			"componentType":5126,
			"count":6454,
			"max":[
				0.054998405277729034,
				0.05499790608882904,
				0.12920086085796356
			],
			"min":[
				-0.05499836057424545,
				-0.1930759847164154,
				-0.055000197142362595
			],
			"type":"VEC3"
		},
		{
			"bufferView":1,
			"componentType":5126,
			"count":6454,
			"type":"VEC3"
		},
		{
			"bufferView":2,
			"componentType":5126,
			"count":6454,
			"type":"VEC2"
		},
		{
			"bufferView":3,
			"componentType":5123,
			"count":28542,
			"type":"SCALAR"
		}
	],
	"bufferViews":[
		{
			"buffer":0,
			"byteLength":77448,
			"byteOffset":0,
			"target":34962
		},
		{
			"buffer":0,
			"byteLength":77448,
			"byteOffset":77448,
			"target":34962
		},
		{
			"buffer":0,
			"byteLength":51632,
			"byteOffset":154896,
			"target":34962
		},
		{
			"buffer":0,
			"byteLength":57084,
			"byteOffset":206528,
			"target":34963
		}
	],
	"samplers":[
		{
			"magFilter":9729,
			"minFilter":9987
		}
	],
	"buffers":[
		{
			"byteLength":263612,
			"uri":"link1.bin"
		}
	],
	"extensionsUsed":[
		"KHR_texture_basisu"
	]
}
