{
    "asset": {
        "version": "2.0",
        "generator": "gltfpack 0.23"
    },
    "extensionsUsed": [
        "EXT_meshopt_compression",
        "KHR_texture_basisu"
    ],
    "extensionsRequired": [
        "KHR_texture_basisu"
    ],
    "buffers": [
        {
            "uri": "link2.bin",
            "byteLength": 159412
        },
        {
            "uri": "link2.fallback.bin",
            "byteLength": 260812,
            "extensions": {
                "EXT_meshopt_compression": {
                    "fallback": true
                }
            }
        }
    ],
    "bufferViews": [
        {
            "buffer": 1,
            "byteOffset": 0,
            "byteLength": 76560,
            "byteStride": 12,
            "target": 34962,
            "extensions": {
                "EXT_meshopt_compression": {
                    "buffer": 0,
                    "byteOffset": 0,
                    "byteLength": 55349,
                    "byteStride": 12,
                    "mode": "ATTRIBUTES",
                    "count": 6380
                }
            }
        },
        {
            "buffer": 1,
            "byteOffset": 76560,
            "byteLength": 76560,
            "byteStride": 12,
            "target": 34962,
            "extensions": {
                "EXT_meshopt_compression": {
                    "buffer": 0,
                    "byteOffset": 55352,
                    "byteLength": 60342,
                    "byteStride": 12,
                    "mode": "ATTRIBUTES",
                    "count": 6380
                }
            }
        },
        {
            "buffer": 1,
            "byteOffset": 153120,
            "byteLength": 51040,
            "byteStride": 8,
            "target": 34962,
            "extensions": {
                "EXT_meshopt_compression": {
                    "buffer": 0,
                    "byteOffset": 115696,
                    "byteLength": 33263,
                    "byteStride": 8,
                    "mode": "ATTRIBUTES",
                    "count": 6380
                }
            }
        },
        {
            "buffer": 1,
            "byteOffset": 204160,
            "byteLength": 56652,
            "target": 34963,
            "extensions": {
                "EXT_meshopt_compression": {
                    "buffer": 0,
                    "byteOffset": 148960,
                    "byteLength": 10451,
                    "byteStride": 2,
                    "mode": "TRIANGLES",
                    "count": 28326
                }
            }
        }
    ],
    "accessors": [
        {
            "bufferView": 0,
            "byteOffset": 0,
            "componentType": 5126,
            "count": 6380,
            "type": "VEC3",
            "min": [
                -0.0549983382,
                -0.0550002195,
                -0.0549978949
            ],
            "max": [
                0.0549984276,
                0.129200861,
                0.193999022
            ]
        },
        {
            "bufferView": 1,
            "byteOffset": 0,
            "componentType": 5126,
            "count": 6380,
            "type": "VEC3"
        },
        {
            "bufferView": 2,
            "byteOffset": 0,
            "componentType": 5126,
            "count": 6380,
            "type": "VEC2"
        },
        {
            "bufferView": 3,
            "byteOffset": 0,
            "componentType": 5123,
            "count": 28326,
            "type": "SCALAR"
        }
    ],
    "samplers": [
        {
            "magFilter": 9729,
            "minFilter": 9987
        }
    ],
    "images": [
        {
            "name": "link2_normal",
            "uri": "link2_normal.png"
        },
        {
            "name": "link2_occlusion_roughness_metallic",
            "uri": "link2_occlusion_roughness_metallic.png"
        },
        {
            "name": "link2_color",
            "uri": "link2_color.png"
        },
        {
            "uri": "link2_normal.ktx2"
        },
        {
            "uri": "link2_occlusion_roughness_metallic.ktx2"
        },
        {
            "uri": "link2_color.ktx2"
        }
    ],
    "textures": [
        {
            "sampler": 0,
            "source": 0,
            "extensions": {
                "KHR_texture_basisu": {
                    "source": 3
                }
            }
        },
        {
            "sampler": 0,
            "source": 1,
            "extensions": {
                "KHR_texture_basisu": {
                    "source": 4
                }
            }
        },
        {
            "sampler": 0,
            "source": 2,
            "extensions": {
                "KHR_texture_basisu": {
                    "source": 5
                }
            }
        }
    ],
    "materials": [
        {
            "name": "link_2_material",
            "pbrMetallicRoughness": {
                "baseColorTexture": {
                    "index": 2
                },
                "metallicRoughnessTexture": {
                    "index": 1
                }
            },
            "normalTexture": {
                "index": 0
            },
            "occlusionTexture": {
                "index": 1
            },
            "doubleSided": true
        }
    ],
    "meshes": [
        {
            "primitives": [
                {
                    "attributes": {
                        "POSITION": 0,
                        "NORMAL": 1,
                        "TEXCOORD_0": 2
                    },
                    "indices": 3,
                    "material": 0
                }
            ]
        }
    ],
    "nodes": [
        {
            "name": "link2",
            "mesh": 0
        }
    ],
    "scenes": [
        {
            "name": "Scene",
            "nodes": [
                0
            ]
        }
    ],
    "scene": 0
}