{
    "asset": {
        "version": "2.0",
        "generator": "gltfpack 0.23"
    },
    "extensionsUsed": [
        "EXT_meshopt_compression",
        "KHR_texture_basisu"
    ],
    "extensionsRequired": [
        "KHR_texture_basisu"
    ],
    "buffers": [
        {
            "uri": "link6.bin",
            "byteLength": 354100
        },
        {
            "uri": "link6.fallback.bin",
            "byteLength": 589336,
            "extensions": {
                "EXT_meshopt_compression": {
                    "fallback": true
                }
            }
        }
    ],
    "bufferViews": [
        {
            "buffer": 1,
            "byteOffset": 0,
            "byteLength": 171276,
            "byteStride": 12,
            "target": 34962,
            "extensions": {
                "EXT_meshopt_compression": {
                    "buffer": 0,
                    "byteOffset": 0,
                    "byteLength": 119917,
                    "byteStride": 12,
                    "mode": "ATTRIBUTES",
                    "count": 14273
                }
            }
        },
        {
            "buffer": 1,
            "byteOffset": 171276,
            "byteLength": 171276,
            "byteStride": 12,
            "target": 34962,
            "extensions": {
                "EXT_meshopt_compression": {
                    "buffer": 0,
                    "byteOffset": 119920,
                    "byteLength": 135132,
                    "byteStride": 12,
                    "mode": "ATTRIBUTES",
                    "count": 14273
                }
            }
        },
        {
            "buffer": 1,
            "byteOffset": 342552,
            "byteLength": 114184,
            "byteStride": 8,
            "target": 34962,
            "extensions": {
                "EXT_meshopt_compression": {
                    "buffer": 0,
                    "byteOffset": 255052,
                    "byteLength": 74413,
                    "byteStride": 8,
                    "mode": "ATTRIBUTES",
                    "count": 14273
                }
            }
        },
        {
            "buffer": 1,
            "byteOffset": 456736,
            "byteLength": 132600,
            "target": 34963,
            "extensions": {
                "EXT_meshopt_compression": {
                    "buffer": 0,
                    "byteOffset": 329468,
                    "byteLength": 24632,
                    "byteStride": 2,
                    "mode": "TRIANGLES",
                    "count": 66300
                }
            }
        }
    ],
    "accessors": [
        {
            "bufferView": 0,
            "byteOffset": 0,
            "componentType": 5126,
            "count": 14273,
            "type": "VEC3",
            "min": [
                -0.0480453037,
                -0.0438859984,
                -0.0816771612
            ],
            "max": [
                0.131922528,
                0.0563415103,
                0.0512016416
            ]
        },
        {
            "bufferView": 1,
            "byteOffset": 0,
            "componentType": 5126,
            "count": 14273,
            "type": "VEC3"
        },
        {
            "bufferView": 2,
            "byteOffset": 0,
            "componentType": 5126,
            "count": 14273,
            "type": "VEC2"
        },
        {
            "bufferView": 3,
            "byteOffset": 0,
            "componentType": 5123,
            "count": 66300,
            "type": "SCALAR"
        }
    ],
    "samplers": [
        {
            "magFilter": 9729,
            "minFilter": 9987
        }
    ],
    "images": [
        {
            "name": "link6_normal",
            "uri": "link6_normal.png"
        },
        {
            "name": "link6_occlusion_roughness_metallic",
            "uri": "link6_occlusion_roughness_metallic.png"
        },
        {
            "name": "link6_color",
            "uri": "link6_color.png"
        },
        {
            "uri": "link6_normal.ktx2"
        },
        {
            "uri": "link6_occlusion_roughness_metallic.ktx2"
        },
        {
            "uri": "link6_color.ktx2"
        }
    ],
    "textures": [
        {
            "sampler": 0,
            "source": 0,
            "extensions": {
                "KHR_texture_basisu": {
                    "source": 3
                }
            }
        },
        {
            "sampler": 0,
            "source": 1,
            "extensions": {
                "KHR_texture_basisu": {
                    "source": 4
                }
            }
        },
        {
            "sampler": 0,
            "source": 2,
            "extensions": {
                "KHR_texture_basisu": {
                    "source": 5
                }
            }
        }
    ],
    "materials": [
        {
            "name": "link_6_material",
            "pbrMetallicRoughness": {
                "baseColorTexture": {
                    "index": 2
                },
                "metallicRoughnessTexture": {
                    "index": 1
                }
            },
            "normalTexture": {
                "index": 0
            },
            "occlusionTexture": {
                "index": 1
            },
            "doubleSided": true
        }
    ],
    "meshes": [
        {
            "primitives": [
                {
                    "attributes": {
                        "POSITION": 0,
                        "NORMAL": 1,
                        "TEXCOORD_0": 2
                    },
                    "indices": 3,
                    "material": 0
                }
            ]
        }
    ],
    "nodes": [
        {
            "name": "link6",
            "mesh": 0
        }
    ],
    "scenes": [
        {
            "name": "Scene",
            "nodes": [
                0
            ]
        }
    ],
    "scene": 0
}