{
    "asset": {
        "version": "2.0",
        "generator": "gltfpack 0.23"
    },
    "extensionsUsed": [
        "EXT_meshopt_compression",
        "KHR_texture_basisu"
    ],
    "extensionsRequired": [
        "KHR_texture_basisu"
    ],
    "buffers": [
        {
            "uri": "link1.bin",
            "byteLength": 160580
        },
        {
            "uri": "link1.fallback.bin",
            "byteLength": 263612,
            "extensions": {
                "EXT_meshopt_compression": {
                    "fallback": true
                }
            }
        }
    ],
    "bufferViews": [
        {
            "buffer": 1,
            "byteOffset": 0,
            "byteLength": 77448,
            "byteStride": 12,
            "target": 34962,
            "extensions": {
                "EXT_meshopt_compression": {
                    "buffer": 0,
                    "byteOffset": 0,
                    "byteLength": 55809,
                    "byteStride": 12,
                    "mode": "ATTRIBUTES",
                    "count": 6454
                }
            }
        },
        {
            "buffer": 1,
            "byteOffset": 77448,
            "byteLength": 77448,
            "byteStride": 12,
            "target": 34962,
            "extensions": {
                "EXT_meshopt_compression": {
                    "buffer": 0,
                    "byteOffset": 55812,
                    "byteLength": 60477,
                    "byteStride": 12,
                    "mode": "ATTRIBUTES",
                    "count": 6454
                }
            }
        },
        {
            "buffer": 1,
            "byteOffset": 154896,
            "byteLength": 51632,
            "byteStride": 8,
            "target": 34962,
            "extensions": {
                "EXT_meshopt_compression": {
                    "buffer": 0,
                    "byteOffset": 116292,
                    "byteLength": 33773,
                    "byteStride": 8,
                    "mode": "ATTRIBUTES",
                    "count": 6454
                }
            }
        },
        {
            "buffer": 1,
            "byteOffset": 206528,
            "byteLength": 57084,
            "target": 34963,
            "extensions": {
                "EXT_meshopt_compression": {
                    "buffer": 0,
                    "byteOffset": 150068,
                    "byteLength": 10512,
                    "byteStride": 2,
                    "mode": "TRIANGLES",
                    "count": 28542
                }
            }
        }
    ],
    "accessors": [
        {
            "bufferView": 0,
            "byteOffset": 0,
            "componentType": 5126,
            "count": 6454,
            "type": "VEC3",
            "min": [
                -0.0549983606,
                -0.193075985,
                -0.0550001971
            ],
            "max": [
                0.0549984053,
                0.0549979061,
                0.129200861
            ]
        },
        {
            "bufferView": 1,
            "byteOffset": 0,
            "componentType": 5126,
            "count": 6454,
            "type": "VEC3"
        },
        {
            "bufferView": 2,
            "byteOffset": 0,
            "componentType": 5126,
            "count": 6454,
            "type": "VEC2"
        },
        {
            "bufferView": 3,
            "byteOffset": 0,
            "componentType": 5123,
            "count": 28542,
            "type": "SCALAR"
        }
    ],
    "samplers": [
        {
            "magFilter": 9729,
            "minFilter": 9987
        }
    ],
    "images": [
        {
            "name": "link1_normal",
            "uri": "link1_normal.png"
        },
        {
            "name": "link1_occlusion_roughness_metallic",
            "uri": "link1_occlusion_roughness_metallic.png"
        },
        {
            "name": "link1_color",
            "uri": "link1_color.png"
        },
        {
            "uri": "link1_normal.ktx2"
        },
        {
            "uri": "link1_occlusion_roughness_metallic.ktx2"
        },
        {
            "uri": "link1_color.ktx2"
        }
    ],
    "textures": [
        {
            "sampler": 0,
            "source": 0,
            "extensions": {
                "KHR_texture_basisu": {
                    "source": 3
                }
            }
        },
        {
            "sampler": 0,
            "source": 1,
            "extensions": {
                "KHR_texture_basisu": {
                    "source": 4
                }
            }
        },
        {
            "sampler": 0,
            "source": 2,
            "extensions": {
                "KHR_texture_basisu": {
                    "source": 5
                }
            }
        }
    ],
    "materials": [
        {
            "name": "link_1_material",
            "pbrMetallicRoughness": {
                "baseColorTexture": {
                    "index": 2
                },
                "metallicRoughnessTexture": {
                    "index": 1
                }
            },
            "normalTexture": {
                "index": 0
            },
            "occlusionTexture": {
                "index": 1
            },
            "doubleSided": true
        }
    ],
    "meshes": [
        {
            "primitives": [
                {
                    "attributes": {
                        "POSITION": 0,
                        "NORMAL": 1,
                        "TEXCOORD_0": 2
                    },
                    "indices": 3,
                    "material": 0
                }
            ]
        }
    ],
    "nodes": [
        {
            "name": "link1",
            "mesh": 0
        }
    ],
    "scenes": [
        {
            "name": "Scene",
            "nodes": [
                0
            ]
        }
    ],
    "scene": 0
}