{
  "accessors": [
    {
      "name": "node0_1_0_positions",
      "componentType": 5126,
      "count": 44350,
      "min": [
        -0.055007100105285645,
        -0.1299349069595337,
        -0.047895997762680054
      ],
      "max": [
        0.05498921126127243,
        0.054995231330394745,
        0.2590000033378601
      ],
      "type": "VEC3",
      "bufferView": 0,
      "byteOffset": 0
    },
    {
      "name": "node0_1_0_normals",
      "componentType": 5126,
      "count": 44350,
      "min": [
        -0.9999991655349731,
        -0.9998318552970886,
        -0.9999326467514038
      ],
      "max": [
        0.9999996423721313,
        1,
        1
      ],
      "type": "VEC3",
      "bufferView": 1,
      "byteOffset": 0
    },
    {
      "name": "node0_1_0_indices",
      "componentType": 5123,
      "count": 44472,
      "min": [
        0
      ],
      "max": [
        44349
      ],
      "type": "SCALAR",
      "bufferView": 2,
      "byteOffset": 0
    },
    {
      "name": "node1_1_0_positions",
      "componentType": 5126,
      "count": 750,
      "min": [
        -0.015460249967873096,
        -0.1074230968952179,
        0.09189650416374207
      ],
      "max": [
        -0.0029962060507386923,
        -0.09891349077224731,
        0.13418740034103394
      ],
      "type": "VEC3",
      "bufferView": 0,
      "byteOffset": 532200
    },
    {
      "name": "node1_1_0_normals",
      "componentType": 5126,
      "count": 750,
      "min": [
        -0.17630510032176971,
        -0.982715368270874,
        0.16515949368476868
      ],
      "max": [
        -0.07643453776836395,
        -0.9691271781921387,
        0.19044768810272217
      ],
      "type": "VEC3",
      "bufferView": 1,
      "byteOffset": 532200
    },
    {
      "name": "node1_1_0_indices",
      "componentType": 5123,
      "count": 750,
      "min": [
        0
      ],
      "max": [
        749
      ],
      "type": "SCALAR",
      "bufferView": 2,
      "byteOffset": 88944
    },
    {
      "name": "node2_1_0_positions",
      "componentType": 5126,
      "count": 9759,
      "min": [
        -0.050411880016326904,
        -0.1257963925600052,
        -0.052198708057403564
      ],
      "max": [
        0.05040073022246361,
        -0.06579548120498657,
        0.2125401496887207
      ],
      "type": "VEC3",
      "bufferView": 0,
      "byteOffset": 541200
    },
    {
      "name": "node2_1_0_normals",
      "componentType": 5126,
      "count": 9759,
      "min": [
        -0.9999995827674866,
        -0.9927589297294617,
        -0.9960585236549377
      ],
      "max": [
        0.9999997615814209,
        0.9999992847442627,
        0.9858152866363525
      ],
      "type": "VEC3",
      "bufferView": 1,
      "byteOffset": 541200
    },
    {
      "name": "node2_1_0_indices",
      "componentType": 5123,
      "count": 9759,
      "min": [
        0
      ],
      "max": [
        9758
      ],
      "type": "SCALAR",
      "bufferView": 2,
      "byteOffset": 90444
    }
  ],
  "asset": {
    "generator": "obj2gltf",
    "version": "2.0"
  },
  "buffers": [
    {
      "name": "link5",
      "byteLength": 1426580,
      "uri": "link5.bin"
    }
  ],
  "bufferViews": [
    {
      "name": "bufferView_0",
      "buffer": 0,
      "byteLength": 658308,
      "byteOffset": 0,
      "byteStride": 12,
      "target": 34962
    },
    {
      "name": "bufferView_1",
      "buffer": 0,
      "byteLength": 658308,
      "byteOffset": 658308,
      "byteStride": 12,
      "target": 34962
    },
    {
      "name": "bufferView_2",
      "buffer": 0,
      "byteLength": 109964,
      "byteOffset": 1316616,
      "target": 34963
    }
  ],
  "materials": [
    {
      "name": "Part__Feature_002_004_003",
      "pbrMetallicRoughness": {
        "baseColorFactor": [
          1,
          1,
          1,
          1
        ],
        "metallicFactor": 0,
        "roughnessFactor": 0.96875
      },
      "emissiveFactor": [
        0,
        0,
        0
      ],
      "alphaMode": "OPAQUE",
      "doubleSided": false
    },
    {
      "name": "Shell_001_001_003",
      "pbrMetallicRoughness": {
        "baseColorFactor": [
          1,
          1,
          1,
          1
        ],
        "metallicFactor": 0,
        "roughnessFactor": 0.96875
      },
      "emissiveFactor": [
        0,
        0,
        0
      ],
      "alphaMode": "OPAQUE",
      "doubleSided": false
    },
    {
      "name": "Shell001_001_001_003",
      "pbrMetallicRoughness": {
        "baseColorFactor": [
          0.25,
          0.25,
          0.25,
          1
        ],
        "metallicFactor": 0,
        "roughnessFactor": 0.96875
      },
      "emissiveFactor": [
        0,
        0,
        0
      ],
      "alphaMode": "OPAQUE",
      "doubleSided": false
    }
  ],
  "meshes": [
    {
      "name": "node0_1",
      "primitives": [
        {
          "attributes": {
            "POSITION": 0,
            "NORMAL": 1
          },
          "indices": 2,
          "material": 0,
          "mode": 4
        }
      ]
    },
    {
      "name": "node1_1",
      "primitives": [
        {
          "attributes": {
            "POSITION": 3,
            "NORMAL": 4
          },
          "indices": 5,
          "material": 1,
          "mode": 4
        }
      ]
    },
    {
      "name": "node2_1",
      "primitives": [
        {
          "attributes": {
            "POSITION": 6,
            "NORMAL": 7
          },
          "indices": 8,
          "material": 2,
          "mode": 4
        }
      ]
    }
  ],
  "nodes": [
    {
      "name": "node0",
      "mesh": 0
    },
    {
      "name": "node1",
      "mesh": 1
    },
    {
      "name": "node2",
      "mesh": 2
    }
  ],
  "scene": 0,
  "scenes": [
    {
      "nodes": [
        0,
        1,
        2
      ]
    }
  ]
}
