{
	"asset":{
		"generator":"Khronos glTF Blender I/O v4.0.44",
		"version":"2.0"
	},
	"scene":0,
	"scenes":[
		{
			"name":"Scene",
			"nodes":[
				0
			]
		}
	],
	"nodes":[
		{
			"mesh":0,
			"name":"link6"
		}
	],
	"materials":[
		{
			"doubleSided":true,
			"name":"link_6_material",
			"normalTexture":{
				"index":0
			},
			"occlusionTexture":{
				"index":1
			},
			"pbrMetallicRoughness":{
				"baseColorTexture":{
					"index":2
				},
				"metallicRoughnessTexture":{
					"index":1
				}
			}
		}
	],
	"meshes":[
		{
			"name":"link6",
			"primitives":[
				{
					"attributes":{
						"POSITION":0,
						"NORMAL":1,
						"TEXCOORD_0":2
					},
					"indices":3,
					"material":0
				}
			]
		}
	],
	"textures":[
		{
			"sampler":0,
			"source":0,
			"extensions":{
				"KHR_texture_basisu":{
					"source":3
				}
			}
		},
		{
			"sampler":0,
			"source":1,
			"extensions":{
				"KHR_texture_basisu":{
					"source":4
				}
			}
		},
		{
			"sampler":0,
			"source":2,
			"extensions":{
				"KHR_texture_basisu":{
					"source":5
				}
			}
		}
	],
	"images":[
		{
			"mimeType":"image/png",
			"name":"link6_normal",
			"uri":"link6_normal.png"
		},
		{
			"mimeType":"image/png",
			"name":"link6_occlusion_roughness_metallic",
			"uri":"link6_occlusion_roughness_metallic.png"
		},
		{
			"mimeType":"image/png",
			"name":"link6_color",
			"uri":"link6_color.png"
		},
		{
			"mimeType":"image/ktx2",
			"uri":"link6_normal.ktx2"
		},
		{
			"mimeType":"image/ktx2",
			"uri":"link6_occlusion_roughness_metallic.ktx2"
		},
		{
			"mimeType":"image/ktx2",
			"uri":"link6_color.ktx2"
		}
	],
	"accessors":[
		{
			"bufferView":0,
			"componentType":5126,
			"count":14273,
			"max":[
				0.13192252814769745,
				0.0563415102660656,
				0.05120164155960083
			],
			"min":[
				-0.04804530367255211,
				-0.04388599842786789,
				-0.0816771611571312
			],
			"type":"VEC3"
		},
		{
			"bufferView":1,
			"componentType":5126,
			"count":14273,
			"type":"VEC3"
		},
		{
			"bufferView":2,
			"componentType":5126,
			"count":14273,
			"type":"VEC2"
		},
		{
			"bufferView":3,
			"componentType":5123,
			"count":66300,
			"type":"SCALAR"
		}
	],
	"bufferViews":[
		{
			"buffer":0,
			"byteLength":171276,
			"byteOffset":0,
			"target":34962
		},
		{
			"buffer":0,
			"byteLength":171276,
			"byteOffset":171276,
			"target":34962
		},
		{
			"buffer":0,
			"byteLength":114184,
			"byteOffset":342552,
			"target":34962
		},
		{
			"buffer":0,
			"byteLength":132600,
			"byteOffset":456736,
			"target":34963
		}
	],
	"samplers":[
		{
			"magFilter":9729,
			"minFilter":9987
		}
	],
	"buffers":[
		{
			"byteLength":589336,
			"uri":"link6.bin"
		}
	],
	"extensionsUsed":[
		"KHR_texture_basisu"
	]
}
