{
    "asset": {
        "version": "2.0",
        "generator": "gltfpack 0.23"
    },
    "extensionsUsed": [
        "EXT_meshopt_compression"
    ],
    "buffers": [
        {
            "uri": "evo_bowl.bin",
            "byteLength": 86344
        },
        {
            "uri": "evo_bowl.fallback.bin",
            "byteLength": 142428,
            "extensions": {
                "EXT_meshopt_compression": {
                    "fallback": true
                }
            }
        }
    ],
    "bufferViews": [
        {
            "buffer": 1,
            "byteOffset": 0,
            "byteLength": 47484,
            "byteStride": 12,
            "target": 34962,
            "extensions": {
                "EXT_meshopt_compression": {
                    "buffer": 0,
                    "byteOffset": 0,
                    "byteLength": 37262,
                    "byteStride": 12,
                    "mode": "ATTRIBUTES",
                    "count": 3957
                }
            }
        },
        {
            "buffer": 1,
            "byteOffset": 47484,
            "byteLength": 47484,
            "byteStride": 12,
            "target": 34962,
            "extensions": {
                "EXT_meshopt_compression": {
                    "buffer": 0,
                    "byteOffset": 37264,
                    "byteLength": 39510,
                    "byteStride": 12,
                    "mode": "ATTRIBUTES",
                    "count": 3957
                }
            }
        },
        {
            "buffer": 1,
            "byteOffset": 94968,
            "byteLength": 47460,
            "target": 34963,
            "extensions": {
                "EXT_meshopt_compression": {
                    "buffer": 0,
                    "byteOffset": 76776,
                    "byteLength": 9567,
                    "byteStride": 2,
                    "mode": "TRIANGLES",
                    "count": 23730
                }
            }
        }
    ],
    "accessors": [
        {
            "bufferView": 0,
            "byteOffset": 0,
            "componentType": 5126,
            "count": 3957,
            "type": "VEC3",
            "min": [
                -0.0734239966,
                -0.0306299999,
                -0.0734300017
            ],
            "max": [
                0.0734239966,
                0.0306299999,
                0.0734300017
            ]
        },
        {
            "bufferView": 1,
            "byteOffset": 0,
            "componentType": 5126,
            "count": 3957,
            "type": "VEC3"
        },
        {
            "bufferView": 2,
            "byteOffset": 0,
            "componentType": 5123,
            "count": 23730,
            "type": "SCALAR"
        }
    ],
    "materials": [
        {
            "name": "default",
            "pbrMetallicRoughness": {
                "baseColorFactor": [
                    0.449999988,
                    0.400000006,
                    0.349999994,
                    0.5
                ],
                "metallicFactor": 0
            },
            "alphaMode": "BLEND",
            "doubleSided": true
        }
    ],
    "meshes": [
        {
            "primitives": [
                {
                    "attributes": {
                        "POSITION": 0,
                        "NORMAL": 1
                    },
                    "indices": 2,
                    "material": 0
                }
            ]
        }
    ],
    "nodes": [
        {
            "name": "polySurface4",
            "mesh": 0
        }
    ],
    "scenes": [
        {
            "nodes": [
                0
            ]
        }
    ],
    "scene": 0
}