{
    "asset": {
        "version": "2.0",
        "generator": "gltfpack 0.23"
    },
    "extensionsUsed": [
        "EXT_meshopt_compression"
    ],
    "buffers": [
        {
            "uri": "plate_8in.bin",
            "byteLength": 13328
        },
        {
            "uri": "plate_8in.fallback.bin",
            "byteLength": 20784,
            "extensions": {
                "EXT_meshopt_compression": {
                    "fallback": true
                }
            }
        }
    ],
    "bufferViews": [
        {
            "buffer": 1,
            "byteOffset": 0,
            "byteLength": 7704,
            "byteStride": 12,
            "target": 34962,
            "extensions": {
                "EXT_meshopt_compression": {
                    "buffer": 0,
                    "byteOffset": 0,
                    "byteLength": 6259,
                    "byteStride": 12,
                    "mode": "ATTRIBUTES",
                    "count": 642
                }
            }
        },
        {
            "buffer": 1,
            "byteOffset": 7704,
            "byteLength": 7704,
            "byteStride": 12,
            "target": 34962,
            "extensions": {
                "EXT_meshopt_compression": {
                    "buffer": 0,
                    "byteOffset": 6260,
                    "byteLength": 6071,
                    "byteStride": 12,
                    "mode": "ATTRIBUTES",
                    "count": 642
                }
            }
        },
        {
            "buffer": 1,
            "byteOffset": 15408,
            "byteLength": 5376,
            "target": 34963,
            "extensions": {
                "EXT_meshopt_compression": {
                    "buffer": 0,
                    "byteOffset": 12332,
                    "byteLength": 993,
                    "byteStride": 2,
                    "mode": "TRIANGLES",
                    "count": 2688
                }
            }
        }
    ],
    "accessors": [
        {
            "bufferView": 0,
            "byteOffset": 0,
            "componentType": 5126,
            "count": 642,
            "type": "VEC3",
            "min": [
                -0.0981049985,
                0.000207999998,
                -0.0981049985
            ],
            "max": [
                0.0981049985,
                0.0179680008,
                0.0981049985
            ]
        },
        {
            "bufferView": 1,
            "byteOffset": 0,
            "componentType": 5126,
            "count": 642,
            "type": "VEC3"
        },
        {
            "bufferView": 2,
            "byteOffset": 0,
            "componentType": 5123,
            "count": 2688,
            "type": "SCALAR"
        }
    ],
    "materials": [
        {
            "name": "plate_8in_material",
            "pbrMetallicRoughness": {
                "baseColorFactor": [
                    0.449999988,
                    0.449999988,
                    0.449999988,
                    0.800000012
                ],
                "metallicFactor": 0
            },
            "alphaMode": "BLEND",
            "doubleSided": true
        }
    ],
    "meshes": [
        {
            "primitives": [
                {
                    "attributes": {
                        "POSITION": 0,
                        "NORMAL": 1
                    },
                    "indices": 2,
                    "material": 0
                }
            ]
        }
    ],
    "nodes": [
        {
            "name": "plate_8in_col_concave_Vert.026",
            "mesh": 0
        }
    ],
    "scenes": [
        {
            "nodes": [
                0
            ]
        }
    ],
    "scene": 0
}