{
    "asset": {
        "version": "2.0",
        "generator": "gltfpack 0.23"
    },
    "extensionsUsed": [
        "EXT_meshopt_compression"
    ],
    "buffers": [
        {
            "uri": "l_finger.bin",
            "byteLength": 11672
        },
        {
            "uri": "l_finger.fallback.bin",
            "byteLength": 22952,
            "extensions": {
                "EXT_meshopt_compression": {
                    "fallback": true
                }
            }
        }
    ],
    "bufferViews": [
        {
            "buffer": 1,
            "byteOffset": 0,
            "byteLength": 11772,
            "byteStride": 12,
            "target": 34962,
            "extensions": {
                "EXT_meshopt_compression": {
                    "buffer": 0,
                    "byteOffset": 0,
                    "byteLength": 9378,
                    "byteStride": 12,
                    "mode": "ATTRIBUTES",
                    "count": 981
                }
            }
        },
        {
            "buffer": 1,
            "byteOffset": 11772,
            "byteLength": 11178,
            "target": 34963,
            "extensions": {
                "EXT_meshopt_compression": {
                    "buffer": 0,
                    "byteOffset": 9380,
                    "byteLength": 2289,
                    "byteStride": 2,
                    "mode": "TRIANGLES",
                    "count": 5589
                }
            }
        }
    ],
    "accessors": [
        {
            "bufferView": 0,
            "byteOffset": 0,
            "componentType": 5126,
            "count": 981,
            "type": "VEC3",
            "min": [
                -0.00917389244,
                -0.0277501103,
                -0.0457731709
            ],
            "max": [
                0.0953983068,
                0.0277522746,
                0.00898181181
            ]
        },
        {
            "bufferView": 1,
            "byteOffset": 0,
            "componentType": 5123,
            "count": 5589,
            "type": "SCALAR"
        }
    ],
    "materials": [
        {
            "name": "default",
            "pbrMetallicRoughness": {
                "baseColorFactor": [
                    0.300000012,
                    0.300000012,
                    0.300000012,
                    1
                ],
                "metallicFactor": 0
            }
        }
    ],
    "meshes": [
        {
            "primitives": [
                {
                    "attributes": {
                        "POSITION": 0
                    },
                    "indices": 1,
                    "material": 0
                }
            ]
        }
    ],
    "nodes": [
        {
            "name": "Node",
            "mesh": 0
        }
    ],
    "scenes": [
        {
            "nodes": [
                0
            ]
        }
    ],
    "scene": 0
}