{
    "asset": {
        "version": "2.0",
        "generator": "gltfpack 0.23"
    },
    "extensionsUsed": [
        "EXT_meshopt_compression"
    ],
    "buffers": [
        {
            "uri": "l_finger_tip.bin",
            "byteLength": 6188
        },
        {
            "uri": "l_finger_tip.fallback.bin",
            "byteLength": 12012,
            "extensions": {
                "EXT_meshopt_compression": {
                    "fallback": true
                }
            }
        }
    ],
    "bufferViews": [
        {
            "buffer": 1,
            "byteOffset": 0,
            "byteLength": 6024,
            "byteStride": 12,
            "target": 34962,
            "extensions": {
                "EXT_meshopt_compression": {
                    "buffer": 0,
                    "byteOffset": 0,
                    "byteLength": 4954,
                    "byteStride": 12,
                    "mode": "ATTRIBUTES",
                    "count": 502
                }
            }
        },
        {
            "buffer": 1,
            "byteOffset": 6024,
            "byteLength": 5988,
            "target": 34963,
            "extensions": {
                "EXT_meshopt_compression": {
                    "buffer": 0,
                    "byteOffset": 4956,
                    "byteLength": 1229,
                    "byteStride": 2,
                    "mode": "TRIANGLES",
                    "count": 2994
                }
            }
        }
    ],
    "accessors": [
        {
            "bufferView": 0,
            "byteOffset": 0,
            "componentType": 5126,
            "count": 502,
            "type": "VEC3",
            "min": [
                -0.0255980957,
                -0.0114827827,
                -0.0288008731
            ],
            "max": [
                0.0312243979,
                0.0114866039,
                0.0159407593
            ]
        },
        {
            "bufferView": 1,
            "byteOffset": 0,
            "componentType": 5123,
            "count": 2994,
            "type": "SCALAR"
        }
    ],
    "materials": [
        {
            "name": "default",
            "pbrMetallicRoughness": {
                "baseColorFactor": [
                    0,
                    0.5,
                    0,
                    1
                ],
                "metallicFactor": 0
            }
        }
    ],
    "meshes": [
        {
            "primitives": [
                {
                    "attributes": {
                        "POSITION": 0
                    },
                    "indices": 1,
                    "material": 0
                }
            ]
        }
    ],
    "nodes": [
        {
            "name": "Node",
            "mesh": 0
        }
    ],
    "scenes": [
        {
            "nodes": [
                0
            ]
        }
    ],
    "scene": 0
}