{
	"asset":{
		"generator":"Khronos glTF Blender I/O v4.4.55",
		"version":"2.0"
	},
	"scene":0,
	"scenes":[
		{
			"name":"Scene",
			"nodes":[
				0,
				1,
				2,
				3,
				4,
				5,
				6,
				7
			]
		}
	],
	"nodes":[
		{
			"mesh":0,
			"name":"tea_set_01_cup_small_01",
			"translation":[
				0.11847242712974548,
				0.0032671522349119186,
				-0.12065095454454422
			]
		},
		{
			"mesh":1,
			"name":"tea_set_01_saucer_circular_03",
			"translation":[
				0.15360921621322632,
				0,
				0.07691740989685059
			]
		},
		{
			"mesh":2,
			"name":"tea_set_01_sugar_cup_01",
			"translation":[
				-0.07765820622444153,
				0,
				0.031537435948848724
			]
		},
		{
			"mesh":3,
			"name":"tea_set_01_teapot_01",
			"rotation":[
				0,
				0.43547913432121277,
				0,
				0.9001988172531128
			],
			"translation":[
				-0.11538206785917282,
				0,
				-0.14731650054454803
			]
		},
		{
			"mesh":4,
			"name":"tea_set_01_cup_small_02",
			"rotation":[
				0,
				-0.7925952076911926,
				0,
				0.6097481846809387
			],
			"translation":[
				0.15438970923423767,
				0.0032671522349119186,
				0.07561144232749939
			]
		},
		{
			"mesh":5,
			"name":"tea_set_01_saucer_circular_04",
			"translation":[
				0.11769196391105652,
				0,
				-0.12090588361024857
			]
		},
		{
			"mesh":6,
			"name":"tea_set_01_sugar_cup_01_lid",
			"translation":[
				-0.07765820622444153,
				0.0003039799630641937,
				0.031537435948848724
			]
		},
		{
			"mesh":7,
			"name":"tea_set_01_teapot_01_lid",
			"rotation":[
				0,
				0.43547913432121277,
				0,
				0.9001988172531128
			],
			"translation":[
				-0.11538206785917282,
				0.0015413056826218963,
				-0.14731650054454803
			]
		}
	],
	"materials":[
		{
			"doubleSided":true,
			"name":"tea_set_01",
			"normalTexture":{
				"index":0
			},
			"pbrMetallicRoughness":{
				"baseColorTexture":{
					"index":1
				},
				"metallicRoughnessTexture":{
					"index":2
				}
			}
		}
	],
	"meshes":[
		{
			"name":"Circle.012",
			"primitives":[
				{
					"attributes":{
						"POSITION":0,
						"NORMAL":1,
						"TEXCOORD_0":2
					},
					"indices":3,
					"material":0
				}
			]
		},
		{
			"name":"Circle.022",
			"primitives":[
				{
					"attributes":{
						"POSITION":4,
						"NORMAL":5,
						"TEXCOORD_0":6
					},
					"indices":7,
					"material":0
				}
			]
		},
		{
			"name":"Circle.027",
			"primitives":[
				{
					"attributes":{
						"POSITION":8,
						"NORMAL":9,
						"TEXCOORD_0":10
					},
					"indices":11,
					"material":0
				}
			]
		},
		{
			"name":"Circle.001",
			"primitives":[
				{
					"attributes":{
						"POSITION":12,
						"NORMAL":13,
						"TEXCOORD_0":14
					},
					"indices":15,
					"material":0
				}
			]
		},
		{
			"name":"Circle.003",
			"primitives":[
				{
					"attributes":{
						"POSITION":16,
						"NORMAL":17,
						"TEXCOORD_0":18
					},
					"indices":19,
					"material":0
				}
			]
		},
		{
			"name":"Circle.002",
			"primitives":[
				{
					"attributes":{
						"POSITION":20,
						"NORMAL":21,
						"TEXCOORD_0":22
					},
					"indices":23,
					"material":0
				}
			]
		},
		{
			"name":"Circle.004",
			"primitives":[
				{
					"attributes":{
						"POSITION":24,
						"NORMAL":25,
						"TEXCOORD_0":26
					},
					"indices":27,
					"material":0
				}
			]
		},
		{
			"name":"Circle.005",
			"primitives":[
				{
					"attributes":{
						"POSITION":28,
						"NORMAL":29,
						"TEXCOORD_0":30
					},
					"indices":31,
					"material":0
				}
			]
		}
	],
	"textures":[
		{
			"sampler":0,
			"source":0
		},
		{
			"sampler":0,
			"source":1
		},
		{
			"sampler":0,
			"source":2
		}
	],
	"images":[
		{
			"mimeType":"image/jpeg",
			"name":"tea_set_01_nor_gl_1k",
			"uri":"textures/tea_set_01_nor_gl_1k.jpg"
		},
		{
			"mimeType":"image/jpeg",
			"name":"tea_set_01_diff_1k",
			"uri":"textures/tea_set_01_diff_1k.jpg"
		},
		{
			"mimeType":"image/jpeg",
			"name":"tea_set_01_arm_1k",
			"uri":"textures/tea_set_01_arm_1k.jpg"
		}
	],
	"accessors":[
		{
			"bufferView":0,
			"componentType":5126,
			"count":2328,
			"max":[
				0.05345918610692024,
				0.0697360709309578,
				0.053459182381629944
			],
			"min":[
				-0.05345918610692024,
				0.002385602565482259,
				-0.07950614392757416
			],
			"type":"VEC3"
		},
		{
			"bufferView":1,
			"componentType":5126,
			"count":2328,
			"type":"VEC3"
		},
		{
			"bufferView":2,
			"componentType":5126,
			"count":2328,
			"type":"VEC2"
		},
		{
			"bufferView":3,
			"componentType":5123,
			"count":12468,
			"type":"SCALAR"
		},
		{
			"bufferView":4,
			"componentType":5126,
			"count":1490,
			"max":[
				0.07447617501020432,
				0.015210483223199844,
				0.0744762048125267
			],
			"min":[
				-0.0744761973619461,
				-0.0007006535306572914,
				-0.0744762048125267
			],
			"type":"VEC3"
		},
		{
			"bufferView":5,
			"componentType":5126,
			"count":1490,
			"type":"VEC3"
		},
		{
			"bufferView":6,
			"componentType":5126,
			"count":1490,
			"type":"VEC2"
		},
		{
			"bufferView":7,
			"componentType":5123,
			"count":8640,
			"type":"SCALAR"
		},
		{
			"bufferView":8,
			"componentType":5126,
			"count":2926,
			"max":[
				0.0508304201066494,
				0.06985670328140259,
				0.07091706991195679
			],
			"min":[
				-0.0508304126560688,
				0.002385602565482259,
				-0.07091706991195679
			],
			"type":"VEC3"
		},
		{
			"bufferView":9,
			"componentType":5126,
			"count":2926,
			"type":"VEC3"
		},
		{
			"bufferView":10,
			"componentType":5126,
			"count":2926,
			"type":"VEC2"
		},
		{
			"bufferView":11,
			"componentType":5123,
			"count":15552,
			"type":"SCALAR"
		},
		{
			"bufferView":12,
			"componentType":5126,
			"count":4697,
			"max":[
				0.08237607032060623,
				0.12179280817508698,
				0.13891728222370148
			],
			"min":[
				-0.08237607032060623,
				-0.00018621094932314008,
				-0.128876730799675
			],
			"type":"VEC3"
		},
		{
			"bufferView":13,
			"componentType":5126,
			"count":4697,
			"type":"VEC3"
		},
		{
			"bufferView":14,
			"componentType":5126,
			"count":4697,
			"type":"VEC2"
		},
		{
			"bufferView":15,
			"componentType":5123,
			"count":25296,
			"type":"SCALAR"
		},
		{
			"bufferView":16,
			"componentType":5126,
			"count":2328,
			"max":[
				0.05345918610692024,
				0.0697360709309578,
				0.053459182381629944
			],
			"min":[
				-0.05345918610692024,
				0.002385602565482259,
				-0.07950614392757416
			],
			"type":"VEC3"
		},
		{
			"bufferView":17,
			"componentType":5126,
			"count":2328,
			"type":"VEC3"
		},
		{
			"bufferView":18,
			"componentType":5126,
			"count":2328,
			"type":"VEC2"
		},
		{
			"bufferView":19,
			"componentType":5123,
			"count":12468,
			"type":"SCALAR"
		},
		{
			"bufferView":20,
			"componentType":5126,
			"count":1490,
			"max":[
				0.07447617501020432,
				0.015210483223199844,
				0.0744762048125267
			],
			"min":[
				-0.0744761973619461,
				-0.0007006535306572914,
				-0.0744762048125267
			],
			"type":"VEC3"
		},
		{
			"bufferView":21,
			"componentType":5126,
			"count":1490,
			"type":"VEC3"
		},
		{
			"bufferView":22,
			"componentType":5126,
			"count":1490,
			"type":"VEC2"
		},
		{
			"bufferView":23,
			"componentType":5123,
			"count":8640,
			"type":"SCALAR"
		},
		{
			"bufferView":24,
			"componentType":5126,
			"count":1385,
			"max":[
				0.048947423696517944,
				0.10231786966323853,
				0.04894748330116272
			],
			"min":[
				-0.04894746094942093,
				0.06854259967803955,
				-0.04894740879535675
			],
			"type":"VEC3"
		},
		{
			"bufferView":25,
			"componentType":5126,
			"count":1385,
			"type":"VEC3"
		},
		{
			"bufferView":26,
			"componentType":5126,
			"count":1385,
			"type":"VEC2"
		},
		{
			"bufferView":27,
			"componentType":5123,
			"count":7680,
			"type":"SCALAR"
		},
		{
			"bufferView":28,
			"componentType":5126,
			"count":1963,
			"max":[
				0.06268994510173798,
				0.16261917352676392,
				0.06098145246505737
			],
			"min":[
				-0.06268994510173798,
				0.11304481327533722,
				-0.06439840793609619
			],
			"type":"VEC3"
		},
		{
			"bufferView":29,
			"componentType":5126,
			"count":1963,
			"type":"VEC3"
		},
		{
			"bufferView":30,
			"componentType":5126,
			"count":1963,
			"type":"VEC2"
		},
		{
			"bufferView":31,
			"componentType":5123,
			"count":11136,
			"type":"SCALAR"
		}
	],
	"bufferViews":[
		{
			"buffer":0,
			"byteLength":27936,
			"byteOffset":0,
			"target":34962
		},
		{
			"buffer":0,
			"byteLength":27936,
			"byteOffset":27936,
			"target":34962
		},
		{
			"buffer":0,
			"byteLength":18624,
			"byteOffset":55872,
			"target":34962
		},
		{
			"buffer":0,
			"byteLength":24936,
			"byteOffset":74496,
			"target":34963
		},
		{
			"buffer":0,
			"byteLength":17880,
			"byteOffset":99432,
			"target":34962
		},
		{
			"buffer":0,
			"byteLength":17880,
			"byteOffset":117312,
			"target":34962
		},
		{
			"buffer":0,
			"byteLength":11920,
			"byteOffset":135192,
			"target":34962
		},
		{
			"buffer":0,
			"byteLength":17280,
			"byteOffset":147112,
			"target":34963
		},
		{
			"buffer":0,
			"byteLength":35112,
			"byteOffset":164392,
			"target":34962
		},
		{
			"buffer":0,
			"byteLength":35112,
			"byteOffset":199504,
			"target":34962
		},
		{
			"buffer":0,
			"byteLength":23408,
			"byteOffset":234616,
			"target":34962
		},
		{
			"buffer":0,
			"byteLength":31104,
			"byteOffset":258024,
			"target":34963
		},
		{
			"buffer":0,
			"byteLength":56364,
			"byteOffset":289128,
			"target":34962
		},
		{
			"buffer":0,
			"byteLength":56364,
			"byteOffset":345492,
			"target":34962
		},
		{
			"buffer":0,
			"byteLength":37576,
			"byteOffset":401856,
			"target":34962
		},
		{
			"buffer":0,
			"byteLength":50592,
			"byteOffset":439432,
			"target":34963
		},
		{
			"buffer":0,
			"byteLength":27936,
			"byteOffset":490024,
			"target":34962
		},
		{
			"buffer":0,
			"byteLength":27936,
			"byteOffset":517960,
			"target":34962
		},
		{
			"buffer":0,
			"byteLength":18624,
			"byteOffset":545896,
			"target":34962
		},
		{
			"buffer":0,
			"byteLength":24936,
			"byteOffset":564520,
			"target":34963
		},
		{
			"buffer":0,
			"byteLength":17880,
			"byteOffset":589456,
			"target":34962
		},
		{
			"buffer":0,
			"byteLength":17880,
			"byteOffset":607336,
			"target":34962
		},
		{
			"buffer":0,
			"byteLength":11920,
			"byteOffset":625216,
			"target":34962
		},
		{
			"buffer":0,
			"byteLength":17280,
			"byteOffset":637136,
			"target":34963
		},
		{
			"buffer":0,
			"byteLength":16620,
			"byteOffset":654416,
			"target":34962
		},
		{
			"buffer":0,
			"byteLength":16620,
			"byteOffset":671036,
			"target":34962
		},
		{
			"buffer":0,
			"byteLength":11080,
			"byteOffset":687656,
			"target":34962
		},
		{
			"buffer":0,
			"byteLength":15360,
			"byteOffset":698736,
			"target":34963
		},
		{
			"buffer":0,
			"byteLength":23556,
			"byteOffset":714096,
			"target":34962
		},
		{
			"buffer":0,
			"byteLength":23556,
			"byteOffset":737652,
			"target":34962
		},
		{
			"buffer":0,
			"byteLength":15704,
			"byteOffset":761208,
			"target":34962
		},
		{
			"buffer":0,
			"byteLength":22272,
			"byteOffset":776912,
			"target":34963
		}
	],
	"samplers":[
		{
			"magFilter":9729,
			"minFilter":9987
		}
	],
	"buffers":[
		{
			"byteLength":799184,
			"uri":"tea_set_posed.bin"
		}
	]
}
