{
    "asset": {
        "version": "2.0",
        "generator": "gltfpack 0.23"
    },
    "extensionsUsed": [
        "EXT_meshopt_compression",
        "KHR_texture_basisu"
    ],
    "extensionsRequired": [
        "KHR_texture_basisu"
    ],
    "buffers": [
        {
            "uri": "head_camera.bin",
            "byteLength": 7868
        },
        {
            "uri": "head_camera.fallback.bin",
            "byteLength": 11448,
            "extensions": {
                "EXT_meshopt_compression": {
                    "fallback": true
                }
            }
        }
    ],
    "bufferViews": [
        {
            "buffer": 1,
            "byteOffset": 0,
            "byteLength": 3672,
            "byteStride": 12,
            "target": 34962,
            "extensions": {
                "EXT_meshopt_compression": {
                    "buffer": 0,
                    "byteOffset": 0,
                    "byteLength": 2905,
                    "byteStride": 12,
                    "mode": "ATTRIBUTES",
                    "count": 306
                }
            }
        },
        {
            "buffer": 1,
            "byteOffset": 3672,
            "byteLength": 3672,
            "byteStride": 12,
            "target": 34962,
            "extensions": {
                "EXT_meshopt_compression": {
                    "buffer": 0,
                    "byteOffset": 2908,
                    "byteLength": 2853,
                    "byteStride": 12,
                    "mode": "ATTRIBUTES",
                    "count": 306
                }
            }
        },
        {
            "buffer": 1,
            "byteOffset": 7344,
            "byteLength": 2448,
            "byteStride": 8,
            "target": 34962,
            "extensions": {
                "EXT_meshopt_compression": {
                    "buffer": 0,
                    "byteOffset": 5764,
                    "byteLength": 1803,
                    "byteStride": 8,
                    "mode": "ATTRIBUTES",
                    "count": 306
                }
            }
        },
        {
            "buffer": 1,
            "byteOffset": 9792,
            "byteLength": 1656,
            "target": 34963,
            "extensions": {
                "EXT_meshopt_compression": {
                    "buffer": 0,
                    "byteOffset": 7568,
                    "byteLength": 298,
                    "byteStride": 2,
                    "mode": "TRIANGLES",
                    "count": 828
                }
            }
        }
    ],
    "accessors": [
        {
            "bufferView": 0,
            "byteOffset": 0,
            "componentType": 5126,
            "count": 306,
            "type": "VEC3",
            "min": [
                -0.0337000005,
                0.0405000001,
                -0.00930000003
            ],
            "max": [
                0.0493000001,
                0.141499996,
                0.0842999965
            ]
        },
        {
            "bufferView": 1,
            "byteOffset": 0,
            "componentType": 5126,
            "count": 306,
            "type": "VEC3"
        },
        {
            "bufferView": 2,
            "byteOffset": 0,
            "componentType": 5126,
            "count": 306,
            "type": "VEC2"
        },
        {
            "bufferView": 3,
            "byteOffset": 0,
            "componentType": 5123,
            "count": 828,
            "type": "SCALAR"
        }
    ],
    "samplers": [
        {
            "magFilter": 9729,
            "minFilter": 9987
        }
    ],
    "images": [
        {
            "name": "drc_torso_head_diffuse",
            "uri": "drc_torso_head_diffuse.png"
        },
        {
            "uri": "drc_torso_head_diffuse.ktx2"
        }
    ],
    "textures": [
        {
            "sampler": 0,
            "source": 0,
            "extensions": {
                "KHR_texture_basisu": {
                    "source": 1
                }
            }
        }
    ],
    "materials": [
        {
            "name": "drc_torso_head_diffuse.001",
            "pbrMetallicRoughness": {
                "baseColorTexture": {
                    "index": 0
                },
                "metallicFactor": 0,
                "roughnessFactor": 0.998000026
            }
        }
    ],
    "meshes": [
        {
            "primitives": [
                {
                    "attributes": {
                        "POSITION": 0,
                        "NORMAL": 1,
                        "TEXCOORD_0": 2
                    },
                    "indices": 3,
                    "material": 0
                }
            ]
        }
    ],
    "nodes": [
        {
            "name": "Node",
            "mesh": 0
        }
    ],
    "scenes": [
        {
            "name": "Scene",
            "nodes": [
                0
            ]
        }
    ],
    "scene": 0
}