{
	"asset":{
		"generator":"Khronos glTF Blender I/O v4.3.47",
		"version":"2.0"
	},
	"scene":0,
	"scenes":[
		{
			"name":"Scene",
			"nodes":[
				0
			]
		}
	],
	"nodes":[
		{
			"mesh":0,
			"name":"Node"
		}
	],
	"materials":[
		{
			"name":"drc_torso_head_diffuse",
			"pbrMetallicRoughness":{
				"baseColorTexture":{
					"index":0
				},
				"metallicFactor":0,
				"roughnessFactor":0.9980000257492065
			}
		}
	],
	"meshes":[
		{
			"name":"Node-Mesh",
			"primitives":[
				{
					"attributes":{
						"POSITION":0,
						"NORMAL":1,
						"TEXCOORD_0":2
					},
					"indices":3,
					"material":0
				}
			]
		}
	],
	"textures":[
		{
			"sampler":0,
			"source":0,
			"extensions":{
				"KHR_texture_basisu":{
					"source":1
				}
			}
		}
	],
	"images":[
		{
			"mimeType":"image/png",
			"name":"drc_torso_head_diffuse",
			"uri":"drc_torso_head_diffuse.png"
		},
		{
			"mimeType":"image/ktx2",
			"uri":"drc_torso_head_diffuse.ktx2"
		}
	],
	"accessors":[
		{
			"bufferView":0,
			"componentType":5126,
			"count":973,
			"max":[
				0.052000001072883606,
				0.14429999887943268,
				0.14980000257492065
			],
			"min":[
				-0.11590000241994858,
				-0.03220000118017197,
				-0.0851999968290329
			],
			"type":"VEC3"
		},
		{
			"bufferView":1,
			"componentType":5126,
			"count":973,
			"type":"VEC3"
		},
		{
			"bufferView":2,
			"componentType":5126,
			"count":973,
			"type":"VEC2"
		},
		{
			"bufferView":3,
			"componentType":5123,
			"count":2805,
			"type":"SCALAR"
		}
	],
	"bufferViews":[
		{
			"buffer":0,
			"byteLength":11676,
			"byteOffset":0,
			"target":34962
		},
		{
			"buffer":0,
			"byteLength":11676,
			"byteOffset":11676,
			"target":34962
		},
		{
			"buffer":0,
			"byteLength":7784,
			"byteOffset":23352,
			"target":34962
		},
		{
			"buffer":0,
			"byteLength":5610,
			"byteOffset":31136,
			"target":34963
		}
	],
	"samplers":[
		{
			"magFilter":9729,
			"minFilter":9987
		}
	],
	"buffers":[
		{
			"byteLength":36748,
			"uri":"head.bin"
		}
	],
	"extensionsUsed":[
		"KHR_texture_basisu"
	]
}
