{
    "asset": {
        "version": "2.0",
        "generator": "gltfpack 0.23"
    },
    "extensionsUsed": [
        "EXT_meshopt_compression",
        "KHR_texture_basisu"
    ],
    "extensionsRequired": [
        "KHR_texture_basisu"
    ],
    "buffers": [
        {
            "uri": "head.bin",
            "byteLength": 21804
        },
        {
            "uri": "head.fallback.bin",
            "byteLength": 36748,
            "extensions": {
                "EXT_meshopt_compression": {
                    "fallback": true
                }
            }
        }
    ],
    "bufferViews": [
        {
            "buffer": 1,
            "byteOffset": 0,
            "byteLength": 11676,
            "byteStride": 12,
            "target": 34962,
            "extensions": {
                "EXT_meshopt_compression": {
                    "buffer": 0,
                    "byteOffset": 0,
                    "byteLength": 8459,
                    "byteStride": 12,
                    "mode": "ATTRIBUTES",
                    "count": 973
                }
            }
        },
        {
            "buffer": 1,
            "byteOffset": 11676,
            "byteLength": 11676,
            "byteStride": 12,
            "target": 34962,
            "extensions": {
                "EXT_meshopt_compression": {
                    "buffer": 0,
                    "byteOffset": 8460,
                    "byteLength": 6410,
                    "byteStride": 12,
                    "mode": "ATTRIBUTES",
                    "count": 973
                }
            }
        },
        {
            "buffer": 1,
            "byteOffset": 23352,
            "byteLength": 7784,
            "byteStride": 8,
            "target": 34962,
            "extensions": {
                "EXT_meshopt_compression": {
                    "buffer": 0,
                    "byteOffset": 14872,
                    "byteLength": 5953,
                    "byteStride": 8,
                    "mode": "ATTRIBUTES",
                    "count": 973
                }
            }
        },
        {
            "buffer": 1,
            "byteOffset": 31136,
            "byteLength": 5610,
            "target": 34963,
            "extensions": {
                "EXT_meshopt_compression": {
                    "buffer": 0,
                    "byteOffset": 20828,
                    "byteLength": 976,
                    "byteStride": 2,
                    "mode": "TRIANGLES",
                    "count": 2805
                }
            }
        }
    ],
    "accessors": [
        {
            "bufferView": 0,
            "byteOffset": 0,
            "componentType": 5126,
            "count": 973,
            "type": "VEC3",
            "min": [
                -0.115900002,
                -0.0322000012,
                -0.0851999968
            ],
            "max": [
                0.0520000011,
                0.144299999,
                0.149800003
            ]
        },
        {
            "bufferView": 1,
            "byteOffset": 0,
            "componentType": 5126,
            "count": 973,
            "type": "VEC3"
        },
        {
            "bufferView": 2,
            "byteOffset": 0,
            "componentType": 5126,
            "count": 973,
            "type": "VEC2"
        },
        {
            "bufferView": 3,
            "byteOffset": 0,
            "componentType": 5123,
            "count": 2805,
            "type": "SCALAR"
        }
    ],
    "samplers": [
        {
            "magFilter": 9729,
            "minFilter": 9987
        }
    ],
    "images": [
        {
            "name": "drc_torso_head_diffuse",
            "uri": "drc_torso_head_diffuse.png"
        },
        {
            "uri": "drc_torso_head_diffuse.ktx2"
        }
    ],
    "textures": [
        {
            "sampler": 0,
            "source": 0,
            "extensions": {
                "KHR_texture_basisu": {
                    "source": 1
                }
            }
        }
    ],
    "materials": [
        {
            "name": "drc_torso_head_diffuse",
            "pbrMetallicRoughness": {
                "baseColorTexture": {
                    "index": 0
                },
                "metallicFactor": 0,
                "roughnessFactor": 0.998000026
            }
        }
    ],
    "meshes": [
        {
            "primitives": [
                {
                    "attributes": {
                        "POSITION": 0,
                        "NORMAL": 1,
                        "TEXCOORD_0": 2
                    },
                    "indices": 3,
                    "material": 0
                }
            ]
        }
    ],
    "nodes": [
        {
            "name": "Node",
            "mesh": 0
        }
    ],
    "scenes": [
        {
            "name": "Scene",
            "nodes": [
                0
            ]
        }
    ],
    "scene": 0
}