{
	"accessors":[
		{
			"name":"Node-Mesh_0_positions",
			"componentType":5126,
			"count":480,
			"min":[
				-0.07164300233125687,
				0.04091800004243851,
				-0.06031300127506256
			],
			"max":[
				0.017256999388337135,
				0.14191800355911255,
				0.05228700116276741
			],
			"type":"VEC3",
			"bufferView":0,
			"byteOffset":0
		},
		{
			"name":"Node-Mesh_0_normals",
			"componentType":5126,
			"count":480,
			"min":[
				-1,
				-0.9489975571632385,
				-0.9941822290420532
			],
			"max":[
				1,
				1,
				0.9943211674690247
			],
			"type":"VEC3",
			"bufferView":1,
			"byteOffset":0
		},
		{
			"name":"Node-Mesh_0_indices",
			"componentType":5123,
			"count":768,
			"min":[
				0
			],
			"max":[
				479
			],
			"type":"SCALAR",
			"bufferView":2,
			"byteOffset":0
		}
	],
	"asset":{
		"generator":"obj2gltf",
		"version":"2.0"
	},
	"buffers":[
		{
			"name":"head_camera",
			"byteLength":13056,
			"uri":"head_camera.bin"
		}
	],
	"bufferViews":[
		{
			"name":"bufferView_0",
			"buffer":0,
			"byteLength":5760,
			"byteOffset":0,
			"byteStride":12,
			"target":34962
		},
		{
			"name":"bufferView_1",
			"buffer":0,
			"byteLength":5760,
			"byteOffset":5760,
			"byteStride":12,
			"target":34962
		},
		{
			"name":"bufferView_2",
			"buffer":0,
			"byteLength":1536,
			"byteOffset":11520,
			"target":34963
		}
	],
	"materials":[
		{
			"name":"default",
			"pbrMetallicRoughness":{
				"baseColorFactor":[
					0.5,
					0.5,
					0.5,
					1
				],
				"metallicFactor":0,
				"roughnessFactor":1
			},
			"emissiveFactor":[
				0,
				0,
				0
			],
			"alphaMode":"OPAQUE",
			"doubleSided":false
		}
	],
	"meshes":[
		{
			"name":"Node-Mesh",
			"primitives":[
				{
					"attributes":{
						"POSITION":0,
						"NORMAL":1
					},
					"indices":2,
					"material":0,
					"mode":4
				}
			]
		}
	],
	"nodes":[
		{
			"name":"Node",
			"mesh":0
		}
	],
	"scene":0,
	"scenes":[
		{
			"nodes":[
				0
			]
		}
	]
}
