{
    "asset": {
        "version": "2.0",
        "generator": "gltfpack 0.23"
    },
    "extensionsUsed": [
        "EXT_meshopt_compression",
        "KHR_texture_basisu"
    ],
    "extensionsRequired": [
        "KHR_texture_basisu"
    ],
    "buffers": [
        {
            "uri": "l_foot.bin",
            "byteLength": 14472
        },
        {
            "uri": "l_foot.fallback.bin",
            "byteLength": 24240,
            "extensions": {
                "EXT_meshopt_compression": {
                    "fallback": true
                }
            }
        }
    ],
    "bufferViews": [
        {
            "buffer": 1,
            "byteOffset": 0,
            "byteLength": 7884,
            "byteStride": 12,
            "target": 34962,
            "extensions": {
                "EXT_meshopt_compression": {
                    "buffer": 0,
                    "byteOffset": 0,
                    "byteLength": 5837,
                    "byteStride": 12,
                    "mode": "ATTRIBUTES",
                    "count": 657
                }
            }
        },
        {
            "buffer": 1,
            "byteOffset": 7884,
            "byteLength": 7884,
            "byteStride": 12,
            "target": 34962,
            "extensions": {
                "EXT_meshopt_compression": {
                    "buffer": 0,
                    "byteOffset": 5840,
                    "byteLength": 4116,
                    "byteStride": 12,
                    "mode": "ATTRIBUTES",
                    "count": 657
                }
            }
        },
        {
            "buffer": 1,
            "byteOffset": 15768,
            "byteLength": 5256,
            "byteStride": 8,
            "target": 34962,
            "extensions": {
                "EXT_meshopt_compression": {
                    "buffer": 0,
                    "byteOffset": 9956,
                    "byteLength": 3946,
                    "byteStride": 8,
                    "mode": "ATTRIBUTES",
                    "count": 657
                }
            }
        },
        {
            "buffer": 1,
            "byteOffset": 21024,
            "byteLength": 3216,
            "target": 34963,
            "extensions": {
                "EXT_meshopt_compression": {
                    "buffer": 0,
                    "byteOffset": 13904,
                    "byteLength": 565,
                    "byteStride": 2,
                    "mode": "TRIANGLES",
                    "count": 1608
                }
            }
        }
    ],
    "accessors": [
        {
            "bufferView": 0,
            "byteOffset": 0,
            "componentType": 5126,
            "count": 657,
            "type": "VEC3",
            "min": [
                -0.0901999995,
                -0.0764999986,
                -0.0716999993
            ],
            "max": [
                0.172800004,
                0.0100999996,
                0.0681999996
            ]
        },
        {
            "bufferView": 1,
            "byteOffset": 0,
            "componentType": 5126,
            "count": 657,
            "type": "VEC3"
        },
        {
            "bufferView": 2,
            "byteOffset": 0,
            "componentType": 5126,
            "count": 657,
            "type": "VEC2"
        },
        {
            "bufferView": 3,
            "byteOffset": 0,
            "componentType": 5123,
            "count": 1608,
            "type": "SCALAR"
        }
    ],
    "samplers": [
        {
            "magFilter": 9729,
            "minFilter": 9987
        }
    ],
    "images": [
        {
            "name": "extremities_diffuse_unplugged_mit",
            "uri": "extremities_diffuse_unplugged_mit.png"
        },
        {
            "uri": "extremities_diffuse_unplugged_mit.ktx2"
        }
    ],
    "textures": [
        {
            "sampler": 0,
            "source": 0,
            "extensions": {
                "KHR_texture_basisu": {
                    "source": 1
                }
            }
        }
    ],
    "materials": [
        {
            "name": "drc_extremities_diffuse",
            "pbrMetallicRoughness": {
                "baseColorTexture": {
                    "index": 0
                },
                "metallicFactor": 0,
                "roughnessFactor": 0.998000026
            }
        }
    ],
    "meshes": [
        {
            "primitives": [
                {
                    "attributes": {
                        "POSITION": 0,
                        "NORMAL": 1,
                        "TEXCOORD_0": 2
                    },
                    "indices": 3,
                    "material": 0
                }
            ]
        }
    ],
    "nodes": [
        {
            "name": "Node",
            "mesh": 0
        }
    ],
    "scenes": [
        {
            "name": "Scene",
            "nodes": [
                0
            ]
        }
    ],
    "scene": 0
}