{
	"asset":{
		"generator":"Khronos glTF Blender I/O v4.3.47",
		"version":"2.0"
	},
	"scene":0,
	"scenes":[
		{
			"name":"Scene",
			"nodes":[
				0
			]
		}
	],
	"nodes":[
		{
			"mesh":0,
			"name":"Node"
		}
	],
	"materials":[
		{
			"name":"drc_extremities_diffuse.002",
			"pbrMetallicRoughness":{
				"baseColorTexture":{
					"index":0
				},
				"metallicFactor":0,
				"roughnessFactor":0.9980000257492065
			}
		}
	],
	"meshes":[
		{
			"name":"Node-Mesh.004",
			"primitives":[
				{
					"attributes":{
						"POSITION":0,
						"NORMAL":1,
						"TEXCOORD_0":2
					},
					"indices":3,
					"material":0
				}
			]
		}
	],
	"textures":[
		{
			"sampler":0,
			"source":0,
			"extensions":{
				"KHR_texture_basisu":{
					"source":1
				}
			}
		}
	],
	"images":[
		{
			"mimeType":"image/png",
			"name":"extremities_diffuse_unplugged_mit",
			"uri":"extremities_diffuse_unplugged_mit.png"
		},
		{
			"mimeType":"image/ktx2",
			"uri":"extremities_diffuse_unplugged_mit.ktx2"
		}
	],
	"accessors":[
		{
			"bufferView":0,
			"componentType":5126,
			"count":1563,
			"max":[
				0.09489999711513519,
				0.022099999710917473,
				0.05790000036358833
			],
			"min":[
				-0.04190000146627426,
				-0.4300999939441681,
				-0.05810000002384186
			],
			"type":"VEC3"
		},
		{
			"bufferView":1,
			"componentType":5126,
			"count":1563,
			"type":"VEC3"
		},
		{
			"bufferView":2,
			"componentType":5126,
			"count":1563,
			"type":"VEC2"
		},
		{
			"bufferView":3,
			"componentType":5123,
			"count":4482,
			"type":"SCALAR"
		}
	],
	"bufferViews":[
		{
			"buffer":0,
			"byteLength":18756,
			"byteOffset":0,
			"target":34962
		},
		{
			"buffer":0,
			"byteLength":18756,
			"byteOffset":18756,
			"target":34962
		},
		{
			"buffer":0,
			"byteLength":12504,
			"byteOffset":37512,
			"target":34962
		},
		{
			"buffer":0,
			"byteLength":8964,
			"byteOffset":50016,
			"target":34963
		}
	],
	"samplers":[
		{
			"magFilter":9729,
			"minFilter":9987
		}
	],
	"buffers":[
		{
			"byteLength":58980,
			"uri":"l_lleg.bin"
		}
	],
	"extensionsUsed":[
		"KHR_texture_basisu"
	]
}
