{
	"accessors":[
		{
			"name":"Node-Mesh_0_positions",
			"componentType":5126,
			"count":238,
			"min":[
				-0.03323400020599365,
				-0.04091800004243851,
				-0.07182499766349792
			],
			"max":[
				0.04914499819278717,
				0.12751099467277527,
				0.02042200043797493
			],
			"type":"VEC3",
			"bufferView":0,
			"byteOffset":0
		},
		{
			"name":"Node-Mesh_0_indices",
			"componentType":5123,
			"count":1458,
			"min":[
				0
			],
			"max":[
				237
			],
			"type":"SCALAR",
			"bufferView":1,
			"byteOffset":0
		}
	],
	"asset":{
		"generator":"obj2gltf",
		"version":"2.0"
	},
	"buffers":[
		{
			"name":"l_uglut",
			"byteLength":5772,
			"uri":"l_uglut.bin"
		}
	],
	"bufferViews":[
		{
			"name":"bufferView_0",
			"buffer":0,
			"byteLength":2856,
			"byteOffset":0,
			"byteStride":12,
			"target":34962
		},
		{
			"name":"bufferView_1",
			"buffer":0,
			"byteLength":2916,
			"byteOffset":2856,
			"target":34963
		}
	],
	"materials":[
		{
			"name":"default",
			"pbrMetallicRoughness":{
				"baseColorFactor":[
					0.5,
					0.5,
					0.5,
					1
				],
				"metallicFactor":0,
				"roughnessFactor":1
			},
			"emissiveFactor":[
				0,
				0,
				0
			],
			"alphaMode":"OPAQUE",
			"doubleSided":false
		}
	],
	"meshes":[
		{
			"name":"Node-Mesh",
			"primitives":[
				{
					"attributes":{
						"POSITION":0
					},
					"indices":1,
					"material":0,
					"mode":4
				}
			]
		}
	],
	"nodes":[
		{
			"name":"Node",
			"mesh":0
		}
	],
	"scene":0,
	"scenes":[
		{
			"nodes":[
				0
			]
		}
	]
}
