{
	"asset":{
		"generator":"Khronos glTF Blender I/O v4.3.47",
		"version":"2.0"
	},
	"scene":0,
	"scenes":[
		{
			"name":"Scene",
			"nodes":[
				0
			]
		}
	],
	"nodes":[
		{
			"mesh":0,
			"name":"Node"
		}
	],
	"materials":[
		{
			"name":"drc_extremities_diffuse.005",
			"pbrMetallicRoughness":{
				"baseColorTexture":{
					"index":0
				},
				"metallicFactor":0,
				"roughnessFactor":0.9980000257492065
			}
		}
	],
	"meshes":[
		{
			"name":"Node-Mesh.007",
			"primitives":[
				{
					"attributes":{
						"POSITION":0,
						"NORMAL":1,
						"TEXCOORD_0":2
					},
					"indices":3,
					"material":0
				}
			]
		}
	],
	"textures":[
		{
			"sampler":0,
			"source":0,
			"extensions":{
				"KHR_texture_basisu":{
					"source":1
				}
			}
		}
	],
	"images":[
		{
			"mimeType":"image/png",
			"name":"extremities_diffuse_unplugged_mit",
			"uri":"extremities_diffuse_unplugged_mit.png"
		},
		{
			"mimeType":"image/ktx2",
			"uri":"extremities_diffuse_unplugged_mit.ktx2"
		}
	],
	"accessors":[
		{
			"bufferView":0,
			"componentType":5126,
			"count":1897,
			"max":[
				0.08299999684095383,
				0.01979999989271164,
				0.0737999975681305
			],
			"min":[
				-0.12780000269412994,
				-0.3928999900817871,
				-0.07429999858140945
			],
			"type":"VEC3"
		},
		{
			"bufferView":1,
			"componentType":5126,
			"count":1897,
			"type":"VEC3"
		},
		{
			"bufferView":2,
			"componentType":5126,
			"count":1897,
			"type":"VEC2"
		},
		{
			"bufferView":3,
			"componentType":5123,
			"count":7392,
			"type":"SCALAR"
		}
	],
	"bufferViews":[
		{
			"buffer":0,
			"byteLength":22764,
			"byteOffset":0,
			"target":34962
		},
		{
			"buffer":0,
			"byteLength":22764,
			"byteOffset":22764,
			"target":34962
		},
		{
			"buffer":0,
			"byteLength":15176,
			"byteOffset":45528,
			"target":34962
		},
		{
			"buffer":0,
			"byteLength":14784,
			"byteOffset":60704,
			"target":34963
		}
	],
	"samplers":[
		{
			"magFilter":9729,
			"minFilter":9987
		}
	],
	"buffers":[
		{
			"byteLength":75488,
			"uri":"l_uleg.bin"
		}
	],
	"extensionsUsed":[
		"KHR_texture_basisu"
	]
}
