{
	"accessors":[
		{
			"name":"Node-Mesh_0_positions",
			"componentType":5126,
			"count":1246,
			"min":[
				-0.1277559995651245,
				-0.3929310142993927,
				-0.07431100308895111
			],
			"max":[
				0.08297199755907059,
				0.019801000133156776,
				0.0738309994339943
			],
			"type":"VEC3",
			"bufferView":0,
			"byteOffset":0
		},
		{
			"name":"Node-Mesh_0_indices",
			"componentType":5123,
			"count":7392,
			"min":[
				0
			],
			"max":[
				1245
			],
			"type":"SCALAR",
			"bufferView":1,
			"byteOffset":0
		}
	],
	"asset":{
		"generator":"obj2gltf",
		"version":"2.0"
	},
	"buffers":[
		{
			"name":"l_uleg",
			"byteLength":29736,
			"uri":"l_uleg.bin"
		}
	],
	"bufferViews":[
		{
			"name":"bufferView_0",
			"buffer":0,
			"byteLength":14952,
			"byteOffset":0,
			"byteStride":12,
			"target":34962
		},
		{
			"name":"bufferView_1",
			"buffer":0,
			"byteLength":14784,
			"byteOffset":14952,
			"target":34963
		}
	],
	"materials":[
		{
			"name":"default",
			"pbrMetallicRoughness":{
				"baseColorFactor":[
					0.5,
					0.5,
					0.5,
					1
				],
				"metallicFactor":0,
				"roughnessFactor":1
			},
			"emissiveFactor":[
				0,
				0,
				0
			],
			"alphaMode":"OPAQUE",
			"doubleSided":false
		}
	],
	"meshes":[
		{
			"name":"Node-Mesh",
			"primitives":[
				{
					"attributes":{
						"POSITION":0
					},
					"indices":1,
					"material":0,
					"mode":4
				}
			]
		}
	],
	"nodes":[
		{
			"name":"Node",
			"mesh":0
		}
	],
	"scene":0,
	"scenes":[
		{
			"nodes":[
				0
			]
		}
	]
}
