{
	"accessors":[
		{
			"name":"Node-Mesh_0_positions",
			"componentType":5126,
			"count":132,
			"min":[
				-0.05648399889469147,
				0.0282990001142025,
				-0.04843499884009361
			],
			"max":[
				0.021510999649763107,
				0.17868900299072266,
				0.0480789989233017
			],
			"type":"VEC3",
			"bufferView":0,
			"byteOffset":0
		},
		{
			"name":"Node-Mesh_0_indices",
			"componentType":5123,
			"count":732,
			"min":[
				0
			],
			"max":[
				131
			],
			"type":"SCALAR",
			"bufferView":1,
			"byteOffset":0
		}
	],
	"asset":{
		"generator":"obj2gltf",
		"version":"2.0"
	},
	"buffers":[
		{
			"name":"ltorso",
			"byteLength":3048,
			"uri":"ltorso.bin"
		}
	],
	"bufferViews":[
		{
			"name":"bufferView_0",
			"buffer":0,
			"byteLength":1584,
			"byteOffset":0,
			"byteStride":12,
			"target":34962
		},
		{
			"name":"bufferView_1",
			"buffer":0,
			"byteLength":1464,
			"byteOffset":1584,
			"target":34963
		}
	],
	"materials":[
		{
			"name":"default",
			"pbrMetallicRoughness":{
				"baseColorFactor":[
					0.5,
					0.5,
					0.5,
					1
				],
				"metallicFactor":0,
				"roughnessFactor":1
			},
			"emissiveFactor":[
				0,
				0,
				0
			],
			"alphaMode":"OPAQUE",
			"doubleSided":false
		}
	],
	"meshes":[
		{
			"name":"Node-Mesh",
			"primitives":[
				{
					"attributes":{
						"POSITION":0
					},
					"indices":1,
					"material":0,
					"mode":4
				}
			]
		}
	],
	"nodes":[
		{
			"name":"Node",
			"mesh":0
		}
	],
	"scene":0,
	"scenes":[
		{
			"nodes":[
				0
			]
		}
	]
}
