{
  "accessors": [
    {
      "name": "Node-Mesh_0_positions",
      "componentType": 5126,
      "count": 732,
      "min": [
        -0.05649999901652336,
        0.028300000354647636,
        -0.04839999973773956
      ],
      "max": [
        0.0215000007301569,
        0.17870000004768372,
        0.04809999838471413
      ],
      "type": "VEC3",
      "bufferView": 0,
      "byteOffset": 0
    },
    {
      "name": "Node-Mesh_0_normals",
      "componentType": 5126,
      "count": 732,
      "min": [
        -0.7870469689369202,
        -0.8724028468132019,
        -0.904527485370636
      ],
      "max": [
        0.9309818744659424,
        0.959793746471405,
        0.9045342206954956
      ],
      "type": "VEC3",
      "bufferView": 1,
      "byteOffset": 0
    },
    {
      "name": "Node-Mesh_0_texcoords",
      "componentType": 5126,
      "count": 732,
      "min": [
        0.3581770062446594,
        0.00785099994391203
      ],
      "max": [
        0.6309890151023865,
        0.2075430005788803
      ],
      "type": "VEC2",
      "bufferView": 2,
      "byteOffset": 0
    },
    {
      "name": "Node-Mesh_0_indices",
      "componentType": 5123,
      "count": 732,
      "min": [
        0
      ],
      "max": [
        731
      ],
      "type": "SCALAR",
      "bufferView": 3,
      "byteOffset": 0
    }
  ],
  "asset": {
    "generator": "obj2gltf",
    "version": "2.0"
  },
  "buffers": [
    {
      "name": "ltorso",
      "byteLength": 24888,
      "uri": "ltorso.bin"
    }
  ],
  "bufferViews": [
    {
      "name": "bufferView_0",
      "buffer": 0,
      "byteLength": 8784,
      "byteOffset": 0,
      "byteStride": 12,
      "target": 34962
    },
    {
      "name": "bufferView_1",
      "buffer": 0,
      "byteLength": 8784,
      "byteOffset": 8784,
      "byteStride": 12,
      "target": 34962
    },
    {
      "name": "bufferView_2",
      "buffer": 0,
      "byteLength": 5856,
      "byteOffset": 17568,
      "byteStride": 8,
      "target": 34962
    },
    {
      "name": "bufferView_3",
      "buffer": 0,
      "byteLength": 1464,
      "byteOffset": 23424,
      "target": 34963
    }
  ],
  "images": [
    {
      "name": "extremities_diffuse_unplugged_mit",
      "uri": "extremities_diffuse_unplugged_mit.png"
    }
  ],
  "materials": [
    {
      "name": "drc_extremities_diffuse",
      "pbrMetallicRoughness": {
        "baseColorTexture": {
          "index": 0
        },
        "baseColorFactor": [
          1,
          1,
          1,
          1
        ],
        "metallicFactor": 0,
        "roughnessFactor": 0.998
      },
      "emissiveFactor": [
        0,
        0,
        0
      ],
      "alphaMode": "OPAQUE",
      "doubleSided": false
    }
  ],
  "meshes": [
    {
      "name": "Node-Mesh",
      "primitives": [
        {
          "attributes": {
            "POSITION": 0,
            "NORMAL": 1,
            "TEXCOORD_0": 2
          },
          "indices": 3,
          "material": 0,
          "mode": 4
        }
      ]
    }
  ],
  "nodes": [
    {
      "name": "Node",
      "mesh": 0
    }
  ],
  "samplers": [
    {
      "wrapS": 10497,
      "wrapT": 10497
    }
  ],
  "scene": 0,
  "scenes": [
    {
      "nodes": [
        0
      ]
    }
  ],
  "textures": [
    {
      "name": "extremities_diffuse_unplugged_mit",
      "sampler": 0,
      "source": 0
    }
  ]
}
