{
	"asset":{
		"generator":"Khronos glTF Blender I/O v4.3.47",
		"version":"2.0"
	},
	"scene":0,
	"scenes":[
		{
			"name":"Scene",
			"nodes":[
				0
			]
		}
	],
	"nodes":[
		{
			"mesh":0,
			"name":"Node"
		}
	],
	"materials":[
		{
			"name":"torso_diffuse",
			"pbrMetallicRoughness":{
				"baseColorTexture":{
					"index":0
				},
				"metallicFactor":0,
				"roughnessFactor":0.9980000257492065
			}
		}
	],
	"meshes":[
		{
			"name":"Node-Mesh.009",
			"primitives":[
				{
					"attributes":{
						"POSITION":0,
						"NORMAL":1,
						"TEXCOORD_0":2
					},
					"indices":3,
					"material":0
				}
			]
		}
	],
	"textures":[
		{
			"sampler":0,
			"source":0,
			"extensions":{
				"KHR_texture_basisu":{
					"source":1
				}
			}
		}
	],
	"images":[
		{
			"mimeType":"image/png",
			"name":"torso_diffuse_unplugged_mit",
			"uri":"torso_diffuse_unplugged_mit.png"
		},
		{
			"mimeType":"image/ktx2",
			"uri":"torso_diffuse_unplugged_mit.ktx2"
		}
	],
	"accessors":[
		{
			"bufferView":0,
			"componentType":5126,
			"count":90,
			"max":[
				0.016300000250339508,
				0.08089999854564667,
				0.01679999940097332
			],
			"min":[
				-0.0674000009894371,
				-0.0203000009059906,
				-0.016899999231100082
			],
			"type":"VEC3"
		},
		{
			"bufferView":1,
			"componentType":5126,
			"count":90,
			"type":"VEC3"
		},
		{
			"bufferView":2,
			"componentType":5126,
			"count":90,
			"type":"VEC2"
		},
		{
			"bufferView":3,
			"componentType":5123,
			"count":252,
			"type":"SCALAR"
		}
	],
	"bufferViews":[
		{
			"buffer":0,
			"byteLength":1080,
			"byteOffset":0,
			"target":34962
		},
		{
			"buffer":0,
			"byteLength":1080,
			"byteOffset":1080,
			"target":34962
		},
		{
			"buffer":0,
			"byteLength":720,
			"byteOffset":2160,
			"target":34962
		},
		{
			"buffer":0,
			"byteLength":504,
			"byteOffset":2880,
			"target":34963
		}
	],
	"samplers":[
		{
			"magFilter":9729,
			"minFilter":9987
		}
	],
	"buffers":[
		{
			"byteLength":3384,
			"uri":"mtorso.bin"
		}
	],
	"extensionsUsed":[
		"KHR_texture_basisu"
	]
}
