{
	"asset":{
		"generator":"Khronos glTF Blender I/O v4.3.47",
		"version":"2.0"
	},
	"scene":0,
	"scenes":[
		{
			"name":"Scene",
			"nodes":[
				0
			]
		}
	],
	"nodes":[
		{
			"mesh":0,
			"name":"Node"
		}
	],
	"materials":[
		{
			"name":"drc_extremities_diffuse.007",
			"pbrMetallicRoughness":{
				"baseColorTexture":{
					"index":0
				},
				"metallicFactor":0,
				"roughnessFactor":0.9980000257492065
			}
		}
	],
	"meshes":[
		{
			"name":"Node-Mesh.010",
			"primitives":[
				{
					"attributes":{
						"POSITION":0,
						"NORMAL":1,
						"TEXCOORD_0":2
					},
					"indices":3,
					"material":0
				}
			]
		}
	],
	"textures":[
		{
			"sampler":0,
			"source":0,
			"extensions":{
				"KHR_texture_basisu":{
					"source":1
				}
			}
		}
	],
	"images":[
		{
			"mimeType":"image/png",
			"name":"extremities_diffuse_unplugged_mit",
			"uri":"extremities_diffuse_unplugged_mit.png"
		},
		{
			"mimeType":"image/ktx2",
			"uri":"extremities_diffuse_unplugged_mit.ktx2"
		}
	],
	"accessors":[
		{
			"bufferView":0,
			"componentType":5126,
			"count":1999,
			"max":[
				0.17499999701976776,
				0.12720000743865967,
				0.1860000044107437
			],
			"min":[
				-0.15479999780654907,
				-0.14669999480247498,
				-0.1867000013589859
			],
			"type":"VEC3"
		},
		{
			"bufferView":1,
			"componentType":5126,
			"count":1999,
			"type":"VEC3"
		},
		{
			"bufferView":2,
			"componentType":5126,
			"count":1999,
			"type":"VEC2"
		},
		{
			"bufferView":3,
			"componentType":5123,
			"count":5922,
			"type":"SCALAR"
		}
	],
	"bufferViews":[
		{
			"buffer":0,
			"byteLength":23988,
			"byteOffset":0,
			"target":34962
		},
		{
			"buffer":0,
			"byteLength":23988,
			"byteOffset":23988,
			"target":34962
		},
		{
			"buffer":0,
			"byteLength":15992,
			"byteOffset":47976,
			"target":34962
		},
		{
			"buffer":0,
			"byteLength":11844,
			"byteOffset":63968,
			"target":34963
		}
	],
	"samplers":[
		{
			"magFilter":9729,
			"minFilter":9987
		}
	],
	"buffers":[
		{
			"byteLength":75812,
			"uri":"pelvis.bin"
		}
	],
	"extensionsUsed":[
		"KHR_texture_basisu"
	]
}
