{
    "asset": {
        "version": "2.0",
        "generator": "gltfpack 0.23"
    },
    "extensionsUsed": [
        "EXT_meshopt_compression",
        "KHR_texture_basisu"
    ],
    "extensionsRequired": [
        "KHR_texture_basisu"
    ],
    "buffers": [
        {
            "uri": "r_clav.bin",
            "byteLength": 18004
        },
        {
            "uri": "r_clav.fallback.bin",
            "byteLength": 26408,
            "extensions": {
                "EXT_meshopt_compression": {
                    "fallback": true
                }
            }
        }
    ],
    "bufferViews": [
        {
            "buffer": 1,
            "byteOffset": 0,
            "byteLength": 8652,
            "byteStride": 12,
            "target": 34962,
            "extensions": {
                "EXT_meshopt_compression": {
                    "buffer": 0,
                    "byteOffset": 0,
                    "byteLength": 6095,
                    "byteStride": 12,
                    "mode": "ATTRIBUTES",
                    "count": 721
                }
            }
        },
        {
            "buffer": 1,
            "byteOffset": 8652,
            "byteLength": 8652,
            "byteStride": 12,
            "target": 34962,
            "extensions": {
                "EXT_meshopt_compression": {
                    "buffer": 0,
                    "byteOffset": 6096,
                    "byteLength": 7146,
                    "byteStride": 12,
                    "mode": "ATTRIBUTES",
                    "count": 721
                }
            }
        },
        {
            "buffer": 1,
            "byteOffset": 17304,
            "byteLength": 5768,
            "byteStride": 8,
            "target": 34962,
            "extensions": {
                "EXT_meshopt_compression": {
                    "buffer": 0,
                    "byteOffset": 13244,
                    "byteLength": 4177,
                    "byteStride": 8,
                    "mode": "ATTRIBUTES",
                    "count": 721
                }
            }
        },
        {
            "buffer": 1,
            "byteOffset": 23072,
            "byteLength": 3336,
            "target": 34963,
            "extensions": {
                "EXT_meshopt_compression": {
                    "buffer": 0,
                    "byteOffset": 17424,
                    "byteLength": 579,
                    "byteStride": 2,
                    "mode": "TRIANGLES",
                    "count": 1668
                }
            }
        }
    ],
    "accessors": [
        {
            "bufferView": 0,
            "byteOffset": 0,
            "componentType": 5126,
            "count": 721,
            "type": "VEC3",
            "min": [
                -0.0546999983,
                -0.292800009,
                -0.0241
            ],
            "max": [
                0.0653999969,
                -0.113499999,
                0.158700004
            ]
        },
        {
            "bufferView": 1,
            "byteOffset": 0,
            "componentType": 5126,
            "count": 721,
            "type": "VEC3"
        },
        {
            "bufferView": 2,
            "byteOffset": 0,
            "componentType": 5126,
            "count": 721,
            "type": "VEC2"
        },
        {
            "bufferView": 3,
            "byteOffset": 0,
            "componentType": 5123,
            "count": 1668,
            "type": "SCALAR"
        }
    ],
    "samplers": [
        {
            "magFilter": 9729,
            "minFilter": 9987
        }
    ],
    "images": [
        {
            "name": "extremities_diffuse_unplugged_mit",
            "uri": "extremities_diffuse_unplugged_mit.png"
        },
        {
            "uri": "extremities_diffuse_unplugged_mit.ktx2"
        }
    ],
    "textures": [
        {
            "sampler": 0,
            "source": 0,
            "extensions": {
                "KHR_texture_basisu": {
                    "source": 1
                }
            }
        }
    ],
    "materials": [
        {
            "name": "drc_extremities_diffuse.008",
            "pbrMetallicRoughness": {
                "baseColorTexture": {
                    "index": 0
                },
                "metallicFactor": 0,
                "roughnessFactor": 0.998000026
            }
        }
    ],
    "meshes": [
        {
            "primitives": [
                {
                    "attributes": {
                        "POSITION": 0,
                        "NORMAL": 1,
                        "TEXCOORD_0": 2
                    },
                    "indices": 3,
                    "material": 0
                }
            ]
        }
    ],
    "nodes": [
        {
            "name": "Node",
            "mesh": 0
        }
    ],
    "scenes": [
        {
            "name": "Scene",
            "nodes": [
                0
            ]
        }
    ],
    "scene": 0
}