{
    "asset": {
        "version": "2.0",
        "generator": "gltfpack 0.23"
    },
    "extensionsUsed": [
        "EXT_meshopt_compression",
        "KHR_texture_basisu"
    ],
    "extensionsRequired": [
        "KHR_texture_basisu"
    ],
    "buffers": [
        {
            "uri": "r_foot.bin",
            "byteLength": 13844
        },
        {
            "uri": "r_foot.fallback.bin",
            "byteLength": 22664,
            "extensions": {
                "EXT_meshopt_compression": {
                    "fallback": true
                }
            }
        }
    ],
    "bufferViews": [
        {
            "buffer": 1,
            "byteOffset": 0,
            "byteLength": 7284,
            "byteStride": 12,
            "target": 34962,
            "extensions": {
                "EXT_meshopt_compression": {
                    "buffer": 0,
                    "byteOffset": 0,
                    "byteLength": 5365,
                    "byteStride": 12,
                    "mode": "ATTRIBUTES",
                    "count": 607
                }
            }
        },
        {
            "buffer": 1,
            "byteOffset": 7284,
            "byteLength": 7284,
            "byteStride": 12,
            "target": 34962,
            "extensions": {
                "EXT_meshopt_compression": {
                    "buffer": 0,
                    "byteOffset": 5368,
                    "byteLength": 4245,
                    "byteStride": 12,
                    "mode": "ATTRIBUTES",
                    "count": 607
                }
            }
        },
        {
            "buffer": 1,
            "byteOffset": 14568,
            "byteLength": 4856,
            "byteStride": 8,
            "target": 34962,
            "extensions": {
                "EXT_meshopt_compression": {
                    "buffer": 0,
                    "byteOffset": 9616,
                    "byteLength": 3656,
                    "byteStride": 8,
                    "mode": "ATTRIBUTES",
                    "count": 607
                }
            }
        },
        {
            "buffer": 1,
            "byteOffset": 19424,
            "byteLength": 3240,
            "target": 34963,
            "extensions": {
                "EXT_meshopt_compression": {
                    "buffer": 0,
                    "byteOffset": 13272,
                    "byteLength": 572,
                    "byteStride": 2,
                    "mode": "TRIANGLES",
                    "count": 1620
                }
            }
        }
    ],
    "accessors": [
        {
            "bufferView": 0,
            "byteOffset": 0,
            "componentType": 5126,
            "count": 607,
            "type": "VEC3",
            "min": [
                -0.0901999995,
                -0.0764999986,
                -0.0681999996
            ],
            "max": [
                0.172800004,
                0.0100999996,
                0.0716999993
            ]
        },
        {
            "bufferView": 1,
            "byteOffset": 0,
            "componentType": 5126,
            "count": 607,
            "type": "VEC3"
        },
        {
            "bufferView": 2,
            "byteOffset": 0,
            "componentType": 5126,
            "count": 607,
            "type": "VEC2"
        },
        {
            "bufferView": 3,
            "byteOffset": 0,
            "componentType": 5123,
            "count": 1620,
            "type": "SCALAR"
        }
    ],
    "samplers": [
        {
            "magFilter": 9729,
            "minFilter": 9987
        }
    ],
    "images": [
        {
            "name": "extremities_diffuse_unplugged_mit",
            "uri": "extremities_diffuse_unplugged_mit.png"
        },
        {
            "uri": "extremities_diffuse_unplugged_mit.ktx2"
        }
    ],
    "textures": [
        {
            "sampler": 0,
            "source": 0,
            "extensions": {
                "KHR_texture_basisu": {
                    "source": 1
                }
            }
        }
    ],
    "materials": [
        {
            "name": "drc_extremities_diffuse.009",
            "pbrMetallicRoughness": {
                "baseColorTexture": {
                    "index": 0
                },
                "metallicFactor": 0,
                "roughnessFactor": 0.998000026
            }
        }
    ],
    "meshes": [
        {
            "primitives": [
                {
                    "attributes": {
                        "POSITION": 0,
                        "NORMAL": 1,
                        "TEXCOORD_0": 2
                    },
                    "indices": 3,
                    "material": 0
                }
            ]
        }
    ],
    "nodes": [
        {
            "name": "Node",
            "mesh": 0
        }
    ],
    "scenes": [
        {
            "name": "Scene",
            "nodes": [
                0
            ]
        }
    ],
    "scene": 0
}