{
	"asset":{
		"generator":"Khronos glTF Blender I/O v4.3.47",
		"version":"2.0"
	},
	"scene":0,
	"scenes":[
		{
			"name":"Scene",
			"nodes":[
				0
			]
		}
	],
	"nodes":[
		{
			"mesh":0,
			"name":"Node"
		}
	],
	"materials":[
		{
			"name":"drc_extremities_diffuse.009",
			"pbrMetallicRoughness":{
				"baseColorTexture":{
					"index":0
				},
				"metallicFactor":0,
				"roughnessFactor":0.9980000257492065
			}
		}
	],
	"meshes":[
		{
			"name":"Node-Mesh.013",
			"primitives":[
				{
					"attributes":{
						"POSITION":0,
						"NORMAL":1,
						"TEXCOORD_0":2
					},
					"indices":3,
					"material":0
				}
			]
		}
	],
	"textures":[
		{
			"sampler":0,
			"source":0,
			"extensions":{
				"KHR_texture_basisu":{
					"source":1
				}
			}
		}
	],
	"images":[
		{
			"mimeType":"image/png",
			"name":"extremities_diffuse_unplugged_mit",
			"uri":"extremities_diffuse_unplugged_mit.png"
		},
		{
			"mimeType":"image/ktx2",
			"uri":"extremities_diffuse_unplugged_mit.ktx2"
		}
	],
	"accessors":[
		{
			"bufferView":0,
			"componentType":5126,
			"count":607,
			"max":[
				0.1728000044822693,
				0.010099999606609344,
				0.07169999927282333
			],
			"min":[
				-0.09019999951124191,
				-0.07649999856948853,
				-0.0681999996304512
			],
			"type":"VEC3"
		},
		{
			"bufferView":1,
			"componentType":5126,
			"count":607,
			"type":"VEC3"
		},
		{
			"bufferView":2,
			"componentType":5126,
			"count":607,
			"type":"VEC2"
		},
		{
			"bufferView":3,
			"componentType":5123,
			"count":1620,
			"type":"SCALAR"
		}
	],
	"bufferViews":[
		{
			"buffer":0,
			"byteLength":7284,
			"byteOffset":0,
			"target":34962
		},
		{
			"buffer":0,
			"byteLength":7284,
			"byteOffset":7284,
			"target":34962
		},
		{
			"buffer":0,
			"byteLength":4856,
			"byteOffset":14568,
			"target":34962
		},
		{
			"buffer":0,
			"byteLength":3240,
			"byteOffset":19424,
			"target":34963
		}
	],
	"samplers":[
		{
			"magFilter":9729,
			"minFilter":9987
		}
	],
	"buffers":[
		{
			"byteLength":22664,
			"uri":"r_foot.bin"
		}
	],
	"extensionsUsed":[
		"KHR_texture_basisu"
	]
}
