{
	"accessors":[
		{
			"name":"Node-Mesh_0_positions",
			"componentType":5126,
			"count":876,
			"min":[
				-0.05119999870657921,
				-0.048700001090765,
				-0.041200000792741776
			],
			"max":[
				0.05090000107884407,
				0.04839999973773956,
				0.11389999836683273
			],
			"type":"VEC3",
			"bufferView":0,
			"byteOffset":0
		},
		{
			"name":"Node-Mesh_0_normals",
			"componentType":5126,
			"count":876,
			"min":[
				-1,
				-0.9994942545890808,
				-1
			],
			"max":[
				1,
				0.9999427199363708,
				1
			],
			"type":"VEC3",
			"bufferView":1,
			"byteOffset":0
		},
		{
			"name":"Node-Mesh_0_texcoords",
			"componentType":5126,
			"count":876,
			"min":[
				0.0019000000320374966,
				0.5479999780654907
			],
			"max":[
				0.7925999760627747,
				0.9919000267982483
			],
			"type":"VEC2",
			"bufferView":2,
			"byteOffset":0
		},
		{
			"name":"Node-Mesh_0_indices",
			"componentType":5123,
			"count":876,
			"min":[
				0
			],
			"max":[
				875
			],
			"type":"SCALAR",
			"bufferView":3,
			"byteOffset":0
		}
	],
	"asset":{
		"generator":"obj2gltf",
		"version":"2.0"
	},
	"buffers":[
		{
			"name":"r_hand",
			"byteLength":29784,
			"uri":"r_hand.bin"
		}
	],
	"bufferViews":[
		{
			"name":"bufferView_0",
			"buffer":0,
			"byteLength":10512,
			"byteOffset":0,
			"byteStride":12,
			"target":34962
		},
		{
			"name":"bufferView_1",
			"buffer":0,
			"byteLength":10512,
			"byteOffset":10512,
			"byteStride":12,
			"target":34962
		},
		{
			"name":"bufferView_2",
			"buffer":0,
			"byteLength":7008,
			"byteOffset":21024,
			"byteStride":8,
			"target":34962
		},
		{
			"name":"bufferView_3",
			"buffer":0,
			"byteLength":1752,
			"byteOffset":28032,
			"target":34963
		}
	],
	"images":[
		{
			"name":"extremities_diffuse_unplugged_mit",
			"uri":"extremities_diffuse_unplugged_mit.png",
			"mimeType":"image/png"
		},
		{
			"mimeType":"image/ktx2",
			"uri":"extremities_diffuse_unplugged_mit.ktx2"
		}
	],
	"materials":[
		{
			"name":"extremities_diffuse",
			"pbrMetallicRoughness":{
				"baseColorTexture":{
					"index":0
				},
				"baseColorFactor":[
					1,
					1,
					1,
					1
				],
				"metallicFactor":0,
				"roughnessFactor":0.998
			},
			"emissiveFactor":[
				0,
				0,
				0
			],
			"alphaMode":"OPAQUE",
			"doubleSided":false
		}
	],
	"meshes":[
		{
			"name":"Node-Mesh",
			"primitives":[
				{
					"attributes":{
						"POSITION":0,
						"NORMAL":1,
						"TEXCOORD_0":2
					},
					"indices":3,
					"material":0,
					"mode":4
				}
			]
		}
	],
	"nodes":[
		{
			"name":"Node",
			"mesh":0
		}
	],
	"samplers":[
		{
			"wrapS":10497,
			"wrapT":10497
		}
	],
	"scene":0,
	"scenes":[
		{
			"nodes":[
				0
			]
		}
	],
	"textures":[
		{
			"name":"extremities_diffuse_unplugged_mit",
			"sampler":0,
			"source":0,
			"extensions":{
				"KHR_texture_basisu":{
					"source":1
				}
			}
		}
	],
	"extensionsUsed":[
		"KHR_texture_basisu"
	]
}
