{
	"asset":{
		"generator":"Khronos glTF Blender I/O v4.3.47",
		"version":"2.0"
	},
	"scene":0,
	"scenes":[
		{
			"name":"Scene",
			"nodes":[
				0
			]
		}
	],
	"nodes":[
		{
			"mesh":0,
			"name":"Node"
		}
	],
	"materials":[
		{
			"name":"drc_extremities_diffuse.010",
			"pbrMetallicRoughness":{
				"baseColorTexture":{
					"index":0
				},
				"metallicFactor":0,
				"roughnessFactor":0.9980000257492065
			}
		}
	],
	"meshes":[
		{
			"name":"Node-Mesh.016",
			"primitives":[
				{
					"attributes":{
						"POSITION":0,
						"NORMAL":1,
						"TEXCOORD_0":2
					},
					"indices":3,
					"material":0
				}
			]
		}
	],
	"textures":[
		{
			"sampler":0,
			"source":0,
			"extensions":{
				"KHR_texture_basisu":{
					"source":1
				}
			}
		}
	],
	"images":[
		{
			"mimeType":"image/png",
			"name":"extremities_diffuse_unplugged_mit",
			"uri":"extremities_diffuse_unplugged_mit.png"
		},
		{
			"mimeType":"image/ktx2",
			"uri":"extremities_diffuse_unplugged_mit.ktx2"
		}
	],
	"accessors":[
		{
			"bufferView":0,
			"componentType":5126,
			"count":815,
			"max":[
				0.08229999989271164,
				0.02019999921321869,
				0.05590000003576279
			],
			"min":[
				-0.06159999966621399,
				-0.09730000048875809,
				-0.020400000736117363
			],
			"type":"VEC3"
		},
		{
			"bufferView":1,
			"componentType":5126,
			"count":815,
			"type":"VEC3"
		},
		{
			"bufferView":2,
			"componentType":5126,
			"count":815,
			"type":"VEC2"
		},
		{
			"bufferView":3,
			"componentType":5123,
			"count":2541,
			"type":"SCALAR"
		}
	],
	"bufferViews":[
		{
			"buffer":0,
			"byteLength":9780,
			"byteOffset":0,
			"target":34962
		},
		{
			"buffer":0,
			"byteLength":9780,
			"byteOffset":9780,
			"target":34962
		},
		{
			"buffer":0,
			"byteLength":6520,
			"byteOffset":19560,
			"target":34962
		},
		{
			"buffer":0,
			"byteLength":5082,
			"byteOffset":26080,
			"target":34963
		}
	],
	"samplers":[
		{
			"magFilter":9729,
			"minFilter":9987
		}
	],
	"buffers":[
		{
			"byteLength":31164,
			"uri":"r_lglut.bin"
		}
	],
	"extensionsUsed":[
		"KHR_texture_basisu"
	]
}
