{
    "asset": {
        "version": "2.0",
        "generator": "gltfpack 0.23"
    },
    "extensionsUsed": [
        "EXT_meshopt_compression",
        "KHR_texture_basisu"
    ],
    "extensionsRequired": [
        "KHR_texture_basisu"
    ],
    "buffers": [
        {
            "uri": "r_lglut.bin",
            "byteLength": 18560
        },
        {
            "uri": "r_lglut.fallback.bin",
            "byteLength": 31164,
            "extensions": {
                "EXT_meshopt_compression": {
                    "fallback": true
                }
            }
        }
    ],
    "bufferViews": [
        {
            "buffer": 1,
            "byteOffset": 0,
            "byteLength": 9780,
            "byteStride": 12,
            "target": 34962,
            "extensions": {
                "EXT_meshopt_compression": {
                    "buffer": 0,
                    "byteOffset": 0,
                    "byteLength": 7296,
                    "byteStride": 12,
                    "mode": "ATTRIBUTES",
                    "count": 815
                }
            }
        },
        {
            "buffer": 1,
            "byteOffset": 9780,
            "byteLength": 9780,
            "byteStride": 12,
            "target": 34962,
            "extensions": {
                "EXT_meshopt_compression": {
                    "buffer": 0,
                    "byteOffset": 7296,
                    "byteLength": 5859,
                    "byteStride": 12,
                    "mode": "ATTRIBUTES",
                    "count": 815
                }
            }
        },
        {
            "buffer": 1,
            "byteOffset": 19560,
            "byteLength": 6520,
            "byteStride": 8,
            "target": 34962,
            "extensions": {
                "EXT_meshopt_compression": {
                    "buffer": 0,
                    "byteOffset": 13156,
                    "byteLength": 4506,
                    "byteStride": 8,
                    "mode": "ATTRIBUTES",
                    "count": 815
                }
            }
        },
        {
            "buffer": 1,
            "byteOffset": 26080,
            "byteLength": 5082,
            "target": 34963,
            "extensions": {
                "EXT_meshopt_compression": {
                    "buffer": 0,
                    "byteOffset": 17664,
                    "byteLength": 895,
                    "byteStride": 2,
                    "mode": "TRIANGLES",
                    "count": 2541
                }
            }
        }
    ],
    "accessors": [
        {
            "bufferView": 0,
            "byteOffset": 0,
            "componentType": 5126,
            "count": 815,
            "type": "VEC3",
            "min": [
                -0.0615999997,
                -0.0973000005,
                -0.0204000007
            ],
            "max": [
                0.0822999999,
                0.0201999992,
                0.0559
            ]
        },
        {
            "bufferView": 1,
            "byteOffset": 0,
            "componentType": 5126,
            "count": 815,
            "type": "VEC3"
        },
        {
            "bufferView": 2,
            "byteOffset": 0,
            "componentType": 5126,
            "count": 815,
            "type": "VEC2"
        },
        {
            "bufferView": 3,
            "byteOffset": 0,
            "componentType": 5123,
            "count": 2541,
            "type": "SCALAR"
        }
    ],
    "samplers": [
        {
            "magFilter": 9729,
            "minFilter": 9987
        }
    ],
    "images": [
        {
            "name": "extremities_diffuse_unplugged_mit",
            "uri": "extremities_diffuse_unplugged_mit.png"
        },
        {
            "uri": "extremities_diffuse_unplugged_mit.ktx2"
        }
    ],
    "textures": [
        {
            "sampler": 0,
            "source": 0,
            "extensions": {
                "KHR_texture_basisu": {
                    "source": 1
                }
            }
        }
    ],
    "materials": [
        {
            "name": "drc_extremities_diffuse.010",
            "pbrMetallicRoughness": {
                "baseColorTexture": {
                    "index": 0
                },
                "metallicFactor": 0,
                "roughnessFactor": 0.998000026
            }
        }
    ],
    "meshes": [
        {
            "primitives": [
                {
                    "attributes": {
                        "POSITION": 0,
                        "NORMAL": 1,
                        "TEXCOORD_0": 2
                    },
                    "indices": 3,
                    "material": 0
                }
            ]
        }
    ],
    "nodes": [
        {
            "name": "Node",
            "mesh": 0
        }
    ],
    "scenes": [
        {
            "name": "Scene",
            "nodes": [
                0
            ]
        }
    ],
    "scene": 0
}