{
    "asset": {
        "version": "2.0",
        "generator": "gltfpack 0.23"
    },
    "extensionsUsed": [
        "EXT_meshopt_compression",
        "KHR_texture_basisu"
    ],
    "extensionsRequired": [
        "KHR_texture_basisu"
    ],
    "buffers": [
        {
            "uri": "r_uarm.bin",
            "byteLength": 14452
        },
        {
            "uri": "r_uarm.fallback.bin",
            "byteLength": 24172,
            "extensions": {
                "EXT_meshopt_compression": {
                    "fallback": true
                }
            }
        }
    ],
    "bufferViews": [
        {
            "buffer": 1,
            "byteOffset": 0,
            "byteLength": 7836,
            "byteStride": 12,
            "target": 34962,
            "extensions": {
                "EXT_meshopt_compression": {
                    "buffer": 0,
                    "byteOffset": 0,
                    "byteLength": 5830,
                    "byteStride": 12,
                    "mode": "ATTRIBUTES",
                    "count": 653
                }
            }
        },
        {
            "buffer": 1,
            "byteOffset": 7836,
            "byteLength": 7836,
            "byteStride": 12,
            "target": 34962,
            "extensions": {
                "EXT_meshopt_compression": {
                    "buffer": 0,
                    "byteOffset": 5832,
                    "byteLength": 4295,
                    "byteStride": 12,
                    "mode": "ATTRIBUTES",
                    "count": 653
                }
            }
        },
        {
            "buffer": 1,
            "byteOffset": 15672,
            "byteLength": 5224,
            "byteStride": 8,
            "target": 34962,
            "extensions": {
                "EXT_meshopt_compression": {
                    "buffer": 0,
                    "byteOffset": 10128,
                    "byteLength": 3750,
                    "byteStride": 8,
                    "mode": "ATTRIBUTES",
                    "count": 653
                }
            }
        },
        {
            "buffer": 1,
            "byteOffset": 20896,
            "byteLength": 3276,
            "target": 34963,
            "extensions": {
                "EXT_meshopt_compression": {
                    "buffer": 0,
                    "byteOffset": 13880,
                    "byteLength": 571,
                    "byteStride": 2,
                    "mode": "TRIANGLES",
                    "count": 1638
                }
            }
        }
    ],
    "accessors": [
        {
            "bufferView": 0,
            "byteOffset": 0,
            "componentType": 5126,
            "count": 653,
            "type": "VEC3",
            "min": [
                -0.0842000023,
                -0.0694999993,
                -0.0115999999
            ],
            "max": [
                0.0632999986,
                0.0566000007,
                0.165299997
            ]
        },
        {
            "bufferView": 1,
            "byteOffset": 0,
            "componentType": 5126,
            "count": 653,
            "type": "VEC3"
        },
        {
            "bufferView": 2,
            "byteOffset": 0,
            "componentType": 5126,
            "count": 653,
            "type": "VEC2"
        },
        {
            "bufferView": 3,
            "byteOffset": 0,
            "componentType": 5123,
            "count": 1638,
            "type": "SCALAR"
        }
    ],
    "samplers": [
        {
            "magFilter": 9729,
            "minFilter": 9987
        }
    ],
    "images": [
        {
            "name": "extremities_diffuse_unplugged_mit",
            "uri": "extremities_diffuse_unplugged_mit.png"
        },
        {
            "uri": "extremities_diffuse_unplugged_mit.ktx2"
        }
    ],
    "textures": [
        {
            "sampler": 0,
            "source": 0,
            "extensions": {
                "KHR_texture_basisu": {
                    "source": 1
                }
            }
        }
    ],
    "materials": [
        {
            "name": "drc_extremities_diffuse.014",
            "pbrMetallicRoughness": {
                "baseColorTexture": {
                    "index": 0
                },
                "metallicFactor": 0,
                "roughnessFactor": 0.998000026
            }
        }
    ],
    "meshes": [
        {
            "primitives": [
                {
                    "attributes": {
                        "POSITION": 0,
                        "NORMAL": 1,
                        "TEXCOORD_0": 2
                    },
                    "indices": 3,
                    "material": 0
                }
            ]
        }
    ],
    "nodes": [
        {
            "name": "Node",
            "mesh": 0
        }
    ],
    "scenes": [
        {
            "name": "Scene",
            "nodes": [
                0
            ]
        }
    ],
    "scene": 0
}