{
	"asset":{
		"generator":"Khronos glTF Blender I/O v4.3.47",
		"version":"2.0"
	},
	"scene":0,
	"scenes":[
		{
			"name":"Scene",
			"nodes":[
				0
			]
		}
	],
	"nodes":[
		{
			"mesh":0,
			"name":"Node"
		}
	],
	"materials":[
		{
			"name":"drc_extremities_diffuse.014",
			"pbrMetallicRoughness":{
				"baseColorTexture":{
					"index":0
				},
				"metallicFactor":0,
				"roughnessFactor":0.9980000257492065
			}
		}
	],
	"meshes":[
		{
			"name":"Node-Mesh.020",
			"primitives":[
				{
					"attributes":{
						"POSITION":0,
						"NORMAL":1,
						"TEXCOORD_0":2
					},
					"indices":3,
					"material":0
				}
			]
		}
	],
	"textures":[
		{
			"sampler":0,
			"source":0,
			"extensions":{
				"KHR_texture_basisu":{
					"source":1
				}
			}
		}
	],
	"images":[
		{
			"mimeType":"image/png",
			"name":"extremities_diffuse_unplugged_mit",
			"uri":"extremities_diffuse_unplugged_mit.png"
		},
		{
			"mimeType":"image/ktx2",
			"uri":"extremities_diffuse_unplugged_mit.ktx2"
		}
	],
	"accessors":[
		{
			"bufferView":0,
			"componentType":5126,
			"count":653,
			"max":[
				0.0632999986410141,
				0.05660000070929527,
				0.16529999673366547
			],
			"min":[
				-0.08420000225305557,
				-0.06949999928474426,
				-0.011599999852478504
			],
			"type":"VEC3"
		},
		{
			"bufferView":1,
			"componentType":5126,
			"count":653,
			"type":"VEC3"
		},
		{
			"bufferView":2,
			"componentType":5126,
			"count":653,
			"type":"VEC2"
		},
		{
			"bufferView":3,
			"componentType":5123,
			"count":1638,
			"type":"SCALAR"
		}
	],
	"bufferViews":[
		{
			"buffer":0,
			"byteLength":7836,
			"byteOffset":0,
			"target":34962
		},
		{
			"buffer":0,
			"byteLength":7836,
			"byteOffset":7836,
			"target":34962
		},
		{
			"buffer":0,
			"byteLength":5224,
			"byteOffset":15672,
			"target":34962
		},
		{
			"buffer":0,
			"byteLength":3276,
			"byteOffset":20896,
			"target":34963
		}
	],
	"samplers":[
		{
			"magFilter":9729,
			"minFilter":9987
		}
	],
	"buffers":[
		{
			"byteLength":24172,
			"uri":"r_uarm.bin"
		}
	],
	"extensionsUsed":[
		"KHR_texture_basisu"
	]
}
