{
	"asset":{
		"generator":"Khronos glTF Blender I/O v4.3.47",
		"version":"2.0"
	},
	"scene":0,
	"scenes":[
		{
			"name":"Scene",
			"nodes":[
				0
			]
		}
	],
	"nodes":[
		{
			"mesh":0,
			"name":"Node"
		}
	],
	"materials":[
		{
			"name":"_07 - Default",
			"pbrMetallicRoughness":{
				"baseColorTexture":{
					"index":0
				},
				"metallicFactor":0,
				"roughnessFactor":0.9980000257492065
			}
		}
	],
	"meshes":[
		{
			"name":"Node-Mesh.023",
			"primitives":[
				{
					"attributes":{
						"POSITION":0,
						"NORMAL":1,
						"TEXCOORD_0":2
					},
					"indices":3,
					"material":0
				}
			]
		}
	],
	"textures":[
		{
			"sampler":0,
			"source":0,
			"extensions":{
				"KHR_texture_basisu":{
					"source":1
				}
			}
		}
	],
	"images":[
		{
			"mimeType":"image/png",
			"name":"torso_diffuse_unplugged_mit",
			"uri":"torso_diffuse_unplugged_mit.png"
		},
		{
			"mimeType":"image/ktx2",
			"uri":"torso_diffuse_unplugged_mit.ktx2"
		}
	],
	"accessors":[
		{
			"bufferView":0,
			"componentType":5126,
			"count":6486,
			"max":[
				0.3131999969482422,
				0.8309999704360962,
				0.2800000011920929
			],
			"min":[
				-0.310699999332428,
				-0.02889999933540821,
				-0.2800000011920929
			],
			"type":"VEC3"
		},
		{
			"bufferView":1,
			"componentType":5126,
			"count":6486,
			"type":"VEC3"
		},
		{
			"bufferView":2,
			"componentType":5126,
			"count":6486,
			"type":"VEC2"
		},
		{
			"bufferView":3,
			"componentType":5123,
			"count":20892,
			"type":"SCALAR"
		}
	],
	"bufferViews":[
		{
			"buffer":0,
			"byteLength":77832,
			"byteOffset":0,
			"target":34962
		},
		{
			"buffer":0,
			"byteLength":77832,
			"byteOffset":77832,
			"target":34962
		},
		{
			"buffer":0,
			"byteLength":51888,
			"byteOffset":155664,
			"target":34962
		},
		{
			"buffer":0,
			"byteLength":41784,
			"byteOffset":207552,
			"target":34963
		}
	],
	"samplers":[
		{
			"magFilter":9729,
			"minFilter":9987
		}
	],
	"buffers":[
		{
			"byteLength":249336,
			"uri":"utorso.bin"
		}
	],
	"extensionsUsed":[
		"KHR_texture_basisu"
	]
}
