{
    "asset": {
        "version": "2.0",
        "generator": "gltfpack 0.23"
    },
    "extensionsUsed": [
        "EXT_meshopt_compression"
    ],
    "buffers": [
        {
            "uri": "base_link_left.bin",
            "byteLength": 237452
        },
        {
            "uri": "base_link_left.fallback.bin",
            "byteLength": 457788,
            "extensions": {
                "EXT_meshopt_compression": {
                    "fallback": true
                }
            }
        }
    ],
    "bufferViews": [
        {
            "buffer": 1,
            "byteOffset": 0,
            "byteLength": 202860,
            "byteStride": 12,
            "target": 34962,
            "extensions": {
                "EXT_meshopt_compression": {
                    "buffer": 0,
                    "byteOffset": 0,
                    "byteLength": 133811,
                    "byteStride": 12,
                    "mode": "ATTRIBUTES",
                    "count": 16905
                }
            }
        },
        {
            "buffer": 1,
            "byteOffset": 202860,
            "byteLength": 202860,
            "byteStride": 12,
            "target": 34962,
            "extensions": {
                "EXT_meshopt_compression": {
                    "buffer": 0,
                    "byteOffset": 133812,
                    "byteLength": 94885,
                    "byteStride": 12,
                    "mode": "ATTRIBUTES",
                    "count": 16905
                }
            }
        },
        {
            "buffer": 1,
            "byteOffset": 405720,
            "byteLength": 52068,
            "target": 34963,
            "extensions": {
                "EXT_meshopt_compression": {
                    "buffer": 0,
                    "byteOffset": 228700,
                    "byteLength": 8749,
                    "byteStride": 2,
                    "mode": "TRIANGLES",
                    "count": 26034
                }
            }
        }
    ],
    "accessors": [
        {
            "bufferView": 0,
            "byteOffset": 0,
            "componentType": 5126,
            "count": 16905,
            "type": "VEC3",
            "min": [
                -0.0295000002,
                -0.0567384996,
                -0.0949999988
            ],
            "max": [
                0.0113000004,
                0.0567384996,
                0.00170000002
            ]
        },
        {
            "bufferView": 1,
            "byteOffset": 0,
            "componentType": 5126,
            "count": 16905,
            "type": "VEC3"
        },
        {
            "bufferView": 2,
            "byteOffset": 0,
            "componentType": 5123,
            "count": 26034,
            "type": "SCALAR"
        }
    ],
    "materials": [
        {
            "name": "AluminumBodyMaterial",
            "pbrMetallicRoughness": {
                "baseColorFactor": [
                    0.00100000005,
                    0.00100000005,
                    0.00100000005,
                    1
                ],
                "metallicFactor": 0,
                "roughnessFactor": 0.5
            }
        }
    ],
    "meshes": [
        {
            "primitives": [
                {
                    "attributes": {
                        "POSITION": 0,
                        "NORMAL": 1
                    },
                    "indices": 2,
                    "material": 0
                }
            ]
        }
    ],
    "nodes": [
        {
            "name": "<STL_BINARY>",
            "mesh": 0
        }
    ],
    "scenes": [
        {
            "nodes": [
                0
            ]
        }
    ],
    "scene": 0
}