{
    "asset": {
        "version": "2.0",
        "generator": "gltfpack 0.23"
    },
    "extensionsUsed": [
        "EXT_meshopt_compression"
    ],
    "buffers": [
        {
            "uri": "base_link.bin",
            "byteLength": 82480
        },
        {
            "uri": "base_link.fallback.bin",
            "byteLength": 163680,
            "extensions": {
                "EXT_meshopt_compression": {
                    "fallback": true
                }
            }
        }
    ],
    "bufferViews": [
        {
            "buffer": 1,
            "byteOffset": 0,
            "byteLength": 72012,
            "byteStride": 12,
            "target": 34962,
            "extensions": {
                "EXT_meshopt_compression": {
                    "buffer": 0,
                    "byteOffset": 0,
                    "byteLength": 48764,
                    "byteStride": 12,
                    "mode": "ATTRIBUTES",
                    "count": 6001
                }
            }
        },
        {
            "buffer": 1,
            "byteOffset": 72012,
            "byteLength": 72012,
            "byteStride": 12,
            "target": 34962,
            "extensions": {
                "EXT_meshopt_compression": {
                    "buffer": 0,
                    "byteOffset": 48764,
                    "byteLength": 30355,
                    "byteStride": 12,
                    "mode": "ATTRIBUTES",
                    "count": 6001
                }
            }
        },
        {
            "buffer": 1,
            "byteOffset": 144024,
            "byteLength": 19656,
            "target": 34963,
            "extensions": {
                "EXT_meshopt_compression": {
                    "buffer": 0,
                    "byteOffset": 79120,
                    "byteLength": 3357,
                    "byteStride": 2,
                    "mode": "TRIANGLES",
                    "count": 9828
                }
            }
        }
    ],
    "accessors": [
        {
            "bufferView": 0,
            "byteOffset": 0,
            "componentType": 5126,
            "count": 6001,
            "type": "VEC3",
            "min": [
                -0.0295000002,
                -0.0949999988,
                -0.0567384996
            ],
            "max": [
                0.0113000004,
                0.00170000002,
                0.0567384996
            ]
        },
        {
            "bufferView": 1,
            "byteOffset": 0,
            "componentType": 5126,
            "count": 6001,
            "type": "VEC3"
        },
        {
            "bufferView": 2,
            "byteOffset": 0,
            "componentType": 5123,
            "count": 9828,
            "type": "SCALAR"
        }
    ],
    "materials": [
        {
            "name": "AluminumBodyMaterial",
            "pbrMetallicRoughness": {
                "baseColorFactor": [
                    0.00100000005,
                    0.00100000005,
                    0.00100000005,
                    1
                ],
                "metallicFactor": 0,
                "roughnessFactor": 0.5
            }
        }
    ],
    "meshes": [
        {
            "primitives": [
                {
                    "attributes": {
                        "POSITION": 0,
                        "NORMAL": 1
                    },
                    "indices": 2,
                    "material": 0
                }
            ]
        }
    ],
    "nodes": [
        {
            "name": "<STL_BINARY>",
            "mesh": 0
        }
    ],
    "scenes": [
        {
            "nodes": [
                0
            ]
        }
    ],
    "scene": 0
}