{
    "asset": {
        "version": "2.0",
        "generator": "gltfpack 0.23"
    },
    "extensionsUsed": [
        "EXT_meshopt_compression"
    ],
    "buffers": [
        {
            "uri": "link_3.0_tip.bin",
            "byteLength": 43348
        },
        {
            "uri": "link_3.0_tip.fallback.bin",
            "byteLength": 78372,
            "extensions": {
                "EXT_meshopt_compression": {
                    "fallback": true
                }
            }
        }
    ],
    "bufferViews": [
        {
            "buffer": 1,
            "byteOffset": 0,
            "byteLength": 34872,
            "byteStride": 12,
            "target": 34962,
            "extensions": {
                "EXT_meshopt_compression": {
                    "buffer": 0,
                    "byteOffset": 0,
                    "byteLength": 26425,
                    "byteStride": 12,
                    "mode": "ATTRIBUTES",
                    "count": 2906
                }
            }
        },
        {
            "buffer": 1,
            "byteOffset": 34872,
            "byteLength": 34872,
            "byteStride": 12,
            "target": 34962,
            "extensions": {
                "EXT_meshopt_compression": {
                    "buffer": 0,
                    "byteOffset": 26428,
                    "byteLength": 15457,
                    "byteStride": 12,
                    "mode": "ATTRIBUTES",
                    "count": 2906
                }
            }
        },
        {
            "buffer": 1,
            "byteOffset": 69744,
            "byteLength": 8628,
            "target": 34963,
            "extensions": {
                "EXT_meshopt_compression": {
                    "buffer": 0,
                    "byteOffset": 41888,
                    "byteLength": 1457,
                    "byteStride": 2,
                    "mode": "TRIANGLES",
                    "count": 4314
                }
            }
        }
    ],
    "accessors": [
        {
            "bufferView": 0,
            "byteOffset": 0,
            "componentType": 5126,
            "count": 2906,
            "type": "VEC3",
            "min": [
                -0.0120000001,
                -0.0109999999,
                -0.0119762998
            ],
            "max": [
                0.0120000001,
                0.0120000001,
                0.0120000001
            ]
        },
        {
            "bufferView": 1,
            "byteOffset": 0,
            "componentType": 5126,
            "count": 2906,
            "type": "VEC3"
        },
        {
            "bufferView": 2,
            "byteOffset": 0,
            "componentType": 5123,
            "count": 4314,
            "type": "SCALAR"
        }
    ],
    "materials": [
        {
            "name": "SiliconeFingerTip",
            "pbrMetallicRoughness": {
                "baseColorFactor": [
                    0.800000012,
                    0.800000012,
                    0.800000012,
                    0.800000012
                ],
                "metallicFactor": 0,
                "roughnessFactor": 0.899999976
            }
        }
    ],
    "meshes": [
        {
            "primitives": [
                {
                    "attributes": {
                        "POSITION": 0,
                        "NORMAL": 1
                    },
                    "indices": 2,
                    "material": 0
                }
            ]
        }
    ],
    "nodes": [
        {
            "name": "<STL_BINARY>",
            "mesh": 0
        }
    ],
    "scenes": [
        {
            "nodes": [
                0
            ]
        }
    ],
    "scene": 0
}