{
    "asset": {
        "version": "2.0",
        "generator": "gltfpack 0.23"
    },
    "extensionsUsed": [
        "EXT_meshopt_compression"
    ],
    "buffers": [
        {
            "uri": "link_1.0.bin",
            "byteLength": 34032
        },
        {
            "uri": "link_1.0.fallback.bin",
            "byteLength": 71112,
            "extensions": {
                "EXT_meshopt_compression": {
                    "fallback": true
                }
            }
        }
    ],
    "bufferViews": [
        {
            "buffer": 1,
            "byteOffset": 0,
            "byteLength": 31356,
            "byteStride": 12,
            "target": 34962,
            "extensions": {
                "EXT_meshopt_compression": {
                    "buffer": 0,
                    "byteOffset": 0,
                    "byteLength": 19741,
                    "byteStride": 12,
                    "mode": "ATTRIBUTES",
                    "count": 2613
                }
            }
        },
        {
            "buffer": 1,
            "byteOffset": 31356,
            "byteLength": 31356,
            "byteStride": 12,
            "target": 34962,
            "extensions": {
                "EXT_meshopt_compression": {
                    "buffer": 0,
                    "byteOffset": 19744,
                    "byteLength": 12850,
                    "byteStride": 12,
                    "mode": "ATTRIBUTES",
                    "count": 2613
                }
            }
        },
        {
            "buffer": 1,
            "byteOffset": 62712,
            "byteLength": 8400,
            "target": 34963,
            "extensions": {
                "EXT_meshopt_compression": {
                    "buffer": 0,
                    "byteOffset": 32596,
                    "byteLength": 1436,
                    "byteStride": 2,
                    "mode": "TRIANGLES",
                    "count": 4200
                }
            }
        }
    ],
    "accessors": [
        {
            "bufferView": 0,
            "byteOffset": 0,
            "componentType": 5126,
            "count": 2613,
            "type": "VEC3",
            "min": [
                -0.00980000012,
                -0.00879999995,
                -0.0134500004
            ],
            "max": [
                0.00980000012,
                0.0627999976,
                0.0135500003
            ]
        },
        {
            "bufferView": 1,
            "byteOffset": 0,
            "componentType": 5126,
            "count": 2613,
            "type": "VEC3"
        },
        {
            "bufferView": 2,
            "byteOffset": 0,
            "componentType": 5123,
            "count": 4200,
            "type": "SCALAR"
        }
    ],
    "materials": [
        {
            "name": "AluminumBodyMaterial",
            "pbrMetallicRoughness": {
                "baseColorFactor": [
                    0.00100000005,
                    0.00100000005,
                    0.00100000005,
                    1
                ],
                "metallicFactor": 0,
                "roughnessFactor": 0.5
            }
        }
    ],
    "meshes": [
        {
            "primitives": [
                {
                    "attributes": {
                        "POSITION": 0,
                        "NORMAL": 1
                    },
                    "indices": 2,
                    "material": 0
                }
            ]
        }
    ],
    "nodes": [
        {
            "name": "<STL_BINARY>",
            "mesh": 0
        }
    ],
    "scenes": [
        {
            "nodes": [
                0
            ]
        }
    ],
    "scene": 0
}