{
    "asset": {
        "version": "2.0",
        "generator": "gltfpack 0.23"
    },
    "extensionsUsed": [
        "EXT_meshopt_compression"
    ],
    "buffers": [
        {
            "uri": "link_12.0_left.bin",
            "byteLength": 126436
        },
        {
            "uri": "link_12.0_left.fallback.bin",
            "byteLength": 236808,
            "extensions": {
                "EXT_meshopt_compression": {
                    "fallback": true
                }
            }
        }
    ],
    "bufferViews": [
        {
            "buffer": 1,
            "byteOffset": 0,
            "byteLength": 105384,
            "byteStride": 12,
            "target": 34962,
            "extensions": {
                "EXT_meshopt_compression": {
                    "buffer": 0,
                    "byteOffset": 0,
                    "byteLength": 70992,
                    "byteStride": 12,
                    "mode": "ATTRIBUTES",
                    "count": 8782
                }
            }
        },
        {
            "buffer": 1,
            "byteOffset": 105384,
            "byteLength": 105384,
            "byteStride": 12,
            "target": 34962,
            "extensions": {
                "EXT_meshopt_compression": {
                    "buffer": 0,
                    "byteOffset": 70992,
                    "byteLength": 51055,
                    "byteStride": 12,
                    "mode": "ATTRIBUTES",
                    "count": 8782
                }
            }
        },
        {
            "buffer": 1,
            "byteOffset": 210768,
            "byteLength": 26040,
            "target": 34963,
            "extensions": {
                "EXT_meshopt_compression": {
                    "buffer": 0,
                    "byteOffset": 122048,
                    "byteLength": 4387,
                    "byteStride": 2,
                    "mode": "TRIANGLES",
                    "count": 13020
                }
            }
        }
    ],
    "accessors": [
        {
            "bufferView": 0,
            "byteOffset": 0,
            "componentType": 5126,
            "count": 8782,
            "type": "VEC3",
            "min": [
                -0.0392000005,
                -0.0414999984,
                -0.0260000005
            ],
            "max": [
                0.00549999997,
                0.00800000038,
                0.00800000038
            ]
        },
        {
            "bufferView": 1,
            "byteOffset": 0,
            "componentType": 5126,
            "count": 8782,
            "type": "VEC3"
        },
        {
            "bufferView": 2,
            "byteOffset": 0,
            "componentType": 5123,
            "count": 13020,
            "type": "SCALAR"
        }
    ],
    "materials": [
        {
            "name": "AluminumBodyMaterial",
            "pbrMetallicRoughness": {
                "baseColorFactor": [
                    0.00100000005,
                    0.00100000005,
                    0.00100000005,
                    1
                ],
                "metallicFactor": 0,
                "roughnessFactor": 0.5
            }
        }
    ],
    "meshes": [
        {
            "primitives": [
                {
                    "attributes": {
                        "POSITION": 0,
                        "NORMAL": 1
                    },
                    "indices": 2,
                    "material": 0
                }
            ]
        }
    ],
    "nodes": [
        {
            "name": "<STL_BINARY>",
            "mesh": 0
        }
    ],
    "scenes": [
        {
            "nodes": [
                0
            ]
        }
    ],
    "scene": 0
}