{
    "asset": {
        "version": "2.0",
        "generator": "gltfpack 0.23"
    },
    "extensionsUsed": [
        "EXT_meshopt_compression"
    ],
    "buffers": [
        {
            "uri": "link_2.0.bin",
            "byteLength": 26140
        },
        {
            "uri": "link_2.0.fallback.bin",
            "byteLength": 56880,
            "extensions": {
                "EXT_meshopt_compression": {
                    "fallback": true
                }
            }
        }
    ],
    "bufferViews": [
        {
            "buffer": 1,
            "byteOffset": 0,
            "byteLength": 25272,
            "byteStride": 12,
            "target": 34962,
            "extensions": {
                "EXT_meshopt_compression": {
                    "buffer": 0,
                    "byteOffset": 0,
                    "byteLength": 15331,
                    "byteStride": 12,
                    "mode": "ATTRIBUTES",
                    "count": 2106
                }
            }
        },
        {
            "buffer": 1,
            "byteOffset": 25272,
            "byteLength": 25272,
            "byteStride": 12,
            "target": 34962,
            "extensions": {
                "EXT_meshopt_compression": {
                    "buffer": 0,
                    "byteOffset": 15332,
                    "byteLength": 9713,
                    "byteStride": 12,
                    "mode": "ATTRIBUTES",
                    "count": 2106
                }
            }
        },
        {
            "buffer": 1,
            "byteOffset": 50544,
            "byteLength": 6336,
            "target": 34963,
            "extensions": {
                "EXT_meshopt_compression": {
                    "buffer": 0,
                    "byteOffset": 25048,
                    "byteLength": 1090,
                    "byteStride": 2,
                    "mode": "TRIANGLES",
                    "count": 3168
                }
            }
        }
    ],
    "accessors": [
        {
            "bufferView": 0,
            "byteOffset": 0,
            "componentType": 5126,
            "count": 2106,
            "type": "VEC3",
            "min": [
                -0.00980000012,
                -0.00630000001,
                -0.0134500004
            ],
            "max": [
                0.00980000012,
                0.0472000018,
                0.0135500003
            ]
        },
        {
            "bufferView": 1,
            "byteOffset": 0,
            "componentType": 5126,
            "count": 2106,
            "type": "VEC3"
        },
        {
            "bufferView": 2,
            "byteOffset": 0,
            "componentType": 5123,
            "count": 3168,
            "type": "SCALAR"
        }
    ],
    "materials": [
        {
            "name": "AluminumBodyMaterial",
            "pbrMetallicRoughness": {
                "baseColorFactor": [
                    0.00100000005,
                    0.00100000005,
                    0.00100000005,
                    1
                ],
                "metallicFactor": 0,
                "roughnessFactor": 0.5
            }
        }
    ],
    "meshes": [
        {
            "primitives": [
                {
                    "attributes": {
                        "POSITION": 0,
                        "NORMAL": 1
                    },
                    "indices": 2,
                    "material": 0
                }
            ]
        }
    ],
    "nodes": [
        {
            "name": "<STL_BINARY>",
            "mesh": 0
        }
    ],
    "scenes": [
        {
            "nodes": [
                0
            ]
        }
    ],
    "scene": 0
}