{
    "asset": {
        "version": "2.0",
        "generator": "gltfpack 0.23"
    },
    "extensionsUsed": [
        "EXT_meshopt_compression"
    ],
    "buffers": [
        {
            "uri": "link_0.0.bin",
            "byteLength": 24848
        },
        {
            "uri": "link_0.0.fallback.bin",
            "byteLength": 50676,
            "extensions": {
                "EXT_meshopt_compression": {
                    "fallback": true
                }
            }
        }
    ],
    "bufferViews": [
        {
            "buffer": 1,
            "byteOffset": 0,
            "byteLength": 21888,
            "byteStride": 12,
            "target": 34962,
            "extensions": {
                "EXT_meshopt_compression": {
                    "buffer": 0,
                    "byteOffset": 0,
                    "byteLength": 13106,
                    "byteStride": 12,
                    "mode": "ATTRIBUTES",
                    "count": 1824
                }
            }
        },
        {
            "buffer": 1,
            "byteOffset": 21888,
            "byteLength": 21888,
            "byteStride": 12,
            "target": 34962,
            "extensions": {
                "EXT_meshopt_compression": {
                    "buffer": 0,
                    "byteOffset": 13108,
                    "byteLength": 10553,
                    "byteStride": 12,
                    "mode": "ATTRIBUTES",
                    "count": 1824
                }
            }
        },
        {
            "buffer": 1,
            "byteOffset": 43776,
            "byteLength": 6900,
            "target": 34963,
            "extensions": {
                "EXT_meshopt_compression": {
                    "buffer": 0,
                    "byteOffset": 23664,
                    "byteLength": 1182,
                    "byteStride": 2,
                    "mode": "TRIANGLES",
                    "count": 3450
                }
            }
        }
    ],
    "accessors": [
        {
            "bufferView": 0,
            "byteOffset": 0,
            "componentType": 5126,
            "count": 1824,
            "type": "VEC3",
            "min": [
                -0.00980000012,
                -2.32568566e-16,
                -0.0134500004
            ],
            "max": [
                0.00980000012,
                0.0219999999,
                0.0134500004
            ]
        },
        {
            "bufferView": 1,
            "byteOffset": 0,
            "componentType": 5126,
            "count": 1824,
            "type": "VEC3"
        },
        {
            "bufferView": 2,
            "byteOffset": 0,
            "componentType": 5123,
            "count": 3450,
            "type": "SCALAR"
        }
    ],
    "materials": [
        {
            "name": "AluminumBodyMaterial",
            "pbrMetallicRoughness": {
                "baseColorFactor": [
                    0.00100000005,
                    0.00100000005,
                    0.00100000005,
                    1
                ],
                "metallicFactor": 0,
                "roughnessFactor": 0.5
            }
        }
    ],
    "meshes": [
        {
            "primitives": [
                {
                    "attributes": {
                        "POSITION": 0,
                        "NORMAL": 1
                    },
                    "indices": 2,
                    "material": 0
                }
            ]
        }
    ],
    "nodes": [
        {
            "name": "<STL_BINARY>",
            "mesh": 0
        }
    ],
    "scenes": [
        {
            "nodes": [
                0
            ]
        }
    ],
    "scene": 0
}