{
  "accessors": [
    {
      "name": "<STL_BINARY>_1_0_positions",
      "componentType": 5126,
      "count": 8204,
      "min": [
        -0.03920000046491623,
        -0.00800000037997961,
        -0.026000000536441803
      ],
      "max": [
        0.005499999970197678,
        0.04149999842047691,
        0.00800000037997961
      ],
      "type": "VEC3",
      "bufferView": 0,
      "byteOffset": 0
    },
    {
      "name": "<STL_BINARY>_1_0_normals",
      "componentType": 5126,
      "count": 8204,
      "min": [
        -1,
        -1,
        -1
      ],
      "max": [
        1,
        1,
        1
      ],
      "type": "VEC3",
      "bufferView": 1,
      "byteOffset": 0
    },
    {
      "name": "<STL_BINARY>_1_0_indices",
      "componentType": 5123,
      "count": 12252,
      "min": [
        0
      ],
      "max": [
        8203
      ],
      "type": "SCALAR",
      "bufferView": 2,
      "byteOffset": 0
    }
  ],
  "asset": {
    "generator": "obj2gltf",
    "version": "2.0"
  },
  "buffers": [
    {
      "name": "link_12.0_right",
      "byteLength": 221400,
      "uri": "link_12.0_right.bin"
    }
  ],
  "bufferViews": [
    {
      "name": "bufferView_0",
      "buffer": 0,
      "byteLength": 98448,
      "byteOffset": 0,
      "byteStride": 12,
      "target": 34962
    },
    {
      "name": "bufferView_1",
      "buffer": 0,
      "byteLength": 98448,
      "byteOffset": 98448,
      "byteStride": 12,
      "target": 34962
    },
    {
      "name": "bufferView_2",
      "buffer": 0,
      "byteLength": 24504,
      "byteOffset": 196896,
      "target": 34963
    }
  ],
  "materials": [
    {
      "name": "AluminumBodyMaterial",
      "pbrMetallicRoughness": {
        "baseColorFactor": [
          0.001,
          0.001,
          0.001,
          1
        ],
        "metallicFactor": 0,
        "roughnessFactor": 0.5
      },
      "emissiveFactor": [
        0,
        0,
        0
      ],
      "alphaMode": "OPAQUE",
      "doubleSided": false
    }
  ],
  "meshes": [
    {
      "name": "<STL_BINARY>_1",
      "primitives": [
        {
          "attributes": {
            "POSITION": 0,
            "NORMAL": 1
          },
          "indices": 2,
          "material": 0,
          "mode": 4
        }
      ]
    }
  ],
  "nodes": [
    {
      "name": "<STL_BINARY>",
      "mesh": 0
    }
  ],
  "scene": 0,
  "scenes": [
    {
      "nodes": [
        0
      ]
    }
  ]
}
