{
    "asset": {
        "version": "2.0",
        "generator": "gltfpack 0.23"
    },
    "extensionsUsed": [
        "EXT_meshopt_compression"
    ],
    "buffers": [
        {
            "uri": "band.bin",
            "byteLength": 14924
        },
        {
            "uri": "band.fallback.bin",
            "byteLength": 22128,
            "extensions": {
                "EXT_meshopt_compression": {
                    "fallback": true
                }
            }
        }
    ],
    "bufferViews": [
        {
            "buffer": 1,
            "byteOffset": 0,
            "byteLength": 9156,
            "byteStride": 12,
            "target": 34962,
            "extensions": {
                "EXT_meshopt_compression": {
                    "buffer": 0,
                    "byteOffset": 0,
                    "byteLength": 6793,
                    "byteStride": 12,
                    "mode": "ATTRIBUTES",
                    "count": 763
                }
            }
        },
        {
            "buffer": 1,
            "byteOffset": 9156,
            "byteLength": 9156,
            "byteStride": 12,
            "target": 34962,
            "extensions": {
                "EXT_meshopt_compression": {
                    "buffer": 0,
                    "byteOffset": 6796,
                    "byteLength": 7436,
                    "byteStride": 12,
                    "mode": "ATTRIBUTES",
                    "count": 763
                }
            }
        },
        {
            "buffer": 1,
            "byteOffset": 18312,
            "byteLength": 3816,
            "target": 34963,
            "extensions": {
                "EXT_meshopt_compression": {
                    "buffer": 0,
                    "byteOffset": 14232,
                    "byteLength": 689,
                    "byteStride": 2,
                    "mode": "TRIANGLES",
                    "count": 1908
                }
            }
        }
    ],
    "accessors": [
        {
            "bufferView": 0,
            "byteOffset": 0,
            "componentType": 5126,
            "count": 763,
            "type": "VEC3",
            "min": [
                -0.0680000037,
                -4.16379932e-18,
                -0.0680000037
            ],
            "max": [
                0.0680000037,
                0.0329999998,
                0.0680000037
            ]
        },
        {
            "bufferView": 1,
            "byteOffset": 0,
            "componentType": 5126,
            "count": 763,
            "type": "VEC3"
        },
        {
            "bufferView": 2,
            "byteOffset": 0,
            "componentType": 5123,
            "count": 1908,
            "type": "SCALAR"
        }
    ],
    "materials": [
        {
            "name": "silver",
            "pbrMetallicRoughness": {
                "baseColorFactor": [
                    0.400000006,
                    0.400000006,
                    0.400000006,
                    1
                ],
                "metallicFactor": 0.400000006,
                "roughnessFactor": 0.5
            }
        }
    ],
    "meshes": [
        {
            "primitives": [
                {
                    "attributes": {
                        "POSITION": 0,
                        "NORMAL": 1
                    },
                    "indices": 2,
                    "material": 0
                }
            ]
        }
    ],
    "nodes": [
        {
            "name": "Node",
            "mesh": 0
        }
    ],
    "scenes": [
        {
            "nodes": [
                0
            ]
        }
    ],
    "scene": 0
}