{
    "asset": {
        "version": "2.0",
        "generator": "gltfpack 0.23"
    },
    "extensionsUsed": [
        "EXT_meshopt_compression"
    ],
    "buffers": [
        {
            "uri": "kuka.bin",
            "byteLength": 4248
        },
        {
            "uri": "kuka.fallback.bin",
            "byteLength": 6108,
            "extensions": {
                "EXT_meshopt_compression": {
                    "fallback": true
                }
            }
        }
    ],
    "bufferViews": [
        {
            "buffer": 1,
            "byteOffset": 0,
            "byteLength": 2472,
            "byteStride": 12,
            "target": 34962,
            "extensions": {
                "EXT_meshopt_compression": {
                    "buffer": 0,
                    "byteOffset": 0,
                    "byteLength": 1949,
                    "byteStride": 12,
                    "mode": "ATTRIBUTES",
                    "count": 206
                }
            }
        },
        {
            "buffer": 1,
            "byteOffset": 2472,
            "byteLength": 2472,
            "byteStride": 12,
            "target": 34962,
            "extensions": {
                "EXT_meshopt_compression": {
                    "buffer": 0,
                    "byteOffset": 1952,
                    "byteLength": 2078,
                    "byteStride": 12,
                    "mode": "ATTRIBUTES",
                    "count": 206
                }
            }
        },
        {
            "buffer": 1,
            "byteOffset": 4944,
            "byteLength": 1164,
            "target": 34963,
            "extensions": {
                "EXT_meshopt_compression": {
                    "buffer": 0,
                    "byteOffset": 4032,
                    "byteLength": 213,
                    "byteStride": 2,
                    "mode": "TRIANGLES",
                    "count": 582
                }
            }
        }
    ],
    "accessors": [
        {
            "bufferView": 0,
            "byteOffset": 0,
            "componentType": 5126,
            "count": 206,
            "type": "VEC3",
            "min": [
                -0.0479810014,
                0.00808199961,
                -0.0679360032
            ],
            "max": [
                0.0479810014,
                0.0246510003,
                0.0679360032
            ]
        },
        {
            "bufferView": 1,
            "byteOffset": 0,
            "componentType": 5126,
            "count": 206,
            "type": "VEC3"
        },
        {
            "bufferView": 2,
            "byteOffset": 0,
            "componentType": 5123,
            "count": 582,
            "type": "SCALAR"
        }
    ],
    "materials": [
        {
            "name": "black",
            "pbrMetallicRoughness": {
                "baseColorFactor": [
                    0,
                    0,
                    0,
                    1
                ],
                "metallicFactor": 0.400000006,
                "roughnessFactor": 0.5
            }
        }
    ],
    "meshes": [
        {
            "primitives": [
                {
                    "attributes": {
                        "POSITION": 0,
                        "NORMAL": 1
                    },
                    "indices": 2,
                    "material": 0
                }
            ]
        }
    ],
    "nodes": [
        {
            "name": "Node",
            "mesh": 0
        }
    ],
    "scenes": [
        {
            "nodes": [
                0
            ]
        }
    ],
    "scene": 0
}