{
  "accessors": [
    {
      "name": "Node-Mesh_0_positions",
      "componentType": 5126,
      "count": 2199,
      "min": [
        -0.0798029974102974,
        0.024745000526309013,
        -0.13690200448036194
      ],
      "max": [
        0.08024699985980988,
        0.13210700452327728,
        0.08529499918222427
      ],
      "type": "VEC3",
      "bufferView": 0,
      "byteOffset": 0
    },
    {
      "name": "Node-Mesh_0_normals",
      "componentType": 5126,
      "count": 2199,
      "min": [
        -0.9716179370880127,
        -0.9944537281990051,
        -0.4294070303440094
      ],
      "max": [
        0.9689149260520935,
        0.9993559718132019,
        0.9993880391120911
      ],
      "type": "VEC3",
      "bufferView": 1,
      "byteOffset": 0
    },
    {
      "name": "Node-Mesh_0_indices",
      "componentType": 5123,
      "count": 11133,
      "min": [
        0
      ],
      "max": [
        2198
      ],
      "type": "SCALAR",
      "bufferView": 2,
      "byteOffset": 0
    }
  ],
  "asset": {
    "generator": "obj2gltf",
    "version": "2.0"
  },
  "buffers": [
    {
      "name": "link_2_orange",
      "byteLength": 75044,
      "uri": "link_2_orange.bin"
    }
  ],
  "bufferViews": [
    {
      "name": "bufferView_0",
      "buffer": 0,
      "byteLength": 26388,
      "byteOffset": 0,
      "byteStride": 12,
      "target": 34962
    },
    {
      "name": "bufferView_1",
      "buffer": 0,
      "byteLength": 26388,
      "byteOffset": 26388,
      "byteStride": 12,
      "target": 34962
    },
    {
      "name": "bufferView_2",
      "buffer": 0,
      "byteLength": 22268,
      "byteOffset": 52776,
      "target": 34963
    }
  ],
  "materials": [
    {
      "name": "orange",
      "pbrMetallicRoughness": {
        "baseColorFactor": [
          1.0,
          0.15,
          0,
          1
        ],
        "metallicFactor": 0.4,
        "roughnessFactor": 0.5
      },
      "emissiveFactor": [
        0,
        0,
        0
      ],
      "alphaMode": "OPAQUE",
      "doubleSided": false
    }
  ],
  "meshes": [
    {
      "name": "Node-Mesh",
      "primitives": [
        {
          "attributes": {
            "POSITION": 0,
            "NORMAL": 1
          },
          "indices": 2,
          "material": 0,
          "mode": 4
        }
      ]
    }
  ],
  "nodes": [
    {
      "name": "Node",
      "mesh": 0
    }
  ],
  "scene": 0,
  "scenes": [
    {
      "nodes": [
        0
      ]
    }
  ]
}
