{
    "asset": {
        "version": "2.0",
        "generator": "gltfpack 0.23"
    },
    "extensionsUsed": [
        "EXT_meshopt_compression"
    ],
    "buffers": [
        {
            "uri": "link_1.bin",
            "byteLength": 112416
        },
        {
            "uri": "link_1.fallback.bin",
            "byteLength": 195000,
            "extensions": {
                "EXT_meshopt_compression": {
                    "fallback": true
                }
            }
        }
    ],
    "bufferViews": [
        {
            "buffer": 1,
            "byteOffset": 0,
            "byteLength": 67728,
            "byteStride": 12,
            "target": 34962,
            "extensions": {
                "EXT_meshopt_compression": {
                    "buffer": 0,
                    "byteOffset": 0,
                    "byteLength": 52230,
                    "byteStride": 12,
                    "mode": "ATTRIBUTES",
                    "count": 5644
                }
            }
        },
        {
            "buffer": 1,
            "byteOffset": 67728,
            "byteLength": 67728,
            "byteStride": 12,
            "target": 34962,
            "extensions": {
                "EXT_meshopt_compression": {
                    "buffer": 0,
                    "byteOffset": 52232,
                    "byteLength": 48391,
                    "byteStride": 12,
                    "mode": "ATTRIBUTES",
                    "count": 5644
                }
            }
        },
        {
            "buffer": 1,
            "byteOffset": 135456,
            "byteLength": 59544,
            "target": 34963,
            "extensions": {
                "EXT_meshopt_compression": {
                    "buffer": 0,
                    "byteOffset": 100624,
                    "byteLength": 11791,
                    "byteStride": 2,
                    "mode": "TRIANGLES",
                    "count": 29772
                }
            }
        }
    ],
    "accessors": [
        {
            "bufferView": 0,
            "byteOffset": 0,
            "componentType": 5126,
            "count": 5644,
            "type": "VEC3",
            "min": [
                -0.0854910016,
                -0.00999999978,
                -0.0854870006
            ],
            "max": [
                0.0854910016,
                0.287984014,
                0.115685999
            ]
        },
        {
            "bufferView": 1,
            "byteOffset": 0,
            "componentType": 5126,
            "count": 5644,
            "type": "VEC3"
        },
        {
            "bufferView": 2,
            "byteOffset": 0,
            "componentType": 5123,
            "count": 29772,
            "type": "SCALAR"
        }
    ],
    "materials": [
        {
            "name": "grey",
            "pbrMetallicRoughness": {
                "baseColorFactor": [
                    0.200000003,
                    0.200000003,
                    0.200000003,
                    1
                ],
                "metallicFactor": 0.400000006,
                "roughnessFactor": 0.5
            }
        }
    ],
    "meshes": [
        {
            "primitives": [
                {
                    "attributes": {
                        "POSITION": 0,
                        "NORMAL": 1
                    },
                    "indices": 2,
                    "material": 0
                }
            ]
        }
    ],
    "nodes": [
        {
            "name": "Node",
            "mesh": 0
        }
    ],
    "scenes": [
        {
            "nodes": [
                0
            ]
        }
    ],
    "scene": 0
}