{
    "asset": {
        "version": "2.0",
        "generator": "gltfpack 0.23"
    },
    "extensionsUsed": [
        "EXT_meshopt_compression"
    ],
    "buffers": [
        {
            "uri": "link_4_grey.bin",
            "byteLength": 84192
        },
        {
            "uri": "link_4_grey.fallback.bin",
            "byteLength": 146096,
            "extensions": {
                "EXT_meshopt_compression": {
                    "fallback": true
                }
            }
        }
    ],
    "bufferViews": [
        {
            "buffer": 1,
            "byteOffset": 0,
            "byteLength": 51384,
            "byteStride": 12,
            "target": 34962,
            "extensions": {
                "EXT_meshopt_compression": {
                    "buffer": 0,
                    "byteOffset": 0,
                    "byteLength": 37907,
                    "byteStride": 12,
                    "mode": "ATTRIBUTES",
                    "count": 4282
                }
            }
        },
        {
            "buffer": 1,
            "byteOffset": 51384,
            "byteLength": 51384,
            "byteStride": 12,
            "target": 34962,
            "extensions": {
                "EXT_meshopt_compression": {
                    "buffer": 0,
                    "byteOffset": 37908,
                    "byteLength": 37793,
                    "byteStride": 12,
                    "mode": "ATTRIBUTES",
                    "count": 4282
                }
            }
        },
        {
            "buffer": 1,
            "byteOffset": 102768,
            "byteLength": 43326,
            "target": 34963,
            "extensions": {
                "EXT_meshopt_compression": {
                    "buffer": 0,
                    "byteOffset": 75704,
                    "byteLength": 8488,
                    "byteStride": 2,
                    "mode": "TRIANGLES",
                    "count": 21663
                }
            }
        }
    ],
    "accessors": [
        {
            "bufferView": 0,
            "byteOffset": 0,
            "componentType": 5126,
            "count": 4282,
            "type": "VEC3",
            "min": [
                -0.0679979995,
                -0.0680000037,
                -0.184499994
            ],
            "max": [
                0.0679979995,
                0.0816960037,
                0.0679930001
            ]
        },
        {
            "bufferView": 1,
            "byteOffset": 0,
            "componentType": 5126,
            "count": 4282,
            "type": "VEC3"
        },
        {
            "bufferView": 2,
            "byteOffset": 0,
            "componentType": 5123,
            "count": 21663,
            "type": "SCALAR"
        }
    ],
    "materials": [
        {
            "name": "grey",
            "pbrMetallicRoughness": {
                "baseColorFactor": [
                    0.200000003,
                    0.200000003,
                    0.200000003,
                    1
                ],
                "metallicFactor": 0.400000006,
                "roughnessFactor": 0.5
            }
        }
    ],
    "meshes": [
        {
            "primitives": [
                {
                    "attributes": {
                        "POSITION": 0,
                        "NORMAL": 1
                    },
                    "indices": 2,
                    "material": 0
                }
            ]
        }
    ],
    "nodes": [
        {
            "name": "Node",
            "mesh": 0
        }
    ],
    "scenes": [
        {
            "nodes": [
                0
            ]
        }
    ],
    "scene": 0
}