{
    "asset": {
        "version": "2.0",
        "generator": "gltfpack 0.23"
    },
    "extensionsUsed": [
        "EXT_meshopt_compression"
    ],
    "buffers": [
        {
            "uri": "link_4_orange.bin",
            "byteLength": 37052
        },
        {
            "uri": "link_4_orange.fallback.bin",
            "byteLength": 62828,
            "extensions": {
                "EXT_meshopt_compression": {
                    "fallback": true
                }
            }
        }
    ],
    "bufferViews": [
        {
            "buffer": 1,
            "byteOffset": 0,
            "byteLength": 21636,
            "byteStride": 12,
            "target": 34962,
            "extensions": {
                "EXT_meshopt_compression": {
                    "buffer": 0,
                    "byteOffset": 0,
                    "byteLength": 16242,
                    "byteStride": 12,
                    "mode": "ATTRIBUTES",
                    "count": 1803
                }
            }
        },
        {
            "buffer": 1,
            "byteOffset": 21636,
            "byteLength": 21636,
            "byteStride": 12,
            "target": 34962,
            "extensions": {
                "EXT_meshopt_compression": {
                    "buffer": 0,
                    "byteOffset": 16244,
                    "byteLength": 16899,
                    "byteStride": 12,
                    "mode": "ATTRIBUTES",
                    "count": 1803
                }
            }
        },
        {
            "buffer": 1,
            "byteOffset": 43272,
            "byteLength": 19554,
            "target": 34963,
            "extensions": {
                "EXT_meshopt_compression": {
                    "buffer": 0,
                    "byteOffset": 33144,
                    "byteLength": 3908,
                    "byteStride": 2,
                    "mode": "TRIANGLES",
                    "count": 9777
                }
            }
        }
    ],
    "accessors": [
        {
            "bufferView": 0,
            "byteOffset": 0,
            "componentType": 5126,
            "count": 1803,
            "type": "VEC3",
            "min": [
                -0.0620820001,
                0.0296999998,
                -0.127247006
            ],
            "max": [
                0.0620989986,
                0.114579,
                0.0668060035
            ]
        },
        {
            "bufferView": 1,
            "byteOffset": 0,
            "componentType": 5126,
            "count": 1803,
            "type": "VEC3"
        },
        {
            "bufferView": 2,
            "byteOffset": 0,
            "componentType": 5123,
            "count": 9777,
            "type": "SCALAR"
        }
    ],
    "materials": [
        {
            "name": "orange",
            "pbrMetallicRoughness": {
                "baseColorFactor": [
                    1,
                    0.150000006,
                    0,
                    1
                ],
                "metallicFactor": 0.400000006,
                "roughnessFactor": 0.5
            }
        }
    ],
    "meshes": [
        {
            "primitives": [
                {
                    "attributes": {
                        "POSITION": 0,
                        "NORMAL": 1
                    },
                    "indices": 2,
                    "material": 0
                }
            ]
        }
    ],
    "nodes": [
        {
            "name": "Node",
            "mesh": 0
        }
    ],
    "scenes": [
        {
            "nodes": [
                0
            ]
        }
    ],
    "scene": 0
}