{
    "asset": {
        "version": "2.0",
        "generator": "gltfpack 0.23"
    },
    "extensionsUsed": [
        "EXT_meshopt_compression"
    ],
    "buffers": [
        {
            "uri": "link_2_grey.bin",
            "byteLength": 89604
        },
        {
            "uri": "link_2_grey.fallback.bin",
            "byteLength": 153788,
            "extensions": {
                "EXT_meshopt_compression": {
                    "fallback": true
                }
            }
        }
    ],
    "bufferViews": [
        {
            "buffer": 1,
            "byteOffset": 0,
            "byteLength": 54768,
            "byteStride": 12,
            "target": 34962,
            "extensions": {
                "EXT_meshopt_compression": {
                    "buffer": 0,
                    "byteOffset": 0,
                    "byteLength": 40912,
                    "byteStride": 12,
                    "mode": "ATTRIBUTES",
                    "count": 4564
                }
            }
        },
        {
            "buffer": 1,
            "byteOffset": 54768,
            "byteLength": 54768,
            "byteStride": 12,
            "target": 34962,
            "extensions": {
                "EXT_meshopt_compression": {
                    "buffer": 0,
                    "byteOffset": 40912,
                    "byteLength": 40192,
                    "byteStride": 12,
                    "mode": "ATTRIBUTES",
                    "count": 4564
                }
            }
        },
        {
            "buffer": 1,
            "byteOffset": 109536,
            "byteLength": 44250,
            "target": 34963,
            "extensions": {
                "EXT_meshopt_compression": {
                    "buffer": 0,
                    "byteOffset": 81104,
                    "byteLength": 8498,
                    "byteStride": 2,
                    "mode": "TRIANGLES",
                    "count": 22125
                }
            }
        }
    ],
    "accessors": [
        {
            "bufferView": 0,
            "byteOffset": 0,
            "componentType": 5126,
            "count": 4564,
            "type": "VEC3",
            "min": [
                -0.0850569978,
                -0.0679989979,
                -0.204501003
            ],
            "max": [
                0.0859289989,
                0.0842830017,
                0.0855000019
            ]
        },
        {
            "bufferView": 1,
            "byteOffset": 0,
            "componentType": 5126,
            "count": 4564,
            "type": "VEC3"
        },
        {
            "bufferView": 2,
            "byteOffset": 0,
            "componentType": 5123,
            "count": 22125,
            "type": "SCALAR"
        }
    ],
    "materials": [
        {
            "name": "grey",
            "pbrMetallicRoughness": {
                "baseColorFactor": [
                    0.200000003,
                    0.200000003,
                    0.200000003,
                    1
                ],
                "metallicFactor": 0.400000006,
                "roughnessFactor": 0.5
            }
        }
    ],
    "meshes": [
        {
            "primitives": [
                {
                    "attributes": {
                        "POSITION": 0,
                        "NORMAL": 1
                    },
                    "indices": 2,
                    "material": 0
                }
            ]
        }
    ],
    "nodes": [
        {
            "name": "Node",
            "mesh": 0
        }
    ],
    "scenes": [
        {
            "nodes": [
                0
            ]
        }
    ],
    "scene": 0
}