{
    "asset": {
        "version": "2.0",
        "generator": "gltfpack 0.23"
    },
    "extensionsUsed": [
        "EXT_meshopt_compression"
    ],
    "buffers": [
        {
            "uri": "link_3.bin",
            "byteLength": 99056
        },
        {
            "uri": "link_3.fallback.bin",
            "byteLength": 176312,
            "extensions": {
                "EXT_meshopt_compression": {
                    "fallback": true
                }
            }
        }
    ],
    "bufferViews": [
        {
            "buffer": 1,
            "byteOffset": 0,
            "byteLength": 61848,
            "byteStride": 12,
            "target": 34962,
            "extensions": {
                "EXT_meshopt_compression": {
                    "buffer": 0,
                    "byteOffset": 0,
                    "byteLength": 44772,
                    "byteStride": 12,
                    "mode": "ATTRIBUTES",
                    "count": 5154
                }
            }
        },
        {
            "buffer": 1,
            "byteOffset": 61848,
            "byteLength": 61848,
            "byteStride": 12,
            "target": 34962,
            "extensions": {
                "EXT_meshopt_compression": {
                    "buffer": 0,
                    "byteOffset": 44772,
                    "byteLength": 43961,
                    "byteStride": 12,
                    "mode": "ATTRIBUTES",
                    "count": 5154
                }
            }
        },
        {
            "buffer": 1,
            "byteOffset": 123696,
            "byteLength": 52614,
            "target": 34963,
            "extensions": {
                "EXT_meshopt_compression": {
                    "buffer": 0,
                    "byteOffset": 88736,
                    "byteLength": 10319,
                    "byteStride": 2,
                    "mode": "TRIANGLES",
                    "count": 26307
                }
            }
        }
    ],
    "accessors": [
        {
            "bufferView": 0,
            "byteOffset": 0,
            "componentType": 5126,
            "count": 5154,
            "type": "VEC3",
            "min": [
                -0.0680000037,
                -0.00999999978,
                -0.114592999
            ],
            "max": [
                0.0680000037,
                0.283466011,
                0.0680000037
            ]
        },
        {
            "bufferView": 1,
            "byteOffset": 0,
            "componentType": 5126,
            "count": 5154,
            "type": "VEC3"
        },
        {
            "bufferView": 2,
            "byteOffset": 0,
            "componentType": 5123,
            "count": 26307,
            "type": "SCALAR"
        }
    ],
    "materials": [
        {
            "name": "grey",
            "pbrMetallicRoughness": {
                "baseColorFactor": [
                    0.200000003,
                    0.200000003,
                    0.200000003,
                    1
                ],
                "metallicFactor": 0.400000006,
                "roughnessFactor": 0.5
            }
        }
    ],
    "meshes": [
        {
            "primitives": [
                {
                    "attributes": {
                        "POSITION": 0,
                        "NORMAL": 1
                    },
                    "indices": 2,
                    "material": 0
                }
            ]
        }
    ],
    "nodes": [
        {
            "name": "Node",
            "mesh": 0
        }
    ],
    "scenes": [
        {
            "nodes": [
                0
            ]
        }
    ],
    "scene": 0
}