{
  "accessors": [
    {
      "name": "Node-Mesh_0_positions",
      "componentType": 5126,
      "count": 2724,
      "min": [
        -0.06800000369548798,
        -0.009999999776482582,
        -0.09901999682188034
      ],
      "max": [
        0.0682469978928566,
        0.2670069932937622,
        0.06800000369548798
      ],
      "type": "VEC3",
      "bufferView": 0,
      "byteOffset": 0
    },
    {
      "name": "Node-Mesh_0_normals",
      "componentType": 5126,
      "count": 2724,
      "min": [
        -0.9999491572380066,
        -1,
        -0.9998578429222107
      ],
      "max": [
        1,
        1,
        1
      ],
      "type": "VEC3",
      "bufferView": 1,
      "byteOffset": 0
    },
    {
      "name": "Node-Mesh_0_indices",
      "componentType": 5123,
      "count": 12690,
      "min": [
        0
      ],
      "max": [
        2723
      ],
      "type": "SCALAR",
      "bufferView": 2,
      "byteOffset": 0
    }
  ],
  "asset": {
    "generator": "obj2gltf",
    "version": "2.0"
  },
  "buffers": [
    {
      "name": "link_5",
      "byteLength": 90756,
      "uri": "link_5.bin"
    }
  ],
  "bufferViews": [
    {
      "name": "bufferView_0",
      "buffer": 0,
      "byteLength": 32688,
      "byteOffset": 0,
      "byteStride": 12,
      "target": 34962
    },
    {
      "name": "bufferView_1",
      "buffer": 0,
      "byteLength": 32688,
      "byteOffset": 32688,
      "byteStride": 12,
      "target": 34962
    },
    {
      "name": "bufferView_2",
      "buffer": 0,
      "byteLength": 25380,
      "byteOffset": 65376,
      "target": 34963
    }
  ],
  "materials": [
    {
      "name": "grey",
      "pbrMetallicRoughness": {
        "baseColorFactor": [
          0.2,
          0.2,
          0.2,
          1
        ],
        "metallicFactor": 0.4,
        "roughnessFactor": 0.5
      },
      "emissiveFactor": [
        0,
        0,
        0
      ],
      "alphaMode": "OPAQUE",
      "doubleSided": false
    }
  ],
  "meshes": [
    {
      "name": "Node-Mesh",
      "primitives": [
        {
          "attributes": {
            "POSITION": 0,
            "NORMAL": 1
          },
          "indices": 2,
          "material": 0,
          "mode": 4
        }
      ]
    }
  ],
  "nodes": [
    {
      "name": "Node",
      "mesh": 0
    }
  ],
  "scene": 0,
  "scenes": [
    {
      "nodes": [
        0
      ]
    }
  ]
}
