{
    "asset": {
        "version": "2.0",
        "generator": "gltfpack 0.23"
    },
    "extensionsUsed": [
        "EXT_meshopt_compression"
    ],
    "buffers": [
        {
            "uri": "link_6_orange.bin",
            "byteLength": 27940
        },
        {
            "uri": "link_6_orange.fallback.bin",
            "byteLength": 46040,
            "extensions": {
                "EXT_meshopt_compression": {
                    "fallback": true
                }
            }
        }
    ],
    "bufferViews": [
        {
            "buffer": 1,
            "byteOffset": 0,
            "byteLength": 15744,
            "byteStride": 12,
            "target": 34962,
            "extensions": {
                "EXT_meshopt_compression": {
                    "buffer": 0,
                    "byteOffset": 0,
                    "byteLength": 12446,
                    "byteStride": 12,
                    "mode": "ATTRIBUTES",
                    "count": 1312
                }
            }
        },
        {
            "buffer": 1,
            "byteOffset": 15744,
            "byteLength": 15744,
            "byteStride": 12,
            "target": 34962,
            "extensions": {
                "EXT_meshopt_compression": {
                    "buffer": 0,
                    "byteOffset": 12448,
                    "byteLength": 12595,
                    "byteStride": 12,
                    "mode": "ATTRIBUTES",
                    "count": 1312
                }
            }
        },
        {
            "buffer": 1,
            "byteOffset": 31488,
            "byteLength": 14550,
            "target": 34963,
            "extensions": {
                "EXT_meshopt_compression": {
                    "buffer": 0,
                    "byteOffset": 25044,
                    "byteLength": 2894,
                    "byteStride": 2,
                    "mode": "TRIANGLES",
                    "count": 7275
                }
            }
        }
    ],
    "accessors": [
        {
            "bufferView": 0,
            "byteOffset": 0,
            "componentType": 5126,
            "count": 1312,
            "type": "VEC3",
            "min": [
                -0.0660900027,
                -0.0438680016,
                -0.0657019988
            ],
            "max": [
                0.0661080033,
                0.0669139996,
                0.0864859968
            ]
        },
        {
            "bufferView": 1,
            "byteOffset": 0,
            "componentType": 5126,
            "count": 1312,
            "type": "VEC3"
        },
        {
            "bufferView": 2,
            "byteOffset": 0,
            "componentType": 5123,
            "count": 7275,
            "type": "SCALAR"
        }
    ],
    "materials": [
        {
            "name": "orange",
            "pbrMetallicRoughness": {
                "baseColorFactor": [
                    1,
                    0.150000006,
                    0,
                    1
                ],
                "metallicFactor": 0.400000006,
                "roughnessFactor": 0.5
            }
        }
    ],
    "meshes": [
        {
            "primitives": [
                {
                    "attributes": {
                        "POSITION": 0,
                        "NORMAL": 1
                    },
                    "indices": 2,
                    "material": 0
                }
            ]
        }
    ],
    "nodes": [
        {
            "name": "Node",
            "mesh": 0
        }
    ],
    "scenes": [
        {
            "nodes": [
                0
            ]
        }
    ],
    "scene": 0
}