{
    "asset": {
        "version": "2.0",
        "generator": "gltfpack 0.23"
    },
    "extensionsUsed": [
        "EXT_meshopt_compression"
    ],
    "buffers": [
        {
            "uri": "link_6_grey.bin",
            "byteLength": 70428
        },
        {
            "uri": "link_6_grey.fallback.bin",
            "byteLength": 123632,
            "extensions": {
                "EXT_meshopt_compression": {
                    "fallback": true
                }
            }
        }
    ],
    "bufferViews": [
        {
            "buffer": 1,
            "byteOffset": 0,
            "byteLength": 45552,
            "byteStride": 12,
            "target": 34962,
            "extensions": {
                "EXT_meshopt_compression": {
                    "buffer": 0,
                    "byteOffset": 0,
                    "byteLength": 32470,
                    "byteStride": 12,
                    "mode": "ATTRIBUTES",
                    "count": 3796
                }
            }
        },
        {
            "buffer": 1,
            "byteOffset": 45552,
            "byteLength": 45552,
            "byteStride": 12,
            "target": 34962,
            "extensions": {
                "EXT_meshopt_compression": {
                    "buffer": 0,
                    "byteOffset": 32472,
                    "byteLength": 31871,
                    "byteStride": 12,
                    "mode": "ATTRIBUTES",
                    "count": 3796
                }
            }
        },
        {
            "buffer": 1,
            "byteOffset": 91104,
            "byteLength": 32526,
            "target": 34963,
            "extensions": {
                "EXT_meshopt_compression": {
                    "buffer": 0,
                    "byteOffset": 64344,
                    "byteLength": 6082,
                    "byteStride": 2,
                    "mode": "TRIANGLES",
                    "count": 16263
                }
            }
        }
    ],
    "accessors": [
        {
            "bufferView": 0,
            "byteOffset": 0,
            "componentType": 5126,
            "count": 3796,
            "type": "VEC3",
            "min": [
                -0.0661699995,
                -0.0706999972,
                -0.0808999985
            ],
            "max": [
                0.0661640018,
                0.053851001,
                0.0593549982
            ]
        },
        {
            "bufferView": 1,
            "byteOffset": 0,
            "componentType": 5126,
            "count": 3796,
            "type": "VEC3"
        },
        {
            "bufferView": 2,
            "byteOffset": 0,
            "componentType": 5123,
            "count": 16263,
            "type": "SCALAR"
        }
    ],
    "materials": [
        {
            "name": "grey",
            "pbrMetallicRoughness": {
                "baseColorFactor": [
                    0.200000003,
                    0.200000003,
                    0.200000003,
                    1
                ],
                "metallicFactor": 0.400000006,
                "roughnessFactor": 0.5
            }
        }
    ],
    "meshes": [
        {
            "primitives": [
                {
                    "attributes": {
                        "POSITION": 0,
                        "NORMAL": 1
                    },
                    "indices": 2,
                    "material": 0
                }
            ]
        }
    ],
    "nodes": [
        {
            "name": "Node",
            "mesh": 0
        }
    ],
    "scenes": [
        {
            "nodes": [
                0
            ]
        }
    ],
    "scene": 0
}