{
    "asset": {
        "version": "2.0",
        "generator": "gltfpack 0.23"
    },
    "extensionsUsed": [
        "EXT_meshopt_compression"
    ],
    "buffers": [
        {
            "uri": "link_0.bin",
            "byteLength": 110556
        },
        {
            "uri": "link_0.fallback.bin",
            "byteLength": 187824,
            "extensions": {
                "EXT_meshopt_compression": {
                    "fallback": true
                }
            }
        }
    ],
    "bufferViews": [
        {
            "buffer": 1,
            "byteOffset": 0,
            "byteLength": 65460,
            "byteStride": 12,
            "target": 34962,
            "extensions": {
                "EXT_meshopt_compression": {
                    "buffer": 0,
                    "byteOffset": 0,
                    "byteLength": 47499,
                    "byteStride": 12,
                    "mode": "ATTRIBUTES",
                    "count": 5455
                }
            }
        },
        {
            "buffer": 1,
            "byteOffset": 65460,
            "byteLength": 65460,
            "byteStride": 12,
            "target": 34962,
            "extensions": {
                "EXT_meshopt_compression": {
                    "buffer": 0,
                    "byteOffset": 47500,
                    "byteLength": 51835,
                    "byteStride": 12,
                    "mode": "ATTRIBUTES",
                    "count": 5455
                }
            }
        },
        {
            "buffer": 1,
            "byteOffset": 130920,
            "byteLength": 56904,
            "target": 34963,
            "extensions": {
                "EXT_meshopt_compression": {
                    "buffer": 0,
                    "byteOffset": 99336,
                    "byteLength": 11219,
                    "byteStride": 2,
                    "mode": "TRIANGLES",
                    "count": 28452
                }
            }
        }
    ],
    "accessors": [
        {
            "bufferView": 0,
            "byteOffset": 0,
            "componentType": 5126,
            "count": 5455,
            "type": "VEC3",
            "min": [
                -0.136000007,
                -7.41248127e-18,
                -0.121384002
            ],
            "max": [
                0.121243,
                0.157499999,
                0.121384002
            ]
        },
        {
            "bufferView": 1,
            "byteOffset": 0,
            "componentType": 5126,
            "count": 5455,
            "type": "VEC3"
        },
        {
            "bufferView": 2,
            "byteOffset": 0,
            "componentType": 5123,
            "count": 28452,
            "type": "SCALAR"
        }
    ],
    "materials": [
        {
            "name": "grey",
            "pbrMetallicRoughness": {
                "baseColorFactor": [
                    0.200000003,
                    0.200000003,
                    0.200000003,
                    1
                ],
                "metallicFactor": 0.400000006,
                "roughnessFactor": 0.5
            }
        }
    ],
    "meshes": [
        {
            "primitives": [
                {
                    "attributes": {
                        "POSITION": 0,
                        "NORMAL": 1
                    },
                    "indices": 2,
                    "material": 0
                }
            ]
        }
    ],
    "nodes": [
        {
            "name": "Node",
            "mesh": 0
        }
    ],
    "scenes": [
        {
            "nodes": [
                0
            ]
        }
    ],
    "scene": 0
}