{
    "asset": {
        "version": "2.0",
        "generator": "gltfpack 0.23"
    },
    "extensionsUsed": [
        "EXT_meshopt_compression"
    ],
    "buffers": [
        {
            "uri": "link_7.bin",
            "byteLength": 135848
        },
        {
            "uri": "link_7.fallback.bin",
            "byteLength": 231456,
            "extensions": {
                "EXT_meshopt_compression": {
                    "fallback": true
                }
            }
        }
    ],
    "bufferViews": [
        {
            "buffer": 1,
            "byteOffset": 0,
            "byteLength": 81708,
            "byteStride": 12,
            "target": 34962,
            "extensions": {
                "EXT_meshopt_compression": {
                    "buffer": 0,
                    "byteOffset": 0,
                    "byteLength": 57666,
                    "byteStride": 12,
                    "mode": "ATTRIBUTES",
                    "count": 6809
                }
            }
        },
        {
            "buffer": 1,
            "byteOffset": 81708,
            "byteLength": 81708,
            "byteStride": 12,
            "target": 34962,
            "extensions": {
                "EXT_meshopt_compression": {
                    "buffer": 0,
                    "byteOffset": 57668,
                    "byteLength": 64989,
                    "byteStride": 12,
                    "mode": "ATTRIBUTES",
                    "count": 6809
                }
            }
        },
        {
            "buffer": 1,
            "byteOffset": 163416,
            "byteLength": 68040,
            "target": 34963,
            "extensions": {
                "EXT_meshopt_compression": {
                    "buffer": 0,
                    "byteOffset": 122660,
                    "byteLength": 13187,
                    "byteStride": 2,
                    "mode": "TRIANGLES",
                    "count": 34020
                }
            }
        }
    ],
    "accessors": [
        {
            "bufferView": 0,
            "byteOffset": 0,
            "componentType": 5126,
            "count": 6809,
            "type": "VEC3",
            "min": [
                -0.0518539995,
                -0.00989999995,
                -0.0519419983
            ],
            "max": [
                0.0518539995,
                0.0450000018,
                0.0519419983
            ]
        },
        {
            "bufferView": 1,
            "byteOffset": 0,
            "componentType": 5126,
            "count": 6809,
            "type": "VEC3"
        },
        {
            "bufferView": 2,
            "byteOffset": 0,
            "componentType": 5123,
            "count": 34020,
            "type": "SCALAR"
        }
    ],
    "materials": [
        {
            "name": "grey",
            "pbrMetallicRoughness": {
                "baseColorFactor": [
                    0.200000003,
                    0.200000003,
                    0.200000003,
                    1
                ],
                "metallicFactor": 0.400000006,
                "roughnessFactor": 0.5
            }
        }
    ],
    "meshes": [
        {
            "primitives": [
                {
                    "attributes": {
                        "POSITION": 0,
                        "NORMAL": 1
                    },
                    "indices": 2,
                    "material": 0
                }
            ]
        }
    ],
    "nodes": [
        {
            "name": "Node",
            "mesh": 0
        }
    ],
    "scenes": [
        {
            "nodes": [
                0
            ]
        }
    ],
    "scene": 0
}