{
    "asset": {
        "version": "2.0",
        "generator": "gltfpack 0.23"
    },
    "extensionsUsed": [
        "EXT_meshopt_compression"
    ],
    "buffers": [
        {
            "uri": "link_2_orange.bin",
            "byteLength": 44168
        },
        {
            "uri": "link_2_orange.fallback.bin",
            "byteLength": 75044,
            "extensions": {
                "EXT_meshopt_compression": {
                    "fallback": true
                }
            }
        }
    ],
    "bufferViews": [
        {
            "buffer": 1,
            "byteOffset": 0,
            "byteLength": 26388,
            "byteStride": 12,
            "target": 34962,
            "extensions": {
                "EXT_meshopt_compression": {
                    "buffer": 0,
                    "byteOffset": 0,
                    "byteLength": 19621,
                    "byteStride": 12,
                    "mode": "ATTRIBUTES",
                    "count": 2199
                }
            }
        },
        {
            "buffer": 1,
            "byteOffset": 26388,
            "byteLength": 26388,
            "byteStride": 12,
            "target": 34962,
            "extensions": {
                "EXT_meshopt_compression": {
                    "buffer": 0,
                    "byteOffset": 19624,
                    "byteLength": 20210,
                    "byteStride": 12,
                    "mode": "ATTRIBUTES",
                    "count": 2199
                }
            }
        },
        {
            "buffer": 1,
            "byteOffset": 52776,
            "byteLength": 22266,
            "target": 34963,
            "extensions": {
                "EXT_meshopt_compression": {
                    "buffer": 0,
                    "byteOffset": 39836,
                    "byteLength": 4332,
                    "byteStride": 2,
                    "mode": "TRIANGLES",
                    "count": 11133
                }
            }
        }
    ],
    "accessors": [
        {
            "bufferView": 0,
            "byteOffset": 0,
            "componentType": 5126,
            "count": 2199,
            "type": "VEC3",
            "min": [
                -0.0798029974,
                0.0247450005,
                -0.136902004
            ],
            "max": [
                0.0802469999,
                0.132107005,
                0.0852949992
            ]
        },
        {
            "bufferView": 1,
            "byteOffset": 0,
            "componentType": 5126,
            "count": 2199,
            "type": "VEC3"
        },
        {
            "bufferView": 2,
            "byteOffset": 0,
            "componentType": 5123,
            "count": 11133,
            "type": "SCALAR"
        }
    ],
    "materials": [
        {
            "name": "orange",
            "pbrMetallicRoughness": {
                "baseColorFactor": [
                    1,
                    0.150000006,
                    0,
                    1
                ],
                "metallicFactor": 0.400000006,
                "roughnessFactor": 0.5
            }
        }
    ],
    "meshes": [
        {
            "primitives": [
                {
                    "attributes": {
                        "POSITION": 0,
                        "NORMAL": 1
                    },
                    "indices": 2,
                    "material": 0
                }
            ]
        }
    ],
    "nodes": [
        {
            "name": "Node",
            "mesh": 0
        }
    ],
    "scenes": [
        {
            "nodes": [
                0
            ]
        }
    ],
    "scene": 0
}