{
    "asset": {
        "version": "2.0",
        "generator": "gltfpack 0.23"
    },
    "extensionsUsed": [
        "EXT_meshopt_compression"
    ],
    "buffers": [
        {
            "uri": "link_5.bin",
            "byteLength": 54144
        },
        {
            "uri": "link_5.fallback.bin",
            "byteLength": 90756,
            "extensions": {
                "EXT_meshopt_compression": {
                    "fallback": true
                }
            }
        }
    ],
    "bufferViews": [
        {
            "buffer": 1,
            "byteOffset": 0,
            "byteLength": 32688,
            "byteStride": 12,
            "target": 34962,
            "extensions": {
                "EXT_meshopt_compression": {
                    "buffer": 0,
                    "byteOffset": 0,
                    "byteLength": 24303,
                    "byteStride": 12,
                    "mode": "ATTRIBUTES",
                    "count": 2724
                }
            }
        },
        {
            "buffer": 1,
            "byteOffset": 32688,
            "byteLength": 32688,
            "byteStride": 12,
            "target": 34962,
            "extensions": {
                "EXT_meshopt_compression": {
                    "buffer": 0,
                    "byteOffset": 24304,
                    "byteLength": 24871,
                    "byteStride": 12,
                    "mode": "ATTRIBUTES",
                    "count": 2724
                }
            }
        },
        {
            "buffer": 1,
            "byteOffset": 65376,
            "byteLength": 25380,
            "target": 34963,
            "extensions": {
                "EXT_meshopt_compression": {
                    "buffer": 0,
                    "byteOffset": 49176,
                    "byteLength": 4965,
                    "byteStride": 2,
                    "mode": "TRIANGLES",
                    "count": 12690
                }
            }
        }
    ],
    "accessors": [
        {
            "bufferView": 0,
            "byteOffset": 0,
            "componentType": 5126,
            "count": 2724,
            "type": "VEC3",
            "min": [
                -0.0680000037,
                -0.00999999978,
                -0.0990199968
            ],
            "max": [
                0.0682469979,
                0.267006993,
                0.0680000037
            ]
        },
        {
            "bufferView": 1,
            "byteOffset": 0,
            "componentType": 5126,
            "count": 2724,
            "type": "VEC3"
        },
        {
            "bufferView": 2,
            "byteOffset": 0,
            "componentType": 5123,
            "count": 12690,
            "type": "SCALAR"
        }
    ],
    "materials": [
        {
            "name": "grey",
            "pbrMetallicRoughness": {
                "baseColorFactor": [
                    0.200000003,
                    0.200000003,
                    0.200000003,
                    1
                ],
                "metallicFactor": 0.400000006,
                "roughnessFactor": 0.5
            }
        }
    ],
    "meshes": [
        {
            "primitives": [
                {
                    "attributes": {
                        "POSITION": 0,
                        "NORMAL": 1
                    },
                    "indices": 2,
                    "material": 0
                }
            ]
        }
    ],
    "nodes": [
        {
            "name": "Node",
            "mesh": 0
        }
    ],
    "scenes": [
        {
            "nodes": [
                0
            ]
        }
    ],
    "scene": 0
}