{
	"asset":{
		"generator":"Khronos glTF Blender I/O v4.3.47",
		"version":"2.0"
	},
	"scene":0,
	"scenes":[
		{
			"name":"Scene",
			"nodes":[
				0
			]
		}
	],
	"nodes":[
		{
			"mesh":0,
			"name":"curtain1",
			"translation":[
				0,
				2.963916063308716,
				0
			]
		}
	],
	"materials":[
		{
			"doubleSided":false,
			"name":"curtain",
			"normalTexture":{
				"index":0
			},
			"pbrMetallicRoughness":{
				"baseColorTexture":{
					"index":1
				},
				"metallicFactor":0,
				"roughnessFactor":0.949999988079071
			}
		}
	],
	"meshes":[
		{
			"name":"Mesh.001",
			"primitives":[
				{
					"attributes":{
						"POSITION":0,
						"NORMAL":1,
						"TEXCOORD_0":2
					},
					"indices":3,
					"material":0
				}
			]
		}
	],
	"textures":[
		{
			"sampler":0,
			"source":0
		},
		{
			"sampler":0,
			"source":1
		}
	],
	"images":[
		{
			"mimeType":"image/png",
			"name":"curtain_normal",
			"uri":"textures/curtain_normal.png"
		},
		{
			"mimeType":"image/png",
			"name":"curtain_diffuse",
			"uri":"textures/curtain_diffuse.png"
		}
	],
	"accessors":[
		{
			"bufferView":0,
			"componentType":5126,
			"count":4930,
			"max":[
				1.603845238685608,
				0,
				2.9989233016967773
			],
			"min":[
				-1.603845238685608,
				-2.8286986351013184,
				2.8454926013946533
			],
			"type":"VEC3"
		},
		{
			"bufferView":1,
			"componentType":5126,
			"count":4930,
			"type":"VEC3"
		},
		{
			"bufferView":2,
			"componentType":5126,
			"count":4930,
			"type":"VEC2"
		},
		{
			"bufferView":3,
			"componentType":5123,
			"count":27648,
			"type":"SCALAR"
		}
	],
	"bufferViews":[
		{
			"buffer":0,
			"byteLength":59160,
			"byteOffset":0,
			"target":34962
		},
		{
			"buffer":0,
			"byteLength":59160,
			"byteOffset":59160,
			"target":34962
		},
		{
			"buffer":0,
			"byteLength":39440,
			"byteOffset":118320,
			"target":34962
		},
		{
			"buffer":0,
			"byteLength":55296,
			"byteOffset":157760,
			"target":34963
		}
	],
	"samplers":[
		{
			"magFilter":9729,
			"minFilter":9987
		}
	],
	"buffers":[
		{
			"byteLength":213056,
			"uri":"curtain_open.bin"
		}
	]
}
