{
	"accessors":[
		{
			"name":"Kurze_Zwischenstrebe_quer_2_Instanz.2_3-Mesh_0_positions",
			"componentType":5126,
			"count":11114,
			"min":[
				-0.27905699610710144,
				-7.100000220816582e-05,
				-0.20905399322509766
			],
			"max":[
				0.27903398871421814,
				0.20988799631595612,
				0.20905399322509766
			],
			"type":"VEC3",
			"bufferView":0,
			"byteOffset":0
		},
		{
			"name":"Kurze_Zwischenstrebe_quer_2_Instanz.2_3-Mesh_0_normals",
			"componentType":5126,
			"count":11114,
			"min":[
				-1,
				-0.9999998211860657,
				-0.9999998211860657
			],
			"max":[
				0.9999993443489075,
				1,
				0.9999999403953552
			],
			"type":"VEC3",
			"bufferView":1,
			"byteOffset":0
		},
		{
			"name":"Kurze_Zwischenstrebe_quer_2_Instanz.2_3-Mesh_0_texcoords",
			"componentType":5126,
			"count":11114,
			"min":[
				0.004391999915242195,
				0.004391999915242195
			],
			"max":[
				0.9955819845199585,
				0.9956079721450806
			],
			"type":"VEC2",
			"bufferView":2,
			"byteOffset":0
		},
		{
			"name":"Kurze_Zwischenstrebe_quer_2_Instanz.2_3-Mesh_0_indices",
			"componentType":5123,
			"count":22350,
			"min":[
				0
			],
			"max":[
				11113
			],
			"type":"SCALAR",
			"bufferView":3,
			"byteOffset":0
		}
	],
	"asset":{
		"generator":"obj2gltf",
		"version":"2.0"
	},
	"buffers":[
		{
			"name":"bin",
			"byteLength":400348,
			"uri":"bin.bin"
		}
	],
	"bufferViews":[
		{
			"name":"bufferView_0",
			"buffer":0,
			"byteLength":133368,
			"byteOffset":0,
			"byteStride":12,
			"target":34962
		},
		{
			"name":"bufferView_1",
			"buffer":0,
			"byteLength":133368,
			"byteOffset":133368,
			"byteStride":12,
			"target":34962
		},
		{
			"name":"bufferView_2",
			"buffer":0,
			"byteLength":88912,
			"byteOffset":266736,
			"byteStride":8,
			"target":34962
		},
		{
			"name":"bufferView_3",
			"buffer":0,
			"byteLength":44700,
			"byteOffset":355648,
			"target":34963
		}
	],
	"images":[
		{
			"name":"bin",
			"uri":"bin.png",
			"mimeType":"image/png"
		},
		{
			"mimeType":"image/ktx2",
			"uri":"bin.ktx2"
		}
	],
	"materials":[
		{
			"name":"InteriorPack_01.008",
			"pbrMetallicRoughness":{
				"baseColorTexture":{
					"index":0
				},
				"baseColorFactor":[
					1,
					1,
					1,
					1
				],
				"metallicFactor":0,
				"roughnessFactor":0.775
			},
			"emissiveFactor":[
				0,
				0,
				0
			],
			"alphaMode":"OPAQUE",
			"doubleSided":false
		}
	],
	"meshes":[
		{
			"name":"Kurze_Zwischenstrebe_quer_2_Instanz.2_3-Mesh",
			"primitives":[
				{
					"attributes":{
						"POSITION":0,
						"NORMAL":1,
						"TEXCOORD_0":2
					},
					"indices":3,
					"material":0,
					"mode":4
				}
			]
		}
	],
	"nodes":[
		{
			"name":"Kurze_Zwischenstrebe_quer_2_Instanz.2_3",
			"mesh":0
		}
	],
	"samplers":[
		{
			"magFilter":9729,
			"minFilter":9986,
			"wrapS":10497,
			"wrapT":10497
		}
	],
	"scene":0,
	"scenes":[
		{
			"nodes":[
				0
			]
		}
	],
	"textures":[
		{
			"name":"bin",
			"sampler":0,
			"source":0,
			"extensions":{
				"KHR_texture_basisu":{
					"source":1
				}
			}
		}
	],
	"extensionsUsed":[
		"KHR_texture_basisu"
	]
}
