{
    "asset": {
        "version": "2.0",
        "generator": "gltfpack 0.23"
    },
    "extensionsUsed": [
        "EXT_meshopt_compression",
        "KHR_texture_basisu"
    ],
    "extensionsRequired": [
        "KHR_texture_basisu"
    ],
    "buffers": [
        {
            "uri": "shelves.bin",
            "byteLength": 3636
        },
        {
            "uri": "shelves.fallback.bin",
            "byteLength": 6088,
            "extensions": {
                "EXT_meshopt_compression": {
                    "fallback": true
                }
            }
        }
    ],
    "bufferViews": [
        {
            "buffer": 1,
            "byteOffset": 0,
            "byteLength": 2040,
            "byteStride": 12,
            "target": 34962,
            "extensions": {
                "EXT_meshopt_compression": {
                    "buffer": 0,
                    "byteOffset": 0,
                    "byteLength": 1594,
                    "byteStride": 12,
                    "mode": "ATTRIBUTES",
                    "count": 170
                }
            }
        },
        {
            "buffer": 1,
            "byteOffset": 2040,
            "byteLength": 2040,
            "byteStride": 12,
            "target": 34962,
            "extensions": {
                "EXT_meshopt_compression": {
                    "buffer": 0,
                    "byteOffset": 1596,
                    "byteLength": 758,
                    "byteStride": 12,
                    "mode": "ATTRIBUTES",
                    "count": 170
                }
            }
        },
        {
            "buffer": 1,
            "byteOffset": 4080,
            "byteLength": 1360,
            "byteStride": 8,
            "target": 34962,
            "extensions": {
                "EXT_meshopt_compression": {
                    "buffer": 0,
                    "byteOffset": 2356,
                    "byteLength": 1151,
                    "byteStride": 8,
                    "mode": "ATTRIBUTES",
                    "count": 170
                }
            }
        },
        {
            "buffer": 1,
            "byteOffset": 5440,
            "byteLength": 648,
            "target": 34963,
            "extensions": {
                "EXT_meshopt_compression": {
                    "buffer": 0,
                    "byteOffset": 3508,
                    "byteLength": 127,
                    "byteStride": 2,
                    "mode": "TRIANGLES",
                    "count": 324
                }
            }
        }
    ],
    "accessors": [
        {
            "bufferView": 0,
            "byteOffset": 0,
            "componentType": 5126,
            "count": 170,
            "type": "VEC3",
            "min": [
                -0.152070999,
                -0.403604001,
                -0.297717988
            ],
            "max": [
                0.149070993,
                0.405184001,
                0.302152991
            ]
        },
        {
            "bufferView": 1,
            "byteOffset": 0,
            "componentType": 5126,
            "count": 170,
            "type": "VEC3"
        },
        {
            "bufferView": 2,
            "byteOffset": 0,
            "componentType": 5126,
            "count": 170,
            "type": "VEC2"
        },
        {
            "bufferView": 3,
            "byteOffset": 0,
            "componentType": 5123,
            "count": 324,
            "type": "SCALAR"
        }
    ],
    "samplers": [
        {
            "magFilter": 9729,
            "minFilter": 9986
        }
    ],
    "images": [
        {
            "name": "shelves",
            "uri": "shelves.png"
        },
        {
            "uri": "shelves.ktx2"
        }
    ],
    "textures": [
        {
            "sampler": 0,
            "source": 0,
            "extensions": {
                "KHR_texture_basisu": {
                    "source": 1
                }
            }
        }
    ],
    "materials": [
        {
            "name": "Material.002",
            "pbrMetallicRoughness": {
                "baseColorTexture": {
                    "index": 0
                },
                "metallicFactor": 0,
                "roughnessFactor": 0.774999976
            }
        }
    ],
    "meshes": [
        {
            "primitives": [
                {
                    "attributes": {
                        "POSITION": 0,
                        "NORMAL": 1,
                        "TEXCOORD_0": 2
                    },
                    "indices": 3,
                    "material": 0
                }
            ]
        }
    ],
    "nodes": [
        {
            "name": "RoomFurniture_03.002_Cube.017",
            "mesh": 0
        }
    ],
    "scenes": [
        {
            "nodes": [
                0
            ]
        }
    ],
    "scene": 0
}