{
	"accessors":[
		{
			"name":"RoomFurniture_03.002_Cube.017-Mesh_0_positions",
			"componentType":5126,
			"count":170,
			"min":[
				-0.1520709991455078,
				-0.40360400080680847,
				-0.29771798849105835
			],
			"max":[
				0.14907099306583405,
				0.4051840007305145,
				0.30215299129486084
			],
			"type":"VEC3",
			"bufferView":0,
			"byteOffset":0
		},
		{
			"name":"RoomFurniture_03.002_Cube.017-Mesh_0_normals",
			"componentType":5126,
			"count":170,
			"min":[
				-1,
				-1,
				-1
			],
			"max":[
				1,
				1,
				1
			],
			"type":"VEC3",
			"bufferView":1,
			"byteOffset":0
		},
		{
			"name":"RoomFurniture_03.002_Cube.017-Mesh_0_texcoords",
			"componentType":5126,
			"count":170,
			"min":[
				0.0025190000887960196,
				0.0053400001488626
			],
			"max":[
				0.9975579977035522,
				0.9956629872322083
			],
			"type":"VEC2",
			"bufferView":2,
			"byteOffset":0
		},
		{
			"name":"RoomFurniture_03.002_Cube.017-Mesh_0_indices",
			"componentType":5123,
			"count":324,
			"min":[
				0
			],
			"max":[
				169
			],
			"type":"SCALAR",
			"bufferView":3,
			"byteOffset":0
		}
	],
	"asset":{
		"generator":"obj2gltf",
		"version":"2.0"
	},
	"buffers":[
		{
			"name":"shelves",
			"byteLength":6088,
			"uri":"shelves.bin"
		}
	],
	"bufferViews":[
		{
			"name":"bufferView_0",
			"buffer":0,
			"byteLength":2040,
			"byteOffset":0,
			"byteStride":12,
			"target":34962
		},
		{
			"name":"bufferView_1",
			"buffer":0,
			"byteLength":2040,
			"byteOffset":2040,
			"byteStride":12,
			"target":34962
		},
		{
			"name":"bufferView_2",
			"buffer":0,
			"byteLength":1360,
			"byteOffset":4080,
			"byteStride":8,
			"target":34962
		},
		{
			"name":"bufferView_3",
			"buffer":0,
			"byteLength":648,
			"byteOffset":5440,
			"target":34963
		}
	],
	"images":[
		{
			"name":"shelves",
			"uri":"shelves.png",
			"mimeType":"image/png"
		},
		{
			"mimeType":"image/ktx2",
			"uri":"shelves.ktx2"
		}
	],
	"materials":[
		{
			"name":"Material.002",
			"pbrMetallicRoughness":{
				"baseColorTexture":{
					"index":0
				},
				"baseColorFactor":[
					1,
					1,
					1,
					1
				],
				"metallicFactor":0,
				"roughnessFactor":0.775
			},
			"emissiveFactor":[
				0,
				0,
				0
			],
			"alphaMode":"OPAQUE",
			"doubleSided":false
		}
	],
	"meshes":[
		{
			"name":"RoomFurniture_03.002_Cube.017-Mesh",
			"primitives":[
				{
					"attributes":{
						"POSITION":0,
						"NORMAL":1,
						"TEXCOORD_0":2
					},
					"indices":3,
					"material":0,
					"mode":4
				}
			]
		}
	],
	"nodes":[
		{
			"name":"RoomFurniture_03.002_Cube.017",
			"mesh":0
		}
	],
	"samplers":[
		{
			"magFilter":9729,
			"minFilter":9986,
			"wrapS":10497,
			"wrapT":10497
		}
	],
	"scene":0,
	"scenes":[
		{
			"nodes":[
				0
			]
		}
	],
	"textures":[
		{
			"name":"shelves",
			"sampler":0,
			"source":0,
			"extensions":{
				"KHR_texture_basisu":{
					"source":1
				}
			}
		}
	],
	"extensionsUsed":[
		"KHR_texture_basisu"
	]
}
