{
	"accessors":[
		{
			"name":"KitchenTable_02_Cube.118-Mesh_0_positions",
			"componentType":5126,
			"count":228,
			"min":[
				-0.75,
				-0.9967060089111328,
				-1.0926530361175537
			],
			"max":[
				0.75,
				0.0032939999364316463,
				1.0893770456314087
			],
			"type":"VEC3",
			"bufferView":0,
			"byteOffset":0
		},
		{
			"name":"KitchenTable_02_Cube.118-Mesh_0_normals",
			"componentType":5126,
			"count":228,
			"min":[
				-1,
				-1,
				-1
			],
			"max":[
				1,
				1,
				1
			],
			"type":"VEC3",
			"bufferView":1,
			"byteOffset":0
		},
		{
			"name":"KitchenTable_02_Cube.118-Mesh_0_texcoords",
			"componentType":5126,
			"count":228,
			"min":[
				0.00816699955612421,
				0.012149999849498272
			],
			"max":[
				0.9996430277824402,
				0.9935780167579651
			],
			"type":"VEC2",
			"bufferView":2,
			"byteOffset":0
		},
		{
			"name":"KitchenTable_02_Cube.118-Mesh_0_indices",
			"componentType":5123,
			"count":444,
			"min":[
				0
			],
			"max":[
				227
			],
			"type":"SCALAR",
			"bufferView":3,
			"byteOffset":0
		}
	],
	"asset":{
		"generator":"obj2gltf",
		"version":"2.0"
	},
	"buffers":[
		{
			"name":"table_wide",
			"byteLength":8184,
			"uri":"table_wide.bin"
		}
	],
	"bufferViews":[
		{
			"name":"bufferView_0",
			"buffer":0,
			"byteLength":2736,
			"byteOffset":0,
			"byteStride":12,
			"target":34962
		},
		{
			"name":"bufferView_1",
			"buffer":0,
			"byteLength":2736,
			"byteOffset":2736,
			"byteStride":12,
			"target":34962
		},
		{
			"name":"bufferView_2",
			"buffer":0,
			"byteLength":1824,
			"byteOffset":5472,
			"byteStride":8,
			"target":34962
		},
		{
			"name":"bufferView_3",
			"buffer":0,
			"byteLength":888,
			"byteOffset":7296,
			"target":34963
		}
	],
	"images":[
		{
			"name":"table_wide",
			"uri":"table_wide.png",
			"mimeType":"image/png"
		},
		{
			"mimeType":"image/ktx2",
			"uri":"table_wide.ktx2"
		}
	],
	"materials":[
		{
			"name":"InteriorPack_01.008",
			"pbrMetallicRoughness":{
				"baseColorTexture":{
					"index":0
				},
				"baseColorFactor":[
					1,
					1,
					1,
					1
				],
				"metallicFactor":0,
				"roughnessFactor":0.775
			},
			"emissiveFactor":[
				0,
				0,
				0
			],
			"alphaMode":"OPAQUE",
			"doubleSided":false
		}
	],
	"meshes":[
		{
			"name":"KitchenTable_02_Cube.118-Mesh",
			"primitives":[
				{
					"attributes":{
						"POSITION":0,
						"NORMAL":1,
						"TEXCOORD_0":2
					},
					"indices":3,
					"material":0,
					"mode":4
				}
			]
		}
	],
	"nodes":[
		{
			"name":"KitchenTable_02_Cube.118",
			"mesh":0
		}
	],
	"samplers":[
		{
			"magFilter":9729,
			"minFilter":9986,
			"wrapS":10497,
			"wrapT":10497
		}
	],
	"scene":0,
	"scenes":[
		{
			"nodes":[
				0
			]
		}
	],
	"textures":[
		{
			"name":"table_wide",
			"sampler":0,
			"source":0,
			"extensions":{
				"KHR_texture_basisu":{
					"source":1
				}
			}
		}
	],
	"extensionsUsed":[
		"KHR_texture_basisu"
	]
}
