{
    "asset": {
        "version": "2.0",
        "generator": "gltfpack 0.23"
    },
    "extensionsUsed": [
        "EXT_meshopt_compression",
        "KHR_texture_basisu"
    ],
    "extensionsRequired": [
        "KHR_texture_basisu"
    ],
    "buffers": [
        {
            "uri": "table_wide.bin",
            "byteLength": 4428
        },
        {
            "uri": "table_wide.fallback.bin",
            "byteLength": 8184,
            "extensions": {
                "EXT_meshopt_compression": {
                    "fallback": true
                }
            }
        }
    ],
    "bufferViews": [
        {
            "buffer": 1,
            "byteOffset": 0,
            "byteLength": 2736,
            "byteStride": 12,
            "target": 34962,
            "extensions": {
                "EXT_meshopt_compression": {
                    "buffer": 0,
                    "byteOffset": 0,
                    "byteLength": 1874,
                    "byteStride": 12,
                    "mode": "ATTRIBUTES",
                    "count": 228
                }
            }
        },
        {
            "buffer": 1,
            "byteOffset": 2736,
            "byteLength": 2736,
            "byteStride": 12,
            "target": 34962,
            "extensions": {
                "EXT_meshopt_compression": {
                    "buffer": 0,
                    "byteOffset": 1876,
                    "byteLength": 937,
                    "byteStride": 12,
                    "mode": "ATTRIBUTES",
                    "count": 228
                }
            }
        },
        {
            "buffer": 1,
            "byteOffset": 5472,
            "byteLength": 1824,
            "byteStride": 8,
            "target": 34962,
            "extensions": {
                "EXT_meshopt_compression": {
                    "buffer": 0,
                    "byteOffset": 2816,
                    "byteLength": 1443,
                    "byteStride": 8,
                    "mode": "ATTRIBUTES",
                    "count": 228
                }
            }
        },
        {
            "buffer": 1,
            "byteOffset": 7296,
            "byteLength": 888,
            "target": 34963,
            "extensions": {
                "EXT_meshopt_compression": {
                    "buffer": 0,
                    "byteOffset": 4260,
                    "byteLength": 167,
                    "byteStride": 2,
                    "mode": "TRIANGLES",
                    "count": 444
                }
            }
        }
    ],
    "accessors": [
        {
            "bufferView": 0,
            "byteOffset": 0,
            "componentType": 5126,
            "count": 228,
            "type": "VEC3",
            "min": [
                -0.75,
                -0.996706009,
                -1.09265304
            ],
            "max": [
                0.75,
                0.00329399994,
                1.08937705
            ]
        },
        {
            "bufferView": 1,
            "byteOffset": 0,
            "componentType": 5126,
            "count": 228,
            "type": "VEC3"
        },
        {
            "bufferView": 2,
            "byteOffset": 0,
            "componentType": 5126,
            "count": 228,
            "type": "VEC2"
        },
        {
            "bufferView": 3,
            "byteOffset": 0,
            "componentType": 5123,
            "count": 444,
            "type": "SCALAR"
        }
    ],
    "samplers": [
        {
            "magFilter": 9729,
            "minFilter": 9986
        }
    ],
    "images": [
        {
            "name": "table_wide",
            "uri": "table_wide.png"
        },
        {
            "uri": "table_wide.ktx2"
        }
    ],
    "textures": [
        {
            "sampler": 0,
            "source": 0,
            "extensions": {
                "KHR_texture_basisu": {
                    "source": 1
                }
            }
        }
    ],
    "materials": [
        {
            "name": "InteriorPack_01.008",
            "pbrMetallicRoughness": {
                "baseColorTexture": {
                    "index": 0
                },
                "metallicFactor": 0,
                "roughnessFactor": 0.774999976
            }
        }
    ],
    "meshes": [
        {
            "primitives": [
                {
                    "attributes": {
                        "POSITION": 0,
                        "NORMAL": 1,
                        "TEXCOORD_0": 2
                    },
                    "indices": 3,
                    "material": 0
                }
            ]
        }
    ],
    "nodes": [
        {
            "name": "KitchenTable_02_Cube.118",
            "mesh": 0
        }
    ],
    "scenes": [
        {
            "nodes": [
                0
            ]
        }
    ],
    "scene": 0
}