{
    "asset": {
        "version": "2.0",
        "generator": "gltfpack 0.23"
    },
    "extensionsUsed": [
        "EXT_meshopt_compression"
    ],
    "buffers": [
        {
            "uri": "upper_arm.bin",
            "byteLength": 9652
        },
        {
            "uri": "upper_arm.fallback.bin",
            "byteLength": 19224,
            "extensions": {
                "EXT_meshopt_compression": {
                    "fallback": true
                }
            }
        }
    ],
    "bufferViews": [
        {
            "buffer": 1,
            "byteOffset": 0,
            "byteLength": 9624,
            "byteStride": 12,
            "target": 34962,
            "extensions": {
                "EXT_meshopt_compression": {
                    "buffer": 0,
                    "byteOffset": 0,
                    "byteLength": 7711,
                    "byteStride": 12,
                    "mode": "ATTRIBUTES",
                    "count": 802
                }
            }
        },
        {
            "buffer": 1,
            "byteOffset": 9624,
            "byteLength": 9600,
            "target": 34963,
            "extensions": {
                "EXT_meshopt_compression": {
                    "buffer": 0,
                    "byteOffset": 7712,
                    "byteLength": 1938,
                    "byteStride": 2,
                    "mode": "TRIANGLES",
                    "count": 4800
                }
            }
        }
    ],
    "accessors": [
        {
            "bufferView": 0,
            "byteOffset": 0,
            "componentType": 5126,
            "count": 802,
            "type": "VEC3",
            "min": [
                -0.0522135794,
                -0.0868774578,
                -0.0762630403
            ],
            "max": [
                0.482858628,
                0.0825479701,
                0.076086998
            ]
        },
        {
            "bufferView": 1,
            "byteOffset": 0,
            "componentType": 5123,
            "count": 4800,
            "type": "SCALAR"
        }
    ],
    "materials": [
        {
            "name": "default",
            "pbrMetallicRoughness": {
                "baseColorFactor": [
                    0,
                    0.5,
                    0,
                    1
                ],
                "metallicFactor": 0
            }
        }
    ],
    "meshes": [
        {
            "primitives": [
                {
                    "attributes": {
                        "POSITION": 0
                    },
                    "indices": 1,
                    "material": 0
                }
            ]
        }
    ],
    "nodes": [
        {
            "name": "Node",
            "mesh": 0
        }
    ],
    "scenes": [
        {
            "nodes": [
                0
            ]
        }
    ],
    "scene": 0
}